<svg xmlns="http://www.w3.org/2000/svg" xmlns:svg="http://www.w3.org/2000/svg" id="svg903" width="1116.073" height="614.45" version="1.1" viewBox="0 0 295.294 162.573"><metadata id="metadata900"/><g id="layer1" transform="translate(50.885256,-66.034646)"><text style="font-size:76.82679749px;line-height:0%;font-family:Rockwell-ExtraBold;fill:#fff;fill-opacity:0;stroke:#000;stroke-width:1.32289565;stroke-miterlimit:10" id="text61" x="102.188" y="245.271" stroke-miterlimit="10" font-size="290.374" transform="rotate(-19.895482)">$</text><path style="fill-rule:evenodd;stroke-width:.26458332" id="path5" d="m 164.58474,66.034914 c -0.54324,-0.0049 -1.25529,0.292927 -2.28203,0.851628 -6.9532,3.783541 -13.82699,7.724047 -20.72021,11.616862 -0.53689,0.302948 -1.28918,0.65491 -1.42214,1.132747 -0.25037,0.900642 -0.52453,2.449513 -0.0827,2.778125 1.60044,1.190096 0.90016,1.884363 -0.091,2.877344 -1.49039,1.493044 -1.68605,3.293599 -0.77721,5.167643 0.89006,1.834356 2.07584,3.338711 4.39042,3.365169 0.50609,0.0056 1.34736,-0.0084 1.45521,0.239779 0.7022,1.62269 1.40686,3.278452 1.79421,4.99401 0.28364,1.257569 0.53459,2.082209 2.03399,2.273759 1.5359,0.1958 1.63004,1.00555 0.55398,2.16628 -1.13911,1.22793 -2.29811,2.51414 -3.06752,3.97702 -0.65934,1.25306 -1.43259,1.78164 -2.76987,2.07532 -2.96458,0.65194 -5.31503,2.29626 -5.95313,5.41569 -0.32305,1.57851 -1.11374,2.53822 -2.29854,3.38171 -0.94234,0.67072 -1.79514,1.5494 -2.83602,1.98437 -3.16865,1.32319 -5.6884,3.37695 -8.1194,5.79603 -2.11481,2.10529 -4.85081,3.59648 -7.3339,5.32474 -2.30672,1.60523 -2.31362,1.57851 -1.05834,4.23334 0.61498,1.30077 1.1982,2.6181 1.7942,3.92741 1.37681,0.54217 2.2706,-0.28053 3.32383,-1.00046 3.91212,-2.67573 7.09136,-6.49254 11.97239,-7.69772 0.59452,-0.14685 1.20835,-0.80215 1.52136,-1.3808 1.57427,-2.90962 4.52781,-4.1314 7.04453,-5.87871 0.36935,-0.25664 1.02274,-0.26518 1.50481,-0.17363 3.49832,0.66225 5.72307,-1.18771 7.58196,-3.77031 0.40581,-0.56409 0.69725,-1.63559 1.12448,-1.67845 1.59133,-0.15955 3.37444,-1.41486 4.78731,0.0827 0.99325,1.05198 1.69633,2.42768 2.32336,3.75377 0.18934,0.40111 -0.31054,1.1262 -0.48781,1.70326 -0.87842,2.86596 0.61635,6.32638 3.32383,7.30084 1.76371,0.63421 3.74914,0.56006 4.99401,2.4722 0.37147,0.57045 1.8456,0.76161 2.72852,0.61185 8.00549,-1.36234 15.04658,-4.7457 20.73671,-10.59987 0.79375,-0.8165 0.85651,-2.37979 1.16584,-3.62148 0.2399,-0.96176 0.12705,-2.05561 0.53742,-2.91869 1.82139,-3.82878 0.29236,-7.53116 -3.73724,-8.97102 -0.60987,-0.21776 -1.23296,-0.82517 -1.52135,-1.41387 -0.65035,-1.329 -1.06376,-2.77211 -1.63711,-4.14238 -0.61519,-1.47014 -1.53443,-2.18285 -3.03443,-1.00046 -0.17833,0.004 -0.3583,0.005 -0.53745,0.008 -0.76856,1.20474 -1.53776,2.40822 -2.30682,3.61322 l 0.0164,0.0165 c -0.53734,-0.0326 -1.07423,-0.0666 -1.61229,-0.0992 -0.16528,-0.36165 -0.33054,-0.72976 -0.49609,-1.09141 -2.35747,-3.41541 -4.7406,-6.816245 -7.028,-10.277408 -0.26617,-0.402431 -0.21889,-1.462021 0.091,-1.711523 1.30685,-1.055159 2.67472,-2.152518 4.20851,-2.761589 0.87789,-0.348456 1.52128,-0.264319 1.54617,-1.488281 0.0183,-0.898525 1.00513,-1.995488 0.72761,-2.645833 -0.77356,-1.807898 -1.79216,-3.599657 -3.09235,-5.060157 -0.82476,-0.9271 -1.08651,-1.313457 -0.26458,-2.323372 1.67053,-2.052373 1.07138,-4.188487 -0.15708,-6.201172 -1.17105,-1.918759 -2.86007,-2.478485 -5.05188,-1.86862 -0.43492,0.120914 -1.40237,-0.291042 -1.52963,-0.661458 -0.634,-1.846461 -1.07104,-2.695626 -1.9761,-2.703711 z m 16.92505,35.263996 c 0.005,-0.008 0.0111,-0.0164 0.0164,-0.0248 l -0.0331,0.0248 c 0.006,-1.1e-4 0.0111,1.1e-4 0.0164,0 z m -63.71497,38.31498 c -0.003,-0.001 -0.006,0.001 -0.008,0 l 0.0249,0.0413 c -0.006,-0.0135 -0.0103,-0.0278 -0.0164,-0.0413 z m 54.44627,-67.02227 c 0.14404,0.435504 0.292,0.875638 0.215,0.644921 0.2653,1.646503 0.005,2.414654 -0.79375,3.017904 -1.31286,0.992453 -2.05885,2.661643 -3.78687,3.166732 -0.44413,0.129646 -0.8659,0.317699 -1.31464,0.42168 -0.15213,0.03519 -0.46011,-0.06595 -0.49609,-0.173633 -0.0825,-0.246592 -0.16246,-0.673034 -0.0331,-0.785482 0.97499,-0.847196 1.37138,-2.010436 1.89343,-3.125391 0.65818,-1.406789 1.47148,-2.684661 3.3073,-2.736783 0.3417,-0.0098 0.67029,-0.281517 1.00869,-0.429948 z m 2.10016,9.326562 c 0.0204,0.09128 0.0341,0.183026 0.0579,0.289388 -0.25717,0.579173 -0.35671,1.358702 -0.80203,1.72806 -1.30781,1.084263 -2.75259,2.004219 -4.15062,2.976563 -0.0924,0.06403 -0.36621,0.04485 -0.39688,-0.01654 -0.0803,-0.162189 -0.16444,-0.462359 -0.0827,-0.545703 1.48678,-1.528762 2.6946,-3.366624 4.73771,-4.274674 0.19579,-0.08705 0.42524,-0.106561 0.63667,-0.157097 z m -27.58281,1.72806 c 0.11017,0.02236 0.31377,0.239086 0.47953,0.355534 -0.26392,0.509852 -0.47874,0.919758 -0.69453,1.331185 -0.98044,1.865577 -2.84867,2.370468 -4.63021,2.984831 -0.2081,0.0717 -0.64021,-0.09003 -0.7524,-0.272852 -0.10768,-0.176741 -0.0358,-0.611849 0.12401,-0.777213 0.87591,-0.906463 1.69135,-1.887009 2.92698,-2.38125 0.86109,-0.344488 1.65886,-0.844087 2.50526,-1.231966 0.0116,-0.0054 0.0257,-0.01146 0.0414,-0.0083 z M 185.7762,106.8965 c 0.0204,0.0913 0.0426,0.18276 0.0661,0.28939 -0.25717,0.57917 -0.36499,1.3587 -0.81028,1.72806 -1.30784,1.08426 -2.74434,2.01249 -4.14237,2.98483 -0.0924,0.064 -0.37447,0.0366 -0.40516,-0.0248 -0.0802,-0.16219 -0.16444,-0.46236 -0.0827,-0.5457 1.48669,-1.52877 2.70285,-3.36663 4.74596,-4.27468 0.19579,-0.0871 0.41699,-0.10656 0.62839,-0.15709 z m 5.64718,5.23379 c 0.14396,0.43524 0.292,0.86711 0.215,0.63665 0.26536,1.64651 0.005,2.41466 -0.79375,3.01791 -1.31286,0.99245 -2.05885,2.66991 -3.78687,3.175 -0.44424,0.12964 -0.8659,0.3177 -1.31464,0.42168 -0.15213,0.0352 -0.46011,-0.0742 -0.49609,-0.1819 -0.0825,-0.24659 -0.16245,-0.67304 -0.0331,-0.78548 0.97499,-0.8472 1.37139,-2.01044 1.89344,-3.1254 0.65828,-1.40678 1.47158,-2.68466 3.30729,-2.73678 0.34181,-0.01 0.67029,-0.27325 1.00869,-0.42168 z m -42.30851,0.79375 c 1.17417,0.0245 0.8197,1.44785 1.15755,2.03399 1.01812,1.76344 -0.61957,3.68558 -1.24851,5.01881 -1.12721,0 -1.28183,-0.47665 -1.87688,-1.00872 -0.26061,-0.23337 -0.005,-1.03783 0.0414,-2.36472 0.0791,-0.15425 0.50726,-0.92637 0.86816,-1.72806 0.28707,-0.63949 -0.49179,-1.77495 0.802,-1.93476 0.0927,-0.0114 0.17804,-0.0182 0.25633,-0.0165 z m -12.03854,10.28568 c 0.20584,-0.0386 0.45521,0.17449 0.71107,0.28112 -0.11245,0.18838 -0.18548,0.39859 -0.33073,0.5457 -2.70008,2.7268 -5.64589,5.15772 -8.98756,7.06934 -0.13062,0.0749 -0.3852,0.23663 -0.54573,0.33073 -0.15269,0.24851 -0.77517,0.97497 -0.99218,0.81855 -0.61788,-0.44556 -1.36404,-1.1596 -0.41339,-1.94303 0.99095,-0.81624 2.14278,-1.42763 3.16672,-2.20762 1.88225,-1.43404 3.69393,-2.96175 5.5976,-4.36562 0.47332,-0.34925 1.1801,-0.41487 1.7942,-0.52917 z m 31.66732,2.19108 c 0.0939,-0.0431 0.32292,0.21418 0.51263,0.34726 -0.26406,0.50986 -0.47062,0.92803 -0.68628,1.33946 -0.98047,1.86557 -2.85702,2.3622 -4.63846,2.97656 -0.20823,0.0717 -0.64016,-0.0818 -0.75243,-0.26458 -0.1076,-0.17674 -0.0275,-0.62012 0.1323,-0.78548 0.87582,-0.90647 1.69134,-1.87874 2.92697,-2.37299 0.86117,-0.34448 1.65886,-0.85235 2.50527,-1.24023 z"/><path style="fill-rule:evenodd;stroke-width:.26458332" id="path7" d="m 218.22901,197.03674 c -0.51753,-1.7e-4 -1.02838,0.009 -1.53792,0.0165 -12.6256,0.18388 -25.25863,0.24494 -37.86849,0.81855 -2.78677,0.12674 -5.49391,2.1342 -8.21859,3.31556 -0.28183,0.1225 -0.5615,0.51356 -0.62839,0.82683 -0.5816,2.73552 -1.13342,5.48534 -1.64539,8.23515 -0.0587,0.31697 0.23218,0.6776 0.24805,1.02526 0.10028,2.21589 0.30935,4.44474 0.17365,6.64766 -0.0575,0.94324 -0.82254,1.86134 -1.34774,2.74505 -0.36168,0.60881 -0.86127,1.1389 -1.2981,1.70326 0.69842,0.49662 1.33237,1.23289 2.10839,1.44694 2.05343,0.5662 4.15673,1.02228 6.26732,1.31464 15.6665,2.17488 31.40273,2.26034 47.14544,1.2237 4.05738,-0.26617 8.07701,-1.20511 12.07989,-2.00918 0.81672,-0.1643 1.47657,-1.11614 2.20761,-1.70325 -0.59743,-0.60034 -1.19624,-1.20161 -1.79422,-1.80248 l 0.0249,-0.0248 c -1.22264,0.67125 -2.37127,1.59279 -3.67935,1.9513 -1.95585,0.53631 -4.0195,0.71583 -6.04409,0.97565 -2.03226,0.26035 -2.46901,-0.25691 -2.40606,-2.3151 0.0773,-2.50481 0.0384,-5.01716 0.0331,-7.52409 0,-0.25823 -0.0322,-0.61641 -0.19844,-0.75241 -1.09212,-0.89508 -0.5652,-0.89965 0.42169,-1.00045 3.2639,-0.33444 6.52997,-0.69857 9.76477,-1.23197 0.63214,-0.10504 1.69878,-1.32695 1.60406,-1.49655 -1.37983,-2.46248 -1.75845,-5.22916 -2.54661,-7.86308 -0.0902,-0.30163 -0.4273,-0.61642 -0.72761,-0.75241 -2.51044,-1.13956 -4.96022,-2.48781 -7.58198,-3.26595 -1.43549,-0.42565 -3.00341,-0.50384 -4.55578,-0.50437 z m 4.24984,1.81074 c 0.19246,-0.008 0.32565,-0.004 0.43823,0.0496 0.28655,0.13732 0.87622,0.29223 0.55396,0.74414 -0.21825,0.30613 -0.0501,1.20081 -0.802,0.87644 -1.16682,-0.50298 -2.36768,-0.34198 -3.56362,-0.41342 -0.36116,-0.0209 -0.70798,-0.26928 -1.05834,-0.42168 -0.0595,-0.0262 -0.14716,-0.13182 -0.14054,-0.14056 0.0656,-0.091 0.1539,-0.24639 0.22325,-0.23977 1.35382,0.1307 2.6574,-0.17436 3.56359,-0.42995 0.34026,0 0.59304,-0.0168 0.78547,-0.0248 z m -0.52088,2.92696 c 0.77382,-0.0135 1.54829,0.008 2.32338,0.008 0.89477,0 1.79234,-7.9e-4 2.68716,0 0.84879,8e-4 1.5184,0.39364 2.04227,1.01699 0.0764,0.0916 -0.0803,0.5762 -0.215,0.62012 -1.10617,0.3601 -5.04976,0.70862 -6.21771,0.40514 -0.97181,-0.25294 -1.86968,-0.79077 -2.79463,-1.21543 -0.0919,-0.0421 -0.1505,-0.16364 -0.22326,-0.24804 0.11589,-0.0545 0.22741,-0.11635 0.34727,-0.1571 0.4228,-0.14367 0.8423,-0.37974 1.2733,-0.40514 0.25731,-0.0146 0.51928,-0.0203 0.77722,-0.0248 z m -42.67235,17.02428 c 0.19715,-0.0125 0.41566,-0.005 0.65321,0.0248 0.56766,0.0713 1.14154,0.12265 1.71153,0.1819 0.56989,0.0583 1.13605,0.12641 1.69498,0.23978 0.96372,0.19573 1.7798,1.53725 1.90997,2.71198 0.0119,0.1067 0.0164,0.2113 0.0164,0.31419 0,0.10573 -0.004,0.20628 -0.0164,0.30593 -0.0124,0.0971 -0.032,0.18353 -0.0579,0.27285 -0.0389,0.13695 -0.0928,0.25906 -0.16536,0.37207 -0.0238,0.037 -0.0469,0.0736 -0.0744,0.10749 -0.15756,0.19354 -0.42225,0.30142 -0.67803,0.37207 -0.2554,0.0722 -0.50112,0.11013 -0.62838,0.15709 -1.66344,-0.20161 -2.97455,-0.3548 -4.28292,-0.52916 -0.29149,-0.0388 -0.58957,-0.0791 -0.85989,-0.14056 -0.003,-5.3e-4 -0.006,5.3e-4 -0.008,0 -0.0654,-0.015 -0.12761,-0.0315 -0.19016,-0.0496 -0.003,-8e-4 -0.006,7.9e-4 -0.008,0 -0.12997,-0.0379 -0.25056,-0.0846 -0.36381,-0.14056 -0.0545,-0.0269 -0.1075,-0.0588 -0.15708,-0.0909 -0.003,-10e-4 -0.006,0.001 -0.008,0 -0.10112,-0.0662 -0.18783,-0.14725 -0.26458,-0.23978 -0.0402,-0.0485 -0.0751,-0.1002 -0.1075,-0.1571 -0.15698,-0.27589 -0.22059,-0.65071 -0.14055,-1.18235 0.0257,-0.16958 0.0568,-0.3369 0.091,-0.4961 0.003,-0.0142 0.005,-0.0273 0.008,-0.0413 0.0257,-0.11649 0.0509,-0.2295 0.0827,-0.339 0.0172,-0.0589 0.0387,-0.11697 0.0579,-0.17363 0.006,-0.0191 0.01,-0.0391 0.0167,-0.0579 0.008,-0.022 0.0167,-0.0445 0.0249,-0.0661 0.0481,-0.12757 0.10435,-0.25055 0.16537,-0.36381 0.006,-0.0108 0.0106,-0.0224 0.0164,-0.0331 0.0341,-0.0612 0.069,-0.11728 0.10747,-0.17363 0.0442,-0.0646 0.0984,-0.1241 0.14886,-0.1819 0.0374,-0.0428 0.0746,-0.0853 0.11573,-0.12403 0.004,-0.004 0.0122,-0.004 0.0167,-0.008 0.0175,-0.0161 0.0315,-0.0342 0.0496,-0.0496 0.0495,-0.0421 0.10231,-0.0794 0.15711,-0.11576 0.0644,-0.0427 0.13454,-0.0814 0.20669,-0.11575 0.0704,-0.0335 0.14494,-0.0658 0.22326,-0.0909 0.0822,-0.0264 0.16481,-0.0496 0.25632,-0.0661 0.0106,-0.002 0.0222,-0.006 0.0331,-0.008 0.0791,-0.013 0.16179,-0.0193 0.24802,-0.0248 z"/><path style="clip-rule:evenodd;fill-rule:evenodd;stroke-width:.26458332" id="path9" d="m 59.383814,227.39245 c -4.25212,0.12092 -8.50556,0.33946 -12.757412,0.31009 -1.418166,-0.0103 -96.096402,-0.58287 -97.511658,-0.93688 1.2192,-0.56119 95.680477,-1.25678 96.931427,-1.73329 0.807508,-0.30745 1.697038,-0.40111 2.54926,-0.59002 -0.600339,-0.71782 -1.144058,-1.49252 -1.810543,-2.14048 -1.91135,-1.8587 -3.906573,-3.63088 -5.794904,-5.51127 -0.723107,-0.72099 -1.246188,-1.64174 -1.861344,-2.47174 1.036108,0.27226 2.128573,0.41698 3.092714,0.84852 1.210734,0.54107 2.320661,1.31101 3.466042,1.99522 1.06389,0.63606 1.808427,0.45376 2.31775,-0.74374 1.240898,-2.91862 2.534708,-5.8166 3.792268,-8.72913 0.16802,-0.38921 0.41117,-1.14724 0.35137,-1.17555 -1.98384,-0.95038 -0.14817,-3.51049 -1.92061,-4.5294 -0.17462,-0.10081 -0.20293,-0.45641 -0.29924,-0.69294 0.32147,-0.006 0.70194,-0.12859 0.95435,5.3e-4 2.05687,1.05171 4.16216,2.03702 6.10738,3.27104 1.51659,0.96176 2.68367,0.83238 3.68802,-0.53843 1.0467,-1.42875 2.06375,-2.89295 2.94429,-4.42754 2.29896,-4.01055 4.49209,-8.08275 6.78047,-12.09992 0.87551,-1.53749 1.2827,-2.81781 -0.94244,-3.47001 -0.21352,-0.0624 -0.3691,-0.32306 -0.55113,-0.4908 0.27676,-0.13018 0.62045,-0.43815 0.82047,-0.3638 1.95924,0.73527 2.15398,-0.30137 2.43946,-1.93623 0.4998,-2.86041 1.47849,-5.63377 2.09788,-8.47857 0.35587,-1.63724 0.34449,-3.35174 0.61251,-5.01306 0.10293,-0.63712 0.39635,-1.58591 0.83212,-1.73885 0.50112,-0.17462 1.33482,0.26142 1.8796,0.63924 0.64505,0.44847 1.31471,1.02738 1.66211,1.70789 1.48617,2.91359 4.02246,4.86013 6.36746,6.94002 1.57427,1.39621 3.53775,2.34262 5.25304,3.59304 2.33839,1.70418 4.53681,3.6105 6.94029,5.21256 0.87709,0.58393 2.16984,0.53895 3.270246,0.79533 0.30109,0.0699 0.59002,0.1913 0.88476,0.28946 -0.20531,0.27173 -0.35242,0.66807 -0.62547,0.79481 -1.28429,0.59584 -2.567246,1.24222 -3.919006,1.63618 -1.81504,0.52758 -2.56831,1.80155 -2.18096,3.41683 0.75962,3.17182 1.80366,6.27671 2.76807,9.39641 0.20585,0.66702 0.68977,1.25677 0.84561,1.92908 0.55615,2.39686 0.95356,4.83129 1.545686,7.21916 0.91388,3.68564 2.7813,4.5548 6.45108,3.46233 1.79572,-0.53472 3.72268,-0.62838 5.59117,-0.92181 l -0.0196,-0.0228 c -0.33999,1.96744 0.26749,2.99111 2.23679,3.27528 1.211,0.17462 2.47835,-0.0791 3.71184,0 0.3929,0.0259 0.75591,0.50694 1.13294,0.7792 -0.36512,0.31009 -0.72522,0.87603 -1.09537,0.88265 -1.14432,0.0196 -2.31802,-0.36645 -3.43218,-0.22331 -0.91889,0.11827 -2.3188,0.60007 -2.50666,1.22211 -0.21458,0.71014 0.43974,2.11508 1.13903,2.57545 1.34118,0.88477 2.93079,1.56898 4.50744,1.88145 3.45943,0.68475 6.97733,1.06707 10.46348,1.62428 0.46831,0.0743 0.88953,0.44133 1.33244,0.67284 -0.46513,0.27384 -0.91519,0.74983 -1.39885,0.7866 -2.21086,0.1696 -4.43071,0.27967 -6.64792,0.29501 -7.81473,0.0516 -15.63026,0.0511 -23.444986,0.09 -0.41434,0.002 -0.82841,0.17992 -1.24328,0.27649 0.39873,0.24606 0.78449,0.67839 1.19777,0.7075 2.396056,0.16748 4.797686,0.29871 7.198776,0.32967 3.54965,0.0466 7.10221,0.0299 10.6516,-0.019 4.08252,-0.0564 8.16398,-0.17622 12.24597,-0.26935 0.44291,-0.0103 0.89773,-0.0937 1.32265,-0.0145 0.30322,0.0569 0.56595,0.3302 0.84614,0.508 -0.27384,0.16431 -0.53472,0.44027 -0.82312,0.4744 -1.93966,0.22886 -3.88408,0.55562 -5.8293,0.5752 -8.43888,0.0831 -16.87883,0.0802 -25.318236,0.0825 -0.79296,5.3e-4 -1.72112,0.0423 -2.34156,-0.33628 -0.60431,-0.36804 -1.30308,-1.28376 -1.25545,-1.90421 0.25797,-3.3692 0.72681,-6.72412 2.52439,-9.711 0.55959,-0.92922 0.64055,-1.6129 -0.38762,-2.4892 -0.76491,-0.6522 -1.28005,-1.89124 -1.41869,-2.93423 -0.93557,-7.04982 -1.70339,-14.12161 -2.63181,-21.17328 -0.13706,-1.0422 -0.69295,-2.10847 -1.30228,-2.9935 -1.45468,-2.11402 -3.02578,-4.15105 -4.60931,-6.17326 -1.26497,-1.61501 -1.64491,-1.58035 -2.5564,0.20558 -0.48313,0.94615 -0.91361,1.94707 -1.18004,2.97233 -1.07236,4.13094 -3.16283,7.68059 -5.79279,11.01117 -4.13359,5.23478 -8.10419,10.59894 -12.17983,15.87976 -1.83409,2.37596 -1.86902,2.3368 -4.50718,0.95912 -0.35269,-0.18389 -0.77602,-0.23152 -1.16681,-0.34211 0.0413,0.41301 0.008,0.85116 0.13705,1.23507 0.48446,1.44225 1.75181,1.30175 2.89402,1.3261 2.62704,0.0564 5.04507,0.39079 7.06411,2.47279 2.14286,2.21033 1.86822,5.08953 2.57889,7.68694 0.0807,0.29342 -1.00647,1.22317 -1.64809,1.34303 -2.96122,0.55192 -5.95736,0.91889 -8.94053,1.35863 -0.86704,0.12806 -1.73064,0.27702 -2.59583,0.41646 z"/><path style="fill-rule:evenodd;stroke-width:.26458332" id="path11" d="m 94.387454,125.22717 c -1.94387,0.48815 -3.9665,0.77926 -5.80427,1.52962 -1.39015,0.56832 -3.44951,1.66238 -2.2986,3.40651 0.60328,0.9144 2.96765,0.67846 4.53927,0.93431 0.14341,0.0233 0.30753,-0.15498 0.47131,-0.22324 2.40559,-1.00251 3.54851,-0.50754 4.35734,2.00918 0.6731,2.09497 0.95454,4.36939 1.94302,6.29212 1.24354,2.41776 1.40256,4.9186 1.52135,7.47448 0.12042,2.56672 0.14023,5.14489 0.1323,7.71426 -0.005,1.46976 0.69064,2.12295 2.091866,2.14147 2.85882,0.0376 7.52562,-3.8819 7.6812,-6.63939 0.0508,-0.90911 -0.0789,-1.16218 1.02526,-1.0418 3.52025,0.38206 5.84417,-1.48735 7.51581,-4.38216 l 0.0249,0.0248 c -0.16873,-0.37075 -0.32814,-0.74545 -0.4961,-1.11621 -0.36398,0.32896 -0.72797,0.66299 -1.0914,0.99219 -0.6554,-2.03043 0.15846,-3.51207 1.74458,-4.69636 -0.85347,-0.11523 -1.72744,-0.38975 -2.5549,-0.28939 -1.72825,0.20955 -2.80495,-0.1766 -3.45609,-2.00091 -0.59372,-1.66237 -1.57731,-3.21072 -2.56318,-4.69635 -0.65722,-0.99007 -1.36887,-1.34541 -1.61229,0.42995 -0.0617,0.44185 -1.16702,0.79877 -1.8438,1.05833 -0.18471,0.0712 -0.68874,-0.28892 -0.82682,-0.56224 -0.93292,-1.83912 -1.68368,-3.78625 -2.76162,-5.53144 -0.44077,-0.71438 -1.49905,-1.19526 -2.372966,-1.47175 -1.76344,-0.55801 -3.58854,-0.90527 -5.39088,-1.33945 z m 23.357756,14.41979 c 0.0217,0.003 0.0444,0.005 0.0661,0.008 l -0.0249,-0.0413 c -0.0143,0.0104 -0.0273,0.0226 -0.0413,0.0331 z m -18.314116,-6.34173 c 0.33968,0.0111 0.757156,0.34973 1.314636,1.00872 1.1875,1.404 2.36794,2.54835 4.11758,2.4474 0.13456,-0.008 0.27186,-0.0183 0.41341,-0.0413 0.2831,-0.046 0.58713,-0.1273 0.90125,-0.23978 0.0238,-0.009 0.049,-0.0119 0.0744,-0.0165 0.0282,-0.005 0.0612,-0.008 0.091,-0.008 0.41659,-0.006 0.9755,0.38543 1.45521,0.55397 -0.34713,0.43815 -0.60986,1.02023 -1.05833,1.28984 -1.20965,0.72742 -2.28132,1.78124 -3.6463,2.12494 -0.12409,0.0312 -0.25107,0.0557 -0.38034,0.0744 -0.51488,0.0734 -1.0804,0.0467 -1.70326,-0.14056 -0.30157,-0.0906 -0.57158,-0.18058 -0.81854,-0.27285 -0.12351,-0.0461 -0.236666,-0.0923 -0.347286,-0.14056 -0.22122,-0.0964 -0.42246,-0.20278 -0.59531,-0.3142 -0.0864,-0.0557 -0.16468,-0.11251 -0.23977,-0.17363 -0.22527,-0.18334 -0.40489,-0.39299 -0.53742,-0.64492 -0.0442,-0.084 -0.0809,-0.17076 -0.11578,-0.26458 -0.20939,-0.56289 -0.25816,-1.3164 -0.19844,-2.37299 0.0447,-0.2614 0.0889,-0.7909 0.23151,-1.29811 0.19825,-0.70703 0.40315,-1.17657 0.64495,-1.4056 0.0806,-0.0763 0.16542,-0.1255 0.2563,-0.14883 0.0454,-0.0117 0.092,-0.0181 0.14057,-0.0165 z"/><path style="clip-rule:evenodd;fill-rule:evenodd;stroke-width:.26458332" id="path13" d="m 66.596094,135.70586 c -0.17436,-1.20518 -0.3593,-2.40903 -0.51805,-3.61659 -0.0386,-0.29872 0.008,-0.60934 0.0151,-0.91414 0.25638,0.0484 0.61066,0.006 0.75221,0.15981 0.70194,0.76332 1.45415,1.51342 1.99152,2.38866 1.34223,2.18572 2.6916,4.38097 3.82349,6.67755 1.05225,2.1344 1.87193,4.38838 2.70589,6.62305 0.43551,1.1684 -0.17674,2.02936 -1.33826,2.07539 -1.74149,0.0693 -3.58775,0.1659 -5.20462,-0.33946 -0.89694,-0.28019 -1.90394,-1.70285 -2.02168,-2.70827"/><path style="clip-rule:evenodd;fill-rule:evenodd;stroke-width:.26458332" id="path15" d="m 71.098244,172.33901 c -0.38761,1.35123 -14.60235,10.28356 -15.77605,9.69142 -0.85195,-0.42994 -1.62956,-2.43231 -1.81186,-3.35729 -0.32465,-1.65365 16.26129,-13.78374 17.88239,-14.23591 0.25929,-0.0722 0.89191,0.38179 0.98346,0.6977 0.1643,0.57044 0.0497,1.22106 0.0513,1.8386"/><path style="clip-rule:evenodd;fill-rule:evenodd;stroke-width:.26458332" id="path17" d="m 59.357884,227.41521 0.0262,-0.0228 z"/><path style="clip-rule:evenodd;fill-rule:evenodd;stroke-width:.26458332" id="path19" d="m 181.52871,101.27166 -0.0312,0.0278 z"/><path style="clip-rule:evenodd;fill-rule:evenodd;stroke-width:.26458332" id="path21" d="m 234.14878,220.81518 -0.0283,0.0283 z"/><path style="clip-rule:evenodd;fill-rule:evenodd;stroke-width:.26458332" id="path23" d="m 73.394564,115.73167 0.023,0.0254 z"/><path style="clip-rule:evenodd;fill-rule:evenodd;stroke-width:.26458332" id="path25" d="m 94.386074,125.22386 -0.0257,0.023 z"/><path style="clip-rule:evenodd;fill:#fff;fill-rule:evenodd;stroke-width:.26458332" id="path27" d="m 182.02798,101.30844 0.022,-0.0198 z"/><path style="clip-rule:evenodd;fill:#fff;fill-rule:evenodd;stroke-width:.26458332" id="path29" d="m 177.11361,103.74075 0.0262,0.0286 z"/><path style="clip-rule:evenodd;fill:#fff;fill-rule:evenodd;stroke-width:.26458332" id="path31" d="m 177.60044,104.83189 0.0246,0.0272 z"/><path style="clip-rule:evenodd;fill:#fff;fill-rule:evenodd;stroke-width:.26458332" id="path33" d="m 179.20699,104.91127 0.0159,0.0188 z"/><path style="clip-rule:evenodd;fill:#fff;fill-rule:evenodd;stroke-width:.26458332" id="path39" d="m 81.146594,109.65604 0.0267,0.0296 z"/><path id="path41" d="m 99.960844,156.97862 c 0,0 -0.89032,2.99006 -0.38285,7.64646 0.507206,4.65614 9.812336,15.89405 10.462946,17.30428 0.65087,1.41023 6.3709,28.017 6.38281,28.61892 0.0114,0.60246 -3.03451,1.47029 -3.03451,1.47029 0,0 1.87775,-0.85275 1.88648,-1.85473 0.009,-1.0025 -4.39579,-24.58349 -6.61009,-27.3595 -2.21429,-2.77601 -10.629096,-13.70303 -10.691536,-18.2507 -0.0368,-2.64689 0.0317,-6.27247 0.60616,-7.59222 0.41195,-0.94694 1.38059,0.0172 1.38059,0.0172 z" style="stroke-width:.26458332"/><path style="clip-rule:evenodd;fill-rule:evenodd;stroke-width:.26458332" id="path43" d="m 121.77283,215.59574 c 0,0 8.32405,-0.54927 9.65015,2.71754 1.32609,3.26654 1.31788,6.47409 1.31788,6.47409 0,0 1.49146,1.38641 1.51236,2.07221 0.0206,0.68527 -1.12024,1.15279 -1.12024,1.15279 l -1.30202,-0.0574 c 0,0 0.92499,-0.51118 0.82127,-1.16629 -0.10372,-0.6559 -1.1258,-1.07235 -1.3753,-1.53114 -0.24924,-0.45932 -1.88648,-3.29909 -2.42385,-6.25951 -0.53737,-2.96095 -7.08025,-3.40228 -7.08025,-3.40228 z"/><path id="path45" d="m 69.321034,175.45104 c 0,0 -1.32027,7.02548 -1.84467,7.80468 -0.52414,0.77973 -18.17767,15.10242 -18.521364,16.82538 -0.343694,1.7235 0.222514,4.20688 -0.200554,4.53576 -0.422804,0.32914 -10.243608,7.96845 -10.243608,7.96845 0,0 2.213768,1.03002 3.201723,0.14155 0.988218,-0.88873 7.593543,-6.48229 7.934593,-7.13502 0.34104,-0.65272 -0.603783,-2.47729 0.20611,-4.66883 0.81015,-2.19155 17.83477,-16.41025 18.27239,-17.23708 0.43788,-0.82709 1.19538,-8.23489 1.19538,-8.23489 z" style="stroke-width:.26458332"/><path style="clip-rule:evenodd;fill-rule:evenodd;stroke-width:.26458332" id="path47" d="m 73.032614,111.99046 -0.14129,3.20172 c 0,0 -11.09477,5.04349 -11.07387,8.60425 0.0212,3.56076 3.6531,21.36511 3.6531,21.36511 l 0.64135,2.43443 c 0,0 -3.50811,-19.40269 -2.35717,-23.27275 1.15147,-3.87006 7.69329,-7.05644 9.58823,-7.41813 1.89442,-0.36142 6.15183,0.0939 6.15183,0.0939 0,0 -4.4868,-1.31259 -5.14509,-2.54423 -0.65801,-1.23216 -1.31709,-2.46433 -1.31709,-2.46433 z"/><path style="clip-rule:evenodd;fill-rule:evenodd;stroke-width:.26458332" id="path49" d="m 85.055284,108.58315 c 0.1217,-0.0484 0.0728,2.42438 0.64558,3.15569 0.57282,0.73131 7.5647,2.35162 9.1522,2.92629 1.58724,0.57441 7.514426,8.70453 7.514426,8.70453 l 4.7072,6.86567 c 0,0 -4.68709,-4.60613 -5.96953,-6.4172 -1.283746,-1.81134 -5.111746,-7.5901 -7.698576,-8.41031 -2.58603,-0.82021 -5.12312,-1.10517 -6.81064,-0.9062 -1.68751,0.19923 -4.97734,0.58685 -4.97734,0.58685 0,0 2.29368,-1.1864 2.71172,-1.9984 0.41804,-0.81148 0.60325,-4.45903 0.72496,-4.50692 z"/><path style="clip-rule:evenodd;fill-rule:evenodd;stroke-width:.26458332" id="path51" d="m 75.893814,150.07776 c 0,0 0.28787,3.55177 -0.18468,4.18068 -0.47254,0.62839 -2.8829,3.70364 -2.9419,5.03793 -0.0593,1.33377 -0.36936,4.27196 -0.18097,4.09125 0.18732,-0.1815 0.0505,-1.99469 1.00409,-4.055 0.95356,-2.05978 2.88766,-4.327 3.12103,-5.56498 0.23256,-1.23719 -0.81757,-3.68988 -0.81757,-3.68988 z"/><path style="clip-rule:evenodd;fill-rule:evenodd;stroke-width:.26458332" id="path53" d="m 115.21354,132.26204 c 0,0 -1.63274,-1.52506 -2.43416,-0.98981 -0.80222,0.53499 -1.1729,1.86823 -1.1729,1.86823 l 0.17647,0.7112 c 0,0 0.74322,-1.55284 1.0721,-1.95342 0.32887,-0.40058 2.35849,0.3638 2.35849,0.3638 z"/><path style="clip-rule:evenodd;fill-rule:evenodd;stroke-width:.26458332" id="path55" d="m 230.48192,212.01566 c 0,0 2.22488,-0.63605 2.58868,-0.78607 0.3638,-0.15029 0.73951,-0.71067 0.84376,-0.75142 0.10477,-0.0408 0.19473,9.81234 0.19473,9.81234 0,0 -0.47228,-8.24045 -0.69136,-8.39999 -0.21907,-0.15955 -2.93581,0.12514 -2.93581,0.12514 z"/><path style="clip-rule:evenodd;fill-rule:evenodd;stroke-width:.26458332" id="path57" d="m 173.31736,90.046447 c 0,0 2.37305,-1.27635 2.76543,-1.080558 0.39211,0.195527 1.3507,4.186766 2.3659,5.941218 1.01547,1.754982 3.07287,4.947709 3.12288,5.395643 0.0497,0.44794 -1.50468,2.33945 -1.50468,2.33945 0,0 0.4953,-2.11667 0.55694,-2.51513 0.0622,-0.397931 -2.71621,-3.060433 -3.52901,-4.8342 -0.8128,-1.773767 -1.24037,-5.345113 -1.63565,-5.329767 -0.39529,0.01535 -2.14181,0.08334 -2.14181,0.08334 z"/><text style="font-size:76.82679749px;line-height:0%;font-family:Rockwell-ExtraBold;stroke-width:.26458332" id="text63" x="99.314" y="243.106" font-size="290.374" transform="rotate(-19.895482)">$</text><polygon style="clip-rule:evenodd;fill-rule:evenodd" id="polygon97" points="1388.598 599.843 1388.516 604.081 1561.396 606.402 1561.39 599.843" transform="matrix(0.26458333,0,0,0.26458333,-314.03826,48.249953)"/><path style="clip-rule:evenodd;fill-rule:evenodd;stroke-width:.26458332" id="path99" d="m 169.3383,206.95842 h -1.50416 -52.38459 l 0.22701,1.79414 52.02635,-0.72523 1.72085,-0.013 c 0.0807,-0.3519 -0.0233,-0.70406 -0.0855,-1.05595 z"/><path style="clip-rule:evenodd;fill-rule:evenodd;stroke-width:.26458332" id="path101" d="m 244.4072,206.95842 c -0.17859,-0.24712 -12.55792,-0.29845 -12.55792,-0.29845 0.0114,0.0519 -0.0172,0.70987 0,0.76438 0,0 12.73652,-0.21908 12.55792,-0.46593 z"/><path id="circle123" d="m 76.015474,74.385825 c -9.73913,0 -17.63615,7.897025 -17.63615,17.636133 0,9.739112 7.89702,17.636132 17.63615,17.636132 9.7391,0 17.63612,-7.89702 17.63612,-17.636132 0,-9.739108 -7.89702,-17.636133 -17.63612,-17.636133 z m 2.1001,5.432227 c 7.77492,0 14.08081,6.305902 14.08081,14.080794 0,7.774894 -6.30589,14.072524 -14.08081,14.072524 -7.77489,0 -14.0725,-6.29763 -14.0725,-14.072524 0,-7.774892 6.29761,-14.080794 14.0725,-14.080794 z" style="stroke-width:.26458332"/></g></svg>