<?xml version="1.0" encoding="UTF-8" standalone="no"?>
<svg
   version="1.1"
   viewBox="0 0 633.53998 286.00168"
   id="svg126"
   sodipodi:docname="full-color-no-free-dot-law.svg"
   width="633.53998"
   height="286.00168"
   inkscape:version="1.2.2 (b0a8486541, 2022-12-01)"
   xmlns:inkscape="http://www.inkscape.org/namespaces/inkscape"
   xmlns:sodipodi="http://sodipodi.sourceforge.net/DTD/sodipodi-0.dtd"
   xmlns="http://www.w3.org/2000/svg"
   xmlns:svg="http://www.w3.org/2000/svg">
  <sodipodi:namedview
     id="namedview128"
     pagecolor="#505050"
     bordercolor="#eeeeee"
     borderopacity="1"
     inkscape:showpageshadow="0"
     inkscape:pageopacity="0"
     inkscape:pagecheckerboard="0"
     inkscape:deskcolor="#d1d1d1"
     showgrid="false"
     inkscape:zoom="0.78666667"
     inkscape:cx="317.79661"
     inkscape:cy="144.27966"
     inkscape:window-width="1920"
     inkscape:window-height="1137"
     inkscape:window-x="0"
     inkscape:window-y="0"
     inkscape:window-maximized="1"
     inkscape:current-layer="svg126" />
  <defs
     id="defs4">
    <style
       id="style2">
      .cls-1 {
        fill: #968f7f;
      }

      .cls-1, .cls-2, .cls-3 {
        stroke-width: 0px;
      }

      .cls-2 {
        fill: #c44536;
      }

      .cls-3 {
        fill: #848582;
      }
    </style>
  </defs>
  <g
     id="g16"
     transform="translate(-13.23,-6.9983216)">
    <rect
       class="cls-3"
       x="157.52"
       y="266.32001"
       width="7.4099998"
       height="26.68"
       id="rect6" />
    <rect
       class="cls-3"
       x="82.099998"
       y="266.32001"
       width="7.4099998"
       height="26.68"
       id="rect8" />
    <rect
       class="cls-3"
       x="100.95"
       y="266.32001"
       width="7.4099998"
       height="26.68"
       id="rect10" />
    <rect
       class="cls-2"
       x="119.81"
       y="266.32001"
       width="7.4099998"
       height="26.68"
       id="rect12" />
    <rect
       class="cls-3"
       x="138.66"
       y="266.32001"
       width="7.4099998"
       height="26.68"
       id="rect14" />
  </g>
  <g
     id="g48"
     transform="translate(-13.23,-6.9983216)">
    <g
       id="g26">
      <path
         class="cls-2"
         d="m 76.4,223.31 c 0,-3.13 0.57,-6.23 1.7,-9.29 1.13,-3.06 2.78,-5.79 4.95,-8.2 2.17,-2.41 4.82,-4.36 7.95,-5.85 3.13,-1.49 6.7,-2.24 10.7,-2.24 4.72,0 8.8,1.04 12.25,3.11 3.44,2.07 6.01,4.77 7.7,8.09 l -7.66,5.28 c -0.68,-1.45 -1.49,-2.66 -2.46,-3.65 -0.96,-0.99 -2,-1.77 -3.11,-2.35 -1.11,-0.58 -2.27,-1 -3.47,-1.26 -1.21,-0.26 -2.39,-0.4 -3.54,-0.4 -2.51,0 -4.69,0.51 -6.54,1.52 -1.86,1.01 -3.4,2.33 -4.63,3.94 -1.23,1.62 -2.16,3.45 -2.78,5.49 -0.63,2.05 -0.94,4.08 -0.94,6.11 0,2.27 0.36,4.44 1.08,6.54 0.72,2.1 1.75,3.94 3.07,5.53 1.32,1.59 2.91,2.87 4.77,3.83 1.85,0.96 3.89,1.45 6.11,1.45 1.16,0 2.36,-0.14 3.61,-0.43 1.25,-0.29 2.44,-0.75 3.58,-1.37 1.13,-0.63 2.18,-1.43 3.14,-2.42 0.96,-0.99 1.73,-2.18 2.31,-3.58 l 8.17,4.7 c -0.82,1.93 -1.99,3.63 -3.51,5.1 -1.52,1.47 -3.23,2.71 -5.13,3.72 -1.9,1.01 -3.94,1.78 -6.11,2.31 -2.17,0.53 -4.29,0.8 -6.36,0.8 -3.66,0 -7.01,-0.77 -10.05,-2.31 -3.04,-1.54 -5.65,-3.55 -7.84,-6.03 -2.19,-2.48 -3.9,-5.3 -5.13,-8.46 -1.23,-3.16 -1.84,-6.37 -1.84,-9.65 z"
         id="path18" />
      <path
         class="cls-2"
         d="m 150.98,249.69 c -3.76,0 -7.17,-0.73 -10.23,-2.2 -3.06,-1.47 -5.69,-3.42 -7.88,-5.85 -2.19,-2.43 -3.89,-5.22 -5.1,-8.35 -1.21,-3.13 -1.81,-6.33 -1.81,-9.61 0,-3.28 0.64,-6.7 1.92,-9.83 1.28,-3.13 3.04,-5.9 5.28,-8.31 2.24,-2.41 4.9,-4.32 7.99,-5.75 3.08,-1.42 6.43,-2.13 10.05,-2.13 3.62,0 7.09,0.76 10.15,2.28 3.06,1.52 5.67,3.51 7.84,5.96 2.17,2.46 3.85,5.25 5.06,8.38 1.2,3.13 1.81,6.31 1.81,9.54 0,3.42 -0.63,6.69 -1.88,9.79 -1.25,3.11 -2.99,5.85 -5.2,8.24 -2.22,2.38 -4.87,4.29 -7.95,5.71 -3.08,1.42 -6.43,2.13 -10.05,2.13 z M 136.1,223.67 c 0,2.22 0.34,4.36 1.01,6.43 0.67,2.07 1.65,3.9 2.93,5.49 1.28,1.59 2.84,2.87 4.7,3.83 1.85,0.96 3.96,1.45 6.32,1.45 2.36,0 4.54,-0.49 6.4,-1.48 1.85,-0.99 3.42,-2.3 4.7,-3.94 1.28,-1.64 2.24,-3.48 2.89,-5.53 0.65,-2.05 0.98,-4.13 0.98,-6.25 0,-2.12 -0.35,-4.36 -1.05,-6.43 -0.7,-2.07 -1.69,-3.9 -2.96,-5.49 -1.28,-1.59 -2.84,-2.85 -4.7,-3.79 -1.86,-0.94 -3.94,-1.41 -6.25,-1.41 -2.31,0 -4.55,0.49 -6.43,1.48 -1.88,0.99 -3.45,2.29 -4.7,3.9 -1.25,1.62 -2.2,3.45 -2.85,5.49 -0.65,2.05 -0.98,4.13 -0.98,6.25 z"
         id="path20" />
      <path
         class="cls-2"
         d="m 205.4,240.87 c 2.36,0 4.35,-0.48 5.96,-1.45 1.61,-0.96 2.91,-2.22 3.9,-3.76 0.99,-1.54 1.69,-3.31 2.1,-5.31 0.41,-2 0.61,-4.06 0.61,-6.18 v -26.16 h 9.9 v 26.16 c 0,3.52 -0.42,6.82 -1.26,9.9 -0.84,3.08 -2.17,5.78 -3.97,8.09 -1.8,2.31 -4.13,4.14 -6.97,5.49 -2.84,1.35 -6.24,2.02 -10.19,2.02 -3.95,0 -7.58,-0.71 -10.44,-2.13 -2.87,-1.42 -5.19,-3.3 -6.97,-5.64 -1.78,-2.34 -3.07,-5.05 -3.87,-8.13 -0.79,-3.08 -1.19,-6.29 -1.19,-9.61 V 198 h 9.97 v 26.16 c 0,2.17 0.2,4.25 0.61,6.25 0.41,2 1.11,3.77 2.1,5.31 0.99,1.54 2.28,2.78 3.87,3.72 1.59,0.94 3.54,1.41 5.85,1.41 z"
         id="path22" />
      <path
         class="cls-2"
         d="m 237.93,249.33 v -51.31 h 22.69 c 2.36,0 4.54,0.49 6.54,1.48 2,0.99 3.72,2.29 5.17,3.9 1.45,1.62 2.58,3.45 3.4,5.49 0.82,2.05 1.23,4.11 1.23,6.18 0,3.32 -0.83,6.35 -2.49,9.07 -1.66,2.72 -3.92,4.69 -6.76,5.89 l 11.71,19.3 h -11.2 l -10.48,-17.2 h -9.83 v 17.2 h -9.97 z m 9.97,-25.95 h 12.5 c 0.91,0 1.77,-0.22 2.57,-0.65 0.79,-0.43 1.48,-1.02 2.06,-1.77 0.58,-0.75 1.04,-1.63 1.37,-2.64 0.34,-1.01 0.51,-2.1 0.51,-3.25 0,-1.15 -0.19,-2.31 -0.58,-3.33 -0.39,-1.01 -0.9,-1.89 -1.55,-2.64 -0.65,-0.75 -1.4,-1.32 -2.24,-1.73 -0.84,-0.41 -1.7,-0.61 -2.57,-0.61 H 247.9 Z"
         id="path24" />
    </g>
    <path
       class="cls-2"
       d="m 323.06,206.76 h -16.41 v 42.57 h -9.9 v -42.57 h -16.41 v -8.74 h 42.71 v 8.74 z"
       id="path28" />
    <g
       id="g46">
      <path
         class="cls-2"
         d="m 342.21,249.33 v -51.31 h 5.06 v 46.83 h 29.63 v 4.48 z"
         id="path30" />
      <path
         class="cls-2"
         d="m 380.74,249.33 v -51.31 h 5.06 v 51.31 z"
         id="path32" />
      <path
         class="cls-2"
         d="m 425.04,207.63 c -1.45,-1.64 -3.37,-2.96 -5.78,-3.97 -2.41,-1.01 -5.16,-1.52 -8.24,-1.52 -4.53,0 -7.83,0.86 -9.9,2.57 -2.07,1.71 -3.11,4.04 -3.11,6.97 0,1.54 0.28,2.81 0.83,3.79 0.55,0.99 1.41,1.84 2.57,2.57 1.16,0.72 2.64,1.35 4.44,1.88 1.81,0.53 3.94,1.06 6.4,1.59 2.75,0.58 5.22,1.23 7.41,1.95 2.19,0.72 4.06,1.63 5.6,2.71 1.54,1.08 2.72,2.4 3.54,3.94 0.82,1.54 1.23,3.47 1.23,5.78 0,2.31 -0.46,4.41 -1.37,6.14 -0.92,1.73 -2.19,3.18 -3.83,4.34 -1.64,1.16 -3.59,2.01 -5.85,2.57 -2.27,0.55 -4.75,0.83 -7.44,0.83 -7.95,0 -14.82,-2.48 -20.6,-7.44 l 2.53,-4.12 c 0.91,0.96 2.01,1.88 3.29,2.75 1.28,0.87 2.7,1.63 4.26,2.28 1.57,0.65 3.24,1.16 5.02,1.52 1.78,0.36 3.66,0.54 5.64,0.54 4.09,0 7.29,-0.73 9.58,-2.2 2.29,-1.47 3.43,-3.7 3.43,-6.69 0,-1.59 -0.33,-2.93 -0.98,-4.01 -0.65,-1.08 -1.63,-2.02 -2.93,-2.82 -1.3,-0.8 -2.92,-1.48 -4.84,-2.06 -1.93,-0.58 -4.17,-1.16 -6.72,-1.73 -2.7,-0.63 -5.06,-1.28 -7.08,-1.95 -2.02,-0.67 -3.73,-1.52 -5.13,-2.53 -1.4,-1.01 -2.45,-2.23 -3.14,-3.65 -0.7,-1.42 -1.05,-3.17 -1.05,-5.24 0,-2.36 0.44,-4.47 1.34,-6.32 0.89,-1.85 2.16,-3.4 3.79,-4.63 1.64,-1.23 3.56,-2.17 5.78,-2.82 2.22,-0.65 4.67,-0.98 7.37,-0.98 3.42,0 6.47,0.52 9.14,1.55 2.67,1.04 5.1,2.49 7.26,4.37 l -2.46,4.05 z"
         id="path34" />
      <path
         class="cls-2"
         d="m 471.72,202.5 h -18.29 v 46.83 h -5.06 V 202.5 h -18.28 v -4.48 h 41.63 z"
         id="path36" />
      <path
         class="cls-2"
         d="m 510.25,244.85 v 4.48 h -34.47 v -51.31 h 33.82 v 4.48 H 480.84 V 221 h 25.08 v 4.26 h -25.08 v 19.59 z"
         id="path38" />
      <path
         class="cls-2"
         d="m 521.23,207.41 v 41.92 h -5.06 v -51.31 h 3.9 l 33.97,42.71 v -42.64 h 5.06 v 51.24 h -4.41 z"
         id="path40" />
      <path
         class="cls-2"
         d="m 602.82,244.85 v 4.48 h -34.47 v -51.31 h 33.82 v 4.48 H 573.41 V 221 h 25.08 v 4.26 h -25.08 v 19.59 z"
         id="path42" />
      <path
         class="cls-2"
         d="m 608.75,249.33 v -51.31 h 21.68 c 2.22,0 4.25,0.47 6.11,1.41 1.85,0.94 3.46,2.17 4.81,3.69 1.35,1.52 2.4,3.24 3.14,5.17 0.75,1.93 1.12,3.88 1.12,5.85 0,1.97 -0.28,3.67 -0.83,5.38 -0.55,1.71 -1.33,3.25 -2.31,4.63 -0.99,1.37 -2.18,2.53 -3.58,3.47 -1.4,0.94 -2.96,1.58 -4.7,1.92 l 12.58,19.8 h -5.71 L 628.99,230.4 h -15.18 v 18.94 h -5.06 z m 5.06,-23.42 h 16.77 c 1.49,0 2.85,-0.33 4.08,-0.98 1.23,-0.65 2.28,-1.53 3.14,-2.64 0.87,-1.11 1.54,-2.36 2.02,-3.76 0.48,-1.4 0.72,-2.87 0.72,-4.41 0,-1.54 -0.28,-3.02 -0.83,-4.45 -0.55,-1.42 -1.3,-2.66 -2.24,-3.72 -0.94,-1.06 -2.05,-1.9 -3.32,-2.53 -1.28,-0.63 -2.61,-0.94 -4.01,-0.94 h -16.33 v 23.42 z"
         id="path44" />
    </g>
  </g>
  <path
     class="cls-2"
     d="m 108.34,0.2516784 c -3.35,0.78 -6.05,3.49 -6.81,6.84 -1.03,4.5599996 1.38,8.7099996 5.16,10.4499996 V 174.38168 h 7.68 V 17.541678 c 3.19,-1.44 5.41,-4.63 5.41,-8.3499996 0,-5.77 -5.39,-10.33 -11.44,-8.94 z"
     id="path76" />
  <g
     id="g91"
     transform="translate(-13.23,-6.9983216)">
    <path
       class="cls-3"
       d="m 221.44,145.29 h -47.72 v 3.94 c 0.02,4.77 2.92,7.69 7.67,7.69 10.39,-0.02 20.77,-0.05 31.18,-0.07 0.94,-0.02 1.93,-0.05 2.86,-0.3 5.73,-1.52 6.79,-6.26 6.01,-11.26 z"
       id="path79" />
    <path
       class="cls-3"
       d="m 231.69,86.77 c -1.73,-1.75 -3.87,-2.63 -6.43,-2.63 -2.76,0 -5.02,0.85 -6.77,2.58 -0.85,0.83 -1.5,1.8 -1.91,2.88 h -57.66 v 92.53 h 7.48 c 0,0 0,-85.05 0,-85.05 h 28.97 c 0,3.34 0,6.68 -0.05,10.02 -0.02,0.64 -0.12,1.34 -0.32,1.93 -3.43,9.7 -6.89,19.37 -10.27,29.04 -0.3,0.85 -0.67,1.13 -1.52,1.11 -2.99,-0.05 -5.96,0 -8.94,0.02 -0.99,0 -1.38,0.39 -1.38,1.27 0,0.88 0.44,1.29 1.5,1.27 2.86,0 5.69,-0.07 8.54,-0.09 12.9,-0.05 25.79,-0.12 38.71,-0.16 1.17,0 1.73,-0.44 1.7,-1.29 -0.03,-0.85 -0.51,-1.22 -1.66,-1.22 -2.46,0 -4.91,0 -7.35,0.05 -0.71,0.02 -1.04,-0.21 -1.31,-0.88 -4.1,-9.67 -8.2,-19.32 -12.3,-28.99 -0.14,-0.3 -0.21,-0.62 -0.21,-0.94 V 97.1 h 16.07 c 0.39,0.94 0.97,1.84 1.7,2.69 1.64,1.84 3.91,2.79 6.86,2.79 2.6,0 4.79,-0.88 6.52,-2.65 1.73,-1.75 2.6,-3.94 2.6,-6.61 0,-2.67 -0.88,-4.77 -2.6,-6.54 z m -23.08,52.21 h -19.55 c 2.92,-8.24 5.85,-16.51 8.77,-24.76 h 0.25 c 3.5,8.2 6.98,16.4 10.52,24.76 z m 19.28,-42.51 c -0.78,0.88 -1.7,1.31 -2.76,1.31 -1.06,0 -2.05,-0.44 -2.83,-1.34 -0.78,-0.9 -1.17,-1.98 -1.17,-3.25 0,-1.17 0.41,-2.16 1.2,-2.99 0.78,-0.85 1.73,-1.27 2.81,-1.27 1.08,0 1.98,0.46 2.76,1.34 0.78,0.9 1.17,1.93 1.17,3.13 0,1.2 -0.39,2.19 -1.17,3.06 z"
       id="path81" />
    <path
       class="cls-3"
       d="M 75.41,165.88 H 27.7 c 0,1.43 -0.02,2.67 0,3.91 0,4.77 2.92,7.69 7.65,7.69 10.39,-0.02 20.8,-0.05 31.18,-0.07 0.94,0 1.93,-0.05 2.86,-0.3 5.73,-1.52 6.79,-6.26 6.03,-11.24 z"
       id="path83" />
    <path
       class="cls-3"
       d="m 31.13,110.35 c -0.44,-1.22 -1.13,-2.33 -2.07,-3.29 -1.75,-1.75 -3.89,-2.63 -6.45,-2.63 -2.74,0 -5,0.85 -6.75,2.58 -1.75,1.73 -2.63,3.96 -2.63,6.68 0,2.39 0.81,4.51 2.44,6.38 1.64,1.84 3.91,2.79 6.86,2.79 2.6,0 4.77,-0.88 6.52,-2.63 0.71,-0.74 1.27,-1.52 1.7,-2.4 h 18.56 c 0,3.27 0,6.56 -0.05,9.83 0,0.64 -0.12,1.34 -0.32,1.93 -3.41,9.7 -6.86,19.34 -10.27,29.04 -0.3,0.85 -0.64,1.11 -1.52,1.11 -2.97,-0.05 -5.96,0 -8.94,0.02 -0.97,0 -1.38,0.39 -1.38,1.27 0.02,0.88 0.46,1.27 1.52,1.27 2.83,-0.02 5.69,-0.07 8.52,-0.09 12.9,-0.07 25.82,-0.12 38.71,-0.16 1.2,-0.02 1.73,-0.44 1.7,-1.31 0,-0.83 -0.48,-1.2 -1.66,-1.2 -2.44,0 -4.91,-0.02 -7.35,0.05 -0.69,0 -1.04,-0.21 -1.31,-0.88 -4.08,-9.67 -8.2,-19.32 -12.3,-28.99 -0.12,-0.3 -0.21,-0.64 -0.21,-0.97 0,-3.62 0,-7.28 0.02,-10.92 h 28.92 v 64.3 h 7.48 c 0,0 0,-71.78 0,-71.78 z m -5.87,6.41 c -0.81,0.88 -1.7,1.31 -2.76,1.31 -1.06,0 -2.05,-0.44 -2.83,-1.34 -0.78,-0.9 -1.17,-1.98 -1.17,-3.25 0,-1.15 0.39,-2.16 1.2,-2.99 0.78,-0.83 1.73,-1.27 2.81,-1.27 1.08,0 1.96,0.46 2.76,1.34 0.78,0.9 1.17,1.93 1.17,3.13 0,1.2 -0.39,2.21 -1.17,3.06 z m 37.33,42.78 H 43.04 c 2.92,-8.24 5.85,-16.51 8.77,-24.76 0.07,0 0.16,0 0.25,-0.02 3.48,8.2 6.95,16.42 10.52,24.78 z"
       id="path85" />
    <path
       class="cls-3"
       d="m 112.63,33.53 c -1.73,-1.75 -3.87,-2.63 -6.43,-2.63 -2.74,0 -5,0.85 -6.75,2.58 -1.77,1.73 -2.65,3.96 -2.65,6.68 0,2.39 0.83,4.51 2.46,6.38 0.83,0.94 1.84,1.66 3.02,2.1 v 133.5 h 7.48 V 48.64 c 1.06,-0.44 2,-1.08 2.86,-1.96 1.75,-1.75 2.6,-3.94 2.6,-6.61 0,-2.67 -0.85,-4.77 -2.6,-6.54 z m -3.8,9.69 c -0.78,0.88 -1.7,1.31 -2.74,1.31 -1.11,0 -2.05,-0.44 -2.83,-1.34 -0.78,-0.9 -1.17,-1.98 -1.17,-3.25 0,-1.17 0.39,-2.16 1.17,-2.99 0.78,-0.85 1.73,-1.27 2.83,-1.27 1.04,0 1.96,0.46 2.74,1.34 0.81,0.9 1.2,1.93 1.2,3.13 0,1.2 -0.39,2.19 -1.2,3.06 z"
       id="path87" />
    <path
       class="cls-3"
       d="m 150.53,55.04 c -1.73,-1.75 -3.89,-2.65 -6.45,-2.65 -2.74,0 -5,0.88 -6.75,2.6 -1.75,1.73 -2.63,3.94 -2.63,6.68 0,2.39 0.81,4.51 2.44,6.38 0.83,0.94 1.84,1.64 3.02,2.1 v 111.99 h 7.48 V 70.15 c 1.06,-0.44 2.03,-1.11 2.88,-1.96 1.73,-1.75 2.6,-3.96 2.6,-6.61 0,-2.65 -0.88,-4.79 -2.6,-6.54 z m -3.8,9.69 c -0.78,0.88 -1.7,1.31 -2.76,1.31 -1.06,0 -2.05,-0.46 -2.83,-1.34 -0.78,-0.9 -1.17,-1.98 -1.17,-3.25 0,-1.17 0.39,-2.16 1.2,-2.99 0.78,-0.85 1.73,-1.27 2.81,-1.27 1.08,0 1.98,0.44 2.76,1.34 0.78,0.9 1.17,1.93 1.17,3.13 0,1.2 -0.39,2.19 -1.17,3.06 z"
       id="path89" />
  </g>
</svg>
