<?xml version="1.0" encoding="UTF-8" standalone="no"?>
<!-- Created with Inkscape (http://www.inkscape.org/) -->

<svg
   xmlns:dc="http://purl.org/dc/elements/1.1/"
   xmlns:cc="http://creativecommons.org/ns#"
   xmlns:rdf="http://www.w3.org/1999/02/22-rdf-syntax-ns#"
   xmlns:svg="http://www.w3.org/2000/svg"
   xmlns="http://www.w3.org/2000/svg"
   xmlns:xlink="http://www.w3.org/1999/xlink"
   xmlns:sodipodi="http://sodipodi.sourceforge.net/DTD/sodipodi-0.dtd"
   xmlns:inkscape="http://www.inkscape.org/namespaces/inkscape"
   width="142.92395mm"
   height="84.335899mm"
   viewBox="0 0 142.92395 84.335899"
   version="1.1"
   id="svg1095"
   inkscape:version="0.92.5 (2060ec1f9f, 2020-04-08)"
   sodipodi:docname="recap.svg">
  <defs
     id="defs1089">
    <clipPath
       clipPathUnits="userSpaceOnUse"
       id="clipPath200">
      <path
         inkscape:connector-curvature="0"
         d="M 0,283.725 H 471.047 V 0 H 0 Z"
         id="path202" />
    </clipPath>
    <clipPath
       clipPathUnits="userSpaceOnUse"
       id="clipPath180">
      <path
         inkscape:connector-curvature="0"
         d="M 0,283.725 H 471.047 V 0 H 0 Z"
         id="path182" />
    </clipPath>
    <linearGradient
       inkscape:collect="always"
       xlink:href="#linearGradient164"
       id="linearGradient3404"
       gradientUnits="userSpaceOnUse"
       gradientTransform="matrix(108.00636,-98.587402,-98.587402,-108.00635,28.774414,249.03955)"
       spreadMethod="pad"
       x1="0"
       y1="0"
       x2="1"
       y2="0" />
    <linearGradient
       x1="0"
       y1="0"
       x2="1"
       y2="0"
       gradientUnits="userSpaceOnUse"
       gradientTransform="matrix(108.00636,-98.587402,-98.587402,-108.00635,28.774414,249.03955)"
       spreadMethod="pad"
       id="linearGradient164">
      <stop
         style="stop-opacity:1;stop-color:#455eff"
         offset="0"
         id="stop166" />
      <stop
         style="stop-opacity:1;stop-color:#00abf8"
         offset="0.5"
         id="stop168" />
      <stop
         style="stop-opacity:1;stop-color:#00abf8"
         offset="0.5"
         id="stop170" />
      <stop
         style="stop-opacity:1;stop-color:#455eff"
         offset="1"
         id="stop172" />
    </linearGradient>
    <mask
       maskUnits="userSpaceOnUse"
       x="0"
       y="0"
       width="1"
       height="1"
       id="mask44">
      <g
         id="g46">
        <g
           clip-path="url(#clipPath24)"
           id="g48">
          <path
             inkscape:connector-curvature="0"
             d="M 18.332,184.364 H 498.398 V -1 H 18.332 Z"
             style="fill:#000000;fill-opacity:1;fill-rule:nonzero;stroke:none"
             id="path50" />
          <g
             id="g52">
            <g
               id="g54" />
            <g
               id="g56">
              <g
                 clip-path="url(#clipPath28)"
                 id="g58">
                <g
                   id="g60">
                  <g
                     clip-path="url(#clipPath32)"
                     id="g62">
                    <g
                       id="g64">
                      <g
                         id="g66">
                        <path
                           inkscape:connector-curvature="0"
                           d="M 18.332,7.153 H 455.21 V 136.438 H 18.332 Z"
                           style="fill:url(#linearGradient36);stroke:none"
                           id="path68" />
                      </g>
                    </g>
                  </g>
                </g>
              </g>
            </g>
          </g>
        </g>
      </g>
    </mask>
    <clipPath
       clipPathUnits="userSpaceOnUse"
       id="clipPath24">
      <path
         inkscape:connector-curvature="0"
         d="M 18.332,183.364 H 450.48 V 0 H 18.332 Z"
         id="path26" />
    </clipPath>
    <clipPath
       clipPathUnits="userSpaceOnUse"
       id="clipPath28">
      <path
         inkscape:connector-curvature="0"
         d="M 18.332,184.364 H 498.398 V -1 H 18.332 Z"
         id="path30" />
    </clipPath>
    <clipPath
       clipPathUnits="userSpaceOnUse"
       id="clipPath32">
      <path
         inkscape:connector-curvature="0"
         d="M 18.332,7.153 H 455.21 V 136.438 H 18.332 Z"
         id="path34" />
    </clipPath>
    <linearGradient
       x1="0"
       y1="0"
       x2="1"
       y2="0"
       gradientUnits="userSpaceOnUse"
       gradientTransform="matrix(0,-93.082458,-93.082458,0,236.771,130.7959)"
       spreadMethod="pad"
       id="linearGradient36">
      <stop
         style="stop-opacity:1;stop-color:#929497"
         offset="0"
         id="stop38" />
      <stop
         style="stop-opacity:1;stop-color:#000000"
         offset="0.971436"
         id="stop40" />
      <stop
         style="stop-opacity:1;stop-color:#000000"
         offset="1"
         id="stop42" />
    </linearGradient>
    <clipPath
       clipPathUnits="userSpaceOnUse"
       id="clipPath74">
      <path
         inkscape:connector-curvature="0"
         d="M 18.332,183.364 H 450.48 V 0 H 18.332 Z"
         id="path76" />
    </clipPath>
    <clipPath
       clipPathUnits="userSpaceOnUse"
       id="clipPath78">
      <path
         inkscape:connector-curvature="0"
         d="m 18.332,137.153 h 128 V 9.15332 h -128 z"
         id="path80" />
    </clipPath>
    <clipPath
       clipPathUnits="userSpaceOnUse"
       id="clipPath82">
      <path
         inkscape:connector-curvature="0"
         d="m 141.761,39.067 c 0,-13.994 -11.349,-25.343 -25.336,-25.343 H 48.241 c -13.994,0 -25.338,11.349 -25.338,25.343 v 68.168 c 0,14 11.344,25.346 25.338,25.346 h 68.184 c 13.987,0 25.336,-11.346 25.336,-25.346 z"
         id="path84" />
    </clipPath>
    <linearGradient
       inkscape:collect="always"
       xlink:href="#linearGradient86"
       id="linearGradient3444"
       gradientUnits="userSpaceOnUse"
       gradientTransform="matrix(108.00563,-98.586746,-98.586746,-108.00563,28.775391,122.03906)"
       spreadMethod="pad"
       x1="0"
       y1="0"
       x2="1"
       y2="0" />
    <linearGradient
       x1="0"
       y1="0"
       x2="1"
       y2="0"
       gradientUnits="userSpaceOnUse"
       gradientTransform="matrix(108.00563,-98.586746,-98.586746,-108.00563,28.775391,122.03906)"
       spreadMethod="pad"
       id="linearGradient86">
      <stop
         style="stop-opacity:1;stop-color:#455eff"
         offset="0"
         id="stop88" />
      <stop
         style="stop-opacity:1;stop-color:#00abf8"
         offset="0.5"
         id="stop90" />
      <stop
         style="stop-opacity:1;stop-color:#00abf8"
         offset="0.5"
         id="stop92" />
      <stop
         style="stop-opacity:1;stop-color:#455eff"
         offset="1"
         id="stop94" />
    </linearGradient>
  </defs>
  <sodipodi:namedview
     id="base"
     pagecolor="#ffffff"
     bordercolor="#666666"
     borderopacity="1.0"
     inkscape:pageopacity="0.0"
     inkscape:pageshadow="2"
     inkscape:zoom="0.35"
     inkscape:cx="-465.62177"
     inkscape:cy="85.08921"
     inkscape:document-units="mm"
     inkscape:current-layer="layer1"
     showgrid="false"
     fit-margin-top="0"
     fit-margin-left="0"
     fit-margin-right="0"
     fit-margin-bottom="0"
     inkscape:window-width="2560"
     inkscape:window-height="1366"
     inkscape:window-x="0"
     inkscape:window-y="720"
     inkscape:window-maximized="1" />
  <metadata
     id="metadata1092">
    <rdf:RDF>
      <cc:Work
         rdf:about="">
        <dc:format>image/svg+xml</dc:format>
        <dc:type
           rdf:resource="http://purl.org/dc/dcmitype/StillImage" />
        <dc:title></dc:title>
      </cc:Work>
    </rdf:RDF>
  </metadata>
  <g
     inkscape:label="Layer 1"
     inkscape:groupmode="layer"
     id="layer1"
     transform="translate(-60.073736,-87.010619)">
    <g
       transform="matrix(0.33072917,0,0,-0.33072917,54.010814,174.37379)"
       id="g20"
       inkscape:export-xdpi="71.077682"
       inkscape:export-ydpi="71.077682">
      <g
         id="g22" />
      <g
         id="g70"
         mask="url(#mask44)">
        <g
           id="g72" />
        <g
           id="g96">
          <g
             clip-path="url(#clipPath74)"
             id="g98">
            <g
               id="g100">
              <g
                 id="g102" />
              <g
                 id="g104">
                <g
                   clip-path="url(#clipPath78)"
                   id="g106"
                   style="opacity:0.369995">
                  <g
                     transform="translate(146.3315,36.4482)"
                     id="g108">
                    <path
                       d="m 0,0 c 0,-15.072 -12.219,-27.295 -27.285,-27.295 h -73.429 C -115.783,-27.295 -128,-15.072 -128,0 v 73.41 c 0,15.076 12.217,27.295 27.286,27.295 h 73.429 C -12.219,100.705 0,88.486 0,73.41 Z"
                       style="fill:#0060b6;fill-opacity:1;fill-rule:nonzero;stroke:none"
                       id="path110"
                       inkscape:connector-curvature="0" />
                  </g>
                  <g
                     transform="translate(144.0464,37.7607)"
                     id="g112">
                    <path
                       d="m 0,0 c 0,-14.537 -11.781,-26.322 -26.313,-26.322 h -70.805 c -14.529,0 -26.311,11.785 -26.311,26.322 v 70.787 c 0,14.538 11.782,26.319 26.311,26.319 h 70.805 C -11.781,97.106 0,85.325 0,70.787 Z"
                       style="fill:#02c5e5;fill-opacity:1;fill-rule:nonzero;stroke:none"
                       id="path114"
                       inkscape:connector-curvature="0" />
                  </g>
                  <g
                     id="g116">
                    <g
                       clip-path="url(#clipPath82)"
                       id="g118">
                      <g
                         id="g120">
                        <g
                           id="g122">
                          <path
                             d="m 141.761,39.067 c 0,-13.994 -11.349,-25.343 -25.336,-25.343 H 48.241 c -13.994,0 -25.338,11.349 -25.338,25.343 v 68.168 c 0,14 11.344,25.346 25.338,25.346 h 68.184 c 13.987,0 25.336,-11.346 25.336,-25.346 z"
                             style="fill:url(#linearGradient3444);stroke:none"
                             id="path124"
                             inkscape:connector-curvature="0" />
                        </g>
                      </g>
                    </g>
                  </g>
                </g>
              </g>
            </g>
            <text
               transform="translate(301.1738,122.3984)"
               id="text126"
               style="line-height:0%">
              <tspan
                 style="font-variant:normal;font-weight:normal;font-stretch:normal;font-size:120px;font-family:'Minion Pro';-inkscape-font-specification:MinionPro-Regular;writing-mode:lr-tb;fill:#000000;fill-opacity:1;fill-rule:nonzero;stroke:none"
                 x="0"
                 y="0"
                 id="tspan128">E</tspan>
              <tspan
                 style="font-variant:normal;font-weight:normal;font-stretch:normal;font-size:120px;font-family:'Minion Pro';-inkscape-font-specification:MinionPro-Regular;writing-mode:lr-tb;fill:#000000;fill-opacity:1;fill-rule:nonzero;stroke:none"
                 x="-89.400002"
                 y="1.6799999"
                 id="tspan130">C</tspan>
              <tspan
                 style="font-variant:normal;font-weight:normal;font-stretch:normal;font-size:120px;font-family:'Minion Pro';-inkscape-font-specification:MinionPro-Regular;writing-mode:lr-tb;fill:#000000;fill-opacity:1;fill-rule:nonzero;stroke:none"
                 x="-168.12"
                 y="2.4000001"
                 id="tspan132">A</tspan>
              <tspan
                 style="font-variant:normal;font-weight:normal;font-stretch:normal;font-size:120px;font-family:'Minion Pro';-inkscape-font-specification:MinionPro-Regular;writing-mode:lr-tb;fill:#000000;fill-opacity:1;fill-rule:nonzero;stroke:none"
                 x="73.559998"
                 y="-0.36000001"
                 id="tspan134">R</tspan>
            </text>
            <text
               transform="translate(29.9033,127.5645)"
               id="text136"
               style="line-height:0%">
              <tspan
                 style="font-variant:normal;font-weight:bold;font-stretch:normal;font-size:155px;font-family:'Minion Pro';-inkscape-font-specification:MinionPro-Bold;writing-mode:lr-tb;fill:#000000;fill-opacity:1;fill-rule:nonzero;stroke:none"
                 x="0"
                 y="0"
                 id="tspan138">P</tspan>
            </text>
            <g
               transform="translate(36.4131,26.8145)"
               id="g140">
              <path
                 d="M 0,0 V 5.425 C 10.851,6.51 12.245,7.595 12.245,20.77 v 59.365 c 0,13.175 -1.394,14.26 -13.019,15.345 v 5.27 H 47.275 V 95.48 C 34.101,94.395 32.705,93.31 32.705,80.135 v -21.39 l 10.54,2.635 c 1.705,0 4.03,0 6.356,-0.31 C 66.03,59.055 81.375,49.6 81.375,28.83 81.375,18.755 77.19,11.005 69.905,6.045 63.705,1.705 55.025,0 42.78,0 Z m 32.705,12.4 c 0,-2.325 0.311,-3.875 1.396,-4.805 0.929,-0.775 2.79,-1.55 5.734,-1.55 9.455,0 19.221,5.735 19.221,23.25 0,20.925 -12.401,24.955 -17.981,24.955 -3.255,0 -6.51,-0.775 -8.37,-1.55 z"
                 style="fill:none;stroke:#ffffff;stroke-width:2;stroke-linecap:butt;stroke-linejoin:miter;stroke-miterlimit:4;stroke-dasharray:none;stroke-opacity:1"
                 id="path142"
                 inkscape:connector-curvature="0" />
            </g>
          </g>
        </g>
      </g>
    </g>
    <g
       id="g144"
       transform="matrix(0.33072917,0,0,-0.33072917,102.40707,120.3167)"
       inkscape:export-xdpi="71.077682"
       inkscape:export-ydpi="71.077682">
      <path
         d="m 0,0 c 0,-15.072 -12.219,-27.295 -27.286,-27.295 h -73.428 C -115.784,-27.295 -128,-15.072 -128,0 v 73.41 c 0,15.076 12.216,27.295 27.286,27.295 h 73.428 C -12.219,100.705 0,88.486 0,73.41 Z"
         style="fill:#0060b6;fill-opacity:1;fill-rule:nonzero;stroke:none"
         id="path146"
         inkscape:connector-curvature="0" />
    </g>
    <g
       id="g148"
       transform="matrix(0.33072917,0,0,-0.33072917,101.65099,119.88262)"
       inkscape:export-xdpi="71.077682"
       inkscape:export-ydpi="71.077682">
      <path
         d="m 0,0 c 0,-14.537 -11.781,-26.322 -26.313,-26.322 h -70.805 c -14.529,0 -26.31,11.785 -26.31,26.322 v 70.787 c 0,14.538 11.781,26.319 26.31,26.319 h 70.805 C -11.781,97.106 0,85.325 0,70.787 Z"
         style="fill:#02c5e5;fill-opacity:1;fill-rule:nonzero;stroke:none"
         id="path150"
         inkscape:connector-curvature="0" />
    </g>
    <g
       transform="matrix(0.33072917,0,0,-0.33072917,54.010814,174.37379)"
       id="g160"
       inkscape:export-xdpi="71.077682"
       inkscape:export-ydpi="71.077682">
      <g
         id="g162">
        <path
           d="m 48.241,259.582 c -13.994,0 -25.338,-11.347 -25.338,-25.347 v 0 -68.168 c 0,-13.994 11.344,-25.343 25.338,-25.343 v 0 h 68.185 c 13.986,0 25.335,11.349 25.335,25.343 v 0 68.168 c 0,14 -11.349,25.347 -25.335,25.347 v 0 z"
           style="fill:url(#linearGradient3404);stroke:none"
           id="path174"
           inkscape:connector-curvature="0" />
      </g>
    </g>
    <g
       transform="matrix(0.33072917,0,0,-0.33072917,54.010814,174.37379)"
       id="g176"
       inkscape:export-xdpi="71.077682"
       inkscape:export-ydpi="71.077682">
      <g
         id="g178"
         clip-path="url(#clipPath180)">
        <text
           transform="matrix(1,0,0,-1,29.9033,149.5654)"
           id="text184"
           style="line-height:0%">
          <tspan
             style="font-variant:normal;font-weight:bold;font-stretch:normal;font-size:155px;font-family:'Minion Pro';-inkscape-font-specification:MinionPro-Bold;writing-mode:lr-tb;fill:#000000;fill-opacity:1;fill-rule:nonzero;stroke:none"
             x="0"
             y="0"
             id="tspan186">R</tspan>
        </text>
        <g
           id="g188"
           transform="translate(132.2031,153.1309)">
          <path
             inkscape:connector-curvature="0"
             d="m 0,0 c -3.41,1.239 -6.045,3.1 -9.455,6.665 -2.944,3.254 -6.355,8.214 -11.779,16.895 -4.651,7.129 -10.386,17.359 -12.71,22.009 10.384,4.185 19.375,11.625 19.375,25.265 0,9.61 -4.186,16.431 -10.386,20.616 -6.355,4.185 -14.105,5.735 -27.745,5.735 H -96.255 V 91.76 c 11.316,-1.085 12.71,-2.635 12.71,-15.035 v -59.52 c 0,-12.865 -1.705,-14.261 -13.33,-15.346 v -5.424 h 46.811 V 1.859 C -61.845,2.944 -63.24,4.34 -63.24,17.205 v 22.629 h 2.945 c 4.96,0 7.75,-2.015 10.231,-6.665 4.495,-8.214 8.679,-16.585 12.71,-22.94 C -31,0.465 -25.109,-3.875 -5.58,-4.806 c 2.016,0 3.721,-0.154 4.65,-0.154 z M -63.24,46.035 V 83.7 c 0,3.255 0.31,4.804 1.395,5.735 0.93,0.93 3.1,1.549 6.975,1.549 8.681,0 18.29,-5.889 18.29,-22.474 0,-7.906 -2.17,-14.105 -7.44,-18.446 -3.41,-2.944 -8.68,-4.029 -15.19,-4.029 z"
             style="fill:none;stroke:#ffffff;stroke-width:2;stroke-linecap:butt;stroke-linejoin:miter;stroke-miterlimit:4;stroke-dasharray:none;stroke-opacity:1"
             id="path190" />
        </g>
      </g>
    </g>
    <text
       y="124.25733"
       x="101.49727"
       id="text192"
       style="font-size:3.96875px;line-height:0%;stroke-width:0.33072916"
       inkscape:export-xdpi="71.077682"
       inkscape:export-ydpi="71.077682">
      <tspan
         style="font-variant:normal;font-weight:normal;font-stretch:normal;font-size:39.6875px;line-height:1.25;font-family:'Minion Pro';-inkscape-font-specification:MinionPro-Regular;writing-mode:lr-tb;fill:#000000;fill-opacity:1;fill-rule:nonzero;stroke:none;stroke-width:0.33072916"
         x="101.49727 124.03975 150.43196 177.85603"
         y="124.25733"
         sodipodi:role="line"
         id="tspan194">ECAP</tspan>
    </text>
    <g
       transform="matrix(0.33072917,0,0,-0.33072917,54.010814,174.37379)"
       id="g196"
       inkscape:export-xdpi="71.077682"
       inkscape:export-ydpi="71.077682">
      <g
         id="g198"
         clip-path="url(#clipPath200)">
        <g
           id="g204"
           transform="translate(146.332,138.4385)">
          <path
             inkscape:connector-curvature="0"
             d="M 0,0 H 304.148"
             style="fill:#1b75bb;fill-opacity:1;fill-rule:nonzero;stroke:#2b388f;stroke-width:3;stroke-linecap:butt;stroke-linejoin:miter;stroke-miterlimit:4;stroke-dasharray:none;stroke-opacity:1"
             id="path206" />
        </g>
      </g>
    </g>
  </g>
</svg>
