<svg xmlns="http://www.w3.org/2000/svg" xmlns:svg="http://www.w3.org/2000/svg" xmlns:xlink="http://www.w3.org/1999/xlink" id="svg1095" width="540.185" height="318.75" version="1.1" viewBox="0 0 142.924 84.336"><defs id="defs1089"><clipPath id="clipPath200" clipPathUnits="userSpaceOnUse"><path id="path202" d="M 0,283.725 H 471.047 V 0 H 0 Z"/></clipPath><clipPath id="clipPath180" clipPathUnits="userSpaceOnUse"><path id="path182" d="M 0,283.725 H 471.047 V 0 H 0 Z"/></clipPath><linearGradient id="linearGradient3404" x1="0" x2="1" y1="0" y2="0" gradientTransform="matrix(108.00636,-98.587402,-98.587402,-108.00635,28.774414,249.03955)" gradientUnits="userSpaceOnUse" spreadMethod="pad" xlink:href="#linearGradient164"/><linearGradient id="linearGradient164" x1="0" x2="1" y1="0" y2="0" gradientTransform="matrix(108.00636,-98.587402,-98.587402,-108.00635,28.774414,249.03955)" gradientUnits="userSpaceOnUse" spreadMethod="pad"><stop style="stop-opacity:1;stop-color:#455eff" id="stop166" offset="0"/><stop style="stop-opacity:1;stop-color:#00abf8" id="stop168" offset=".5"/><stop style="stop-opacity:1;stop-color:#00abf8" id="stop170" offset=".5"/><stop style="stop-opacity:1;stop-color:#455eff" id="stop172" offset="1"/></linearGradient><mask id="mask44" width="1" height="1" x="0" y="0" maskUnits="userSpaceOnUse"><g id="g46"><g id="g48" clip-path="url(#clipPath24)"><path style="fill:#000;fill-opacity:1;fill-rule:nonzero;stroke:none" id="path50" d="M 18.332,184.364 H 498.398 V -1 H 18.332 Z"/><g id="g52"><g id="g56"><g id="g58" clip-path="url(#clipPath28)"><g id="g60"><g id="g62" clip-path="url(#clipPath32)"><g id="g64"><g id="g66"><path style="fill:url(#linearGradient36);stroke:none" id="path68" d="M 18.332,7.153 H 455.21 V 136.438 H 18.332 Z"/></g></g></g></g></g></g></g></g></g></mask><clipPath id="clipPath24" clipPathUnits="userSpaceOnUse"><path id="path26" d="M 18.332,183.364 H 450.48 V 0 H 18.332 Z"/></clipPath><clipPath id="clipPath28" clipPathUnits="userSpaceOnUse"><path id="path30" d="M 18.332,184.364 H 498.398 V -1 H 18.332 Z"/></clipPath><clipPath id="clipPath32" clipPathUnits="userSpaceOnUse"><path id="path34" d="M 18.332,7.153 H 455.21 V 136.438 H 18.332 Z"/></clipPath><linearGradient id="linearGradient36" x1="0" x2="1" y1="0" y2="0" gradientTransform="matrix(0,-93.082458,-93.082458,0,236.771,130.7959)" gradientUnits="userSpaceOnUse" spreadMethod="pad"><stop style="stop-opacity:1;stop-color:#929497" id="stop38" offset="0"/><stop style="stop-opacity:1;stop-color:#000" id="stop40" offset=".971"/><stop style="stop-opacity:1;stop-color:#000" id="stop42" offset="1"/></linearGradient><clipPath id="clipPath74" clipPathUnits="userSpaceOnUse"><path id="path76" d="M 18.332,183.364 H 450.48 V 0 H 18.332 Z"/></clipPath><clipPath id="clipPath78" clipPathUnits="userSpaceOnUse"><path id="path80" d="m 18.332,137.153 h 128 V 9.15332 h -128 z"/></clipPath><clipPath id="clipPath82" clipPathUnits="userSpaceOnUse"><path id="path84" d="m 141.761,39.067 c 0,-13.994 -11.349,-25.343 -25.336,-25.343 H 48.241 c -13.994,0 -25.338,11.349 -25.338,25.343 v 68.168 c 0,14 11.344,25.346 25.338,25.346 h 68.184 c 13.987,0 25.336,-11.346 25.336,-25.346 z"/></clipPath><linearGradient id="linearGradient3444" x1="0" x2="1" y1="0" y2="0" gradientTransform="matrix(108.00563,-98.586746,-98.586746,-108.00563,28.775391,122.03906)" gradientUnits="userSpaceOnUse" spreadMethod="pad" xlink:href="#linearGradient86"/><linearGradient id="linearGradient86" x1="0" x2="1" y1="0" y2="0" gradientTransform="matrix(108.00563,-98.586746,-98.586746,-108.00563,28.775391,122.03906)" gradientUnits="userSpaceOnUse" spreadMethod="pad"><stop style="stop-opacity:1;stop-color:#455eff" id="stop88" offset="0"/><stop style="stop-opacity:1;stop-color:#00abf8" id="stop90" offset=".5"/><stop style="stop-opacity:1;stop-color:#00abf8" id="stop92" offset=".5"/><stop style="stop-opacity:1;stop-color:#455eff" id="stop94" offset="1"/></linearGradient></defs><metadata id="metadata1092"/><g id="layer1" transform="translate(-60.073736,-87.010619)"><g id="g20" transform="matrix(0.33072917,0,0,-0.33072917,54.010814,174.37379)"><g id="g70" mask="url(#mask44)"><g id="g96"><g id="g98" clip-path="url(#clipPath74)"><g id="g100"><g id="g104"><g id="g106" clip-path="url(#clipPath78)" style="opacity:.369995"><g id="g108" transform="translate(146.3315,36.4482)"><path style="fill:#0060b6;fill-opacity:1;fill-rule:nonzero;stroke:none" id="path110" d="m 0,0 c 0,-15.072 -12.219,-27.295 -27.285,-27.295 h -73.429 C -115.783,-27.295 -128,-15.072 -128,0 v 73.41 c 0,15.076 12.217,27.295 27.286,27.295 h 73.429 C -12.219,100.705 0,88.486 0,73.41 Z"/></g><g id="g112" transform="translate(144.0464,37.7607)"><path style="fill:#02c5e5;fill-opacity:1;fill-rule:nonzero;stroke:none" id="path114" d="m 0,0 c 0,-14.537 -11.781,-26.322 -26.313,-26.322 h -70.805 c -14.529,0 -26.311,11.785 -26.311,26.322 v 70.787 c 0,14.538 11.782,26.319 26.311,26.319 h 70.805 C -11.781,97.106 0,85.325 0,70.787 Z"/></g><g id="g116"><g id="g118" clip-path="url(#clipPath82)"><g id="g120"><g id="g122"><path style="fill:url(#linearGradient3444);stroke:none" id="path124" d="m 141.761,39.067 c 0,-13.994 -11.349,-25.343 -25.336,-25.343 H 48.241 c -13.994,0 -25.338,11.349 -25.338,25.343 v 68.168 c 0,14 11.344,25.346 25.338,25.346 h 68.184 c 13.987,0 25.336,-11.346 25.336,-25.346 z"/></g></g></g></g></g></g></g><text id="text126" transform="translate(301.1738,122.3984)" style="line-height:0%"><tspan style="font-variant:normal;font-weight:400;font-stretch:normal;font-size:120px;font-family:'Minion Pro';-inkscape-font-specification:MinionPro-Regular;writing-mode:lr-tb;fill:#000;fill-opacity:1;fill-rule:nonzero;stroke:none" id="tspan128" x="0" y="0">E</tspan> <tspan style="font-variant:normal;font-weight:400;font-stretch:normal;font-size:120px;font-family:'Minion Pro';-inkscape-font-specification:MinionPro-Regular;writing-mode:lr-tb;fill:#000;fill-opacity:1;fill-rule:nonzero;stroke:none" id="tspan130" x="-89.4" y="1.68">C</tspan> <tspan style="font-variant:normal;font-weight:400;font-stretch:normal;font-size:120px;font-family:'Minion Pro';-inkscape-font-specification:MinionPro-Regular;writing-mode:lr-tb;fill:#000;fill-opacity:1;fill-rule:nonzero;stroke:none" id="tspan132" x="-168.12" y="2.4">A</tspan> <tspan style="font-variant:normal;font-weight:400;font-stretch:normal;font-size:120px;font-family:'Minion Pro';-inkscape-font-specification:MinionPro-Regular;writing-mode:lr-tb;fill:#000;fill-opacity:1;fill-rule:nonzero;stroke:none" id="tspan134" x="73.56" y="-.36">R</tspan></text><text id="text136" transform="translate(29.9033,127.5645)" style="line-height:0%"><tspan style="font-variant:normal;font-weight:700;font-stretch:normal;font-size:155px;font-family:'Minion Pro';-inkscape-font-specification:MinionPro-Bold;writing-mode:lr-tb;fill:#000;fill-opacity:1;fill-rule:nonzero;stroke:none" id="tspan138" x="0" y="0">P</tspan></text><g id="g140" transform="translate(36.4131,26.8145)"><path style="fill:none;stroke:#fff;stroke-width:2;stroke-linecap:butt;stroke-linejoin:miter;stroke-miterlimit:4;stroke-dasharray:none;stroke-opacity:1" id="path142" d="M 0,0 V 5.425 C 10.851,6.51 12.245,7.595 12.245,20.77 v 59.365 c 0,13.175 -1.394,14.26 -13.019,15.345 v 5.27 H 47.275 V 95.48 C 34.101,94.395 32.705,93.31 32.705,80.135 v -21.39 l 10.54,2.635 c 1.705,0 4.03,0 6.356,-0.31 C 66.03,59.055 81.375,49.6 81.375,28.83 81.375,18.755 77.19,11.005 69.905,6.045 63.705,1.705 55.025,0 42.78,0 Z m 32.705,12.4 c 0,-2.325 0.311,-3.875 1.396,-4.805 0.929,-0.775 2.79,-1.55 5.734,-1.55 9.455,0 19.221,5.735 19.221,23.25 0,20.925 -12.401,24.955 -17.981,24.955 -3.255,0 -6.51,-0.775 -8.37,-1.55 z"/></g></g></g></g></g><g id="g144" transform="matrix(0.33072917,0,0,-0.33072917,102.40707,120.3167)"><path style="fill:#0060b6;fill-opacity:1;fill-rule:nonzero;stroke:none" id="path146" d="m 0,0 c 0,-15.072 -12.219,-27.295 -27.286,-27.295 h -73.428 C -115.784,-27.295 -128,-15.072 -128,0 v 73.41 c 0,15.076 12.216,27.295 27.286,27.295 h 73.428 C -12.219,100.705 0,88.486 0,73.41 Z"/></g><g id="g148" transform="matrix(0.33072917,0,0,-0.33072917,101.65099,119.88262)"><path style="fill:#02c5e5;fill-opacity:1;fill-rule:nonzero;stroke:none" id="path150" d="m 0,0 c 0,-14.537 -11.781,-26.322 -26.313,-26.322 h -70.805 c -14.529,0 -26.31,11.785 -26.31,26.322 v 70.787 c 0,14.538 11.781,26.319 26.31,26.319 h 70.805 C -11.781,97.106 0,85.325 0,70.787 Z"/></g><g id="g160" transform="matrix(0.33072917,0,0,-0.33072917,54.010814,174.37379)"><g id="g162"><path style="fill:url(#linearGradient3404);stroke:none" id="path174" d="m 48.241,259.582 c -13.994,0 -25.338,-11.347 -25.338,-25.347 v 0 -68.168 c 0,-13.994 11.344,-25.343 25.338,-25.343 v 0 h 68.185 c 13.986,0 25.335,11.349 25.335,25.343 v 0 68.168 c 0,14 -11.349,25.347 -25.335,25.347 v 0 z"/></g></g><g id="g176" transform="matrix(0.33072917,0,0,-0.33072917,54.010814,174.37379)"><g id="g178" clip-path="url(#clipPath180)"><text id="text184" transform="matrix(1,0,0,-1,29.9033,149.5654)" style="line-height:0%"><tspan style="font-variant:normal;font-weight:700;font-stretch:normal;font-size:155px;font-family:'Minion Pro';-inkscape-font-specification:MinionPro-Bold;writing-mode:lr-tb;fill:#000;fill-opacity:1;fill-rule:nonzero;stroke:none" id="tspan186" x="0" y="0">R</tspan></text><g id="g188" transform="translate(132.2031,153.1309)"><path style="fill:none;stroke:#fff;stroke-width:2;stroke-linecap:butt;stroke-linejoin:miter;stroke-miterlimit:4;stroke-dasharray:none;stroke-opacity:1" id="path190" d="m 0,0 c -3.41,1.239 -6.045,3.1 -9.455,6.665 -2.944,3.254 -6.355,8.214 -11.779,16.895 -4.651,7.129 -10.386,17.359 -12.71,22.009 10.384,4.185 19.375,11.625 19.375,25.265 0,9.61 -4.186,16.431 -10.386,20.616 -6.355,4.185 -14.105,5.735 -27.745,5.735 H -96.255 V 91.76 c 11.316,-1.085 12.71,-2.635 12.71,-15.035 v -59.52 c 0,-12.865 -1.705,-14.261 -13.33,-15.346 v -5.424 h 46.811 V 1.859 C -61.845,2.944 -63.24,4.34 -63.24,17.205 v 22.629 h 2.945 c 4.96,0 7.75,-2.015 10.231,-6.665 4.495,-8.214 8.679,-16.585 12.71,-22.94 C -31,0.465 -25.109,-3.875 -5.58,-4.806 c 2.016,0 3.721,-0.154 4.65,-0.154 z M -63.24,46.035 V 83.7 c 0,3.255 0.31,4.804 1.395,5.735 0.93,0.93 3.1,1.549 6.975,1.549 8.681,0 18.29,-5.889 18.29,-22.474 0,-7.906 -2.17,-14.105 -7.44,-18.446 -3.41,-2.944 -8.68,-4.029 -15.19,-4.029 z"/></g></g></g><text id="text192" x="101.497" y="124.257" style="font-size:3.96875px;line-height:0%;stroke-width:.33072916"><tspan style="font-variant:normal;font-weight:400;font-stretch:normal;font-size:39.6875px;line-height:1.25;font-family:'Minion Pro';-inkscape-font-specification:MinionPro-Regular;writing-mode:lr-tb;fill:#000;fill-opacity:1;fill-rule:nonzero;stroke:none;stroke-width:.33072916" id="tspan194" x="101.497 124.04 150.432 177.856" y="124.257">ECAP</tspan></text><g id="g196" transform="matrix(0.33072917,0,0,-0.33072917,54.010814,174.37379)"><g id="g198" clip-path="url(#clipPath200)"><g id="g204" transform="translate(146.332,138.4385)"><path style="fill:#1b75bb;fill-opacity:1;fill-rule:nonzero;stroke:#2b388f;stroke-width:3;stroke-linecap:butt;stroke-linejoin:miter;stroke-miterlimit:4;stroke-dasharray:none;stroke-opacity:1" id="path206" d="M 0,0 H 304.148"/></g></g></g></g></svg>