<svg xmlns="http://www.w3.org/2000/svg" id="Layer_1" data-name="Layer 1" viewBox="0 0 445.72 107.81"><defs><style>.cls-1{fill:#6778f2}.cls-2{fill:#92deff}.cls-3{fill:#3b69f2}.cls-4{fill:#fff}.cls-5{fill:#333e48}</style></defs><title>imange_logo_horizontal_color</title><path d="M75.61,2.11a51.55,51.55,0,0,0-20.81.95c33.79,8.53,69.32,33.57,74.76,57.88a41.43,41.43,0,0,0,5-8.62C142.62,31.41,95.29,5.11,75.61,2.11Z" class="cls-1" transform="translate(0)"/><path d="M15.41,40.59C23,22,36.94,7.67,54.81,3.06,39.75-.75,25-1.27,13.48,3c-23.62,9.7-11.64,62.65,1.36,81.24,20.34,29.09,59.31,28,89.09,14.24,22.13-10.18,28.73-23.76,25.64-37.56C98.66,102.27-12.11,108.24,15.41,40.59Z" class="cls-2" transform="translate(0)"/><path d="M54.81,3.06C36.94,7.67,23,22,15.41,40.59c-27.52,67.65,83.25,61.69,114.16,20.35C124.13,36.62,88.59,11.59,54.81,3.06Z" class="cls-3" transform="translate(0)"/><path d="M82.43,35.11A14.52,14.52,0,0,0,71.7,39.84a14.54,14.54,0,0,0-25.28,9.82V67.51h7.65V49.66a6.9,6.9,0,0,1,13.8,0V67.51h7.65V49.66a6.9,6.9,0,1,1,13.8,0V67.51H97V49.66A14.57,14.57,0,0,0,82.43,35.11Z" class="cls-4" transform="translate(0)"/><path d="M43,24.21a5.49,5.49,0,1,1-5.46,5.53A5.5,5.5,0,0,1,43,24.21Z" class="cls-4" transform="translate(0)"/><rect width="8.73" height="35.04" x="164.89" y="40.68" class="cls-5"/><path d="M235.66,75.72h-9.21V45.59l-14,30.13h-7l-14-30.13V75.72h-9.21V24.21h8.81L209,61.39l17.85-37.18h8.81V75.72Z" class="cls-5" transform="translate(0)"/><path d="M279.14,38.41V75.72h-8.73v-5c-2.32,3.76-7.21,6-11.53,6-11.37,0-19.14-9-19.14-19.61s7.77-19.61,19.14-19.61c4.32,0,9.21,2.24,11.53,6v-5h8.73Zm-8.73,18.65c0-6.4-4.32-11.85-11-11.85-6.56,0-10.89,5.44-10.89,11.85s4.32,11.85,10.89,11.85C266.09,68.92,270.41,63.47,270.41,57.07Z" class="cls-5" transform="translate(0)"/><path d="M284.36,38.41h8.73v5.2c2.32-4,6.65-6.16,12.17-6.16,5.36,0,9.13,1.92,11.21,5,1.84,2.8,2.4,5.92,2.4,11V75.72h-8.73V56.43c0-6.4-1.84-11.29-8.09-11.29-6.08,0-9,4.88-9,11.29v19.3h-8.73V38.41Z" class="cls-5" transform="translate(0)"/><path d="M362.53,38.41V75.72H353.8v-5c-2.32,3.76-7.21,6-11.53,6-11.37,0-19.14-9-19.14-19.61s7.77-19.61,19.14-19.61c4.32,0,9.21,2.24,11.53,6v-5h8.73ZM353.8,57.07c0-6.4-4.32-11.85-11-11.85-6.56,0-10.89,5.44-10.89,11.85s4.32,11.85,10.89,11.85C349.48,68.92,353.8,63.47,353.8,57.07Z" class="cls-5" transform="translate(0)"/><path d="M406,77.56c0,12.49-7.53,17.77-19.94,17.77S367.73,87.73,367.25,80h8.81c0.48,4,3.68,7.61,10,7.61,7,0,11.21-3,11.21-10V70.68c-2.32,3.76-7.21,6-11.53,6-11.37,0-19.14-9-19.14-19.61s7.77-19.61,19.14-19.61c4.32,0,9.21,2.24,11.53,6v-5H406V77.56Zm-30.66-20.5c0,6.4,4.32,11.85,10.89,11.85,6.73,0,11-5.44,11-11.85s-4.32-11.85-11-11.85C379.66,45.22,375.34,50.66,375.34,57.07Z" class="cls-5" transform="translate(0)"/><path d="M418.89,59.71c0.08,5.36,2.72,9.69,9.77,9.69,5,0,6.81-2.24,7.93-4.88h8.81c-1.2,6.4-7.21,12.17-16.73,12.17-12.57,0-18.65-9.45-18.65-19.61,0-11.21,6.65-19.61,18.41-19.61,9.69,0,17.29,7.29,17.29,16.81a30.58,30.58,0,0,1-.4,5.44H418.89ZM419,53.22h18.25c0-5.2-3.76-8.49-9-8.49C423.06,44.74,419,47.7,419,53.22Z" class="cls-5" transform="translate(0)"/><path d="M169.22,24.21a5.5,5.5,0,1,1-5.47,5.53A5.51,5.51,0,0,1,169.22,24.21Z" class="cls-5" transform="translate(0)"/></svg>