<?xml version="1.0" standalone="no"?>
<!DOCTYPE svg PUBLIC "-//W3C//DTD SVG 20010904//EN"
 "http://www.w3.org/TR/2001/REC-SVG-20010904/DTD/svg10.dtd">
<svg version="1.0" xmlns="http://www.w3.org/2000/svg"
 width="700.000000pt" height="700.000000pt" viewBox="0 0 700.000000 700.000000"
 preserveAspectRatio="xMidYMid meet">
<metadata>
Created by potrace 1.11, written by Peter Selinger 2001-2013
</metadata>
<g transform="translate(0.000000,700.000000) scale(0.100000,-0.100000)"
fill="#000000" stroke="none">
<path d="M4395 6169 c-33 -18 -136 -75 -230 -127 -93 -53 -188 -105 -210 -117
-100 -55 -272 -155 -287 -167 -26 -20 -30 -92 -7 -122 24 -31 24 -48 -2 -72
-59 -53 -68 -134 -24 -210 38 -65 82 -91 156 -93 21 -1 29 -10 46 -53 12 -29
29 -78 38 -108 18 -57 45 -90 75 -90 10 0 23 -6 29 -14 14 -17 -3 -59 -38 -90
-11 -10 -39 -47 -61 -81 -41 -64 -63 -79 -144 -105 -92 -29 -139 -78 -171
-178 -20 -63 -69 -114 -156 -163 -120 -68 -176 -107 -266 -187 -51 -45 -145
-116 -208 -159 -69 -47 -118 -86 -121 -99 -3 -12 12 -61 39 -120 61 -139 62
-139 267 21 130 101 206 149 255 161 43 10 72 31 96 71 24 38 109 111 189 160
45 29 59 32 118 31 41 0 81 5 104 15 42 18 122 97 140 139 13 28 50 45 117 53
28 3 81 -20 81 -35 0 -5 6 -15 14 -22 7 -8 23 -33 35 -56 20 -39 21 -46 8 -90
-23 -79 -7 -151 45 -209 20 -21 96 -56 149 -67 15 -3 44 -21 65 -41 51 -46 83
-48 224 -13 184 46 341 123 480 238 115 95 131 119 144 215 4 28 16 82 28 122
37 128 3 211 -111 271 -62 34 -78 57 -126 186 -35 91 -104 83 -166 -19 -56
-92 -61 -89 -217 143 -72 108 -132 207 -132 219 0 25 105 106 153 118 33 9 37
15 59 84 16 53 16 55 -4 95 -11 23 -40 69 -64 103 -24 34 -44 67 -44 74 0 6 9
26 19 43 40 66 34 132 -20 211 -30 43 -66 58 -132 57 -63 -2 -71 3 -100 59
-28 56 -53 60 -132 18z m349 -262 c-9 -42 -116 -144 -165 -159 -54 -16 -64 -2
-33 47 14 22 40 65 57 95 28 48 38 57 82 71 48 15 50 15 58 -4 4 -12 5 -34 1
-50z m66 -252 c0 -24 -35 -65 -92 -106 -67 -49 -88 -58 -88 -39 0 15 70 89
114 122 35 25 66 36 66 23z m-920 -60 c0 -14 -30 -62 -52 -82 -26 -25 -105
-62 -130 -63 -26 0 -22 25 10 60 43 47 172 111 172 85z m1298 -806 c-9 -27
-57 -69 -140 -123 -73 -48 -4 55 81 120 57 44 74 45 59 3z m204 -161 c3 -7 4
-28 2 -47 -6 -68 -181 -208 -217 -172 -7 7 -6 15 5 28 9 10 31 46 48 79 37 73
63 99 110 112 47 14 47 14 52 0z m-1404 -53 c20 -60 17 -100 -12 -150 -30 -50
-44 -55 -72 -24 -21 24 -21 81 2 116 8 12 14 35 14 51 0 63 48 68 68 7z m-423
-314 c10 -18 -158 -165 -265 -231 -30 -19 -63 -42 -73 -52 -15 -15 -22 -16
-33 -7 -26 21 -15 49 33 82 25 17 96 71 157 118 62 48 121 89 131 92 33 8 44
7 50 -2z m1065 -83 c0 -30 -55 -89 -106 -113 -58 -27 -79 -31 -90 -14 -10 16
63 85 120 113 58 28 76 31 76 14z"/>
<path d="M1345 5901 c-262 -65 -455 -308 -455 -576 0 -275 192 -517 461 -581
13 -4 65 -8 115 -11 229 -13 449 118 551 327 48 99 54 124 59 246 10 276 -154
504 -426 591 -71 22 -223 25 -305 4z m350 -188 c84 -27 127 -54 195 -123 71
-71 100 -122 125 -215 76 -291 -150 -586 -451 -587 -277 0 -490 218 -479 492
13 310 318 526 610 433z"/>
<path d="M4823 5414 c-40 -17 -41 -21 -7 -21 35 0 39 -7 59 -91 17 -70 55
-139 120 -218 23 -29 25 -36 16 -75 l-10 -43 24 30 c13 16 24 34 25 41 0 12
-32 74 -75 143 -21 35 -65 125 -65 135 0 14 -43 115 -48 114 -4 0 -22 -7 -39
-15z"/>
<path d="M1783 4708 c-2 -75 -18 -103 -83 -151 -14 -10 -20 -16 -15 -14 10 5
110 16 185 21 47 4 184 -20 219 -38 40 -21 117 -105 209 -226 44 -58 112 -139
152 -180 l71 -75 -37 60 c-35 57 -221 311 -253 346 -97 104 -100 106 -168 125
-38 10 -70 19 -73 19 -3 1 -40 12 -83 25 -78 23 -107 46 -107 82 0 20 -16 25
-17 6z"/>
<path d="M1380 4585 c0 -44 -1 -45 -52 -71 -92 -46 -184 -102 -229 -140 -44
-36 -102 -111 -95 -123 2 -3 7 -40 10 -80 4 -41 9 -78 11 -81 2 -3 6 -26 9
-51 3 -24 8 -54 10 -65 2 -12 7 -37 10 -55 3 -19 8 -45 11 -59 7 -31 34 -178
46 -244 8 -48 19 -73 19 -44 0 8 -5 40 -10 69 -13 66 -16 89 -35 254 -3 22 -7
62 -11 89 -11 92 -11 215 1 250 27 79 111 154 240 216 65 32 77 34 170 35
l101 0 -61 24 c-69 27 -98 51 -115 92 -18 42 -30 36 -30 -16z"/>
<path d="M1995 4176 c-91 -26 -132 -45 -158 -74 -24 -27 -14 -67 21 -81 42
-17 123 -19 164 -5 64 22 97 5 122 -65 9 -27 19 -56 20 -63 7 -37 31 -110 52
-161 40 -95 53 -203 54 -453 0 -65 4 -87 19 -105 40 -50 149 -14 241 80 41 42
60 70 65 97 5 22 8 42 7 47 -2 8 -5 8 74 12 82 4 146 45 197 125 20 32 8 61
-17 41 -39 -33 -31 70 9 113 13 14 20 28 15 31 -5 3 -38 7 -74 9 -35 2 -69 6
-75 10 -6 4 -32 48 -57 98 -59 113 -91 153 -110 137 -8 -6 -12 -15 -9 -19 7
-11 -26 -37 -56 -45 -24 -6 -28 -1 -69 82 -73 148 -79 153 -212 188 -100 26
-137 26 -223 1z m335 -292 c55 -57 97 -76 147 -68 21 3 48 2 61 -3 20 -8 21
-10 7 -30 -21 -29 -123 -91 -160 -96 -38 -5 -108 18 -131 45 -35 38 -15 198
24 198 4 0 28 -21 52 -46z"/>
<path d="M1155 3933 c13 -109 13 -120 16 -283 3 -223 23 -253 174 -255 85 -2
103 2 115 26 33 61 -237 579 -301 579 -8 0 -9 -21 -4 -67z"/>
<path d="M2711 3974 c-12 -15 -21 -34 -21 -43 0 -12 6 -9 20 9 11 14 20 29 20
34 0 4 17 5 38 2 36 -6 37 -6 12 8 -35 21 -46 20 -69 -10z"/>
<path d="M4955 3980 c-27 -9 -49 -21 -48 -26 1 -5 22 -67 47 -138 25 -70 46
-130 46 -131 0 -1 -39 -25 -87 -51 -262 -148 -348 -374 -232 -619 38 -82 88
-130 199 -193 127 -72 206 -92 352 -88 l113 4 80 -221 c44 -121 81 -226 83
-232 3 -12 -64 -33 -173 -54 -60 -12 -295 -3 -359 13 -23 6 -23 5 17 -104 22
-61 45 -110 51 -109 45 5 64 -3 76 -31 l12 -30 112 0 c61 0 152 7 201 16 50 8
106 17 126 21 l36 5 22 -63 c25 -71 31 -87 54 -141 13 -28 14 -38 4 -39 -6 0
-66 -2 -132 -4 -303 -7 -563 -16 -600 -21 -51 -6 -131 -36 -220 -82 -77 -40
-73 -34 -99 -184 l-7 -38 -899 0 c-494 0 -901 4 -904 8 -4 7 -55 240 -72 332
-8 40 -52 235 -86 374 l-31 130 -112 158 c-234 328 -264 406 -240 631 7 62 6
67 -12 67 -29 0 -40 -51 -42 -188 -2 -109 0 -123 26 -183 49 -115 117 -224
262 -419 70 -95 89 -130 112 -200 36 -111 111 -428 135 -565 3 -16 9 -46 14
-65 5 -19 11 -51 13 -70 3 -19 9 -57 13 -83 6 -42 4 -51 -17 -74 l-24 -25 43
21 c41 21 43 24 38 56 l-6 35 123 1 c67 0 210 2 317 4 107 2 407 6 665 10 259
3 515 7 570 8 94 1 100 0 98 -18 -4 -37 -4 -70 3 -197 6 -126 6 -127 -21 -175
-16 -26 -36 -59 -46 -72 -18 -23 -18 -24 7 -43 36 -29 99 -46 259 -72 48 -8
194 -25 270 -32 39 -3 86 -7 105 -9 168 -19 735 -25 1015 -11 238 11 280 16
449 47 126 23 168 34 198 55 21 15 38 28 38 30 0 1 -13 16 -30 32 l-30 30 -67
-34 c-38 -18 -84 -36 -103 -39 -19 -2 -46 -7 -60 -10 -14 -3 -52 -8 -86 -11
-93 -10 -94 -7 -94 191 0 98 -4 166 -10 170 -31 19 1 30 125 40 39 3 77 8 85
10 8 2 35 7 60 10 79 10 98 16 116 36 14 16 15 23 6 45 -21 44 -16 51 36 51
125 1 162 4 162 13 0 6 -45 10 -114 10 l-113 0 -17 63 c-36 132 -29 122 -124
167 -48 23 -121 53 -162 67 -72 25 -84 26 -293 25 l-218 0 -11 26 c-16 41 -88
244 -98 274 -8 25 -5 29 48 60 32 18 62 35 67 37 19 7 101 77 142 121 143 153
156 393 33 578 -99 148 -230 197 -527 197 -121 0 -123 0 -132 25 -80 207 -146
406 -137 411 38 22 137 33 283 34 90 0 163 2 163 5 0 3 -20 59 -45 125 l-43
120 -59 1 c-32 0 -68 5 -79 12 -12 6 -23 10 -25 7 -2 -2 -37 -6 -77 -9 -41 -3
-106 -13 -145 -21 -39 -8 -74 -11 -77 -7 -7 7 -62 157 -75 200 -8 26 -21 27
-77 5 -41 -16 -42 -16 -56 5 -17 26 -13 26 -77 2z m202 -137 c18 -48 29 -91
25 -95 -4 -3 -19 -9 -33 -13 -24 -6 -27 -2 -59 80 -18 47 -31 87 -29 89 11 9
45 25 54 26 6 0 24 -39 42 -87z m533 -170 c13 -38 25 -73 27 -78 2 -6 -14 -9
-40 -7 -35 3 -43 7 -44 25 -1 12 -6 31 -12 42 -5 11 -14 35 -20 53 l-10 32 38
0 c37 0 37 0 61 -67z m-106 -72 c58 -1 41 -8 -39 -15 -106 -9 -261 -41 -269
-55 -3 -4 20 -74 50 -156 89 -243 113 -313 106 -319 -3 -3 -19 -6 -36 -6 -31
0 -31 1 -79 138 -27 75 -64 178 -82 227 -56 152 -58 140 23 159 38 8 100 18
138 22 38 4 70 7 71 8 1 1 19 1 40 0 21 -1 56 -3 77 -3z m-508 -119 c10 -27 8
-32 -36 -74 -64 -61 -92 -122 -91 -197 0 -59 26 -134 59 -173 19 -23 10 -23
-37 1 -46 24 -90 85 -107 150 -22 88 2 168 74 236 35 33 109 84 122 85 3 0 10
-13 16 -28z m64 -177 c4 -11 13 -33 18 -50 6 -16 27 -74 47 -129 20 -54 34
-100 31 -103 -3 -3 -33 -6 -68 -7 -78 -1 -107 17 -145 93 -19 38 -27 69 -26
105 0 60 18 99 69 151 l37 38 14 -39 c8 -21 18 -48 23 -59z m864 -365 c75 -51
122 -119 153 -224 47 -153 10 -295 -107 -415 -52 -53 -197 -150 -225 -151 -5
0 -18 -7 -28 -14 -16 -12 -13 -25 47 -190 l63 -176 -43 0 c-32 0 -44 4 -44 15
0 8 -29 94 -64 190 l-64 176 67 34 c166 83 280 208 315 344 35 133 -21 332
-116 421 -33 30 -5 24 46 -10z m-354 -100 c0 -6 -6 -10 -12 -8 -15 2 -108 -12
-108 -16 0 -4 41 -117 114 -318 25 -70 46 -130 46 -135 0 -5 -13 -17 -30 -26
-16 -10 -30 -17 -30 -15 0 2 -39 109 -86 238 -105 286 -103 277 -73 282 59 10
179 8 179 -2z m-330 -34 c0 -8 -8 -17 -17 -20 -26 -8 -203 -4 -208 4 -2 4 10
7 28 6 26 -1 78 5 190 23 4 0 7 -5 7 -13z m476 -36 c9 -8 25 -33 35 -55 41
-95 32 -175 -28 -258 -61 -83 -64 -82 -112 56 -24 67 -47 131 -52 142 -4 11
-17 43 -28 72 l-19 52 22 4 c50 9 164 1 182 -13z m-213 -689 c4 -17 -3 -21
-47 -31 -28 -6 -66 -13 -83 -15 -18 -3 -48 -7 -66 -10 -52 -7 -217 -8 -224 -1
-4 3 2 6 13 7 121 7 176 15 280 43 113 30 121 30 127 7z m884 -387 c10 -28
-10 -34 -91 -26 -89 8 -115 28 -44 35 103 9 129 7 135 -9z m168 -98 c49 -32
-3 -50 -145 -50 -48 0 -76 6 -108 23 -24 12 -41 25 -38 28 11 12 72 18 166 17
76 0 104 -4 125 -18z m-1505 -585 c14 -10 32 -36 40 -59 13 -38 13 -43 -5 -62
-18 -20 -26 -21 -91 -15 -152 14 -179 29 -162 93 16 61 39 74 122 67 42 -4 81
-14 96 -24z"/>
<path d="M1127 3529 c4 -13 8 -18 11 -10 2 7 -1 18 -6 23 -8 8 -9 4 -5 -13z"/>
<path d="M1483 3293 c0 -54 -4 -67 -35 -110 -55 -74 -70 -112 -74 -178 l-4
-60 13 45 c7 25 28 71 47 103 86 143 90 160 66 227 -13 35 -13 35 -13 -27z"/>
<path d="M1272 2843 c-83 -53 -268 -189 -362 -266 -133 -109 -180 -158 -180
-186 0 -30 46 -111 64 -111 28 0 196 94 351 196 163 108 170 115 194 210 45
177 28 219 -67 157z"/>
<path d="M1474 2822 c-18 -12 -28 -51 -39 -157 -3 -33 -20 -114 -37 -180 -16
-66 -32 -133 -35 -150 -2 -16 -12 -46 -21 -65 -16 -32 -20 -35 -54 -32 -43 4
-52 -13 -15 -27 13 -5 28 -15 35 -23 22 -27 16 -42 -150 -337 -170 -302 -213
-358 -266 -348 -16 3 -78 33 -138 66 -96 54 -144 72 -144 56 0 -3 6 -16 14
-28 8 -12 17 -44 21 -71 3 -27 12 -54 21 -60 17 -13 9 -38 -49 -166 -14 -30
-35 -80 -48 -110 -32 -79 -56 -109 -79 -105 -11 2 -48 20 -82 41 -54 31 -135
64 -161 64 -17 0 37 -61 167 -191 75 -74 136 -139 136 -145 0 -20 -137 -31
-417 -34 l-133 -2 0 -40 0 -39 408 2 c367 2 529 8 617 23 17 3 50 8 75 10 25
3 56 8 70 11 14 3 48 8 75 11 57 7 111 29 118 49 8 20 -29 178 -52 223 -24 47
-90 98 -144 113 -21 5 -69 12 -107 14 -65 4 -109 17 -111 33 0 4 -2 17 -5 29
-5 28 2 28 57 3 24 -11 52 -20 61 -20 15 0 62 51 121 131 17 23 23 24 115 23
53 -1 265 -3 470 -5 419 -4 376 4 385 -80 5 -43 32 -101 58 -125 25 -23 24
-34 -10 -102 -33 -67 -59 -162 -67 -254 -6 -62 -5 -67 23 -92 l28 -27 535 4
c539 4 631 10 601 40 -7 7 -60 10 -163 7 -196 -4 -719 -5 -823 0 -89 3 -138
16 -116 29 7 5 194 9 415 10 566 2 666 8 666 40 0 13 -20 19 -108 31 -43 6
-87 12 -98 14 -10 2 -53 9 -94 16 -183 29 -280 80 -280 147 0 39 42 57 131 56
57 -1 82 3 90 13 21 26 -6 37 -89 38 -84 2 -131 20 -133 54 -1 9 -2 22 -4 27
-1 6 -3 16 -3 23 -1 7 -5 11 -9 9 -5 -3 -30 -8 -58 -11 -27 -4 -78 -14 -113
-21 -166 -39 -204 -3 -247 236 -8 45 -43 164 -63 219 -35 93 -84 273 -85 312
-2 47 21 72 90 98 74 28 133 59 133 70 0 5 -17 12 -37 15 -70 11 -108 31 -228
121 -66 50 -160 118 -210 152 -108 74 -215 176 -276 263 -45 64 -113 115 -135
101z m411 -529 c80 -97 153 -206 169 -250 7 -21 16 -65 20 -98 5 -51 22 -191
41 -340 3 -22 8 -62 11 -90 3 -27 7 -56 9 -62 4 -10 -90 -13 -447 -13 -445 0
-450 0 -437 20 8 10 92 121 187 244 182 237 244 339 291 478 39 114 72 178 92
178 5 0 34 -30 64 -67z"/>
<path d="M1241 2404 c0 -11 3 -14 6 -6 3 7 2 16 -1 19 -3 4 -6 -2 -5 -13z"/>
<path d="M1226 2348 c-20 -100 -21 -102 -164 -224 -243 -209 -376 -328 -434
-387 -61 -60 -63 -66 -58 -167 1 -40 -8 -54 -66 -98 l-42 -32 -231 0 c-190 0
-231 -2 -231 -14 0 -20 15 -21 222 -21 104 0 188 -2 188 -5 -1 -3 -41 -36 -90
-73 -50 -38 -90 -72 -90 -78 0 -5 21 -9 46 -9 43 0 51 5 151 92 162 140 172
152 166 194 -3 20 -2 57 2 82 6 41 16 55 93 132 94 92 159 153 292 270 47 41
94 83 105 93 11 11 45 41 77 69 58 52 64 62 73 143 4 27 8 52 11 57 3 4 1 8
-4 8 -5 0 -12 -14 -16 -32z"/>
<path d="M6808 1308 c-3 -7 -24 -18 -49 -25 -26 -7 -34 -12 -19 -11 69 1 70 1
70 -42 0 -22 4 -40 9 -40 5 0 7 28 4 62 -5 66 -8 78 -15 56z"/>
<path d="M6823 1145 c0 -22 2 -30 4 -17 2 12 2 30 0 40 -3 9 -5 -1 -4 -23z"/>
<path d="M3129 1130 c105 -28 122 -44 157 -150 30 -92 54 -140 87 -176 24 -27
27 -35 18 -53 -10 -19 -9 -21 12 -21 49 0 61 40 23 81 -17 18 -25 42 -30 87
-4 34 -17 90 -29 124 -31 88 -77 112 -237 123 l-75 5 74 -20z"/>
</g>
</svg>
