<?xml version="1.0" encoding="UTF-8" standalone="no"?>
<svg
  version="1.1"
  viewBox="0 0 128 128"
  id="svg16"
  xmlns="http://www.w3.org/2000/svg"
>
  <defs
     id="defs4">
    <style>
      @media (prefers-color-scheme: dark) {
        .cls-1 { fill: #fff; }
        .cls-2 { fill: #663367; }
      }
      .cls-1 { fill: #663367; stroke-width: 0px;}
      .cls-2 { fill:#fff; fill-opacity:1; stroke-width:0px}
    </style>
  </defs>
  <rect
     class="cls-2"
     width="128"
     height="128"
     x="0"
     y="0"
     ry="11.357903" />
  <path
     class="cls-1"
     d="M 64.022662,13.425334 C 45.578108,13.425334 30,28.380377 30,46.824932 30,59.468741 39.103392,71.543942 50.071,76.146 L 50,128 H 77 V 76.146 C 84.782594,74.081896 96.652661,63.32754 97,46.824932 97.388126,28.384461 82.421894,13.456 63.977341,13.456 Z m 0,20.030666 C 71.409548,33.456 77,39.438047 77,46.824932 77,54.211817 71.409548,60.148515 64.022662,60.148515 56.635776,60.148515 50,54.166498 50,46.824932 50,39.483364 56.635776,33.456 64.022662,33.456 Z"
     id="path11" />
</svg>
