<?xml version="1.0" encoding="UTF-8"?>
<svg id="Layer_2" data-name="Layer 2" xmlns="http://www.w3.org/2000/svg" version="1.1" viewBox="0 0 210 210">
  <defs>
    <style>
      .cls-1 {
        fill: #231f20;
        stroke-width: 0px;
      }
    </style>
  </defs>
  <path class="cls-1" d="M84.96,30.19c-4.47,0-8.09,3.62-8.09,8.09,0,3.07,1.71,5.74,4.23,7.11v78.3h8.72V44.76c1.97-1.48,3.24-3.83,3.24-6.48,0-4.47-3.62-8.09-8.09-8.09ZM84.96,35.04c1.79,0,3.24,1.45,3.24,3.24s-1.45,3.24-3.24,3.24-3.24-1.45-3.24-3.24,1.45-3.24,3.24-3.24Z"/>
  <path class="cls-1" d="M105,14.75c-4.47,0-8.09,3.62-8.09,8.09,0,2.87,1.49,5.38,3.74,6.82v94.04h8.72V29.66c2.25-1.44,3.74-3.95,3.74-6.82,0-4.47-3.62-8.09-8.09-8.09ZM105,19.6c1.79,0,3.24,1.45,3.24,3.24s-1.45,3.24-3.24,3.24-3.24-1.45-3.24-3.24,1.45-3.24,3.24-3.24Z"/>
  <path class="cls-1" d="M124.79,39.2c-4.47,0-8.09,3.62-8.09,8.09,0,2.87,1.49,5.38,3.74,6.82v69.58h8.72V54.12c2.25-1.44,3.74-3.95,3.74-6.82,0-4.47-3.62-8.09-8.09-8.09ZM124.79,44.06c1.79,0,3.24,1.45,3.24,3.24s-1.45,3.24-3.24,3.24-3.24-1.45-3.24-3.24,1.45-3.24,3.24-3.24Z"/>
  <path class="cls-1" d="M25.92,62.94c-1.44-2.25-3.95-3.74-6.82-3.74-4.47,0-8.09,3.62-8.09,8.09s3.62,8.09,8.09,8.09c2.87,0,5.38-1.49,6.82-3.74h10.37l-5.08,28.62-7.76.04c-.4,0-.72.4-.72.87v.05c0,.47.35.87.75.87h.07v1.74c.02,3.46,2.84,6.23,6.28,6.23l20.89-.1c3.86-.02,6.95-3.16,6.95-7.02v-1.02h.25c.42,0,.75-.4.75-.87v-.05c0-.47-.35-.87-.75-.87l-7.75.04-5.06-28.52h16.21v52.04h8.72v-60.76H25.92ZM19.1,70.53c-1.79,0-3.24-1.45-3.24-3.24s1.45-3.24,3.24-3.24,3.24,1.45,3.24,3.24-1.45,3.24-3.24,3.24ZM45.25,100.2l-9.12.04,4.56-25.72,4.56,25.68Z"/>
  <path class="cls-1" d="M190.9,44.6c-2.87,0-5.38,1.49-6.82,3.74h-44.11v75.36h8.72V57.05h16.21l-5.06,28.52-7.75-.04c-.4,0-.75.4-.75.87v.05c0,.47.32.87.75.87h.25v1.02c0,3.86,3.09,7,6.95,7.02l20.89.1c3.44,0,6.25-2.76,6.28-6.23v-1.74h.07c.4,0,.75-.4.75-.87v-.05c0-.47-.32-.87-.72-.87l-7.76-.04-5.08-28.62h10.37c1.44,2.25,3.95,3.74,6.82,3.74,4.47,0,8.09-3.62,8.09-8.09s-3.62-8.09-8.09-8.09ZM173.87,85.64l-9.12-.04,4.56-25.68,4.56,25.72ZM190.9,55.93c-1.79,0-3.24-1.45-3.24-3.24s1.45-3.24,3.24-3.24,3.24,1.45,3.24,3.24-1.45,3.24-3.24,3.24Z"/>
  <g>
    <path class="cls-1" d="M43.96,191.17v-59.05h39.69v10.05h-28.18v15.21h23.46v9.32h-23.46v24.45l-11.5.02h0Z"/>
    <path class="cls-1" d="M91.68,191.17v-59.05h11.48v49h30.11v10.05h-41.59Z"/>
    <path class="cls-1" d="M140.25,191.17v-59.05h25.02c2.71,0,5.23.57,7.53,1.71s4.28,2.64,5.94,4.49,2.97,3.97,3.92,6.32c.95,2.35,1.43,4.73,1.43,7.11s-.45,4.92-1.33,7.27c-.88,2.35-2.14,4.44-3.75,6.27s-3.54,3.3-5.82,4.4-4.78,1.66-7.49,1.66h-13.97v19.8l-11.48.02h0ZM151.73,161.32h13.31c2.12,0,3.87-.86,5.28-2.57,1.43-1.71,2.12-4.04,2.12-6.99s-.21-2.85-.67-4.04c-.45-1.19-1.02-2.21-1.73-3.04s-1.57-1.45-2.54-1.88-1.95-.62-2.95-.62h-12.81v19.13Z"/>
  </g>
</svg>