<?xml version="1.0" encoding="UTF-8" standalone="no"?>
<!-- Created with Inkscape (http://www.inkscape.org/) -->

<svg
  xmlns:inkscape="http://www.inkscape.org/namespaces/inkscape"
  xmlns:sodipodi="http://sodipodi.sourceforge.net/DTD/sodipodi-0.dtd"
  version="1.1"
  id="svg342"
  width="1273.1467"
  height="1271.392"
  viewBox="0 0 1273.1467 1271.392"
  sodipodi:docname="Free Law_Small_Black.ai"
  inkscape:version="1.2.2 (b0a8486541, 2022-12-01)"
  xmlns="http://www.w3.org/2000/svg">
  <defs
     id="defs346">
    <clipPath
       clipPathUnits="userSpaceOnUse"
       id="clipPath358">
      <path
         d="M 0,953.544 H 954.86 V 0 H 0 Z"
         id="path356" />
    </clipPath>
  </defs>
  <sodipodi:namedview
     id="namedview344"
     pagecolor="#ffffff"
     bordercolor="#000000"
     borderopacity="0.25"
     inkscape:showpageshadow="2"
     inkscape:pageopacity="0.0"
     inkscape:pagecheckerboard="0"
     inkscape:deskcolor="#d1d1d1"
     showgrid="false"
     inkscape:zoom="0.18562333"
     inkscape:cx="635.69597"
     inkscape:cy="643.77685"
     inkscape:window-width="2560"
     inkscape:window-height="1377"
     inkscape:window-x="0"
     inkscape:window-y="0"
     inkscape:window-maximized="1"
     inkscape:current-layer="g350">
    <inkscape:page
       x="0"
       y="0"
       id="page348"
       width="1273.1467"
       height="1271.392" />
  </sodipodi:namedview>
  <g
     id="g350"
     inkscape:groupmode="layer"
     inkscape:label="Page 1"
     transform="matrix(1.3333333,0,0,-1.3333333,0,1271.392)">
    <g
       id="g352">
      <g
         id="g354"
         clip-path="url(#clipPath358)">
        <g
           id="g360"
           transform="translate(183.9322,664.221)">
          <path
             d="m 0,0 0.316,0.508 h 98.89 V -250.15 h 26.496 V 26.926 H -80.673 c -3.785,13.327 -15.93,23.185 -30.44,23.185 -20.108,0 -35.88,-18.769 -30.913,-39.666 2.682,-10.962 11.277,-19.952 22.16,-22.87 14.431,-3.864 27.917,2.209 35.092,12.933 h 67.504 l -0.237,-0.981"
             style="fill:#231f20;fill-opacity:1;fill-rule:nonzero;stroke:#231f20;stroke-width:12;stroke-linecap:butt;stroke-linejoin:miter;stroke-miterlimit:10;stroke-dasharray:none;stroke-opacity:1"
             id="path362" />
        </g>
        <g
           id="g364"
           transform="translate(575.7782,807.2572)">
          <path
             d="m 0,0 c -11.434,-2.662 -20.739,-11.901 -23.342,-23.333 -3.627,-15.424 4.338,-29.361 16.876,-35.546 V -391.92 h 26.418 v 332.102 c 11.434,4.775 19.478,16.05 19.478,29.125 C 39.43,-10.805 20.819,4.776 0,0"
             style="fill:#231f20;fill-opacity:1;fill-rule:nonzero;stroke:none"
             id="path366" />
        </g>
        <g
           id="g368"
           transform="translate(575.7782,807.2572)">
          <path
             d="m 0,0 c -11.434,-2.662 -20.739,-11.901 -23.342,-23.333 -3.627,-15.424 4.338,-29.361 16.876,-35.546 V -391.92 h 26.418 v 332.102 c 11.434,4.775 19.478,16.05 19.478,29.125 C 39.43,-10.805 20.819,4.776 0,0 Z"
             style="fill:none;stroke:#231f20;stroke-width:12;stroke-linecap:butt;stroke-linejoin:miter;stroke-miterlimit:10;stroke-dasharray:none;stroke-opacity:1"
             id="path370" />
        </g>
        <g
           id="g372"
           transform="translate(802.2996,735.3707)">
          <path
             d="m 0,0 0.315,0.264 h 55.991 c 5.283,-10.106 15.851,-17.078 28.152,-17.078 20.031,0 35.882,18.567 30.835,39.404 C 112.69,33.479 103.937,42.41 93.054,45.23 76.179,49.696 60.643,40.608 54.965,26.586 H -143.288 V -321.3 h 26.498 V 0.264 h 99.519 l -0.237,-0.734"
             style="fill:#231f20;fill-opacity:1;fill-rule:nonzero;stroke:#231f20;stroke-width:12;stroke-linecap:butt;stroke-linejoin:miter;stroke-miterlimit:10;stroke-dasharray:none;stroke-opacity:1"
             id="path374" />
        </g>
        <g
           id="g376"
           transform="translate(176.2415,667.6038)">
          <path
             d="M 0,0 43.449,-152.493"
             style="fill:none;stroke:#231f20;stroke-width:29;stroke-linecap:butt;stroke-linejoin:miter;stroke-miterlimit:10;stroke-dasharray:none;stroke-opacity:1"
             id="path378" />
        </g>
        <g
           id="g380"
           transform="translate(173.4659,667.1283)">
          <path
             d="M 0,0 -37.122,-154.998"
             style="fill:none;stroke:#231f20;stroke-width:29;stroke-linecap:butt;stroke-linejoin:miter;stroke-miterlimit:10;stroke-dasharray:none;stroke-opacity:1"
             id="path382" />
        </g>
        <g
           id="g384"
           transform="translate(218.9403,473.7195)">
          <path
             d="m 0,0 -89,-0.427 c -19.428,-0.093 -35.252,15.585 -35.337,35.014 l -0.018,4.153 163.486,0.785 V 39.492 C 39.226,17.782 21.709,0.104 0,0"
             style="fill:#231f20;fill-opacity:1;fill-rule:nonzero;stroke:none"
             id="path386" />
        </g>
        <g
           id="g388"
           transform="translate(259.3636,512.1523)">
          <path
             d="m 0,0 -165.077,-0.792 c -1.955,-0.01 -3.548,1.856 -3.558,4.166 l -0.001,0.191 c -0.01,2.309 1.565,4.188 3.519,4.197 L -0.04,8.555 C 1.915,8.564 3.508,6.698 3.518,4.388 L 3.519,4.197 C 3.529,1.888 1.954,0.009 0,0"
             style="fill:#231f20;fill-opacity:1;fill-rule:nonzero;stroke:none"
             id="path390" />
        </g>
        <g
           id="g392"
           transform="translate(793.3422,743.6328)">
          <path
             d="M 0,0 45.345,-225.452"
             style="fill:none;stroke:#231f20;stroke-width:29;stroke-linecap:butt;stroke-linejoin:miter;stroke-miterlimit:10;stroke-dasharray:none;stroke-opacity:1"
             id="path394" />
        </g>
        <g
           id="g396"
           transform="translate(790.5574,742.8066)">
          <path
             d="M 0,0 -36.055,-228.014"
             style="fill:none;stroke:#231f20;stroke-width:29;stroke-linecap:butt;stroke-linejoin:miter;stroke-miterlimit:10;stroke-dasharray:none;stroke-opacity:1"
             id="path398" />
        </g>
        <g
           id="g400"
           transform="translate(839.1127,474.7195)">
          <path
             d="m 0,0 -89,-0.427 c -19.428,-0.093 -35.252,15.585 -35.337,35.014 l -0.018,4.153 163.486,0.785 V 39.492 C 39.226,17.782 21.709,0.104 0,0"
             style="fill:#231f20;fill-opacity:1;fill-rule:nonzero;stroke:none"
             id="path402" />
        </g>
        <g
           id="g404"
           transform="translate(879.5359,512.1523)">
          <path
             d="m 0,0 -165.077,-0.792 c -1.955,-0.01 -3.548,1.856 -3.558,4.166 l -0.001,0.191 c -0.01,2.309 1.565,4.188 3.519,4.197 L -0.04,8.555 C 1.915,8.564 3.508,6.698 3.518,4.388 L 3.519,4.197 C 3.529,1.888 1.954,0.009 0,0"
             style="fill:#231f20;fill-opacity:1;fill-rule:nonzero;stroke:none"
             id="path406" />
        </g>
        <g
           id="g408"
           transform="translate(85.6665,683.0967)">
          <path
             d="m 0,0 c 0,-7.649 -6.201,-13.849 -13.849,-13.849 -7.649,0 -13.849,6.2 -13.849,13.849 0,7.649 6.2,13.849 13.849,13.849 C -6.201,13.849 0,7.649 0,0"
             style="fill:#ffffff;fill-opacity:1;fill-rule:nonzero;stroke:none"
             id="path410" />
        </g>
        <g
           id="g412"
           transform="translate(85.6665,683.0967)">
          <path
             d="m 0,0 c 0,-7.649 -6.201,-13.849 -13.849,-13.849 -7.649,0 -13.849,6.2 -13.849,13.849 0,7.649 6.2,13.849 13.849,13.849 C -6.201,13.849 0,7.649 0,0 Z"
             style="fill:none;stroke:#ffffff;stroke-width:1;stroke-linecap:butt;stroke-linejoin:miter;stroke-miterlimit:10;stroke-dasharray:none;stroke-opacity:1"
             id="path414" />
        </g>
        <g
           id="g416"
           transform="translate(480.4034,920.0438)">
          <path
             d="m 0,0 c -11.514,-2.667 -20.82,-12 -23.422,-23.529 -3.549,-15.686 4.731,-29.96 17.743,-35.921 V -505.973 H 20.739 V -59.45 c 10.962,4.941 18.612,15.921 18.612,28.705 C 39.351,-10.902 20.818,4.784 0,0"
             style="fill:#231f20;fill-opacity:1;fill-rule:nonzero;stroke:none"
             id="path418" />
        </g>
        <g
           id="g420"
           transform="translate(480.4034,920.0438)">
          <path
             d="m 0,0 c -11.514,-2.667 -20.82,-12 -23.422,-23.529 -3.549,-15.686 4.731,-29.96 17.743,-35.921 V -505.973 H 20.739 V -59.45 c 10.962,4.941 18.612,15.921 18.612,28.705 C 39.351,-10.902 20.818,4.784 0,0 Z"
             style="fill:none;stroke:#231f20;stroke-width:12;stroke-linecap:butt;stroke-linejoin:miter;stroke-miterlimit:10;stroke-dasharray:none;stroke-opacity:1"
             id="path422" />
        </g>
        <g
           id="g424"
           transform="translate(500.9474,891.7264)">
          <path
             d="m 0,0 c 0,-7.649 -6.201,-13.849 -13.849,-13.849 -7.649,0 -13.849,6.2 -13.849,13.849 0,7.649 6.2,13.849 13.849,13.849 C -6.201,13.849 0,7.649 0,0"
             style="fill:#ffffff;fill-opacity:1;fill-rule:nonzero;stroke:none"
             id="path426" />
        </g>
        <g
           id="g428"
           transform="translate(597.6357,778.5708)">
          <path
             d="m 0,0 c 0,-7.649 -6.201,-13.849 -13.849,-13.849 -7.649,0 -13.849,6.2 -13.849,13.849 0,7.649 6.2,13.849 13.849,13.849 C -6.201,13.849 0,7.649 0,0"
             style="fill:#ffffff;fill-opacity:1;fill-rule:nonzero;stroke:none"
             id="path430" />
        </g>
        <g
           id="g432"
           transform="translate(384.639,846.4977)">
          <path
             d="m 0,0 c -11.434,-2.662 -20.739,-11.901 -23.342,-23.333 -3.627,-15.424 4.338,-29.361 16.876,-35.546 l 2.827,-372.577 H 22.778 L 19.952,-59.819 C 31.386,-55.043 39.43,-43.768 39.43,-30.693 39.43,-10.805 20.819,4.776 0,0"
             style="fill:#231f20;fill-opacity:1;fill-rule:nonzero;stroke:none"
             id="path434" />
        </g>
        <g
           id="g436"
           transform="translate(384.639,846.4977)">
          <path
             d="m 0,0 c -11.434,-2.662 -20.739,-11.901 -23.342,-23.333 -3.627,-15.424 4.338,-29.361 16.876,-35.546 l 2.827,-372.577 H 22.778 L 19.952,-59.819 C 31.386,-55.043 39.43,-43.768 39.43,-30.693 39.43,-10.805 20.819,4.776 0,0 Z"
             style="fill:none;stroke:#231f20;stroke-width:12;stroke-linecap:butt;stroke-linejoin:miter;stroke-miterlimit:10;stroke-dasharray:none;stroke-opacity:1"
             id="path438" />
        </g>
        <g
           id="g440"
           transform="translate(406.4964,817.8113)">
          <path
             d="m 0,0 c 0,-7.649 -6.201,-13.849 -13.849,-13.849 -7.649,0 -13.849,6.2 -13.849,13.849 0,7.649 6.2,13.849 13.849,13.849 C -6.201,13.849 0,7.649 0,0"
             style="fill:#ffffff;fill-opacity:1;fill-rule:nonzero;stroke:none"
             id="path442" />
        </g>
        <g
           id="g444"
           transform="translate(901.5096,750.2653)">
          <path
             d="m 0,0 c 0,-7.649 -6.201,-13.849 -13.849,-13.849 -7.649,0 -13.849,6.2 -13.849,13.849 0,7.649 6.2,13.849 13.849,13.849 C -6.201,13.849 0,7.649 0,0"
             style="fill:#ffffff;fill-opacity:1;fill-rule:nonzero;stroke:none"
             id="path446" />
        </g>
        <g
           id="g448"
           transform="translate(276.6827,186.8547)">
          <path
             d="M 0,0 V 174.66 H 117.342 V 144.894 H 33.948 V 99.876 H 103.32 V 72.324 H 33.948 L 33.948,0 Z"
             style="fill:#231f20;fill-opacity:1;fill-rule:nonzero;stroke:none"
             id="path450" />
        </g>
        <g
           id="g452"
           transform="translate(417.8839,186.8547)">
          <path
             d="M 0,0 V 174.66 H 33.948 V 29.766 H 123 V 0 Z"
             style="fill:#231f20;fill-opacity:1;fill-rule:nonzero;stroke:none"
             id="path454" />
        </g>
        <g
           id="g456"
           transform="translate(595.4957,275.1692)">
          <path
             d="m 0,0 h 39.359 c 6.232,0 11.44,2.54 15.621,7.626 4.183,5.081 6.274,11.969 6.274,20.663 0,4.429 -0.657,8.403 -1.968,11.932 -1.315,3.524 -3.037,6.518 -5.166,8.978 -2.134,2.46 -4.636,4.306 -7.504,5.535 -2.871,1.231 -5.78,1.845 -8.732,1.845 L 0,56.579 Z m -33.948,-88.314 v 174.66 h 74.046 c 8.033,0 15.456,-1.684 22.262,-5.043 6.804,-3.364 12.669,-7.791 17.589,-13.284 4.921,-5.497 8.772,-11.728 11.563,-18.697 2.787,-6.972 4.181,-13.983 4.181,-21.033 0,-7.38 -1.314,-14.556 -3.935,-21.524 -2.625,-6.973 -6.316,-13.161 -11.07,-18.574 -4.759,-5.412 -10.498,-9.758 -17.22,-13.038 -6.727,-3.282 -14.107,-4.92 -22.14,-4.92 H 0 v -58.547 z"
             style="fill:#231f20;fill-opacity:1;fill-rule:nonzero;stroke:none"
             id="path458" />
        </g>
        <path
           d="m 412.256,32.972 h -37.564 v 105.759 h 37.564 z"
           style="fill:#231f20;fill-opacity:1;fill-rule:nonzero;stroke:none"
           id="path460" />
        <path
           d="m 315.383,32.972 h -37.564 v 105.759 h 37.564 z"
           style="fill:#231f20;fill-opacity:1;fill-rule:nonzero;stroke:none"
           id="path462" />
        <path
           d="M 506.51,32.972 H 468.946 V 138.731 H 506.51 Z"
           style="fill:#231f20;fill-opacity:1;fill-rule:nonzero;stroke:none"
           id="path464" />
        <path
           d="M 602.074,32.972 H 564.51 v 105.759 h 37.564 z"
           style="fill:#231f20;fill-opacity:1;fill-rule:nonzero;stroke:none"
           id="path466" />
        <path
           d="m 691.092,32.972 h -37.564 v 105.759 h 37.564 z"
           style="fill:#231f20;fill-opacity:1;fill-rule:nonzero;stroke:none"
           id="path468" />
      </g>
    </g>
  </g>
</svg>
