<svg xmlns="http://www.w3.org/2000/svg" id="svg1020" width="1267.959" height="1567.627" version="1.1" viewBox="0 0 1267.959 1567.627"><defs id="defs1024"><clipPath id="clipPath1036" clipPathUnits="userSpaceOnUse"><path id="path1034" d="m 16.195,438.176 h 917.283 v 721.557 H 16.195 Z"/></clipPath><clipPath id="clipPath1070" clipPathUnits="userSpaceOnUse"><path id="path1068" d="M 0,1175.718 H 950.969 V 0 H 0 Z"/></clipPath><clipPath id="clipPath1098" clipPathUnits="userSpaceOnUse"><path id="path1096" d="m 16.195,12.132 h 917.283 v 115.96 H 16.195 Z"/></clipPath><clipPath id="clipPath1126" clipPathUnits="userSpaceOnUse"><path id="path1124" d="M 0,1175.718 H 950.969 V 0 H 0 Z"/></clipPath></defs><g id="g1028" transform="matrix(1.3333333,0,0,-1.3333333,0,1567.6267)"><g id="g1030"><g id="g1032" clip-path="url(#clipPath1036)"><g id="g1038" transform="translate(75.0707,716.3424)"><path d="m 0,0 c -2.119,-6.926 -8.492,-12.005 -16.101,-12.005 -9.323,0 -16.911,7.583 -16.911,16.911 0,9.323 7.588,16.909 16.911,16.909 7.609,0 13.982,-5.081 16.101,-12.002 z m 234.703,-707.57 h 31.595 v 148.308 h -31.595 z m -118.297,622.463 0.376,68.855 H 234.703 V -340.11 h 31.595 V 15.249 H 20.207 C 15.692,31.14 1.21,42.898 -16.092,42.898 c -23.976,0 -42.784,-22.384 -36.863,-47.302 3.2,-13.07 13.45,-23.789 26.426,-27.269 17.209,-4.609 33.29,2.634 41.845,15.421 h 80.495 l -0.283,-69.417" style="fill:#fff;fill-opacity:1;fill-rule:nonzero;stroke:none" id="path1040"/></g><path d="m 387.788,8.772 h 31.501 v 149.226 h -31.501 z" style="fill:#fff;fill-opacity:1;fill-rule:nonzero;stroke:none" id="path1042"/><g id="g1044" transform="translate(402.3209,993.9312)"><path d="m 0,0 c -9.325,0 -16.911,7.586 -16.911,16.905 0,9.329 7.586,16.914 16.911,16.914 9.323,0 16.912,-7.585 16.912,-16.914 C 16.912,7.586 9.323,0 0,0 m -9.361,53.737 c -12.977,-3.103 -23.696,-13.446 -27.176,-26.423 -5.361,-20.029 5.361,-38.461 22.004,-45.42 v -598.319 h 31.502 v 599.637 c 12.413,6.207 20.968,18.901 20.968,33.663 0,23.979 -22.284,42.883 -47.298,36.862" style="fill:#fff;fill-opacity:1;fill-rule:nonzero;stroke:none" id="path1046"/></g><g id="g1048" transform="translate(485.7538,1100.2141)"><path d="m 0,0 c -9.329,0 -16.914,7.586 -16.914,16.914 0,9.329 7.585,16.913 16.914,16.913 9.326,0 16.911,-7.584 16.911,-16.913 C 16.911,7.586 9.326,0 0,0 M -9.006,53.816 C -22.739,50.636 -33.834,39.507 -36.938,25.758 -41.17,7.053 -31.297,-9.967 -15.779,-17.074 v -705.634 h 31.501 v 705.634 c 13.07,5.891 22.194,18.982 22.194,34.229 0,23.661 -22.101,42.365 -46.922,36.661 m -6.773,-1145.258 h 31.501 v 149.226 h -31.501 z" style="fill:#fff;fill-opacity:1;fill-rule:nonzero;stroke:none" id="path1050"/></g><g id="g1052" transform="translate(564.6082,915.0707)"><path d="m 0,0 c -9.328,0 -16.908,7.586 -16.908,16.908 0,9.326 7.58,16.911 16.908,16.911 9.326,0 16.917,-7.585 16.917,-16.911 C 16.917,7.586 9.326,0 0,0 m -16.773,-906.298 h 31.501 v 149.226 H -16.773 Z M -9.06,53.804 c -13.637,-3.173 -24.732,-14.19 -27.836,-27.823 -4.325,-18.392 5.172,-35.012 20.123,-42.386 v -521.16 h 31.502 v 520.04 c 13.636,5.692 23.226,19.138 23.226,34.731 0,23.714 -22.191,42.293 -47.015,36.598" style="fill:#fff;fill-opacity:1;fill-rule:nonzero;stroke:none" id="path1054"/></g><g id="g1056" transform="translate(890.6455,784.7816)"><path d="m 0,0 c -9.328,0 -16.905,7.586 -16.905,16.911 0,9.323 7.577,16.908 16.905,16.908 9.329,0 16.917,-7.585 16.917,-16.908 C 16.917,7.586 9.329,0 0,0 m -100.666,-64.839 0.373,64.698 h 66.769 c 6.297,-12.05 18.898,-20.364 33.569,-20.364 23.886,0 42.787,22.14 36.766,46.988 C 33.708,39.466 23.272,50.116 10.295,53.479 -9.828,58.804 -28.353,47.967 -35.126,31.248 h -236.403 v -439.701 h 31.595 V -0.141 h 118.672 l -0.283,-65.261 m -149.984,-710.607 h 31.595 v 149.226 h -31.595 z" style="fill:#fff;fill-opacity:1;fill-rule:nonzero;stroke:none" id="path1058"/></g><g id="g1060" transform="translate(178.9937,637.7559)"><path d="M 0,0 -44.264,-124.835 M 3.311,0.557 55.122,-121.34" style="fill:none;stroke:#fff;stroke-width:18;stroke-linecap:butt;stroke-linejoin:miter;stroke-miterlimit:10;stroke-dasharray:none;stroke-opacity:1" id="path1062"/></g></g></g><g id="g1064"><g id="g1066" clip-path="url(#clipPath1070)"><g id="g1072" transform="translate(232.0418,447.5825)"><path d="m 0,0 -106.126,-0.509 c -23.167,-0.111 -42.037,18.585 -42.137,41.751 l -0.024,4.952 194.951,0.936 V 47.091 C 46.775,21.204 25.887,0.123 0,0" style="fill:#fff;fill-opacity:1;fill-rule:nonzero;stroke:none" id="path1074"/></g><g id="g1076" transform="translate(281.4237,509.9052)"><path d="m 0,0 -196.847,-0.945 c -2.33,-0.012 -4.229,2.212 -4.241,4.967 V 4.25 c -0.012,2.755 1.863,4.994 4.196,5.006 L -0.048,10.201 C 2.282,10.21 4.184,7.986 4.196,5.232 V 5.003 C 4.208,2.251 2.33,0.009 0,0" style="fill:#fff;fill-opacity:1;fill-rule:nonzero;stroke:none" id="path1078"/></g><g id="g1080" transform="translate(777.4512,723.7564)"><path d="M 0,0 -44.264,-124.835 M 3.311,0.557 55.122,-121.34" style="fill:none;stroke:#fff;stroke-width:18;stroke-linecap:butt;stroke-linejoin:miter;stroke-miterlimit:10;stroke-dasharray:none;stroke-opacity:1" id="path1082"/></g><g id="g1084" transform="translate(830.4994,533.58)"><path d="m 0,0 -106.127,-0.509 c -23.166,-0.111 -42.037,18.585 -42.136,41.754 l -0.024,4.952 194.951,0.936 V 47.094 C 46.775,21.204 25.887,0.123 0,0" style="fill:#fff;fill-opacity:1;fill-rule:nonzero;stroke:none" id="path1086"/></g><g id="g1088" transform="translate(879.8812,595.9025)"><path d="m 0,0 -196.847,-0.945 c -2.33,-0.012 -4.229,2.215 -4.241,4.97 V 4.25 c -0.012,2.755 1.866,4.994 4.196,5.006 L -0.048,10.201 C 2.282,10.214 4.184,7.986 4.196,5.232 V 5.006 C 4.208,2.252 2.33,0.012 0,0" style="fill:#fff;fill-opacity:1;fill-rule:nonzero;stroke:none" id="path1090"/></g></g></g><g id="g1092"><g id="g1094" clip-path="url(#clipPath1098)"><g id="g1100" transform="translate(75.0707,676.846)"><path d="m 0,0 c -2.119,-6.926 -8.492,-12.008 -16.101,-12.008 -9.323,0 -16.911,7.586 -16.911,16.914 0,9.323 7.588,16.909 16.911,16.909 7.609,0 13.982,-5.081 16.101,-12.002 z m 234.703,-707.57 h 31.595 v 148.305 h -31.595 z m -118.297,622.464 0.376,68.854 h 117.921 v -323.861 h 31.595 V 15.249 H 20.207 C 15.692,31.14 1.21,42.895 -16.092,42.895 c -23.976,0 -42.784,-22.381 -36.863,-47.299 3.2,-13.07 13.45,-23.792 26.426,-27.272 17.209,-4.606 33.29,2.637 41.845,15.424 h 80.495 l -0.283,-69.417" style="fill:#fff;fill-opacity:1;fill-rule:nonzero;stroke:none" id="path1102"/></g><g id="g1104" transform="translate(402.3211,954.4317)"><path d="m 0,0 c -9.326,0 -16.911,7.589 -16.911,16.908 0,9.329 7.585,16.914 16.911,16.914 9.323,0 16.911,-7.585 16.911,-16.914 C 16.911,7.589 9.323,0 0,0 m -9.362,53.74 c -12.977,-3.103 -23.696,-13.446 -27.175,-26.423 -5.362,-20.029 5.361,-38.461 22.004,-45.42 v -598.319 h 31.501 v 599.637 c 12.414,6.207 20.969,18.901 20.969,33.663 0,23.979 -22.284,42.883 -47.299,36.862 m -5.171,-1038.896 h 31.501 v 149.226 h -31.501 z" style="fill:#fff;fill-opacity:1;fill-rule:nonzero;stroke:none" id="path1106"/></g><g id="g1108" transform="translate(485.7538,1060.7178)"><path d="m 0,0 c -9.329,0 -16.914,7.585 -16.914,16.914 0,9.329 7.585,16.911 16.914,16.911 9.326,0 16.911,-7.582 16.911,-16.911 C 16.911,7.585 9.326,0 0,0 M -9.006,53.816 C -22.739,50.634 -33.834,39.505 -36.938,25.758 -41.17,7.053 -31.297,-9.967 -15.779,-17.077 v -705.631 h 31.501 v 705.631 c 13.07,5.894 22.194,18.985 22.194,34.232 0,23.66 -22.101,42.365 -46.922,36.661 m -6.773,-1145.258 h 31.501 v 149.226 h -31.501 z" style="fill:#fff;fill-opacity:1;fill-rule:nonzero;stroke:none" id="path1110"/></g><g id="g1112" transform="translate(564.6082,875.5742)"><path d="m 0,0 c -9.328,0 -16.908,7.586 -16.908,16.908 0,9.326 7.58,16.911 16.908,16.911 9.326,0 16.917,-7.585 16.917,-16.911 C 16.917,7.586 9.326,0 0,0 m -16.773,-906.298 h 31.501 v 149.226 H -16.773 Z M -9.06,53.804 C -22.697,50.631 -33.792,39.614 -36.896,25.981 -41.221,7.589 -31.724,-9.03 -16.773,-16.405 v -521.16 h 31.502 v 520.04 c 13.636,5.692 23.226,19.139 23.226,34.728 0,23.717 -22.191,42.296 -47.015,36.601" style="fill:#fff;fill-opacity:1;fill-rule:nonzero;stroke:none" id="path1114"/></g><g id="g1116" transform="translate(890.6455,745.2852)"><path d="m 0,0 c -9.328,0 -16.905,7.583 -16.905,16.911 0,9.323 7.577,16.908 16.905,16.908 9.329,0 16.917,-7.585 16.917,-16.908 C 16.917,7.583 9.329,0 0,0 m -100.666,-64.839 0.373,64.698 h 66.769 c 6.297,-12.05 18.898,-20.364 33.569,-20.364 23.886,0 42.787,22.14 36.766,46.985 C 33.708,39.466 23.272,50.116 10.295,53.479 -9.828,58.804 -28.353,47.967 -35.126,31.246 h -236.403 v -439.699 h 31.595 V -0.141 h 118.672 l -0.283,-65.261 m -149.984,-710.607 h 31.595 v 149.226 h -31.595 z" style="fill:#fff;fill-opacity:1;fill-rule:nonzero;stroke:none" id="path1118"/></g></g></g><g id="g1120"><g id="g1122" clip-path="url(#clipPath1126)"><g id="g1128" transform="translate(256.8569,174.938)"><path d="M 0,0 V 210.43 H 141.374 V 174.569 H 40.9 V 120.33 h 83.58 V 87.136 H 40.9 L 40.9,0 Z" style="fill:#fff;fill-opacity:1;fill-rule:nonzero;stroke:none" id="path1130"/></g><g id="g1132" transform="translate(426.9769,174.938)"><path d="M 0,0 V 210.43 H 40.9 V 35.863 H 148.19 V 0 Z" style="fill:#fff;fill-opacity:1;fill-rule:nonzero;stroke:none" id="path1134"/></g><g id="g1136" transform="translate(640.9634,281.3403)"><path d="m 0,0 h 47.42 c 7.508,0 13.783,3.06 18.821,9.186 5.039,6.124 7.558,14.422 7.558,24.896 0,5.335 -0.792,10.124 -2.371,14.375 -1.584,4.247 -3.658,7.854 -6.224,10.817 -2.57,2.964 -5.586,5.189 -9.04,6.67 -3.46,1.482 -6.965,2.223 -10.521,2.223 H 0 Z m -40.9,-106.402 v 210.429 h 89.21 c 9.678,0 18.621,-2.028 26.822,-6.073 8.197,-4.054 15.264,-9.389 21.192,-16.006 5.928,-6.623 10.568,-14.128 13.929,-22.524 3.359,-8.401 5.039,-16.85 5.039,-25.342 0,-8.892 -1.583,-17.538 -4.742,-25.933 -3.163,-8.402 -7.609,-15.857 -13.337,-22.377 -5.734,-6.52 -12.648,-11.758 -20.746,-15.709 -8.105,-3.954 -16.996,-5.926 -26.674,-5.926 H 0 v -70.539 z" style="fill:#fff;fill-opacity:1;fill-rule:nonzero;stroke:none" id="path1138"/></g></g></g></g></svg>