<svg xmlns="http://www.w3.org/2000/svg" id="svg683" width="1524.36" height="638.367" version="1.1" viewBox="0 0 1524.36 638.367"><defs id="defs687"><clipPath id="clipPath703" clipPathUnits="userSpaceOnUse"><path id="path701" d="M 0,478.776 H 1143.265 V 0 H 0 Z"/></clipPath></defs><g id="g691" transform="matrix(1.3333333,0,0,-1.3333333,0,638.36667)"><g id="g693" transform="translate(121.2414,89.7358)"><path d="M 0,0 V 80.426 H 54.033 V 66.72 H 15.632 V 45.99 H 47.576 V 33.303 H 15.632 L 15.632,0 Z" style="fill:#663367;fill-opacity:1;fill-rule:nonzero;stroke:none" id="path695"/></g><g id="g697"><g id="g699" clip-path="url(#clipPath703)"><g id="g705" transform="translate(201.8931,130.4026)"><path d="m 0,0 h 19.597 c 1.434,0 2.775,0.339 4.021,1.019 1.246,0.68 2.322,1.603 3.228,2.775 0.907,1.17 1.623,2.549 2.153,4.135 0.527,1.586 0.793,3.285 0.793,5.097 0,1.888 -0.303,3.626 -0.906,5.211 -0.606,1.586 -1.417,2.963 -2.436,4.134 -1.019,1.17 -2.191,2.077 -3.512,2.719 -1.322,0.641 -2.661,0.963 -4.021,0.963 L 0,26.053 Z m -15.632,-40.667 v 80.426 h 35.569 c 3.699,0 7.117,-0.775 10.251,-2.321 3.133,-1.549 5.834,-3.589 8.099,-6.118 2.266,-2.531 4.039,-5.399 5.325,-8.608 1.283,-3.211 1.925,-6.44 1.925,-9.686 0,-5.211 -1.302,-9.951 -3.908,-14.216 -2.605,-4.267 -6.137,-7.345 -10.591,-9.232 L 49.389,-40.667 H 31.831 l -16.425,26.96 H 0 v -26.96 z" style="fill:#663367;fill-opacity:1;fill-rule:nonzero;stroke:none" id="path707"/></g><g id="g709" transform="translate(317.434,103.4427)"><path d="M 0,0 V -13.707 H -55.845 V 66.719 H -1.019 V 53.013 h -39.194 v -19.37 h 33.87 V 20.956 h -33.87 V 0 Z" style="fill:#663367;fill-opacity:1;fill-rule:nonzero;stroke:none" id="path711"/></g><g id="g713" transform="translate(385.513,103.4427)"><path d="M 0,0 V -13.707 H -55.845 V 66.719 H -1.019 V 53.013 h -39.194 v -19.37 h 33.87 V 20.956 h -33.87 V 0 Z" style="fill:#663367;fill-opacity:1;fill-rule:nonzero;stroke:none" id="path715"/></g><g id="g717" transform="translate(424.9322,89.7358)"><path d="M 0,0 V 80.426 H 15.632 V 13.707 H 56.638 V 0 Z" style="fill:#663367;fill-opacity:1;fill-rule:nonzero;stroke:none" id="path719"/></g><g id="g721" transform="translate(531.9787,120.7741)"><path d="M 0,0 -11.101,31.603 -22.655,0 Z m -18.011,49.388 h 13.82 L 26.394,-31.038 H 10.308 l -7.476,20.05 h -28.093 l -7.363,-20.05 h -16.085 z" style="fill:#663367;fill-opacity:1;fill-rule:nonzero;stroke:none" id="path723"/></g><g id="g725" transform="translate(580.1192,169.9359)"><path d="M 0,0 H 14.387 L 23.449,-26.621 32.511,0 H 47.01 L 33.304,-36.588 43.499,-62.302 66.267,0.226 H 83.259 L 50.522,-80.2 H 37.382 L 23.449,-46.444 9.515,-80.2 h -13.14 l -32.51,80.426 h 16.765 l 22.882,-62.528 9.969,25.714 z" style="fill:#663367;fill-opacity:1;fill-rule:nonzero;stroke:none" id="path727"/></g><g id="g729" transform="translate(691.0115,126.4377)"><path d="m 0,0 h 25.714 c 2.339,0 4.474,0.509 6.399,1.529 1.926,1.019 3.569,2.379 4.928,4.077 1.36,1.7 2.416,3.663 3.172,5.891 0.754,2.227 1.132,4.549 1.132,6.967 0,2.492 -0.434,4.851 -1.302,7.079 -0.869,2.227 -2.039,4.172 -3.512,5.835 -1.472,1.659 -3.21,2.962 -5.211,3.907 -2.001,0.944 -4.096,1.416 -6.286,1.416 L 0,36.701 Z m -7.93,-36.702 v 80.426 h 33.304 c 3.472,0 6.663,-0.736 9.572,-2.209 2.906,-1.472 5.417,-3.397 7.533,-5.777 2.113,-2.379 3.775,-5.079 4.984,-8.098 1.207,-3.023 1.812,-6.081 1.812,-9.176 0,-3.325 -0.566,-6.513 -1.699,-9.572 -1.133,-3.059 -2.718,-5.76 -4.758,-8.1 -2.039,-2.341 -4.473,-4.23 -7.306,-5.664 -2.832,-1.434 -5.986,-2.151 -9.459,-2.151 H 0 v -29.679 z" style="fill:#848582;fill-opacity:1;fill-rule:nonzero;stroke:none" id="path731"/></g><g id="g733" transform="translate(755.8048,126.4377)"><path d="m 0,0 h 26.28 c 2.339,0 4.474,0.509 6.4,1.529 1.925,1.019 3.568,2.397 4.927,4.135 1.36,1.735 2.417,3.698 3.172,5.89 0.754,2.189 1.133,4.492 1.133,6.91 0,2.415 -0.435,4.738 -1.302,6.966 -0.87,2.227 -2.04,4.172 -3.513,5.834 -1.471,1.661 -3.209,2.982 -5.209,3.965 -2.002,0.98 -4.098,1.472 -6.288,1.472 H 0 Z m -7.93,-36.702 v 80.426 h 33.983 c 3.473,0 6.664,-0.736 9.573,-2.209 2.906,-1.472 5.417,-3.397 7.532,-5.777 2.113,-2.379 3.756,-5.079 4.927,-8.098 1.171,-3.023 1.756,-6.081 1.756,-9.176 0,-2.946 -0.434,-5.759 -1.302,-8.439 C 47.67,7.343 46.461,4.928 44.914,2.775 43.366,0.622 41.496,-1.19 39.307,-2.663 37.115,-4.135 34.663,-5.137 31.944,-5.664 l 19.71,-31.038 H 42.705 L 23.788,-7.023 H 0 v -29.679 z" style="fill:#848582;fill-opacity:1;fill-rule:nonzero;stroke:none" id="path735"/></g><g id="g737" transform="translate(818.7869,129.9487)"><path d="m 0,0 c 0,-4.381 0.717,-8.592 2.153,-12.631 1.433,-4.04 3.472,-7.627 6.116,-10.761 2.643,-3.134 5.777,-5.626 9.403,-7.476 3.624,-1.851 7.663,-2.775 12.12,-2.775 4.531,0 8.646,0.98 12.347,2.945 3.699,1.963 6.834,4.531 9.402,7.703 2.567,3.172 4.548,6.758 5.947,10.761 1.397,4.002 2.096,8.08 2.096,12.234 0,4.379 -0.736,8.589 -2.209,12.631 -1.473,4.039 -3.531,7.607 -6.174,10.704 -2.644,3.096 -5.777,5.569 -9.402,7.42 -3.624,1.849 -7.628,2.775 -12.007,2.775 -4.531,0 -8.649,-0.963 -12.347,-2.888 C 13.744,28.716 10.609,26.167 8.043,22.995 5.475,19.823 3.492,16.236 2.095,12.234 0.698,8.231 0,4.153 0,0 m 29.792,-40.779 c -5.589,0 -10.705,1.15 -15.349,3.455 -4.645,2.303 -8.629,5.361 -11.951,9.175 -3.323,3.812 -5.891,8.174 -7.703,13.084 -1.812,4.907 -2.718,9.929 -2.718,15.065 0,5.361 0.963,10.496 2.889,15.406 1.926,4.908 4.587,9.25 7.986,13.027 3.397,3.775 7.399,6.777 12.007,9.005 4.605,2.227 9.589,3.342 14.953,3.342 5.587,0 10.704,-1.189 15.348,-3.568 4.645,-2.38 8.61,-5.494 11.894,-9.345 3.285,-3.852 5.834,-8.213 7.646,-13.084 1.813,-4.871 2.719,-9.837 2.719,-14.896 0,-5.363 -0.963,-10.498 -2.888,-15.406 -1.926,-4.91 -4.571,-9.232 -7.93,-12.97 -3.36,-3.738 -7.346,-6.722 -11.951,-8.949 -4.606,-2.228 -9.591,-3.341 -14.952,-3.341" style="fill:#848582;fill-opacity:1;fill-rule:nonzero;stroke:none" id="path739"/></g><g id="g741" transform="translate(885.4037,99.8171)"><path d="m 0,0 c 1.661,-1.133 3.795,-2.114 6.4,-2.945 2.605,-0.832 5.531,-1.246 8.779,-1.246 4.078,0 7.343,0.736 9.798,2.209 2.454,1.473 4.323,3.643 5.607,6.513 1.283,2.87 2.114,6.401 2.492,10.592 0.378,4.191 0.567,8.966 0.567,14.329 v 40.893 h 7.929 V 29.452 c 0,-6.117 -0.283,-11.687 -0.849,-16.708 -0.566,-5.023 -1.756,-9.308 -3.568,-12.857 -1.812,-3.551 -4.457,-6.307 -7.93,-8.27 -3.474,-1.962 -8.156,-2.944 -14.046,-2.944 -6.796,0 -12.613,1.66 -17.444,4.984 z" style="fill:#848582;fill-opacity:1;fill-rule:nonzero;stroke:none" id="path743"/></g><g id="g745" transform="translate(994.4883,96.7589)"><path d="M 0,0 V -7.023 H -54.033 V 73.403 H -1.02 V 66.38 H -46.104 V 37.382 h 39.308 v -6.684 h -39.308 l 0,-30.698 z" style="fill:#848582;fill-opacity:1;fill-rule:nonzero;stroke:none" id="path747"/></g><g id="g749" transform="translate(996.7477,130.515)"><path d="m 0,0 c 0,4.832 0.849,9.647 2.548,14.443 1.699,4.795 4.172,9.08 7.42,12.857 3.246,3.775 7.25,6.854 12.007,9.232 4.758,2.379 10.156,3.569 16.199,3.569 7.173,0 13.31,-1.625 18.408,-4.872 5.097,-3.247 8.853,-7.476 11.271,-12.687 l -6.231,-3.851 c -1.285,2.642 -2.852,4.871 -4.701,6.684 -1.852,1.812 -3.834,3.285 -5.947,4.417 -2.116,1.133 -4.304,1.944 -6.57,2.436 -2.265,0.49 -4.494,0.736 -6.683,0.736 -4.835,0 -9.102,-0.982 -12.8,-2.946 C 21.22,28.054 18.104,25.488 15.575,22.315 13.044,19.144 11.137,15.576 9.854,11.612 8.569,7.647 7.929,3.626 7.929,-0.453 c 0,-4.457 0.774,-8.722 2.322,-12.8 1.547,-4.078 3.662,-7.685 6.343,-10.818 2.68,-3.135 5.852,-5.627 9.515,-7.476 3.663,-1.852 7.647,-2.775 11.951,-2.775 2.266,0 4.588,0.283 6.967,0.849 2.379,0.566 4.682,1.473 6.91,2.719 2.227,1.246 4.285,2.793 6.174,4.645 1.886,1.849 3.472,4.095 4.757,6.74 l 6.57,-3.399 c -1.285,-3.021 -3.098,-5.684 -5.437,-7.986 -2.342,-2.304 -4.947,-4.248 -7.816,-5.834 -2.871,-1.586 -5.91,-2.795 -9.119,-3.625 -3.211,-0.83 -6.363,-1.246 -9.458,-1.246 -5.514,0 -10.574,1.207 -15.179,3.625 -4.608,2.416 -8.573,5.568 -11.895,9.458 -3.323,3.889 -5.91,8.307 -7.759,13.253 C 0.924,-10.177 0,-5.136 0,0" style="fill:#848582;fill-opacity:1;fill-rule:nonzero;stroke:none" id="path751"/></g><g id="g753" transform="translate(1130.4126,163.1386)"><path d="m 0,0 h -28.659 v -73.403 h -7.93 V 0 H -65.247 V 7.023 H 0 Z" style="fill:#848582;fill-opacity:1;fill-rule:nonzero;stroke:none" id="path755"/></g><g id="g757" transform="translate(191.0176,451.458)"><path d="m 0,0 c -3.601,0 -6.529,2.929 -6.529,6.529 0,3.601 2.928,6.529 6.529,6.529 3.6,0 6.528,-2.928 6.528,-6.529 C 6.528,2.929 3.6,0 0,0 M -3.477,20.775 C -8.778,19.547 -13.061,15.251 -14.259,9.944 -15.893,2.723 -12.081,-3.848 -6.091,-6.592 V -254.876 H 6.069 V -6.592 c 5.046,2.275 8.568,7.329 8.568,13.214 0,9.134 -8.531,16.355 -18.114,14.153" style="fill:#848582;fill-opacity:1;fill-rule:nonzero;stroke:none" id="path759"/></g><g id="g761" transform="translate(221.4579,379.986)"><path d="m 0,0 c -3.601,0 -6.527,2.928 -6.527,6.527 0,3.6 2.926,6.529 6.527,6.529 3.6,0 6.531,-2.929 6.531,-6.529 C 6.531,2.928 3.6,0 0,0 m -3.498,20.77 c -5.263,-1.225 -9.546,-5.478 -10.745,-10.74 -1.669,-7.101 1.997,-13.516 7.769,-16.363 v -177.07 H 5.687 V -6.766 c 5.263,2.199 8.966,7.389 8.966,13.408 0,9.154 -8.567,16.327 -18.151,14.128" style="fill:#848582;fill-opacity:1;fill-rule:nonzero;stroke:none" id="path763"/></g><g id="g765" transform="translate(347.3212,329.689)"><path d="m 0,0 c -3.601,0 -6.527,2.928 -6.527,6.529 0,3.598 2.926,6.527 6.527,6.527 3.601,0 6.531,-2.929 6.531,-6.527 C 6.531,2.928 3.601,0 0,0 M 14.211,10.224 C 13.012,15.236 8.983,19.347 3.973,20.645 -3.795,22.701 -10.946,18.518 -13.56,12.063 h -91.261 v -145.261 h 12.197 V -0.054 h 45.812 l -0.109,-25.193 8.059,0.217 0.145,24.976 h 25.774 c 2.432,-4.652 7.297,-7.861 12.96,-7.861 9.22,0 16.517,8.546 14.194,18.139" style="fill:#848582;fill-opacity:1;fill-rule:nonzero;stroke:none" id="path767"/></g><g id="g769" transform="translate(73.8751,276.3308)"><path d="M 0,0 20.001,-47.057" style="fill:none;stroke:#848582;stroke-width:7;stroke-linecap:butt;stroke-linejoin:miter;stroke-miterlimit:10;stroke-dasharray:none;stroke-opacity:1" id="path771"/></g><g id="g773" transform="translate(72.5975,276.1155)"><path d="M 0,0 -17.088,-48.191" style="fill:none;stroke:#848582;stroke-width:7;stroke-linecap:butt;stroke-linejoin:miter;stroke-miterlimit:10;stroke-dasharray:none;stroke-opacity:1" id="path775"/></g><g id="g777" transform="translate(97.5323,202.7227)"><path d="m 0,0 -49.415,-0.237 c -6.74,-0.033 -12.23,5.407 -12.26,12.148 l -0.026,5.901 75.258,0.361 0.019,-4.472 C 13.609,6.169 7.532,0.036 0,0" style="fill:#848582;fill-opacity:1;fill-rule:nonzero;stroke:none" id="path779"/></g><g id="g781" transform="translate(112.1386,226.7599)"><path d="m 0,0 -75.989,-0.365 c -0.9,-0.004 -1.634,0.855 -1.639,1.918 v 0.088 c -0.005,1.063 0.721,1.928 1.62,1.932 L -0.019,3.938 C 0.881,3.942 1.615,3.083 1.62,2.02 V 1.932 C 1.625,0.869 0.899,0.004 0,0" style="fill:#848582;fill-opacity:1;fill-rule:nonzero;stroke:none" id="path783"/></g><g id="g785" transform="translate(304.9655,308.5137)"><path d="M 0,0 20.001,-47.057" style="fill:none;stroke:#848582;stroke-width:7;stroke-linecap:butt;stroke-linejoin:miter;stroke-miterlimit:10;stroke-dasharray:none;stroke-opacity:1" id="path787"/></g><g id="g789" transform="translate(303.6878,308.2985)"><path d="M 0,0 -17.088,-48.191" style="fill:none;stroke:#848582;stroke-width:7;stroke-linecap:butt;stroke-linejoin:miter;stroke-miterlimit:10;stroke-dasharray:none;stroke-opacity:1" id="path791"/></g><g id="g793" transform="translate(328.6226,234.9056)"><path d="m 0,0 -49.415,-0.237 c -6.74,-0.033 -12.23,5.407 -12.26,12.148 l -0.026,5.901 75.258,0.361 0.019,-4.472 C 13.609,6.169 7.532,0.036 0,0" style="fill:#848582;fill-opacity:1;fill-rule:nonzero;stroke:none" id="path795"/></g><g id="g797" transform="translate(343.229,258.9429)"><path d="m 0,0 -75.989,-0.365 c -0.9,-0.004 -1.634,0.855 -1.639,1.918 v 0.088 c -0.005,1.063 0.721,1.928 1.62,1.932 L -0.019,3.938 C 0.881,3.942 1.615,3.083 1.62,2.02 V 1.932 C 1.625,0.869 0.899,0.004 0,0" style="fill:#848582;fill-opacity:1;fill-rule:nonzero;stroke:none" id="path799"/></g><g id="g801" transform="translate(26.3078,298.6453)"><path d="m 0,0 c -3.608,0 -6.533,2.925 -6.533,6.533 0,3.608 2.925,6.533 6.533,6.533 3.608,0 6.533,-2.925 6.533,-6.533 C 6.533,2.925 3.608,0 0,0 m 13.972,10.511 c -1.743,6.135 -7.333,10.672 -14.013,10.672 -9.256,0 -16.516,-8.639 -14.23,-18.259 1.235,-5.046 5.191,-9.184 10.201,-10.527 6.643,-1.779 12.851,1.016 16.154,5.953 h 31.074 l -0.109,-26.798 8.059,0.218 0.145,26.58 h 45.522 l -0.417,-100.488 h 12.197 l 0.417,112.649 z" style="fill:#848582;fill-opacity:1;fill-rule:nonzero;stroke:none" id="path803"/></g><g id="g805" transform="translate(158.9695,411.2056)"><path d="m 0,0 c -3.608,0 -6.533,2.925 -6.533,6.533 0,3.608 2.925,6.533 6.533,6.533 3.608,0 6.533,-2.925 6.533,-6.533 C 6.533,2.925 3.608,0 0,0 M -3.774,19.968 C -8.783,18.77 -12.922,14.777 -14.265,9.767 -16.334,2.035 -12.196,-5.08 -5.771,-7.766 V -214.623 H 6.39 V -7.258 c 4.792,2.396 8.095,7.297 8.095,12.996 0,9.257 -8.603,16.553 -18.259,14.23" style="fill:#848582;fill-opacity:1;fill-rule:nonzero;stroke:none" id="path807"/></g><path d="m 165.304,19.878 h -12.072 v 42.213 h 12.072 z" style="fill:#848582;fill-opacity:1;fill-rule:nonzero;stroke:none" id="path809"/><path d="M 135.36,19.878 H 123.288 V 62.091 H 135.36 Z" style="fill:#848582;fill-opacity:1;fill-rule:nonzero;stroke:none" id="path811"/><path d="m 197.035,19.878 h -12.072 v 42.213 h 12.072 z" style="fill:#848582;fill-opacity:1;fill-rule:nonzero;stroke:none" id="path813"/><path d="m 227.426,19.878 h -12.072 v 42.213 h 12.072 z" style="fill:#848582;fill-opacity:1;fill-rule:nonzero;stroke:none" id="path815"/><path d="m 254.241,19.878 h -12.072 v 42.213 h 12.072 z" style="fill:#848582;fill-opacity:1;fill-rule:nonzero;stroke:none" id="path817"/></g></g></g></svg>