<?xml version="1.0" encoding="UTF-8"?>
<svg id="Layer_1" data-name="Layer 1" xmlns="http://www.w3.org/2000/svg" viewBox="0 0 1118.8 452.75">
  <defs>
    <style>
      .cls-1 {
        stroke: #fff;
        stroke-miterlimit: 10;
        stroke-width: 7px;
      }

      .cls-1, .cls-2 {
        fill: #fff;
      }

      .cls-2 {
        stroke-width: 0px;
      }
    </style>
  </defs>
  <g>
    <g>
      <path class="cls-2" d="M109.63,382.9v-80.43h54.03v13.71h-38.4v20.73h31.94v12.69h-31.94v33.3h-15.63Z"/>
      <path class="cls-2" d="M174.65,382.9v-80.43h35.57c3.7,0,7.12.78,10.25,2.32,3.13,1.55,5.83,3.59,8.1,6.12,2.27,2.53,4.04,5.4,5.32,8.61,1.28,3.21,1.93,6.44,1.93,9.69,0,5.21-1.3,9.95-3.91,14.22-2.61,4.27-6.14,7.35-10.59,9.23l18.35,30.25h-17.56l-16.43-26.96h-15.41v26.96h-15.63ZM190.28,342.23h19.6c1.43,0,2.78-.34,4.02-1.02s2.32-1.6,3.23-2.78c.91-1.17,1.62-2.55,2.15-4.13.53-1.59.79-3.29.79-5.1s-.3-3.63-.91-5.21c-.61-1.59-1.42-2.96-2.44-4.13-1.02-1.17-2.19-2.08-3.51-2.72-1.32-.64-2.66-.96-4.02-.96h-18.92v26.05Z"/>
      <path class="cls-2" d="M305.82,369.19v13.71h-55.85v-80.43h54.83v13.71h-39.19v19.37h33.87v12.69h-33.87v20.96h40.21Z"/>
      <path class="cls-2" d="M373.9,369.19v13.71h-55.85v-80.43h54.83v13.71h-39.19v19.37h33.87v12.69h-33.87v20.96h40.21Z"/>
      <path class="cls-2" d="M413.32,382.9v-80.43h15.63v66.72h41.01v13.71h-56.64Z"/>
      <path class="cls-2" d="M502.36,302.47h13.82l30.58,80.43h-16.09l-7.48-20.05h-28.09l-7.36,20.05h-16.09l30.7-80.43ZM520.37,351.86l-11.1-31.6-11.55,31.6h22.66Z"/>
    </g>
    <path class="cls-2" d="M568.51,302.7h14.39l9.06,26.62,9.06-26.62h14.5l-13.71,36.59,10.19,25.71,22.77-62.53h16.99l-32.74,80.43h-13.14l-13.93-33.76-13.93,33.76h-13.14l-32.51-80.43h16.77l22.88,62.53,9.97-25.71-13.48-36.59Z"/>
  </g>
  <g>
    <g>
      <path class="cls-2" d="M671.47,382.9v-80.43h33.3c3.47,0,6.66.74,9.57,2.21,2.91,1.47,5.42,3.4,7.53,5.78,2.11,2.38,3.78,5.08,4.98,8.1,1.21,3.02,1.81,6.08,1.81,9.18,0,3.32-.57,6.51-1.7,9.57-1.13,3.06-2.72,5.76-4.76,8.1-2.04,2.34-4.47,4.23-7.31,5.66-2.83,1.43-5.99,2.15-9.46,2.15h-26.05v29.68h-7.93ZM679.4,346.19h25.71c2.34,0,4.47-.51,6.4-1.53,1.93-1.02,3.57-2.38,4.93-4.08,1.36-1.7,2.42-3.66,3.17-5.89.75-2.23,1.13-4.55,1.13-6.97s-.43-4.85-1.3-7.08c-.87-2.23-2.04-4.17-3.51-5.83-1.47-1.66-3.21-2.96-5.21-3.91-2-.94-4.1-1.42-6.29-1.42h-25.03v36.7Z"/>
      <path class="cls-2" d="M736.26,382.9v-80.43h33.98c3.47,0,6.66.74,9.57,2.21,2.91,1.47,5.42,3.4,7.53,5.78,2.11,2.38,3.76,5.08,4.93,8.1,1.17,3.02,1.76,6.08,1.76,9.18s-.43,5.76-1.3,8.44c-.87,2.68-2.08,5.1-3.63,7.25-1.55,2.15-3.42,3.96-5.61,5.44-2.19,1.47-4.64,2.47-7.36,3l19.71,31.04h-8.95l-18.92-29.68h-23.79v29.68h-7.93ZM744.19,346.19h26.28c2.34,0,4.47-.51,6.4-1.53,1.93-1.02,3.57-2.4,4.93-4.13,1.36-1.74,2.42-3.7,3.17-5.89.75-2.19,1.13-4.49,1.13-6.91s-.43-4.74-1.3-6.97c-.87-2.23-2.04-4.17-3.51-5.83-1.47-1.66-3.21-2.98-5.21-3.96-2-.98-4.1-1.47-6.29-1.47h-25.6v36.7Z"/>
      <path class="cls-2" d="M836.97,383.46c-5.59,0-10.7-1.15-15.35-3.45-4.64-2.3-8.63-5.36-11.95-9.18-3.32-3.81-5.89-8.17-7.7-13.08-1.81-4.91-2.72-9.93-2.72-15.07s.96-10.5,2.89-15.41c1.93-4.91,4.59-9.25,7.99-13.03,3.4-3.78,7.4-6.78,12.01-9,4.61-2.23,9.59-3.34,14.95-3.34s10.7,1.19,15.35,3.57c4.64,2.38,8.61,5.49,11.89,9.35,3.29,3.85,5.83,8.21,7.65,13.08,1.81,4.87,2.72,9.84,2.72,14.9,0,5.36-.96,10.5-2.89,15.41-1.93,4.91-4.57,9.23-7.93,12.97-3.36,3.74-7.35,6.72-11.95,8.95-4.61,2.23-9.59,3.34-14.95,3.34ZM807.17,342.68c0,4.38.72,8.59,2.15,12.63,1.43,4.04,3.47,7.63,6.12,10.76,2.64,3.13,5.78,5.63,9.4,7.48,3.62,1.85,7.66,2.78,12.12,2.78s8.65-.98,12.35-2.94c3.7-1.96,6.83-4.53,9.4-7.7,2.57-3.17,4.55-6.76,5.95-10.76,1.4-4,2.1-8.08,2.1-12.23,0-4.38-.74-8.59-2.21-12.63-1.47-4.04-3.53-7.61-6.17-10.7-2.64-3.1-5.78-5.57-9.4-7.42-3.62-1.85-7.63-2.78-12.01-2.78s-8.65.96-12.35,2.89c-3.7,1.93-6.84,4.47-9.4,7.65-2.57,3.17-4.55,6.76-5.95,10.76-1.4,4-2.1,8.08-2.1,12.23Z"/>
    </g>
    <g>
      <path class="cls-2" d="M873.79,372.81c1.66,1.13,3.8,2.11,6.4,2.94,2.61.83,5.53,1.25,8.78,1.25,4.08,0,7.34-.74,9.8-2.21,2.45-1.47,4.32-3.64,5.61-6.51,1.28-2.87,2.11-6.4,2.49-10.59.38-4.19.57-8.97.57-14.33v-40.89h7.93v40.89c0,6.12-.28,11.69-.85,16.71-.57,5.02-1.76,9.31-3.57,12.86-1.81,3.55-4.46,6.31-7.93,8.27-3.47,1.96-8.16,2.94-14.05,2.94-6.8,0-12.61-1.66-17.44-4.98l2.27-6.34Z"/>
      <path class="cls-2" d="M982.88,375.87v7.02h-54.03v-80.43h53.01v7.02h-45.08v29h39.31v6.68h-39.31v30.7h46.1Z"/>
    </g>
    <g>
      <path class="cls-2" d="M985.14,342.12c0-4.83.85-9.65,2.55-14.44,1.7-4.8,4.17-9.08,7.42-12.86,3.25-3.78,7.25-6.85,12.01-9.23,4.76-2.38,10.16-3.57,16.2-3.57,7.17,0,13.31,1.62,18.41,4.87,5.1,3.25,8.85,7.48,11.27,12.69l-6.23,3.85c-1.28-2.64-2.85-4.87-4.7-6.68-1.85-1.81-3.83-3.29-5.95-4.42-2.12-1.13-4.3-1.94-6.57-2.44-2.27-.49-4.49-.74-6.68-.74-4.83,0-9.1.98-12.8,2.95-3.7,1.96-6.82,4.53-9.35,7.7-2.53,3.17-4.44,6.74-5.72,10.7-1.29,3.96-1.93,7.99-1.93,12.06,0,4.46.77,8.72,2.32,12.8,1.55,4.08,3.66,7.68,6.34,10.82,2.68,3.13,5.85,5.63,9.52,7.48,3.66,1.85,7.65,2.78,11.95,2.78,2.27,0,4.59-.28,6.97-.85,2.38-.57,4.68-1.47,6.91-2.72,2.23-1.25,4.29-2.79,6.17-4.64,1.89-1.85,3.47-4.1,4.76-6.74l6.57,3.4c-1.29,3.02-3.1,5.68-5.44,7.99-2.34,2.3-4.95,4.25-7.82,5.83-2.87,1.59-5.91,2.79-9.12,3.62-3.21.83-6.36,1.25-9.46,1.25-5.51,0-10.57-1.21-15.18-3.62-4.61-2.42-8.57-5.57-11.89-9.46-3.32-3.89-5.91-8.31-7.76-13.25-1.85-4.95-2.78-9.99-2.78-15.12Z"/>
      <path class="cls-2" d="M1118.8,309.49h-28.66v73.4h-7.93v-73.4h-28.66v-7.02h65.25v7.02Z"/>
    </g>
  </g>
  <path class="cls-2" d="M179.41,21.17c-3.6,0-6.53-2.93-6.53-6.53s2.93-6.53,6.53-6.53,6.53,2.93,6.53,6.53-2.93,6.53-6.53,6.53ZM175.93.4c-5.3,1.23-9.58,5.52-10.78,10.83-1.63,7.22,2.18,13.79,8.17,16.54v248.28h12.16V27.77c5.05-2.27,8.57-7.33,8.57-13.21,0-9.13-8.53-16.35-18.11-14.15Z"/>
  <path class="cls-2" d="M209.85,92.65c-3.6,0-6.53-2.93-6.53-6.53s2.93-6.53,6.53-6.53,6.53,2.93,6.53,6.53-2.93,6.53-6.53,6.53ZM206.35,71.88c-5.26,1.23-9.55,5.48-10.75,10.74-1.67,7.1,2,13.52,7.77,16.36v177.07h12.16V99.41c5.26-2.2,8.97-7.39,8.97-13.41,0-9.15-8.57-16.33-18.15-14.13Z"/>
  <path class="cls-2" d="M349.92,132.72c-1.2-5.01-5.23-9.12-10.24-10.42-7.77-2.06-14.92,2.13-17.53,8.58h-91.26v145.26h12.2v-133.14h45.81l-.11,25.19,8.06-.22.15-24.98h25.77c2.43,4.65,7.3,7.86,12.96,7.86,9.22,0,16.52-8.55,14.19-18.14ZM335.71,142.94c-3.6,0-6.53-2.93-6.53-6.53s2.93-6.53,6.53-6.53,6.53,2.93,6.53,6.53-2.93,6.53-6.53,6.53Z"/>
  <g>
    <line class="cls-1" x1="62.26" y1="196.3" x2="82.26" y2="243.36"/>
    <line class="cls-1" x1="60.99" y1="196.52" x2="43.9" y2="244.71"/>
    <path class="cls-2" d="M24.26,251.92h75.26v4.47c0,7.53-6.11,13.64-13.64,13.64h-49.41c-6.73,0-12.2-5.47-12.2-12.2v-5.91h0Z" transform="translate(-1.25 .3) rotate(-.27)"/>
    <path class="cls-2" d="M100.53,245.87l-75.99.36c-.9,0-1.63-.85-1.64-1.92v-.09c0-1.06.72-1.93,1.62-1.93l75.99-.36c.9,0,1.63.85,1.64,1.92v.09c0,1.06-.72,1.93-1.62,1.93Z"/>
  </g>
  <line class="cls-1" x1="293.35" y1="164.12" x2="313.35" y2="211.17"/>
  <line class="cls-1" x1="292.08" y1="164.33" x2="274.99" y2="212.52"/>
  <path class="cls-2" d="M255.35,219.73h75.26v4.47c0,7.53-6.11,13.64-13.64,13.64h-49.41c-6.73,0-12.2-5.47-12.2-12.2v-5.91h0Z" transform="translate(-1.09 1.41) rotate(-.27)"/>
  <path class="cls-2" d="M331.62,213.69l-75.99.36c-.9,0-1.63-.85-1.64-1.92v-.09c0-1.06.72-1.93,1.62-1.93l75.99-.36c.9,0,1.63.85,1.64,1.92v.09c0,1.06-.72,1.93-1.62,1.93Z"/>
  <path class="cls-2" d="M28.67,163.48c-1.74-6.13-7.33-10.67-14.01-10.67-9.26,0-16.52,8.64-14.23,18.26,1.23,5.05,5.19,9.18,10.2,10.53,6.64,1.78,12.85-1.02,16.15-5.95h31.07l-.11,26.8,8.06-.22.15-26.58h45.52l-.42,100.49h12.2l.42-112.65H28.67ZM14.7,173.99c-3.61,0-6.53-2.92-6.53-6.53s2.92-6.53,6.53-6.53,6.53,2.92,6.53,6.53-2.92,6.53-6.53,6.53Z"/>
  <path class="cls-2" d="M143.58,41.46c-5.01,1.2-9.15,5.19-10.49,10.2-2.07,7.73,2.07,14.85,8.49,17.53v206.86h12.16V68.68c4.79-2.4,8.1-7.3,8.1-13,0-9.26-8.6-16.55-18.26-14.23ZM147.36,61.43c-3.61,0-6.53-2.92-6.53-6.53s2.93-6.53,6.53-6.53,6.53,2.92,6.53,6.53-2.92,6.53-6.53,6.53Z"/>
  <g>
    <rect class="cls-2" x="141.62" y="410.54" width="12.07" height="42.21"/>
    <rect class="cls-2" x="111.68" y="410.54" width="12.07" height="42.21"/>
    <rect class="cls-2" x="173.35" y="410.54" width="12.07" height="42.21"/>
    <rect class="cls-2" x="203.74" y="410.54" width="12.07" height="42.21"/>
    <rect class="cls-2" x="230.56" y="410.54" width="12.07" height="42.21"/>
  </g>
</svg>