<svg xmlns="http://www.w3.org/2000/svg" width="100%" fill="none" class="navbar2_logo" viewBox="0 0 130 28"><path fill="currentColor" d="M29.8301 0.686523C21.9992 0.686523 20.9652 5.30893 20.8828 9.88536C20.8828 10.1154 20.8828 10.3453 20.8828 10.5753V27.9987H27.1676V22.4104H32.5027V28.0029H38.7875V10.5795C38.7814 5.78353 38.0506 0.686523 29.8301 0.686523ZM32.4967 15.8291H27.1616V10.5795C27.1616 8.75224 27.4186 7.83861 29.8301 7.83861C32.2417 7.83861 32.4967 8.75224 32.4967 10.5795V15.8291Z"/><path fill="currentColor" d="M56.0691 18.1881C56.5046 17.8624 56.9046 17.488 57.262 17.0717C58.6132 15.4765 59.1032 13.3922 59.1032 10.5029C59.1032 4.26232 56.4709 1.37305 49.9669 1.37305H40.833V28.0037H47.1981V19.6704H50.0091L54.1397 28.0037H61.155L56.0691 18.1881ZM47.1981 7.95442H50.1959C51.9488 7.91469 52.8265 8.14464 52.8265 10.5029C52.8265 12.8612 51.9488 13.089 50.1959 13.089H47.1981V7.95442Z"/><path fill="currentColor" d="M78.8742 21.3366L77.2438 18.1881C79.511 16.4759 80.2778 14.1176 80.2778 10.5029C80.2778 4.26232 77.6455 1.37305 71.1437 1.37305H62.0078V28.0037H68.3668V19.6704H71.1778L71.2584 19.8335L75.3062 28.0037H82.3339L78.8742 21.3366ZM68.3668 13.089V7.95442H71.3629C73.1158 7.91469 73.9931 8.14464 73.9931 10.5029C73.9931 12.8612 73.1158 13.089 71.3629 13.089H68.3668Z"/><path fill="currentColor" d="M91.0537 0.686523C82.3934 0.686523 81.8811 7.42049 81.8811 9.93134V19.4417C81.8756 20.2904 81.9498 21.1377 82.1021 21.9714C82.5136 24.154 83.6703 26.7799 86.8668 28.0029C89.5895 28.9144 92.5178 28.9144 95.2401 28.0029C96.6539 27.4943 97.8763 26.5308 98.7297 25.2516C100.085 23.2007 100.224 20.7505 100.224 19.4417V9.93134C100.224 7.42049 99.7119 0.686523 91.0537 0.686523ZM88.1599 11.9467C88.1599 9.01986 88.3429 7.23026 91.0473 7.23026C93.7521 7.23026 93.9329 9.01776 93.9329 11.9467V17.4263C93.9329 20.3532 93.7521 22.1428 91.0473 22.1428C88.3429 22.1428 88.1599 20.3553 88.1599 17.4263V11.9467Z"/><path fill="currentColor" d="M122.963 1.37305L120.588 19.4425L117.738 1.37305H112.475L109.626 19.4425L107.253 1.37305H100.606L105.496 28.0016H112.654L115.102 16.7121L117.549 28.0121H124.71L129.613 1.37305H122.963Z"/><path fill="currentColor" d="M19.1729 9.55584C18.944 3.96963 16.5687 1.37305 10.0489 1.37305H0.8125V28.0037H10.0489C10.4813 28.0037 10.895 27.9918 11.2898 27.9682C17.1952 27.6211 19.183 24.6817 19.183 18.8341V10.5134C19.191 10.1788 19.185 9.86109 19.1729 9.55584ZM12.7978 18.876C12.7978 21.1589 11.9203 21.4642 10.1654 21.4642H7.09731V7.91469H10.1654C10.4827 7.91469 10.7678 7.91469 11.0308 7.95022H11.0529C11.2614 7.96776 11.4675 8.0091 11.6673 8.07355C12.4283 8.32025 12.8078 8.94956 12.8078 10.5029L12.7978 18.876Z"/></svg>