<svg xmlns="http://www.w3.org/2000/svg" viewBox="0 0 148 63"><path d="M30.9 42.9c-2.7.6-7.9 1.3-7.9 5 0 2.4 1.2 3.4 3.5 3.4 1.5 0 4.4-1.2 4.4-3.4zm0-4.3c0-2.2-1.7-3.7-4.4-3.7-2 0-3.7.2-3.7 2.5 0 .6.3 1.3.3 1.7 0 .5-.1.8-.9.8-.7 0-2-.6-2-1.4 0-2 2.4-4.9 7.1-4.8 2.6 0 6.7.8 6.7 4.4V47c0 1.4-.4 3.9 1.8 3.9.2 0 .6-.1.7-.1.2 0 .6 0 .6.3 0 .9-1.9 1.1-2.5 1.1-1.7 0-2.8-.8-3.3-2.2-1.8 1.5-4.1 2.5-6.5 2.5-2.8 0-4.6-1-4.6-4 0-2.2.7-4.9 10.6-6.6v-3.3zm8.7.3c0-3.4 2.6-5.1 5.7-5.1.7 0 3.6.3 4.1 1 .3.3.2 1.8.2 2.1 0 1.1.2 1.7-.5 1.7-.4 0-.8-3.7-4.7-3.7-1.7 0-3 1-3 2.7 0 1.4 1.1 2.3 5.5 4.1 2.4 1 3.5 2.3 3.5 5.1 0 3.2-2.6 5.8-5.7 5.8-3 0-3.7-1.2-4.7-1.2-.9 0-.9 0-.9-3.4 0-.7-.1-2.1.5-2.1.9 0 .5 5.6 5 5.6 2.1 0 3.8-1.3 3.8-3.5s-2.2-2.9-3.9-3.7c-2.1-1.3-4.9-2.4-4.9-5.4zm15.5-2.8c-2 0-2.3 0-2.3-.3s1.1-1.1 3.2-3.4c.8-1 1.3-2 1.6-2 .6 0 .5.9.5 3.9h4.7c1.1 0 1.5-.7 1.7-.7.2 0 .3.2.3.3 0 .2-.1.4-.3.6l-.8 1.5h-5.5v12.3c.1 1.7 1.3 2.5 3 2.5 2.2 0 2.9-1 3.6-1 .2 0 .3 0 .3.4 0 .6-2.3 2.1-5.2 2.1-1.9 0-4.7-.6-4.7-4.9V36.1zM13.8 48V29.2H9.7v19.3c0 2.7-2.7 2-2.7 3.2 0 .4.6.3.9.3h8.7c.5 0 1.2.2 1.2-.5 0-1.2-4 .1-4-3.5zm8.4-37.5c-4 0-7.8 4-9.1 6.1-1.7 2.7-2.7 5.7-3.1 8.8h3.9c0-2.1.1-4.2.5-6.2.5-2.6 2.5-5.8 5.5-5.8 3.6 0 3 2.4 3.8 2.4.6 0 .8-2.9.8-4s-1.6-1.3-2.3-1.3z" fill="#fff"/><g fill="#ff9a19"><path d="M79.5 38.3c-1-2.2-2.4-4-5-4-3.6 0-6 2.2-6 8.2 0 4.9 2.2 8.2 6 8.2 2.7 0 4.2-1.5 5.7-4l1.8.8c-1.6 2.7-3.9 4.9-7.5 4.9-5.4 0-8.2-4.2-8.2-9.9 0-6.6 3.3-9.9 8.2-9.9 3.6 0 5.8 2 7 5.2zm16.9 2.9c-8.7 1.9-9.9 3.7-9.9 6.1 0 2.1 1.4 3.3 3.4 3.3 2.1 0 4.6-1.2 6.5-3.2zm.4 10.8l-.3-2.3c-2.3 1.8-4 2.7-6.9 2.7-3 0-5.2-1.8-5.2-5 0-5.2 4.3-6.2 12.2-7.9v-1.3c0-2.5-1.1-3.8-4.4-3.8-2.3 0-4.1 1.3-5.5 3.5l-1.5-.9c1.7-3.1 4-4.3 7.1-4.3 4.3 0 6.4 1.8 6.4 6v10c0 1 .1 2.2.3 3.5h-2.2zm7.4-4.6c1.8 2.6 3.4 3.2 5.9 3.2 2.4 0 4.3-1.6 4.3-3.6 0-5.6-11.2-2.4-11.2-9.2 0-3.6 2.8-5.2 6.1-5.2 3.2 0 5.2 1.3 6.6 3.5l-1.7 1.2c-1.3-1.8-2.7-2.9-5-2.9-2.1 0-3.8 1-3.8 3.3 0 4.7 11.2 1.9 11.2 9.3 0 3.4-3.2 5.4-6.6 5.4-2.9 0-5.6-1.2-7.4-3.9zm28.4-6.6c-.4-3.9-2.2-6.4-5.5-6.5-3.9 0-5.5 3.9-5.6 6.5zm-11.1 1.7c0 4.3 1.8 8.1 6.1 8.1 2.5 0 3.7-.8 5.6-3.9l1.8 1c-2.1 3.4-3.9 4.7-7.6 4.7-5 0-8.1-3.2-8.1-9.9 0-5.9 3-9.9 7.9-9.9 5.2 0 7.6 4.1 7.6 10h-13.3zM7.3 26.3h13.9c-1.5-1.5-2.9-3.5-4.3-6.2h1.4c2.6 2.9 5.3 5.1 8.2 6.6v1.1c-2.9 1.5-5.7 3.7-8.2 6.6h-1.4c1.4-2.7 2.8-4.8 4.3-6.2H7.3zM138 33.5c-1.7 0-3-1.3-3-3s1.3-3 3-3 3 1.3 3 3-1.3 3-3 3zm0-5.6c-1.4 0-2.6 1.2-2.6 2.6 0 1.4 1.2 2.6 2.6 2.6 1.4 0 2.6-1.2 2.6-2.6 0-1.4-1.2-2.6-2.6-2.6z"/><path d="M138.7 32l-.4-.8c-.1-.2-.2-.3-.3-.4-.1-.1-.2-.1-.4-.1h-.3V32h-.6v-3h1.2c.4 0 .7.1.9.2.2.1.3.3.3.6 0 .2 0 .3-.1.5-.1.1-.2.2-.4.3l-.3.1.3.1c.1 0 .2.1.3.2.1.1.2.2.3.4l.4.8h-.9zm-1.3-1.7h.4c.2 0 .3 0 .4-.1.1-.1.1-.2.1-.4s-.1-.3-.2-.4c-.1-.1-.2-.1-.4-.1h-.4v1z"/></g></svg>