<svg xmlns="http://www.w3.org/2000/svg" width="866.667" height="866.667" version="1" viewBox="0 0 650 650" fill="rgba(0,0,0,.6)"><path d="M34.3 194.7c.3 44.1.5 47.1 2.7 51.3.6 1.1.8 2.5.5 3-.3.6-.1 1 .4 1 .6 0 1.1.5 1.1 1.1 0 1.6 5.9 9.9 9.8 13.6 1.9 1.8 5.5 4.5 8.1 6 2.5 1.5 4.9 3.1 5.2 3.6.3.5.9.8 1.3.7.4-.1 1.7.1 2.9.5s3.2.8 4.4 1c1.3.2 3.3.7 4.5 1.1 1.3.4 3.5.6 5.1.5 1.5-.1 2.7.1 2.7.6 0 .9 44.9.7 45.8-.1.6-.7.5-21.6-.2-22.3-.2-.3-11-.6-23.8-.8-16.1-.1-24.2-.6-26.3-1.5-6.8-2.8-8.1-3.6-11.3-5.9-1.8-1.3-3-2.6-2.8-2.9.3-.2-.4-1.2-1.5-2.1-1.1-.9-2.1-2.3-2.2-3.1-.2-.8-.7-2.1-1.1-2.9-1.7-2.7-1.9-6.9-2.2-44.1-.2-20.6-.3-38.7-.4-40.3V150H33.9l.4 44.7zm136.1-43.5c-.3.5-1.2.7-1.9.4-.7-.2-1.6-.2-2 .2-.4.4-1 .7-1.3.7-.4.1-2.2.9-3.9 1.8-1.8 1-3.3 1.5-3.3 1.2 0-1.2-9.9 9.5-10.5 11.4-.3 1.1-1.1 2.1-1.7 2.1-.6 0-.9.3-.5.6.3.3 0 2.2-.8 4.3-2 5.8-2.7 15.1-1.5 20.6.6 2.7 1.2 5.8 1.3 6.7.1 1 .5 1.8.8 1.8.4 0 1 .9 1.4 2 .3 1.1 2.4 3.6 4.5 5.7l4 3.7-3.1 2c-1.7 1.2-4.3 4.8-6.1 8.5-2.7 5.6-3.1 7.6-3.2 15.8-.1 5.1 0 9.6.3 9.9.4.3.6.9.7 1.2.3 2.8 2 7.1 3.6 9.4 1.1 1.6 1.7 2.8 1.4 2.8-.3 0 1.3 1.8 3.6 4 4.4 4.2 13.4 9.1 17.8 9.7 1.4.2 3.9.6 5.5.8 4.7.6 70.6.7 71.2.1.5-.4.6-11.3.3-21.6 0-1.3-4.7-1.5-36-1.5-22.9 0-36.3-.4-36.8-1-.4-.6-1.6-1.5-2.7-2.1-1-.6-2.7-2.4-3.5-4-1.8-3.1-2.4-12.4-.8-12.4.5 0 .6-.4.3-1-1-1.7 6-7.8 9.7-8.4 1.8-.3 18.3-.4 36.5-.3l33.3.2.1-7.3c.1-9.1.1-13.7 0-16-.1-1.6-2.5-1.7-36.2-1.6-35.3.1-36.1.1-39.2-2-1.8-1.2-3-2.6-2.9-3 .2-.5-.2-1.2-.9-1.7-.7-.4-1.4-3.2-1.6-6.5-.2-5.5-.1-5.8 4.1-9.9l4.2-4.2h35.7c19.7 0 35.9-.2 36.2-.4.4-.5.8-12.6.6-20.2l-.1-3.8-38 .2c-22.4.1-38.3.5-38.6 1.1zm137.1-.4c-.3.3-1.8.6-3.3.7-1.5.1-4 .8-5.7 1.5-1.6.6-3.4 1.3-4 1.4-.5.1-2.5 1-4.2 1.9-1.8 1-3.3 1.5-3.3 1.2 0-.3-.9.3-1.9 1.2-7.6 6.9-10.5 10.2-12.8 14.2-1.5 2.5-3 4.8-3.3 5.1-.3.3-.6 1.2-.8 2-.2.8-.7 1.6-1.2 1.8-.5.2-.6 1-.3 1.8s0 1.4-.7 1.4c-.6 0-.8.4-.5 1 .3.5-.1 3.2-.9 6-1.7 5.6-2.1 41.6-.5 43.6.5.6 1 2.6 1.1 4.5.2 1.9.6 3.6 1 3.9.3.3.8 1.4 1 2.5.1 1.1.5 2.2.9 2.5.3.3 2 3.1 3.8 6.4 1.8 3.2 4.7 7.2 6.4 8.8 3.8 3.6 13.2 9.8 14.7 9.8.6 0 2.1.5 3.3 1.2 1.2.6 3.8 1.3 5.7 1.5 1.9.2 3.7.7 4 1.1.3.4 2.5.8 5 .9 5.9.2 34.4.5 35 .3.3-.1 1.3-.3 2.2-.5 4.3-.8 9.6-3 12.4-5.2 1.7-1.2 3.5-2.3 4-2.3s2.4-2.1 4.3-4.5c1.8-2.5 3.8-4.5 4.3-4.5s.7-.4.3-.9c-.3-.5.2-1.7 1.1-2.5.8-.9 1.2-1.6.8-1.6-.3 0-.2-.6.3-1.3.6-.6 1.4-2.6 1.9-4.2 1-3.7 1.2-19.8.3-20.5-.4-.3-1-1.7-1.2-3-.6-3.5-1.7-6-4.4-9.6-1.3-1.7-2.3-3.5-2.3-4s-2.2-2.5-4.8-4.4c-2.6-1.9-5-3.9-5.4-4.5-.4-.5-.8-.7-.8-.2 0 .4-1.5.1-3.3-.6-4.9-2.1-12.1-3-23.7-3h-10.5l-.3 12.4-.3 12.4 12.2-.1c10.4-.2 12.7.1 15.4 1.8 2.8 1.6 4.5 3.6 4.9 5.8.1.3.4.9.8 1.5 1.1 1.9.7 9.5-.7 10.9-.8.7-1.1 1.6-.8 2 .4.3.1.6-.6.6s-1 .4-.7.9c.3.5-.5 1.6-1.9 2.5-1.4.9-2.5 1.3-2.5.9 0-.5-.5-.1-1 .7-.8 1.2-4 1.5-18.7 1.5-9.8-.1-18.7-.5-19.8-.9-1.1-.5-2.5-1-3.1-1.1-4.3-1-12.3-8.3-11.6-10.8.1-.4-.2-.7-.6-.7-1.2 0-3.4-4.9-2.7-6 .3-.5 0-1-.6-1.2-.7-.2-1.3-2-1.4-4-.1-1.9-.5-4-.8-4.5-1-1.5-.2-26.7.9-28.4.4-.8.9-1.9.9-2.4.2-2.9 1.8-7.5 2.6-7.5.6 0 .8-.4.5-.9-.8-1.2 6.5-8.6 10.7-10.8 2.8-1.5 6.8-1.8 33.4-1.9 16.6-.1 30.8-.4 31.5-.7 1.1-.4 1.5-11 .9-22.5-.1-1.1-5.8-1.3-30.1-1.1-16.5.1-30.2.4-30.5.7zm132.5-.5c-.3.3-1.7.7-3 .9-1.4.2-3.5.9-4.7 1.6-1.3.7-2.3 1-2.3.8 0-.3-1.7 1.1-3.8 3.2-2.1 2-3.7 4-3.5 4.4.2.3-.2 1.2-.9 2-.7.7-1.4 2.1-1.6 3.2-.2 1-.8 3-1.4 4.5-.6 1.4-1.2 2.9-1.3 3.3-.2.5-.4 1-.5 1.3-.1.3-.3.8-.5 1.2-1.4 5.1-1.8 6.3-2.5 6.3-.4 0-.7 1.2-.7 2.7 0 1.5-.5 2.9-1.1 3.1-.6.2-.9.9-.6 1.6.3.8-.2 2-1 2.9-.8.8-1.3 1.7-1 1.9.2.3-.1 1.8-.7 3.4-.7 1.6-1.3 3.6-1.5 4.5-.2.9-1.3 3.7-2.4 6.3-1.1 2.6-2 5.4-2 6.2 0 .8-.4 1.4-.8 1.4s-.8.8-.9 1.7c-.2 3-6.5 20.3-7.4 20.3-.5 0-.6.7-.3 1.5.4.8.1 1.5-.5 1.5s-.8.7-.5 1.5c.4.8.1 1.5-.6 1.5-.6 0-.9.4-.6.9.7 1.1-2.6 10.1-3.7 10.1-.4 0-.6.4-.3.9.4.5.1 2.2-.6 3.8-.6 1.5-1.2 3-1.2 3.3-.1.3-.6 1.8-1.3 3.5-2.4 6.3-2.6 7.1-3 9.2-.4 2.6-.8 2.6 14.1 2.4 5.5-.1 10.2-.4 10.5-.6.3-.3.6-1.4.8-2.4.1-1 .8-3.1 1.4-4.7.7-1.6 1.3-3.1 1.4-3.4 0-.3.6-2.1 1.3-4.1l1.2-3.6 33.8.1c31.5.1 33.7.2 33.6 1.8-.1 1 .2 1.8.6 1.8.7 0 2.1 4 2 5.5 0 .3.6 1.8 1.4 3.4.9 1.6 1.3 3.1 1 3.3-.2.3.2 1 .9 1.7.9.7 6 1.2 13.3 1.3 11.1.1 11.9 0 11.9-1.8.1-1-.2-2.1-.5-2.4-.8-.7-5.2-14.3-5-15.4.1-.5-.2-1.2-.8-1.5-1.2-.8-3.3-7.1-2.6-8.2.3-.5.1-.9-.5-.9-.9 0-1.5-1.4-2.6-6-.3-1-1.7-4.6-3.1-7.8-.8-1.8-1.2-3.8-.9-4.3.4-.5.2-.9-.2-.9-.7 0-2.9-5.7-3.9-10 0-.3-.6-1.9-1.3-3.5-.7-1.7-1.9-5-2.8-7.5-.8-2.5-2.1-6-2.9-7.8-.8-1.8-1.3-3.6-.9-4.1.3-.5.2-1.1-.3-1.3-1.2-.5-6.3-14.9-5.6-15.9.3-.5.1-.9-.4-.9-.7 0-3.1-5.7-3.8-9-.1-.3-.6-1.9-1.3-3.5-.6-1.7-1.1-3.4-1-3.9 0-.5-.6-1.3-1.5-1.8s-1.6-1.4-1.6-2.1c0-.7-2-2.3-4.5-3.7-2.5-1.4-4.5-2.7-4.5-3.1 0-.7 0-.7-10-1.5-4.1-.3-7.7-.4-8-.1zm9.5 26.7c.7 1.4 1.5 3.6 1.6 5 .2 1.4 1 3.1 1.7 3.9.7.7 1.1 2 .8 2.7-.3.8-.1 1.4.5 1.4s.9.6.6 1.4c-.3.8-.1 1.6.4 1.8.6.2 1.2 1.6 1.2 3.1.1 1.5.5 2.7 1 2.7.4 0 .7.8.7 1.8s.5 2.3 1.2 3c.7.7.8 1.2.4 1.2-.5 0-.4.6.1 1.2.6.7 1.4 2.6 1.8 4.3 1 3.8.9 3.3 2.9 7.8.9 2.1 1.4 4.2 1.1 4.7-.3.4-.1 1 .5 1.2.5.1 1.1 1.2 1.3 2.3.2 1.1 1.1 3.7 2 5.9.9 2.1 1.7 4 1.7 4.1 0 .1-11.4.3-25.4.3-24.3 0-25.3-.1-24.9-1.9.3-1.1.9-1.9 1.4-1.9.5 0 .6-.7.3-1.5-.4-.8-.1-1.5.5-1.5s.8-.7.5-1.5c-.4-.8-.1-1.5.6-1.5.6 0 .9-.4.6-.9-.3-.5.2-2.6 1.1-4.7.9-2.2 1.8-4.2 1.9-4.7.1-.4.2-.8.4-1 .1-.1.3-1.1.5-2.2s.9-2.1 1.5-2.3c.5-.2.8-.7.5-1.2-.3-.5 0-2.1.6-3.7.7-1.5 1.4-3.7 1.6-4.8.2-1 .9-2.3 1.6-2.7.6-.4.8-.8.4-.8-.5 0-.5-.6 0-1.3.4-.6.9-1.9 1-2.8.1-.9.7-2.7 1.2-4 .5-1.3 1-2.9 1.1-3.4.1-.6.7-1.9 1.3-3 .6-1.1 1.2-2.8 1.4-3.8 1-6 6.3-7.6 8.8-2.7zm73.6 17.4c0 24.5.5 44.6 1 44.8.4.2 1 1.9 1.1 3.8.2 1.9.9 4.1 1.6 4.8.7.8 1 1.8.7 2.3-.4.5-.3.9.2.9.4 0 1.9 2 3.2 4.5 2.4 4.6 10.6 13.6 11.6 12.7.2-.3.7.3 1.1 1.2.3.9.9 1.4 1.4 1.1.4-.2 1.8.6 3.1 1.8 1.3 1.2 2.5 2.1 2.6 2 .6-.5 6.3 1 6.3 1.6 0 .3 1.7.7 3.7.9 2 .1 3.9.6 4.3 1 .3.4 2.5.8 5 .9 9.4.4 47 .4 47.7 0 .9-.6.9-21.4 0-22.3-.3-.4-11.1-.8-23.9-.9-16.5-.1-23.3-.5-23.6-1.4-.2-.6-.8-.8-1.3-.5-.6.3-1.8.2-2.7-.2-.9-.4-2.3-.8-3-1-.8-.1-2.1-.9-3-1.7-1-.8-3.2-2.7-5.1-4.3-3.4-3-7.7-10.1-6.7-11.2.3-.3 0-1.2-.7-2-.9-1.1-1.2-11.2-1.4-40.6-.1-21.5-.2-39.9-.2-40.9-.1-1.5-1.3-1.7-11.6-1.7h-11.6l.2 44.4zM33 383.9c0 6.7.3 12.1.8 12.2.4 0 16.7.1 36.3.2 29 .2 35.9.5 37.3 1.6 6.5 5.4 8.2 14.1 4 20.4-1.4 2.1-2.8 3.6-3.1 3.3-.3-.3-1.1.1-1.9.8-1 1-5.5 1.3-18.8 1.2-9.7 0-17.6.1-17.6.5 0 .5-4.7 1-10.7 1.3-1.3.1-2.3.5-2.3.9 0 .5-.6.7-1.2.5-.7-.3-1.9.1-2.6.9-.8.7-1.8 1.1-2.3.8-.5-.4-.9-.2-.9.3s-1.2 1.5-2.6 2.3c-2.4 1.2-9.9 8-9.6 8.6.1.2-.9 2.6-2.2 5.4-2.3 4.9-2.4 6-2.5 30.5l-.2 25.4 5.3.1c12.9.2 17.1 0 17.7-.9.3-.6.6-8.7.5-18l-.1-17.1 2.6 1.3c1.4.8 4.9 2.4 7.6 3.6 2.8 1.2 7.5 3.4 10.5 4.8s5.8 2.6 6.1 2.6c.3.1 2.5 1.1 5 2.2 2.4 1.2 5.9 2.7 7.7 3.4 1.7.7 3.2 1.7 3.2 2.2 0 .5.4.7.8.4.4-.2 3.5.8 6.7 2.4 3.3 1.6 6.6 3 7.3 3 .6 0 1.2.5 1.2 1.1 0 .5.5.7 1 .4.6-.3 1-.2 1 .3s.6.9 1.3.9c1.6 0 13 5.5 13.8 6.6.3.5.9.8 1.3.8 2.2-.3 3.6.1 5 1.4 2.4 2.4 2.8.4 2.8-12.6 0-12.1-.6-14-4.2-14.7-2.5-.5-7.9-3.2-8.5-4.2-.4-.6-1-.8-1.5-.5-1.1.7-6-1.5-6-2.7 0-.5-.4-.7-.8-.4-.5.3-3.4-.8-6.5-2.3-3.1-1.6-5.7-2.7-5.7-2.4 0 .2-1.5-.4-3.2-1.4-1.8-.9-3.5-1.8-3.8-1.8-.3-.1-2.3-.9-4.5-2-2.2-1-4.4-1.9-5-2.1-.5-.1-4.5-1.8-8.8-3.7l-7.8-3.4 14.5.1c8 0 14.6-.2 14.6-.6 0-.4 1-.8 2.3-.8 4.8-.1 7.7-.5 7.7-1.2s4.1-2.3 5.3-2c.4.1.7-.3.7-.8 0-.6.5-1 1.1-1 .6 0 1.7-.6 2.5-1.4.7-.8 2.4-2.3 3.7-3.3 2.1-1.6 8.2-10.9 8.2-12.5 0-.3.3-.9.7-1.3.4-.4.4-1.3.1-2.1-.3-.8-.1-1.4.3-1.4.5 0 1-1.9 1.1-4.3.3-5.4.3-5.5-.3-10.2-.8-7.1-1-8-1.8-9.3-.4-.6-.4-1.7-.1-2.2.3-.6.2-1-.4-1-.5 0-1.3-1-1.7-2.2-.3-1.2-1.2-2.7-1.8-3.3-.6-.6-2.5-2.7-4.1-4.6-2.7-3.1-5.6-4.8-15-9-2.3-1-12-1.4-41.2-1.7l-38.3-.4v12.1zm156.3-10.7c-.3.6-1.4.8-2.4.5-1.1-.3-1.9-.1-1.9.4s-.9.9-2 .9c-1.2 0-3.9.9-6 2-2.2 1.1-4 1.7-4 1.3 0-.5-.4-.3-.8.2-1.2 1.7-8.7 7-9.4 6.7-.5-.1-.8.5-.8 1.3s-.3 1.5-.7 1.5c-.5 0-2.4 2.4-4.3 5.3-1.9 2.8-3.8 5.4-4.3 5.5-.4.2-.5.8-.1 1.3.3.5.1.9-.5.9s-.8.7-.5 1.5c.4.8.1 1.5-.7 1.5-.7 0-1 .3-.7.6.4.3.2 2-.3 3.7-2.8 9-3.3 13.4-3.2 28.2 0 13.1.4 17.7 2.2 24.9.5 2.2.8 4.4.5 4.8-.3.4 0 .8.5.8.6 0 1.1.6 1.1 1.3 0 .7.9 2.9 2 5 1.1 2 1.8 3.7 1.5 3.7-.3 0 .3.8 1.3 1.8 2.1 2.3 4.2 5 6.2 7.8.8 1.2 1.8 2.1 2.2 2 .3 0 1.7.8 3 1.9 1.3 1.1 4.6 3.1 7.3 4.4 5.7 2.8 5.7 2.8 10.5 3.7 1.9.3 3.6.9 3.8 1.3.1.3 2 .6 4.2.4 2.2-.1 4 .1 4 .5 0 .9 16.3.7 25.5-.3 10.3-1.1 10.9-1.2 12.5-1.8 2.4-1 10.4-3.7 11.5-4 .5-.1 1.5-.9 2.2-1.7.7-.8 1.3-1.2 1.3-.8 0 .5.8 0 1.8-1s2.7-2.5 3.8-3.3c1.2-.8 3.8-3.9 6-6.9 2.1-3 4.3-5.8 4.9-6.2.5-.4.6-.8.2-.8-.4 0-.2-1 .5-2.3.6-1.2 1.3-3.1 1.5-4.2.2-1 .7-2.2 1.1-2.5.4-.3.7-1.2.7-2-.1-.8.3-3.1.9-5 .5-1.9.9-4.5.8-5.8-.1-1.2.2-2.2.6-2.2 1.2 0 .3-29.1-1.1-33-.3-.8-.9-3.3-1.3-5.5-.7-4-.9-4.8-1.4-6.3-.1-.4-.2-1-.1-1.5 0-.4-.3-.7-.8-.7s-1.3-1-1.7-2.3c-.4-1.2-1.7-3.8-2.9-5.7-1.2-1.9-2.2-3.7-2.1-4 .1-.3-1.9-2.3-4.4-4.5-2.5-2.2-4.6-4.3-4.8-4.8-.2-.4-.9-.7-1.6-.7-.8 0-2.5-.9-3.9-2-1.5-1.2-2.9-2-3.2-1.9-.5.1-1.6-.2-8-2.7-1.1-.4-2.6-.6-3.3-.5-.8.1-1.9-.2-2.5-.7-1.6-1.2-39.6-1.2-40.4 0zm44 25.1c2 1 3.7 2.2 3.7 2.7 0 .6.6 1 1.3 1 1.5 0 4.5 3.7 7.1 8.8 1.8 3.5 2.7 7.5 3 12.9 0 1.8.5 3.3.9 3.3 1 0 .2 23.4-.9 25.1-.4.7-.9 2.7-1.1 4.4-.2 1.6-.8 3.2-1.3 3.3-.6.2-.8.7-.5 1.2.3.5-.2 1.6-1.1 2.4-.8.9-1.3 1.6-.9 1.6.3 0-.6 1.6-2.1 3.5-1.4 1.9-3.1 3.5-3.6 3.5s-1.6.7-2.5 1.5c-.8.8-1.9 1.3-2.4 1-.5-.4-.9-.1-.9.5 0 .7-.7 1-1.5.6-.8-.3-1.5-.2-1.5.2 0 1.2-5.3 1.6-19 1.5-17.9-.2-18.9-.3-19.5-1.3-.4-.6-1-.8-1.5-.5-.5.3-1.1.1-1.5-.5-.4-.6-1-.8-1.5-.5-1 .6-11.5-9.4-10.7-10.2.4-.3-.1-1.2-.9-2-.8-.9-1.3-2.1-1-2.9.3-.7.1-1.4-.5-1.6-1.6-.5-2.3-7.6-2.3-23.7-.1-11.5.2-15.5 1.2-15.9.6-.2 1-.8.7-1.3-.3-.4.5-3.2 1.8-6.1 2.5-5.4 9.1-12.3 10.8-11.2.5.3.9.1.9-.5 0-2.1 6.9-2.8 25-2.6 14.9.1 19.2.5 22.3 1.8zm55.7-14.1v12.3l35.5-.1c19.5 0 35.5.3 35.5.7 0 .5.6.6 1.3.3.7-.2 2.6.9 4.2 2.6 1.6 1.6 2.5 3 2 3-.4 0-.1.8.8 1.8 1.8 2 1.7 11.4-.2 12-.6.2-1.1 1-1.1 1.8s-1.4 2.3-3 3.3c-2.8 1.7-5.8 1.8-39 1.7l-36-.1v12.2c0 6.8.3 12.3.8 12.4.4 0 16.6.2 36 .2 30.1.2 35.4.4 36.2 1.7.5.8 1 1.1 1 .6 0-.5 1.1.1 2.5 1.4 1.3 1.2 2.2 2.6 2 3-.3.4.2 1.3 1 2 2.2 1.8 1.3 11.1-1.5 14.9-1.9 2.8-3.1 3.6-5.2 3.2-.5 0-.8.4-.8 1s-.9.9-2 .6c-1.1-.3-2-.2-2 .3 0 .4-15.3.7-34 .6l-34-.1v11.7c0 10.6.2 11.8 1.8 11.9 16.5.4 68.2.2 68.2-.4 0-.4 1.2-.7 2.8-.7 4.8 0 7.2-.4 7.2-1.2 0-.4.4-.8.9-.8s2-.4 3.3-.9c1.3-.5 2.8-1 3.3-1.2 1.6-.5 11.9-10.8 12.1-12.2.1-.6 1-3 1.9-5.1.9-2.2 1.9-4.9 2.2-6 .8-3.7.2-18.8-.8-20.8-.5-1-.7-2.3-.4-2.8.3-.6.2-1-.4-1-.6 0-1.3-1.1-1.7-2.4-.3-1.4-1.2-2.7-2-3-.8-.3-1.4-1.2-1.4-2.1 0-.8-.6-1.5-1.4-1.5-.7 0-1.9-.6-2.5-1.4-.9-1.1-.4-2.1 2.1-4.8 4.1-4.2 6.9-7.8 6.3-7.8-.3 0 0-1 .7-2.3 1.3-2.4 1.7-5.5 2.1-16 .1-3.7-.2-6.7-.6-6.7-.5 0-.7-.6-.5-1.2.3-.7-.1-2.4-.8-3.7-.7-1.4-1.1-2.8-.8-3.3.3-.4.1-.8-.4-.8-.8 0-2.8-3.4-3-5.3-.1-.4-1.9-2.2-3.9-4-2.1-1.7-4.1-3.6-4.4-4-.3-.5-1-.8-1.5-.8-1.7.1-4.4-1-4.4-1.9 0-.5-.6-.7-1.4-.4-.8.3-1.7.1-2-.5-.4-.6-1.3-.8-2-.5-.8.3-1.7.1-2-.4-.3-.6-16.2-1-38.6-1.1l-38-.2v12.3zm161.6-11c-.9.5-2 .8-2.3.5-.2-.3-2 .1-3.9.9s-3.9 1.2-4.4.9c-.4-.3-1-.2-1.2.2-.1.5-2.1 1.7-4.3 2.8-4 1.9-14.9 10.3-15.3 11.7-.1.5-1.7 3.2-3.5 6-1.7 2.9-3.2 5.5-3.3 5.8-1.3 5.5-1.8 7-2.3 7-.6 0-1 1.9-1.2 6.2 0 1-.4 1.8-.8 1.8-1 0-1.1 35.9-.1 38.5.4 1.1 1.3 4.5 2 7.5s1.6 5.9 2 6.5c.3.5 1.3 2.6 2.1 4.5 3.4 8.6 17.3 21.3 24.7 22.6 1.4.3 3 .8 3.6 1.2.6.3 2.2.8 3.6 1 1.4.1 3.2.5 4 .9.8.3 2.9.7 4.5.8 1.7.1 3.5.3 4 .4 2.2.5 22.2.2 26-.3 2.2-.4 5.6-.9 7.5-1.2 5.6-.8 14-4.4 20.5-8.7 3.3-2.2 6.2-4.4 6.3-4.9.2-.4.9-1.4 1.5-2.1 2.7-2.8 7.3-10.9 9.3-16.2 1.5-4.2 2.6-8.7 2.6-10.8-.1-.9.2-1.7.6-1.7.4 0 .8-2.1.9-4.8.5-14.2.5-20.9-.1-22.2-.3-.8-.4-3.2-.3-5.3.2-2 0-3.7-.4-3.7-.5 0-1.5-4.1-2.4-10.5 0-.6-.6-2.1-1.2-3.5-1.6-3.5-3-7.4-3.2-8.3 0-.4-.9-1.5-2-2.6-1-1-2.3-2.5-2.7-3.2-3.5-5.5-17.1-14.6-23.4-15.6-1.3-.2-2.7-.7-3-1.1-.8-1.1-3.6-1.3-23.5-1.7-11.6-.2-19.8.1-20.9.7zm39.2 24.1c.6.5 1.2.7 1.2.3 0-1.2 7.6 3.4 10.1 6.1 3.2 3.6 6.8 10.6 7.2 14.2.2 1.5.6 3.1.9 3.6 1.3 2.4 1.4 27.7.1 29.9-.4.6-.8 1.7-.9 2.6-.8 4.8-3.3 11-4.5 11-.5 0-.8.3-.7.7.9 2.6-10.9 11.2-13.2 9.8-.6-.3-1-.2-1 .3 0 1.1.2 1.1-16.7 1.7-7.9.2-14.3.1-14.3-.4 0-.4-1.2-.6-2.7-.4-4.1.6-10-2.3-14.9-7.1-5.5-5.6-8.4-12.3-8.8-20.6-.1-2-.5-4.1-.9-4.7-.8-1.3 0-22 .9-23.4.3-.5.8-2.2 1-3.7 1.4-7.5 11.3-19.9 14.9-18.6.8.3 1.5.1 1.5-.4 0-.6.8-1.2 1.8-1.4 3.9-.9 37.8-.5 39 .5zM537 384c0 8.9.3 12 1.3 12.1.6.1 7.8.1 15.9.1l14.7.1-.2 52.3-.2 52.4 3.3.1c4.1.1 8.8.1 15.5 0l5.2-.1-.1-52.4-.1-52.3 13.5.1c7.3.1 13.9-.2 14.4-.5.9-.6 1.2-9.8.9-21.9-.1-2-.8-2-42.1-2h-42v12z"/></svg>