<svg xmlns="http://www.w3.org/2000/svg" width="878" height="175" fill="none"><rect width="102.427" height="22.104" x="30" y="24" fill="#000" rx="11.052"/><rect width="102.427" height="22.104" x="30" y="58.299" fill="#000" rx="11.052"/><rect width="102.427" height="22.104" x="30" y="126.896" fill="#000" rx="11.052"/><rect width="135.671" height="22.104" x="30" y="92.597" fill="#BFBFBF" rx="11.052"/><path fill="#000" d="M211 140.454V53.182h23.068v15.397h1.023c1.818-5.113 4.848-9.147 9.091-12.102 4.242-2.954 9.318-4.432 15.227-4.432 5.985 0 11.08 1.497 15.284 4.489 4.205 2.955 7.008 6.97 8.409 12.045h.909c1.781-5 5-8.996 9.659-11.988 4.697-3.03 10.247-4.546 16.648-4.546 8.144 0 14.754 2.595 19.83 7.785 5.113 5.151 7.67 12.462 7.67 21.931v58.693H313.67v-53.92c0-4.849-1.287-8.485-3.863-10.91-2.576-2.423-5.796-3.635-9.659-3.635-4.394 0-7.822 1.401-10.284 4.204-2.462 2.765-3.694 6.42-3.694 10.966v53.295h-23.465V86.023c0-4.28-1.232-7.69-3.694-10.228-2.424-2.538-5.625-3.806-9.602-3.806-2.689 0-5.114.681-7.273 2.045-2.121 1.326-3.806 3.2-5.056 5.625-1.25 2.386-1.875 5.19-1.875 8.41v52.385H211zm145.938 0V53.182h24.204v87.272h-24.204zm12.159-98.522c-3.599 0-6.686-1.193-9.262-3.58-2.538-2.424-3.807-5.322-3.807-8.693 0-3.333 1.269-6.193 3.807-8.58 2.576-2.424 5.663-3.636 9.262-3.636 3.598 0 6.666 1.212 9.204 3.636 2.576 2.387 3.864 5.247 3.864 8.58 0 3.371-1.288 6.269-3.864 8.693-2.538 2.387-5.606 3.58-9.204 3.58zm63.593 99.943c-6.628 0-12.632-1.705-18.011-5.114-5.341-3.447-9.583-8.503-12.727-15.17-3.106-6.705-4.659-14.924-4.659-24.66 0-10 1.609-18.314 4.829-24.942 3.22-6.667 7.5-11.648 12.841-14.944 5.379-3.333 11.269-5 17.671-5 4.886 0 8.958.834 12.215 2.5 3.296 1.63 5.947 3.675 7.955 6.137 2.045 2.424 3.598 4.81 4.659 7.159h.739V24.09h24.147v116.363h-23.863v-13.977h-1.023c-1.136 2.424-2.746 4.83-4.829 7.216-2.046 2.349-4.716 4.299-8.012 5.852-3.257 1.553-7.235 2.33-11.932 2.33zm7.671-19.261c3.901 0 7.197-1.061 9.886-3.182 2.727-2.159 4.811-5.171 6.25-9.034 1.477-3.864 2.216-8.39 2.216-13.58 0-5.19-.72-9.697-2.159-13.523-1.439-3.825-3.523-6.78-6.25-8.863-2.727-2.084-6.042-3.125-9.943-3.125-3.977 0-7.33 1.08-10.057 3.238-2.727 2.16-4.792 5.152-6.193 8.978-1.402 3.825-2.102 8.257-2.102 13.295 0 5.076.7 9.565 2.102 13.466 1.439 3.864 3.504 6.894 6.193 9.091 2.727 2.159 6.08 3.239 10.057 3.239zm61.889 50.568v-120h23.864V67.84h1.079c1.061-2.349 2.595-4.735 4.602-7.16 2.046-2.461 4.697-4.507 7.955-6.136 3.295-1.666 7.386-2.5 12.273-2.5 6.363 0 12.235 1.667 17.613 5 5.379 3.296 9.678 8.277 12.898 14.944 3.22 6.628 4.83 14.943 4.83 24.943 0 9.735-1.572 17.954-4.716 24.659-3.106 6.667-7.349 11.723-12.728 15.17-5.34 3.409-11.325 5.114-17.954 5.114-4.697 0-8.693-.777-11.989-2.33-3.257-1.553-5.928-3.503-8.011-5.852-2.083-2.386-3.674-4.792-4.773-7.216h-.738v46.705H502.25zm23.693-76.364c0 5.19.72 9.716 2.159 13.58 1.44 3.863 3.523 6.875 6.25 9.034 2.728 2.121 6.042 3.182 9.943 3.182 3.94 0 7.273-1.08 10-3.239 2.728-2.197 4.792-5.227 6.194-9.091 1.439-3.901 2.159-8.39 2.159-13.466 0-5.038-.701-9.47-2.103-13.295-1.401-3.826-3.465-6.819-6.193-8.978-2.727-2.159-6.079-3.238-10.057-3.238-3.939 0-7.272 1.041-10 3.125-2.689 2.083-4.753 5.038-6.193 8.863-1.439 3.826-2.159 8.334-2.159 13.523zm102.443 45.284c-5.568 0-10.53-.966-14.886-2.898-4.356-1.969-7.803-4.867-10.341-8.693-2.5-3.863-3.75-8.674-3.75-14.432 0-4.848.89-8.92 2.671-12.215 1.78-3.296 4.204-5.947 7.272-7.955 3.068-2.008 6.553-3.523 10.455-4.545 3.939-1.023 8.068-1.743 12.386-2.16 5.076-.53 9.167-1.022 12.273-1.477 3.106-.492 5.36-1.212 6.761-2.159 1.402-.947 2.103-2.348 2.103-4.204v-.341c0-3.599-1.137-6.383-3.41-8.353-2.234-1.97-5.416-2.954-9.545-2.954-4.356 0-7.822.966-10.398 2.898-2.575 1.893-4.28 4.28-5.113 7.159l-22.387-1.819c1.137-5.303 3.371-9.886 6.705-13.75 3.333-3.901 7.632-6.893 12.898-8.977 5.303-2.121 11.439-3.182 18.409-3.182 4.848 0 9.488.569 13.92 1.705 4.47 1.136 8.428 2.898 11.875 5.284 3.485 2.386 6.231 5.455 8.239 9.205 2.007 3.712 3.011 8.162 3.011 13.352v58.863H654.58v-12.102h-.682c-1.402 2.727-3.277 5.133-5.625 7.216-2.349 2.046-5.171 3.655-8.466 4.83-3.296 1.136-7.102 1.704-11.421 1.704zm6.932-16.704c3.561 0 6.705-.701 9.432-2.103 2.727-1.439 4.867-3.371 6.42-5.795s2.33-5.171 2.33-8.239V100c-.758.492-1.799.947-3.125 1.364a57.421 57.421 0 0 1-4.375 1.079c-1.629.303-3.258.587-4.886.852-1.629.228-3.106.436-4.432.625-2.841.417-5.322 1.08-7.443 1.989-2.122.909-3.769 2.14-4.944 3.693-1.174 1.515-1.761 3.409-1.761 5.682 0 3.295 1.193 5.814 3.58 7.557 2.424 1.704 5.492 2.557 9.204 2.557zM735.631 175c-7.841 0-14.565-1.08-20.171-3.239-5.568-2.121-10-5.019-13.295-8.693-3.296-3.674-5.436-7.803-6.421-12.386l22.387-3.012c.681 1.743 1.761 3.372 3.238 4.887 1.478 1.515 3.428 2.727 5.853 3.636 2.462.947 5.454 1.421 8.977 1.421 5.265 0 9.602-1.288 13.011-3.864 3.447-2.538 5.171-6.799 5.171-12.784V125h-1.023c-1.061 2.424-2.652 4.716-4.773 6.875-2.121 2.159-4.848 3.92-8.182 5.284-3.333 1.364-7.31 2.045-11.931 2.045-6.553 0-12.519-1.515-17.898-4.545-5.341-3.068-9.602-7.746-12.784-14.034-3.144-6.326-4.716-14.318-4.716-23.977 0-9.887 1.61-18.144 4.829-24.773 3.22-6.629 7.5-11.591 12.841-14.886 5.379-3.296 11.269-4.944 17.671-4.944 4.886 0 8.977.834 12.273 2.5 3.295 1.63 5.946 3.675 7.954 6.137 2.045 2.424 3.617 4.81 4.716 7.159h.909V53.18h24.034v88.126c0 7.424-1.818 13.636-5.454 18.636-3.637 5-8.675 8.75-15.114 11.25-6.402 2.538-13.769 3.807-22.102 3.807zm.511-53.977c3.902 0 7.197-.966 9.886-2.898 2.728-1.97 4.811-4.773 6.25-8.409 1.478-3.674 2.216-8.068 2.216-13.182 0-5.114-.719-9.545-2.159-13.295-1.439-3.788-3.523-6.724-6.25-8.807-2.727-2.084-6.041-3.125-9.943-3.125-3.977 0-7.33 1.08-10.057 3.238-2.727 2.122-4.791 5.076-6.193 8.864-1.401 3.788-2.102 8.163-2.102 13.125 0 5.038.701 9.394 2.102 13.068 1.439 3.637 3.504 6.459 6.193 8.466 2.727 1.97 6.08 2.955 10.057 2.955zm101.193 21.136c-8.977 0-16.704-1.818-23.182-5.455-6.439-3.674-11.401-8.863-14.886-15.568-3.485-6.742-5.227-14.716-5.227-23.92 0-8.977 1.742-16.856 5.227-23.636 3.485-6.78 8.39-12.065 14.716-15.853 6.364-3.788 13.826-5.682 22.386-5.682 5.758 0 11.118.928 16.08 2.785 5 1.818 9.356 4.564 13.068 8.238 3.75 3.674 6.667 8.296 8.75 13.864 2.083 5.53 3.125 12.007 3.125 19.432v6.647h-73.693v-15h50.909c0-3.484-.758-6.572-2.273-9.261a16.275 16.275 0 0 0-6.307-6.307c-2.651-1.553-5.738-2.33-9.261-2.33-3.674 0-6.932.853-9.773 2.557-2.803 1.667-5 3.92-6.591 6.762-1.591 2.803-2.405 5.928-2.443 9.375v14.261c0 4.318.796 8.049 2.387 11.193 1.628 3.144 3.92 5.568 6.875 7.273 2.954 1.705 6.458 2.557 10.511 2.557 2.689 0 5.151-.379 7.386-1.137 2.235-.757 4.148-1.893 5.739-3.409 1.591-1.515 2.803-3.371 3.636-5.568l22.387 1.477c-1.137 5.379-3.466 10.076-6.989 14.091-3.485 3.978-7.992 7.084-13.523 9.319-5.492 2.197-11.837 3.295-19.034 3.295z"/></svg>