<?xml version="1.0" encoding="UTF-8"?>
<svg id="Layer_1" data-name="Layer 1" xmlns="http://www.w3.org/2000/svg" version="1.1" viewBox="0 0 191.78 163.91">
  <defs>
    <style>
      .cls-1 {
        fill: #000;
        stroke-width: 0px;
      }
    </style>
  </defs>
  <path class="cls-1" d="M120.9,55.04c5.69,2.69,11.62,4.03,17.91,3.09,5.51-.83,10.43-3.22,15.19-5.99.33-.19.69-.47,1.06-.59-1.31-.85-2.27-2.15-2.65-3.71-.1.09-.21.18-.36.25-7.56,3.63-15.27,5.45-23.45,2.05-2.51-1.04-4.84-2.4-7.14-3.83-.97-.6-1.45-.56-1.46.73,0,1.08-.12,2.16-.21,3.67,0,.52.05,1.47-.01,2.41-.06.93.27,1.52,1.12,1.93Z"/>
  <path class="cls-1" d="M39.66,42.32c1.83,1.32,3.6,2.63,5.4,3.86,7.3,4.99,15.26,7.4,24.18,6.17,1.26-.17,1.76-.62,1.88-1.84.17-1.75.37-3.5.78-5.21.41-1.72-.02-2.08-1.68-1.56-9.79,3.06-18.51.32-26.75-5.01-.17-.11-.31-.22-.45-.34-.57,1.7-1.79,3.1-3.36,3.92Z"/>
  <path class="cls-1" d="M129.32,122.89c-5.75-.01-11.5-.04-17.25.01-1.26.01-1.78-.29-1.8-1.68-.06-5.61-.18-11.22-.38-16.83-.37-10.67-.46-21.36-1.65-31.99-.17-1.51.29-2.51,1.14-3.66,1.76-2.38,4.39-4.32,4.27-7.75,0-.3.25-.62.42-.91.9-1.57,1.29-3.27,1.13-5.07-.24-2.68.16-5.22,1.12-7.74.55-1.44.85-2.98.97-4.54.16-2.17-.79-3.75-2.68-4.56-1.82-.78-3.8-1.12-4.34-3.54-.17-.75-1.22-1.04-1.99-1.26-1.57-.46-3.17-.74-4.79-.25-1.22.37-2.18.23-2.98-.92-.98-1.41-2.5-1.78-4.12-1.73-2.19.07-4.29.56-6.24,1.57-.83.43-1.57.48-2.5.23-4.71-1.23-9.89,2.73-9.96,7.57-.01.76-.04,1.45-.47,2.12-1.95,3.02-2.76,6.42-3.25,9.93-.78,5.59-.24,10.71,4.94,14.22.89.61,1.75,1.31,2.71,1.77,1.28.62,1.63,1.51,1.64,2.89.07,10.21-.18,20.42-.56,30.63-.23,6.28-.8,12.55-1.14,18.82-.1,1.93-.64,2.84-2.87,2.72-4.18-.21-8.43.33-12.57-.16-5.27-.63-8.75,1.04-11.28,5.74-1.74,3.22-4.25,6.03-6.57,9.24h93.47c-3.57-4.92-6.97-9.6-10.35-14.3-.54-.75-1.31-.57-2.03-.58ZM111.03,42.6c.52-1.65,1.92-.99,3.02-1.06-.06-.87-.91-.8-1.26-1.27,2.09.09,3.03,1.05,2.65,2.96-.5,2.58-1.31,5.08-2.65,7.36-.48.82-3.37,1.7-3.95,1.18-.43-.39-.43-.96-.26-1.51.81-2.56,1.63-5.11,2.44-7.68ZM101.3,48.88c.23-1.87.28-3.77.49-5.64.6-5.36.61-5.36,5.92-6.1-1.16-1.19-2.53-.99-3.99-1.39,1.69-1.2,3.21-.84,4.59-.22,1.17.52.76,1.8.67,2.74-.4,4.17-.94,8.32-2.43,12.27-.34.89-.62,2.02-1.99.91-.31-.25-.95-.25-1.38-.14-2.51.61-2.07-.92-1.88-2.42ZM91.02,38.6c-.12-1.36.76-2.29,2.02-2.69,1.06-.34,2.18-.51,3.29-.76-.14-.62-.89-.32-1.08-.84.57-.55,1.61.06,2.09-.82-.7-.7-1.72-.14-2.43-.67,3.04-.9,4.09-.33,4.28,2.71.21,3.22.65,6.44.46,9.68-.04.72.11,1.49-.47,2.12-2.39-1.38-4.78-2.74-7.15-4.14-1.93-1.14-.89-3.03-1.02-4.59ZM79.76,38.64c.43-1.32,1.5-2.04,2.74-2.51,1.03-.39,2.07-.74,3.22-1.15-.93-1-1.83-.04-2.62-.37,3.03-1.42,3.86-1.07,4.93,2.07.04.13.11.25.14.38.32,1.36,1.42,3.19.68,3.99-.83.89-2.31-.7-3.55-1.09-1.49-.47-2.91-.48-4.36.02-1.44.5-1.51-.32-1.18-1.33ZM92.47,46.11c2.17-.88,3.65.67,5.09,1.76,1.19.9.13,1.86-.63,2.45-1.81,1.4-3.93,1.23-6.03.9-2.36-.38-4.43-1.56-6.93-2.76,1,2.26,2.03,4.23.03,6.44,5.67.44,10.06,2.3,11.45,8.13.65-.43.22-1.11.67-1.63,1.2,1.91,1.56,3.99,1.8,6.28.88-4.42,1.23-9.2,7.45-9.59-1.1-1.03-2.14-.45-3-.8,1.81-3.01,6.63-4.21,9.4-2.36.99.66,1.5,1.56,1.26,2.76-.24,1.18-.97,1.73-2.31,1.27,1.39,2.97,1.2,3.76-1.17,5.55-.15.11-.35.25-.39.41-1.11,4.33-4.8,5.03-8.34,5.92-.43.11-.95-.11-1.34.48,1.26.77,2.63.48,3.94.51,2.71.06,3.04.36,3.2,2.99.79,12.48,1.07,24.98,1.29,37.48.05,2.84.17,5.68.32,8.51.06,1.21-.38,1.74-1.62,1.7-1.42-.05-2.85-.09-4.26.01-1.63.12-2.07-.56-2.04-2.13.18-11.09.3-22.17.42-33.26.03-2.82,0-5.64-.42-8.46-.17,2.95-.4,5.9-.49,8.85-.33,10.88-.62,21.76-.91,32.64-.06,2.11-1.67,3.11-3.61,2.24-.85-.38-.64-1.12-.64-1.75.05-3.99.16-7.98.19-11.96.08-10.55.14-21.1.19-31.64,0-.55.18-1.19-.37-1.76-.74,4.62-.67,9.22-.9,13.78-.46,9.25-.7,18.51-.96,27.76-.16,5.68-.1,5.68-5.68,5.68-3.65,0-3.69,0-3.41-3.7,1.18-15.51,1.76-31.04,1.55-46.59-.02-1.76.53-1.66,1.84-1.17,3.01,1.13,6.1,1.43,9.28.18-7.35-.15-13.08-3.26-17.24-9.2-.78.48.17,1.09-.44,1.55-3.89-3.27-3.08-7.59-2.85-11.9.25-4.85,2.85-7.76,7.14-9.54-.84-.88-1.48.2-2.16-.33,1.39-.92,2.8-1.03,4.26-.44,1.13.46,2.2,1.05,3.33,1.5M90.36,44.19c1.43,1.09,1.4,1.24,2.36,1.48"/>
  <path class="cls-1" d="M134.9,104.8c4.92,9.9,12.95,15.48,24,15.47,11.04,0,19.08-5.58,23.97-15.51.2-.41.4-.78.62-1.13h-49.21c.22.35.42.74.63,1.16Z"/>
  <path class="cls-1" d="M186.35,98.37c-1.79-.17-2.18-1.33-2.79-2.5-.93-1.8-1.83-3.62-2.74-5.43-6.3-12.41-12.61-24.82-18.9-37.24-.44-.87-1.01-1.6.03-2.66,1.12-1.14,1.64-2.42,1.67-3.72,0-.23,0-.46-.03-.69-.09-.77-.35-1.53-.78-2.27-1.11-1.88-3.2-2.87-5.35-2.52-2.19.35-3.72,2-4.26,4.54-.02.18-.06.36-.06.55,0,2.14,1.28,3.98,3.12,4.8.1,1.39-.35,1.8-.63,2.35-7.3,14.41-14.62,28.8-21.92,43.21-.42.83-.86,1.41-1.94,1.47-1.76.09-1.08,1.55-1.17,2.49-.06.57,0,1.17.34,1.51h55.91c.25-.26.35-.67.3-1.13-.11-.98.61-2.62-.79-2.75ZM158.04,95.51c0,2.69,0,2.7-2.67,2.7-6.15,0-12.3-.02-18.45.02-1.42,0-2.05-.22-1.25-1.8,7.15-14.02,14.25-28.06,21.38-42.09.14-.28.25-.64.71-.66.5.57.28,1.27.28,1.9.02,13.31.01,26.62,0,39.93ZM180.51,98.21c-6.22.01-12.44-.06-18.66.04-1.85.03-2.29-.68-2.29-2.36.04-13.38.02-26.75.03-40.13,0-.72-.1-1.49.58-2.45,1.17,2.3,2.2,4.34,3.24,6.37,6.14,12.11,12.29,24.21,18.43,36.32,1.07,2.11,1.02,2.2-1.34,2.2Z"/>
  <path class="cls-1" d="M64.01,86.07c-.13-.95.62-2.44-1.1-2.55-1.43-.09-1.93-.99-2.5-2.01-7.01-12.58-14.03-25.15-21.03-37.73-.18-.33-.44-.66-.57-1.08-.02,0-.04.02-.06.02-.21-.34-.46-.63-.72-.91.01.01.03.02.04.04,2.34-.69,4.07-2.76,4.23-5.28.03-.61-.02-1.17-.13-1.7-.04-.17-.1-.32-.15-.49-.09-.31-.22-.61-.37-.89-.09-.18-.17-.35-.28-.52-.61-.9-1.49-1.63-2.67-2.15-2.24-.99-4.86-.44-6.52,1.36-.67.73-1.13,1.49-1.4,2.29-.02.06-.04.13-.06.19-.05.17-.08.33-.12.5-.06.33-.1.67-.1,1.01,0,.03,0,.06,0,.08,0,.03,0,.05,0,.08.03.84.25,1.71.68,2.59.44.91.38,1.62-.09,2.45-7.59,13.57-15.17,27.15-22.73,40.73-.42.75-.87,1.31-1.84,1.35-1.85.07-1.3,1.52-1.38,2.57-.07.97.35,1.35.99,1.45h56.84c.8,0,1.17-.56,1.05-1.43ZM31.09,83.5c-6.42-.1-12.85-.03-19.28-.04-2.18,0-2.27-.15-1.27-1.94,7.18-12.87,14.36-25.73,21.55-38.59.28-.51.47-1.14,1.25-1.4.53.8.34,1.56.34,2.28.01,12.37-.04,24.74.06,37.11.02,2.13-.69,2.62-2.66,2.59ZM57.32,83.45c-6.56.02-13.13-.04-19.69.04-1.76.02-2.38-.55-2.35-2.33.08-6.15.03-12.31.03-18.46s-.01-12.31.02-18.46c0-.68-.35-1.68.6-1.92.94-.24,1.15.77,1.49,1.38,7.03,12.57,14.05,25.14,21.06,37.72,1.02,1.83.92,2.03-1.16,2.04Z"/>
  <path class="cls-1" d="M59.62,89.47c.11-.22.22-.4.34-.59H9.23s.04.06.05.09c3.34,6.87,8.82,11.28,15.95,13.83,12.93,4.63,28.29-1.27,34.39-13.34Z"/>
</svg>