<svg xmlns="http://www.w3.org/2000/svg" xmlns:svg="http://www.w3.org/2000/svg" id="svg5578" width="165.724" height="97.753" version="1.1" viewBox="0 0 43.848 25.864"><metadata id="metadata5575"/><g id="layer1" transform="translate(-660.7011,-416.3598)"><g id="g7726" transform="matrix(0.35277777,0,0,-0.35277777,679.48521,425.62039)"><path style="fill:#2c3e50;fill-opacity:1;fill-rule:nonzero;stroke:none" id="path7728" d="m 0,0 c 0.112,-3.032 -0.012,-30.067 -1.749,-39.489 h 20.397 c -0.083,6.058 -0.633,34.617 -1.617,38.208 l 0.68,1.107 c 0.94,0.781 1.046,1.169 1.336,1.812 1.595,1.349 1.711,2.062 1.775,3.749 2.2,3.329 0.369,5.218 1.364,7.798 0.859,2.223 1.222,4.273 1.224,5.104 0.004,1.67 -1.631,2.898 -2.964,3.145 l -1.129,0.224 -0.425,1.331 c -0.496,1.379 -3.358,1.82 -4.798,1.519 l -1.446,-0.303 c -1.022,1.207 -1.136,1.418 -1.683,1.692 -1.663,0.833 -4.798,0.019 -6.083,-0.65 L 3.937,24.756 c -0.949,0.327 -1.069,0.374 -1.194,0.405 -0.917,0.234 -2.431,-0.112 -3.68,-0.781 -0.06,-0.043 -1.56,-1.15 -1.619,-1.194 -0.596,-0.462 -1.266,-1.627 -1.186,-3.391 l 0.036,-0.817 C -5.969,15.617 -6.284,12.526 -6.5,8.523 -6.775,3.457 -1.715,1.073 0,0"/></g><g id="g7730" transform="matrix(0.35277777,0,0,-0.35277777,678.96913,417.56887)"><path style="fill:#999;fill-opacity:1;fill-rule:nonzero;stroke:none" id="path7732" d="m 0,0 c 1.056,0.415 2.729,0.632 3.736,0.387 0,0 -1.87,-0.236 -3.345,-1.042 -1.193,-0.653 -1.581,-1.546 -1.372,-2.935 0.921,0.373 2.147,0.784 2.809,0.685 C 2.804,-3.054 4.12,-3.725 5.786,-4.534 5.44,-1.668 4.564,0.301 4.312,0.868 4.013,1.545 1.13,1.133 0,0"/></g><g id="g7734" transform="matrix(0.35277777,0,0,-0.35277777,683.99723,421.34401)"><path style="fill:#999;fill-opacity:1;fill-rule:nonzero;stroke:none" id="path7736" d="M 0,0 C 1.418,-0.444 2.271,-0.325 2.621,-0.351 1.841,-0.82 0.533,-0.655 0,0 M 5.03,10.188 C 4.981,10.746 4.309,10.932 3.627,11.023 1.935,11.25 1.144,10.944 0.944,10.203 2.728,10.3 3.837,9.85 4.535,9.262 3.4,9.646 1.996,9.756 1.158,9.229 -0.108,8.433 -0.143,6.234 -0.23,4.999 -0.37,3.018 -0.474,1.176 -0.675,-0.08 c 0.472,-0.742 2.07,-1.28 3.239,-0.779 0.012,0.007 0.012,0.008 0.021,0.009 0.009,0.005 0.038,0.026 0.047,0.032 1.419,1.186 2.553,9.31 2.398,11.006"/></g><g id="g7738" transform="matrix(0.35277777,0,0,-0.35277777,681.40344,417.10447)"><path style="fill:#999;fill-opacity:1;fill-rule:nonzero;stroke:none" id="path7740" d="m 0,0 c 1.346,0.307 3.758,0.346 4.839,-0.151 -2.346,0.11 -4.36,-0.902 -4.36,-0.902 1.682,0.29 2.592,0.325 3.599,-0.073 -1.169,0.08 -3.321,-0.295 -3.882,-1.098 -0.55,-0.79 -0.447,-2.061 -0.299,-4.129 1.787,-0.905 5.126,-2.924 5.288,-3.068 0.456,-0.316 0.52,-0.791 0.523,-1.338 C 6.231,-7.934 5.8,-1.942 5.496,-0.021 5.247,1.556 1.358,0.716 0,0"/></g><g id="g7742" transform="matrix(0.35277777,0,0,-0.35277777,686.37506,418.77466)"><path style="fill:#999;fill-opacity:1;fill-rule:nonzero;stroke:none" id="path7744" d="m 0,0 c 0.646,0.008 1.539,-0.366 1.862,-0.93 -1.159,0.664 -2.162,0.229 -2.162,0.229 -0.235,-0.417 -2.208,-5.875 -2.035,-6.675 0.126,-0.576 0.563,-1.007 1.251,-1.066 0.322,-0.035 0.445,-0.004 0.548,0.029 -0.549,0.249 -1.136,0.665 -1.426,1.196 0.533,-0.556 1.547,-0.842 2.031,-0.809 1.498,1.401 2.712,5.988 2.665,6.789 C 2.655,0.065 0.844,0.989 0,0"/></g><g id="g7746" transform="matrix(0.35277777,0,0,-0.35277777,678.73831,424.68849)"><path style="fill:#999;fill-opacity:1;fill-rule:nonzero;stroke:none" id="path7748" d="M 0,0 C -0.433,0.687 -0.751,1.706 -0.851,2.301 1.153,-0.923 5.261,-4.593 11.694,-4.157 10.693,-4.566 7.325,-5.349 3.782,-3.535 3.579,-3.431 3.349,-3.61 3.398,-3.835 3.886,-5.998 3.034,-35.981 1.795,-42.131 h 6.71 C 8.91,-35.688 9.64,-8.418 10.152,-6.144 10.228,-8.465 9.94,-35.58 9.759,-42.131 h 3.064 c 0.307,5.714 0.855,32.043 1.208,33.886 0.021,-1.859 -0.233,-28.226 -0.373,-33.886 h 5.766 c -0.205,6.677 -0.684,35.611 -1.382,37.01 -0.598,1.199 -3.287,0.229 -5.233,0.923 3.054,0.132 5.251,1.058 6.848,3.007 0.4,0.485 0.442,1.15 0.031,1.616 v 0.001 c 0.38,-0.128 0.739,-0.459 1.301,0.139 0.693,0.738 0.774,1.534 0.692,2.219 -0.06,0.502 -0.391,0.958 -1.118,1.457 0.259,-0.062 0.484,-0.189 0.698,-0.293 1.014,-0.491 1.371,0.617 1.427,1.422 0.194,2.833 -6.3,3.208 -7.926,-0.41 C 16,5.298 16.985,5.063 17.48,4.811 13.688,4.972 12.661,1.724 12.548,0.077 12.473,-1.018 12.266,-1.755 12.019,-2.251 12.066,-1.555 12.694,0.47 10.525,3.577 10.787,2.673 10.823,1.73 10.687,0.964 10.674,1.08 10.658,1.201 10.64,1.323 10.288,3.589 8.7,5.458 6.561,6.28 5.23,6.792 3.788,7.038 2.316,6.944 2.908,7.039 3.63,7.284 3.707,8.413 3.788,9.6 3.604,10.37 1.828,11.883 7.494,7.765 12.354,8.813 12.536,11.448 c -0.012,0.076 -0.057,0.128 -0.121,0.177 -0.479,0.371 -1.579,0.999 -2.957,1.653 -0.299,-0.145 -0.605,-0.347 -1.237,-0.797 0.396,0.526 0.83,0.755 1.13,0.848 C 9.268,13.368 9.186,13.406 9.103,13.444 7.924,13.151 7.377,12.522 7.394,12.145 7.395,12.131 7.396,12.117 7.396,12.12 v -10e-4 c 0.182,-0.612 2.041,-1.708 3.803,-1.753 -1.829,-0.25 -4.214,0.719 -4.409,1.73 -0.038,0.677 0.874,1.33 1.825,1.6 -0.136,0.073 -0.274,0.146 -0.412,0.219 -0.489,-0.114 -1.006,-0.378 -1.425,-0.752 0.189,0.362 0.505,0.725 1.009,0.975 -2.006,1.077 -4.031,2.213 -5.169,2.386 -1.128,0.171 -3.697,-1.012 -4.375,-2.302 0.059,0.048 2.275,1.595 4.515,1.783 0,0 -3.532,-1.305 -4.646,-3.108 C -2.979,11.13 -2.979,8.687 -3.146,5.81 -3.316,2.854 -1.222,0.909 0,0"/></g><g id="g7750" transform="matrix(0.35277777,0,0,-0.35277777,703.69458,433.74119)"><path style="fill:#2c3e50;fill-opacity:1;fill-rule:nonzero;stroke:none" id="path7752" d="m 0,0 c -2.611,-7.05 -9.225,-12.048 -16.982,-12.048 -7.747,0 -14.362,4.998 -16.985,12.048 z"/></g><g id="g7754" transform="matrix(0.35277777,0,0,-0.35277777,703.69458,432.8651)"><path style="fill:#999;fill-opacity:1;fill-rule:nonzero;stroke:none" id="path7756" d="M 0,0 C -0.221,0 -0.436,0.121 -0.543,0.339 L -16.982,32.753 -33.426,0.339 c -0.156,-0.31 -0.527,-0.428 -0.826,-0.268 -0.303,0.163 -0.418,0.546 -0.26,0.857 l 16.983,33.485 c 0.215,0.419 0.877,0.419 1.088,0 L 0.545,0.928 C 0.701,0.617 0.586,0.234 0.287,0.071 0.193,0.022 0.098,0 0,0"/></g><g id="g7758" transform="matrix(0.35277777,0,0,-0.35277777,697.70357,433.41494)"><path style="fill:#999;fill-opacity:1;fill-rule:nonzero;stroke:none" id="path7760" d="m 0,0 c -0.34,0 -0.615,0.284 -0.615,0.637 v 35.038 c 0,0.352 0.275,0.635 0.615,0.635 0.34,0 0.609,-0.283 0.609,-0.635 V 0.637 C 0.609,0.284 0.34,0 0,0"/></g><path style="fill:#999;fill-opacity:1;fill-rule:nonzero;stroke:none;stroke-width:.35277775" id="path7762" d="m 704.5489,432.64165 h -13.69165 v 1.09961 h 13.69165 z"/><g id="g7764" transform="matrix(0.35277777,0,0,-0.35277777,697.50443,419.74135)"><path style="fill:#999;fill-opacity:1;fill-rule:nonzero;stroke:none" id="path7766" d="m 0,0 0.006,-3.614 c -4.645,-3.038 -9.356,-5.454 -14.098,-5.95 -3.195,-0.335 -7.969,0.421 -12.058,2.695 0.052,1.71 0.123,4.41 0.119,6.371 3.818,-2.42 7.59,-4.715 12.193,-4.53 C -8.549,-4.815 -4.645,-3.03 0,0"/></g><g id="g7768" transform="matrix(0.35277777,0,0,-0.35277777,696.3138,420.28395)"><path style="fill:#2c3e50;fill-opacity:1;fill-rule:nonzero;stroke:none" id="path7770" d="m 0,0 c 0,-2.035 1.596,-3.686 3.564,-3.686 1.969,0 3.569,1.651 3.569,3.686 0,2.038 -1.6,3.687 -3.569,3.687 C 1.596,3.687 0,2.038 0,0"/></g><g id="g7772" transform="matrix(0.35277777,0,0,-0.35277777,674.04989,430.12038)"><path style="fill:#2c3e50;fill-opacity:1;fill-rule:nonzero;stroke:none" id="path7774" d="m 0,0 c -2.714,-6.665 -9.594,-11.391 -17.661,-11.391 -8.054,0 -14.934,4.726 -17.663,11.391 z"/></g><g id="g7776" transform="matrix(0.35277777,0,0,-0.35277777,674.04989,429.2922)"><path style="fill:#999;fill-opacity:1;fill-rule:nonzero;stroke:none" id="path7778" d="M 0,0 C -0.229,0 -0.447,0.115 -0.564,0.321 L -17.661,30.965 -34.758,0.321 c -0.165,-0.293 -0.551,-0.404 -0.861,-0.253 -0.316,0.154 -0.435,0.516 -0.269,0.809 l 17.662,31.658 c 0.221,0.396 0.909,0.396 1.131,0 L 0.563,0.877 C 0.731,0.584 0.61,0.222 0.3,0.068 0.204,0.022 0.099,0 0,0"/></g><g id="g7780" transform="matrix(0.35277777,0,0,-0.35277777,667.81941,429.81171)"><path style="fill:#999;fill-opacity:1;fill-rule:nonzero;stroke:none" id="path7782" d="m 0,0 c -0.353,0 -0.639,0.27 -0.639,0.601 v 33.126 c 0,0.334 0.286,0.601 0.639,0.601 0.353,0 0.639,-0.267 0.639,-0.601 V 0.601 C 0.639,0.27 0.353,0 0,0"/></g><path style="fill:#999;fill-opacity:1;fill-rule:nonzero;stroke:none;stroke-width:.35277775" id="path7784" d="M 674.93885,429.08036 H 660.7011 v 1.03999 h 14.23775 z"/><g id="g7786" transform="matrix(0.35277777,0,0,-0.35277777,676.94722,419.37237)"><path style="fill:#999;fill-opacity:1;fill-rule:nonzero;stroke:none" id="path7788" d="m 0,0 c -0.41,-1.62 -0.86,-3.91 -0.97,-6.34 -3.82,-0.62 -7.58,-0.36 -10.2,0.39 -3.1,0.89 -6.05,2.511 -8.9,4.57 -0.85,0.61 -1.7,1.26 -2.53,1.95 -0.11,0.09 -0.23,0.18 -0.34,0.281 -0.1,0.069 -0.2,0.159 -0.3,0.25 -0.36,0.299 -0.73,0.609 -1.09,0.929 -0.06,0.05 -0.12,0.1 -0.18,0.15 -0.26,0.23 -0.53,0.47 -0.79,0.7 -0.13,0.12 -0.26,0.24 -0.39,0.36 l 0.7,3.88 c 1.48,-1.33 2.88,-2.519 4.31,-3.559 3.03,-2.191 6.14,-3.721 10.1,-4.581 C -6.89,-1.83 -3.43,-1.14 0,0"/></g><g id="g7790" transform="matrix(0.35277777,0,0,-0.35277777,669.69287,417.77902)"><path style="fill:#2c3e50;fill-opacity:1;fill-rule:nonzero;stroke:none" id="path7792" d="m 0,0 c 0,-2.222 -1.802,-4.021 -4.021,-4.021 -2.224,0 -4.024,1.799 -4.024,4.021 0,2.225 1.8,4.023 4.024,4.023 C -1.802,4.023 0,2.225 0,0"/></g><path id="path7794" d="M 693.63008,442.22354 H 671.0523 l 2.64583,-3.64958 h 17.28612 z" style="fill:#2c3e50;fill-opacity:1;fill-rule:nonzero;stroke:none;stroke-width:.25372127"/></g></svg>