<?xml version="1.0" encoding="UTF-8"?>
<svg id="Layer_1" data-name="Layer 1" xmlns="http://www.w3.org/2000/svg" version="1.1" viewBox="0 0 191.78 163.91">
  <defs>
    <style>
      .cls-1 {
        fill: #010101;
        stroke-width: 0px;
      }
    </style>
  </defs>
  <path class="cls-1" d="M159.23,72.46c.07-1.09.11-2.12.11-3.14,0-29.79-24.24-54.03-54.03-54.03-20.13,0-38.7,11.39-47.94,29.21h-4.7c-19.94,0-36.16,16.22-36.16,36.16s16.22,36.16,36.16,36.16h13.51c1.55,9.12,9.47,16.07,19.03,16.07,10.67,0,19.33-8.65,19.33-19.33s-8.65-19.33-19.33-19.33c-9.35,0-17.14,6.64-18.94,15.46h-13.6c-16.01,0-29.03-13.02-29.03-29.03s13.02-29.03,29.03-29.03h6.92c1.39,0,2.65-.8,3.23-2.06,7.68-16.49,24.36-27.15,42.49-27.15,25.86,0,46.9,21.04,46.9,46.9,0,1.78-.13,3.66-.41,5.89-.13,1.02.19,2.04.86,2.8s1.65,1.21,2.67,1.21c7.42,0,13.46,6.04,13.46,13.46v3.55c0,7.42-6.04,13.46-13.46,13.46h-31.67c-1.95-19.49-18.45-34.77-38.44-34.77-5.19,0-10.23,1.02-14.98,3.02-1.82.76-2.67,2.85-1.9,4.67.76,1.81,2.86,2.67,4.67,1.9,3.87-1.63,7.98-2.46,12.21-2.46,17.02,0,30.92,13.56,31.48,30.44-.05.25-.09.5-.09.76,0,.28.04.55.1.81-.27,17.14-14.29,31.01-31.5,31.01-4.23,0-8.34-.83-12.21-2.46-1.82-.77-3.91.09-4.67,1.9-.76,1.82.09,3.91,1.9,4.67,4.75,2,9.79,3.02,14.98,3.02,20.21,0,36.83-15.59,38.49-35.38h31.63c11.35,0,20.59-9.24,20.59-20.59v-3.55c0-10.02-7.2-18.39-16.69-20.22Z"/>
</svg>