<?xml version="1.0" encoding="UTF-8"?>
<svg xmlns="http://www.w3.org/2000/svg" version="1.1" viewBox="0 0 460 300">
  <defs>
    <style>
      .cls-1 {
        fill: #ce1a6f;
      }

      .cls-1, .cls-2, .cls-3 {
        stroke-width: 0px;
      }

      .cls-2 {
        fill: #848582;
      }

      .cls-4 {
        display: none;
      }

      .cls-3 {
        fill: #ea9c25;
      }
    </style>
  </defs>
  <g id="Layer_3" data-name="Layer 3" class="cls-4">
    <rect class="cls-1" x="-57.3" y="165" width="754.3" height="467"/>
  </g>
  <g id="Layer_2" data-name="Layer 2">
    <g>
      <path class="cls-2" d="M212.4,145.27h-47.88v3.95c.02,4.78,2.93,7.72,7.69,7.72,10.42-.02,20.84-.05,31.29-.07.95-.02,1.94-.05,2.87-.3,5.75-1.53,6.82-6.29,6.03-11.3Z"/>
      <path class="cls-2" d="M222.69,86.56c-1.73-1.76-3.88-2.63-6.45-2.63-2.77,0-5.04.85-6.79,2.59-.85.83-1.5,1.8-1.92,2.89h-57.86v92.85h7.51s0-85.34,0-85.34h29.07c0,3.35,0,6.7-.05,10.05-.02.65-.12,1.34-.32,1.94-3.44,9.73-6.91,19.43-10.31,29.14-.3.85-.67,1.13-1.53,1.11-3-.05-5.98,0-8.97.02-.99,0-1.39.39-1.39,1.27s.44,1.29,1.5,1.27c2.87,0,5.71-.07,8.57-.09,12.94-.05,25.88-.12,38.84-.16,1.18,0,1.73-.44,1.71-1.29s-.51-1.22-1.66-1.22c-2.47,0-4.92,0-7.37.05-.72.02-1.04-.21-1.32-.88-4.11-9.71-8.23-19.39-12.34-29.09-.14-.3-.21-.62-.21-.95v-11.16h16.13c.39.95.97,1.85,1.71,2.7,1.64,1.85,3.93,2.8,6.89,2.8,2.61,0,4.81-.88,6.54-2.66,1.73-1.76,2.61-3.95,2.61-6.63s-.88-4.78-2.61-6.56ZM199.53,138.94h-19.62c2.93-8.27,5.87-16.57,8.8-24.84h.25c3.51,8.23,7,16.45,10.56,24.84ZM218.87,96.29c-.79.88-1.71,1.32-2.77,1.32s-2.06-.44-2.84-1.34c-.79-.9-1.18-1.99-1.18-3.26,0-1.18.42-2.17,1.2-3,.79-.85,1.73-1.27,2.82-1.27s1.99.46,2.77,1.34c.79.9,1.18,1.94,1.18,3.14s-.39,2.2-1.18,3.07Z"/>
    </g>
    <g>
      <path class="cls-2" d="M65.88,165.93H18c0,1.43-.02,2.68,0,3.93,0,4.78,2.93,7.72,7.67,7.72,10.42-.02,20.87-.05,31.29-.07.95,0,1.94-.05,2.87-.3,5.75-1.53,6.82-6.29,6.05-11.28Z"/>
      <path class="cls-2" d="M21.44,110.22c-.44-1.22-1.13-2.33-2.08-3.3-1.76-1.76-3.91-2.63-6.47-2.63-2.75,0-5.01.85-6.77,2.59s-2.63,3.97-2.63,6.7c0,2.4.81,4.53,2.45,6.4,1.64,1.85,3.93,2.8,6.89,2.8,2.61,0,4.78-.88,6.54-2.63.72-.74,1.27-1.53,1.71-2.4h18.62c0,3.28,0,6.59-.05,9.87,0,.65-.12,1.34-.32,1.94-3.42,9.73-6.89,19.41-10.31,29.14-.3.85-.65,1.11-1.53,1.11-2.98-.05-5.98,0-8.97.02-.97,0-1.39.39-1.39,1.27.02.88.46,1.27,1.53,1.27,2.84-.02,5.71-.07,8.55-.09,12.94-.07,25.9-.12,38.84-.16,1.2-.02,1.73-.44,1.71-1.32,0-.83-.49-1.2-1.66-1.2-2.45,0-4.92-.02-7.37.05-.69,0-1.04-.21-1.32-.88-4.09-9.71-8.23-19.39-12.34-29.09-.12-.3-.21-.65-.21-.97,0-3.63,0-7.3.02-10.95h29.02v64.52h7.51s0-72.03,0-72.03H21.44ZM15.55,116.64c-.81.88-1.71,1.32-2.77,1.32s-2.06-.44-2.84-1.34c-.79-.9-1.18-1.99-1.18-3.26,0-1.16.39-2.17,1.2-3,.79-.83,1.73-1.27,2.82-1.27s1.96.46,2.77,1.34c.79.9,1.18,1.94,1.18,3.14s-.39,2.22-1.18,3.07ZM53.01,159.58h-19.62c2.93-8.27,5.87-16.57,8.8-24.84.07,0,.16,0,.25-.02,3.49,8.23,6.98,16.48,10.56,24.86Z"/>
    </g>
    <path class="cls-2" d="M103.22,33.13c-1.73-1.76-3.88-2.63-6.45-2.63-2.75,0-5.01.85-6.77,2.59-1.78,1.73-2.66,3.97-2.66,6.7,0,2.4.83,4.53,2.47,6.4.83.95,1.85,1.66,3.03,2.1v133.95h7.51V48.29c1.06-.44,2.01-1.09,2.87-1.96,1.76-1.76,2.61-3.95,2.61-6.63s-.85-4.78-2.61-6.56ZM99.41,42.86c-.79.88-1.71,1.32-2.75,1.32-1.11,0-2.06-.44-2.84-1.34-.79-.9-1.18-1.99-1.18-3.26,0-1.18.39-2.17,1.18-3,.79-.85,1.73-1.27,2.84-1.27,1.04,0,1.96.46,2.75,1.34.81.9,1.2,1.94,1.2,3.14s-.39,2.2-1.2,3.07Z"/>
    <path class="cls-2" d="M124.8,15.73c0-2.61-.88-4.81-2.61-6.56-1.76-1.78-3.91-2.66-6.47-2.66-2.75,0-5.01.88-6.77,2.61s-2.63,3.95-2.63,6.68c0,2.43.81,4.55,2.45,6.4.88,1.02,1.96,1.73,3.24,2.2h-.21v157.85h7.51V24.4h-.25c1.18-.42,2.22-1.11,3.14-2.03,1.73-1.76,2.61-3.97,2.61-6.63ZM118.38,18.9c-.81.88-1.73,1.29-2.77,1.29-1.11,0-2.06-.44-2.84-1.34-.79-.88-1.18-1.96-1.18-3.24,0-1.18.39-2.17,1.18-3.03.81-.83,1.73-1.25,2.84-1.25,1.04,0,1.96.44,2.77,1.34.79.9,1.18,1.94,1.18,3.12s-.39,2.22-1.18,3.1Z"/>
    <rect class="cls-2" x="149.67" y="266.71" width="7.44" height="26.77"/>
    <rect class="cls-2" x="73.99" y="266.71" width="7.44" height="26.77"/>
    <rect class="cls-2" x="92.91" y="266.71" width="7.44" height="26.77"/>
    <rect class="cls-2" x="111.83" y="266.71" width="7.44" height="26.77"/>
    <path class="cls-3" d="M132.09,52.07c-3.34.78-6.05,3.47-6.81,6.81-1.06,4.5,1.27,8.57,4.92,10.37v112.23h7.71v-111.96c3.34-1.39,5.68-4.68,5.68-8.5,0-5.8-5.43-10.35-11.5-8.96Z"/>
    <rect class="cls-3" x="130.64" y="266.73" width="7.65" height="26.76"/>
    <path class="cls-3" d="M115.61,236.45c0,2.22-.44,4.16-1.33,5.84-.89,1.67-2.11,3.08-3.66,4.21-1.55,1.13-3.35,1.99-5.39,2.59-2.04.59-4.22.89-6.54.89h-25.35v-52.46h28.08c1.82,0,3.47.39,4.95,1.18,1.48.79,2.73,1.81,3.77,3.07,1.03,1.26,1.83,2.69,2.4,4.29.57,1.6.85,3.21.85,4.84,0,2.56-.64,4.96-1.92,7.2-1.28,2.24-3.15,3.91-5.62,4.99,3,.89,5.38,2.48,7.13,4.77,1.75,2.29,2.62,5.16,2.62,8.61ZM83.54,206.22v13.23h13.6c1.72,0,3.19-.59,4.4-1.77,1.21-1.18,1.81-2.81,1.81-4.88s-.55-3.62-1.66-4.8c-1.11-1.18-2.48-1.77-4.1-1.77h-14.04ZM105.34,234.52c0-.94-.16-1.83-.48-2.7-.32-.86-.75-1.61-1.29-2.25-.54-.64-1.18-1.15-1.92-1.52-.74-.37-1.55-.55-2.44-.55h-15.67v13.82h15.15c.94,0,1.81-.17,2.62-.52.81-.34,1.51-.82,2.11-1.44.59-.62,1.06-1.34,1.4-2.18.34-.84.52-1.72.52-2.66Z"/>
    <path class="cls-3" d="M147.46,250.34c-3.84,0-7.33-.75-10.46-2.25-3.13-1.5-5.81-3.5-8.05-5.99-2.24-2.49-3.98-5.33-5.21-8.53-1.23-3.2-1.85-6.48-1.85-9.83s.65-6.85,1.96-10.05c1.3-3.2,3.1-6.03,5.39-8.5,2.29-2.46,5.01-4.42,8.17-5.87,3.15-1.45,6.58-2.18,10.27-2.18s7.25.78,10.38,2.33c3.13,1.55,5.8,3.58,8.02,6.1,2.22,2.51,3.94,5.37,5.17,8.57,1.23,3.2,1.85,6.45,1.85,9.75,0,3.5-.64,6.83-1.92,10.01-1.28,3.18-3.06,5.99-5.32,8.42-2.27,2.44-4.98,4.39-8.13,5.84-3.15,1.45-6.58,2.18-10.27,2.18ZM132.24,223.74c0,2.27.34,4.46,1.03,6.58.69,2.12,1.69,3.99,2.99,5.62,1.3,1.63,2.91,2.93,4.8,3.92,1.9.99,4.05,1.48,6.47,1.48s4.64-.5,6.54-1.51c1.9-1.01,3.5-2.35,4.8-4.03,1.3-1.67,2.29-3.56,2.96-5.65.67-2.09,1-4.22,1-6.39s-.36-4.46-1.07-6.58c-.71-2.12-1.72-3.99-3.03-5.62-1.31-1.63-2.91-2.92-4.8-3.88-1.9-.96-4.03-1.44-6.39-1.44s-4.66.51-6.58,1.52c-1.92,1.01-3.52,2.34-4.8,3.99-1.28,1.65-2.25,3.52-2.92,5.62-.66,2.09-1,4.22-1,6.39Z"/>
    <path class="cls-3" d="M219.21,206.44h-16.77v43.52h-10.12v-43.52h-16.77v-8.94h43.67v8.94Z"/>
    <path class="cls-3" d="M258.45,211.25c-.35-.34-.97-.81-1.88-1.4-.91-.59-2.02-1.17-3.33-1.74-1.31-.57-2.72-1.05-4.25-1.44-1.53-.39-3.08-.59-4.66-.59-2.81,0-4.9.52-6.28,1.55-1.38,1.03-2.07,2.49-2.07,4.36,0,1.08.26,1.98.78,2.7.52.71,1.27,1.34,2.25,1.88.98.54,2.23,1.03,3.73,1.48,1.5.44,3.24.91,5.21,1.4,2.56.69,4.89,1.43,6.98,2.22,2.09.79,3.87,1.77,5.32,2.96,1.45,1.18,2.57,2.6,3.36,4.25.79,1.65,1.18,3.68,1.18,6.1,0,2.81-.53,5.21-1.59,7.21-1.06,1.99-2.49,3.61-4.29,4.84-1.8,1.23-3.87,2.13-6.21,2.7-2.34.57-4.79.85-7.35.85-3.94,0-7.83-.59-11.68-1.77-3.84-1.18-7.29-2.86-10.34-5.02l4.51-8.79c.44.44,1.24,1.02,2.4,1.74,1.16.71,2.52,1.43,4.1,2.14,1.58.71,3.33,1.32,5.25,1.81,1.92.49,3.89.74,5.91.74,5.62,0,8.42-1.8,8.42-5.39,0-1.13-.32-2.09-.96-2.88-.64-.79-1.55-1.48-2.73-2.07s-2.61-1.13-4.29-1.63c-1.68-.49-3.55-1.03-5.62-1.63-2.51-.69-4.69-1.44-6.54-2.25-1.85-.81-3.39-1.77-4.62-2.88-1.23-1.11-2.16-2.39-2.77-3.84-.62-1.45-.92-3.19-.92-5.21,0-2.66.49-5.02,1.48-7.09.98-2.07,2.35-3.79,4.1-5.17,1.75-1.38,3.78-2.43,6.1-3.14,2.32-.71,4.8-1.07,7.46-1.07,3.69,0,7.09.58,10.2,1.74,3.1,1.16,5.81,2.53,8.13,4.1l-4.51,8.28Z"/>
    <path class="cls-3" d="M295.13,249.97v-52.46h5.17v47.88h30.3v4.58h-35.47Z"/>
    <path class="cls-3" d="M355.94,197.5h4.36l21.8,52.46h-5.47l-6.8-16.4h-23.57l-6.72,16.4h-5.54l21.95-52.46ZM368.65,229.5l-10.57-25.94-10.71,25.94h21.28Z"/>
    <path class="cls-3" d="M406.34,197.87h4.88l7.39,18.62,7.46-18.62h4.95l-9.16,22.39,10.05,23.72,18.99-46.48h5.62l-22.24,52.46h-4.58l-11.01-25.94-11.08,25.94h-4.51l-22.17-52.46h5.54l19.06,46.48,9.98-23.72-9.16-22.39Z"/>
    <path class="cls-2" d="M200.18,285.98c0,1.01-.2,1.95-.61,2.8-.41.85-.95,1.59-1.64,2.21-.68.62-1.48,1.1-2.4,1.45s-1.89.51-2.93.51h-12.74v-27h13.01c.94,0,1.79.2,2.55.61.76.41,1.41.93,1.94,1.58.53.65.94,1.38,1.24,2.21.29.82.44,1.65.44,2.49,0,1.37-.34,2.62-1.03,3.75-.68,1.13-1.64,1.97-2.85,2.53,1.55.46,2.77,1.31,3.67,2.55.9,1.24,1.35,2.69,1.35,4.34ZM182.53,268.26v9.96h9.28c.66,0,1.27-.14,1.84-.42.57-.28,1.06-.65,1.46-1.1.41-.46.72-.98.95-1.58.23-.6.34-1.22.34-1.88s-.11-1.33-.32-1.94c-.22-.61-.52-1.13-.91-1.58-.39-.44-.86-.8-1.39-1.06-.53-.27-1.12-.4-1.75-.4h-9.51ZM197.52,285.53c0-.66-.11-1.3-.34-1.92-.23-.62-.55-1.17-.97-1.63-.42-.47-.91-.85-1.48-1.14-.57-.29-1.19-.44-1.84-.44h-10.34v10.23h10.08c.68,0,1.32-.14,1.92-.42.6-.28,1.12-.65,1.56-1.12.44-.47.79-1.01,1.05-1.64.25-.62.38-1.26.38-1.92Z"/>
    <path class="cls-2" d="M206.91,265.94l8.82,14.53,8.9-14.53h2.89l-10.46,16.96v10.04h-2.66v-10.12l-10.42-16.89h2.93Z"/>
    <path class="cls-2" d="M245.24,292.94v-27h17.72v2.36h-15.06v9.93h12.7v2.21h-12.7v12.51h-2.66Z"/>
    <path class="cls-2" d="M270.3,292.94v-27h11.41c1.17,0,2.24.25,3.21.74.98.49,1.82,1.14,2.53,1.94.71.8,1.26,1.71,1.65,2.72.39,1.01.59,2.04.59,3.08s-.15,1.93-.44,2.83c-.29.9-.7,1.71-1.22,2.43-.52.72-1.15,1.33-1.88,1.83-.74.49-1.56.83-2.47,1.01l6.62,10.42h-3l-6.35-9.96h-7.99v9.96h-2.66ZM272.96,280.62h8.82c.79,0,1.5-.17,2.15-.51.65-.34,1.2-.8,1.65-1.39.46-.58.81-1.24,1.06-1.98.25-.74.38-1.51.38-2.32s-.15-1.59-.44-2.34c-.29-.75-.68-1.4-1.18-1.96-.49-.56-1.08-1-1.75-1.33s-1.38-.49-2.11-.49h-8.59v12.32Z"/>
    <path class="cls-2" d="M315.94,290.59v2.36h-18.14v-27h17.8v2.36h-15.14v9.74h13.2v2.24h-13.2v10.31h15.48Z"/>
    <path class="cls-2" d="M341.76,290.59v2.36h-18.14v-27h17.8v2.36h-15.14v9.74h13.2v2.24h-13.2v10.31h15.48Z"/>
    <path class="cls-2" d="M351.34,293.35c-.68,0-1.26-.22-1.75-.66-.49-.44-.74-1.05-.74-1.84,0-.67.24-1.24.71-1.72.47-.48,1.05-.72,1.74-.72s1.28.24,1.76.71c.49.48.73,1.05.73,1.73,0,.78-.24,1.39-.73,1.83-.49.44-1.06.66-1.71.66Z"/>
    <path class="cls-2" d="M359.96,292.94v-27h2.66v24.64h15.59v2.36h-18.25Z"/>
    <path class="cls-3" d="M277.96,250.7c-1.22,0-2.26-.39-3.15-1.18-.88-.78-1.32-1.88-1.32-3.29,0-1.2.42-2.22,1.26-3.09.84-.86,1.88-1.29,3.12-1.29s2.29.43,3.16,1.28c.87.85,1.31,1.89,1.31,3.1,0,1.39-.44,2.48-1.31,3.28-.87.79-1.9,1.19-3.07,1.19Z"/>
    <path class="cls-2" d="M393.16,265.94h2.24l11.22,27h-2.81l-3.5-8.44h-12.13l-3.46,8.44h-2.85l11.3-27ZM399.7,282.41l-5.44-13.35-5.51,13.35h10.95Z"/>
    <path class="cls-2" d="M416.05,266.13h2.51l3.8,9.58,3.84-9.58h2.55l-4.72,11.52,5.17,12.21,9.77-23.92h2.89l-11.45,27h-2.36l-5.67-13.35-5.7,13.35h-2.32l-11.41-27h2.85l9.81,23.92,5.13-12.21-4.72-11.52Z"/>
  </g>
</svg>