<svg xmlns="http://www.w3.org/2000/svg" width="648.42" height="655.08"><g fill="#24242b"><path d="m139.75 507-.04-.75-.12-1.53c0-.1-.01-.19-.04-.29l-.19-1.59c-.01-.15-.04-.3-.07-.44-.2-1.32-.46-2.63-.8-3.9l-.41-1.47-.34-1.08-.53-1.53-.37-.94-.34-.84-.67-1.47-.56-1.13-.26-.49c-.12-.26-.27-.52-.41-.76l-.56-.95-.42-.71c-.59-.97-1.23-1.89-1.91-2.81v-.01l-.01-.01a41.315 41.315 0 0 0-15.12-12.59c-5.45-2.67-11.56-4.15-18.03-4.15-21.78 0-39.68 16.96-41.15 38.37-.08.95-.11 1.91-.11 2.87 0 5.2.97 10.16 2.74 14.74v.01c.27.72.57 1.44.9 2.15l.67 1.42a16.55 16.55 0 0 0 .53 1.02c.48.9.99 1.8 1.54 2.66a43.93 43.93 0 0 0 .89 1.33 56.78 56.78 0 0 0 1.62 2.21c.18.22.35.45.54.67.14.16.27.33.41.49s.27.33.42.48c.1.11.19.22.29.33.18.22.37.42.57.63.1.1.18.19.27.29a17.45 17.45 0 0 0 .74.76 66.58 66.58 0 0 0 1.48 1.42 51.06 51.06 0 0 0 1.58 1.35 7.68 7.68 0 0 0 .63.5 38.72 38.72 0 0 0 3.24 2.3l.74.46c.12.08.25.15.37.22.12.08.25.15.37.22.25.15.5.3.76.44a34.14 34.14 0 0 0 1.47.78c.26.14.53.26.79.4.1.04.18.08.27.12.05.03.1.05.15.07l1.25.56.35.15c.31.14.64.26.97.38.45.18.9.34 1.35.49.01.01.03.01.03.01l.82.29h.01a41.37 41.37 0 0 0 12.5 1.93c1.09 0 2.17-.04 3.23-.14h.01a40.75 40.75 0 0 0 16.17-4.73 41.28 41.28 0 0 0 11.14-8.7c.95-1.05 1.85-2.15 2.68-3.31.31-.41.61-.84.91-1.27.52-.76 1.01-1.54 1.46-2.33.18-.29.34-.59.5-.87a22.33 22.33 0 0 0 .61-1.19 1.24 1.24 0 0 0 .16-.3 21.58 21.58 0 0 0 .76-1.61c.23-.49.44-.98.63-1.49a4.35 4.35 0 0 0 .25-.63c.14-.33.26-.67.38-1.01.1-.25.18-.49.26-.75.14-.39.26-.79.37-1.18a12.06 12.06 0 0 0 .31-1.14c.05-.15.1-.29.12-.44.15-.54.27-1.09.38-1.65a3.88 3.88 0 0 0 .07-.33c.1-.44.18-.87.25-1.32.05-.29.11-.57.14-.87.2-1.28.33-2.59.39-3.9.04-.71.05-1.42.05-2.12.01-.58 0-1.2-.03-1.8zm-25.59 24.59c-1.16.8-2.37 1.52-3.65 2.12a15.33 15.33 0 0 1-1.23.56 26.13 26.13 0 0 1-2.34.87l-.41.12c-.71.22-1.43.41-2.17.56-.12.03-.26.05-.38.08-.42.08-.86.16-1.31.23-.44.07-.87.12-1.32.16-.46.05-.93.08-1.4.11a22.02 22.02 0 0 1-1.42.04c-15.23 0-27.62-12.39-27.62-27.64 0-.79.03-1.58.11-2.36.01-.19.03-.37.04-.54a27.31 27.31 0 0 1 .41-2.61c.03-.14.05-.29.1-.42a19.94 19.94 0 0 1 .52-2.02c.03-.1.07-.2.1-.3.03-.11.05-.2.1-.3.12-.37.25-.72.38-1.09.26-.69.54-1.38.86-2.04a23.447 23.447 0 0 1 1.09-2.09 10.92 10.92 0 0 1 .71-1.14c.19-.31.4-.61.61-.91a16.24 16.24 0 0 1 1.08-1.43c.1-.11.19-.22.27-.34.35-.41.71-.82 1.08-1.21.03-.03.04-.04.05-.07a30.63 30.63 0 0 1 1.14-1.14l.04-.04c.26-.27.53-.52.82-.74.15-.14.3-.26.45-.4a9.24 9.24 0 0 1 .65-.52 17.09 17.09 0 0 1 .67-.52c.22-.18.45-.34.68-.49.19-.14.38-.26.57-.38.05-.04.11-.07.15-.1.14-.1.29-.18.42-.27l.82-.49c.03-.03.05-.04.08-.05.05-.03.1-.05.14-.08.04-.01.07-.04.11-.05.12-.07.26-.14.38-.2.1-.05.18-.1.26-.14.26-.14.53-.27.79-.41.29-.14.59-.26.87-.4.23-.11.46-.2.69-.3l.75-.29c.01 0 .04-.01.05-.01.04-.01.07-.03.11-.05.1-.04.19-.07.3-.1l.26-.1a3.32 3.32 0 0 1 .29-.1 3.32 3.32 0 0 1 .29-.1c.07-.03.14-.05.22-.07.46-.14.91-.27 1.38-.38.04-.01.1-.03.15-.04.15-.04.3-.08.45-.11.16-.04.34-.08.5-.11l.2-.04c.03-.01.05-.01.07-.01.3-.07.6-.12.9-.16.2-.04.42-.07.63-.1.05-.01.11-.01.18-.03.07-.01.12-.01.18-.03.12-.01.25-.03.37-.04.14-.01.27-.03.41-.04.1-.01.2-.03.3-.03a32.03 32.03 0 0 1 1.01-.07h.01c.46-.03.93-.04 1.4-.04 15.24 0 27.64 12.39 27.64 27.62 0 .48-.01.95-.04 1.42a2.31 2.31 0 0 1-.03.37c.01.01.01.01 0 .03.01.03.01.03 0 .04-.01.33-.04.65-.08.97-.01.14-.03.26-.04.38-.01.14-.03.27-.05.4-.03.3-.07.59-.12.87a.4.4 0 0 1-.03.15c-.01.12-.04.26-.07.38-.05.33-.12.64-.19.95 0 .04-.01.08-.03.12a15.87 15.87 0 0 1-.29 1.14c-.01.07-.03.12-.04.18a3.5 3.5 0 0 1-.14.46c-.01.08-.04.15-.07.23-.07.23-.15.45-.22.68a17.08 17.08 0 0 1-.5 1.36c-.01.03-.03.05-.03.08-.07.18-.14.35-.22.53a2.48 2.48 0 0 1-.2.44 5.79 5.79 0 0 1-.23.5c-.12.29-.27.56-.41.84-.04.08-.08.15-.12.23-.1.22-.2.42-.33.63-.11.2-.23.42-.37.63a48.74 48.74 0 0 1-.76 1.2c-.05.1-.12.2-.18.3-.2.3-.41.59-.64.87-.08.15-.19.3-.31.44a.64.64 0 0 1-.16.2c-.12.16-.25.33-.41.49-.19.26-.41.52-.64.78-.19.22-.39.44-.6.65-.39.44-.83.86-1.27 1.25-.34.33-.69.64-1.05.94-.25.2-.49.41-.75.6-.27.22-.56.44-.84.64a4.94 4.94 0 0 1-.58.44zm363.65 61.49c-9.65 0-19.02-3.4-26.4-9.57l8.73-10.45c4.94 4.13 11.21 6.4 17.67 6.4 15.24 0 27.64-12.4 27.64-27.64 0-15.23-12.4-27.62-27.64-27.62-3.8 0-7.48.76-10.91 2.24l-5.41-12.5a40.915 40.915 0 0 1 16.33-3.37c22.75 0 41.26 18.5 41.26 41.24-.01 22.76-18.52 41.27-41.27 41.27zm-229.72-60.33c-3-15.17-11.01-28.47-22.56-37.44-11.99-9.3-26.3-12.91-40.32-10.15-14.02 2.78-25.89 11.55-33.44 24.72-7.26 12.69-9.62 28.03-6.62 43.19s11.01 28.47 22.56 37.44c9.34 7.26 20.12 11.05 31.05 11.05a47.65 47.65 0 0 0 9.26-.91c14.02-2.76 25.89-11.54 33.42-24.71 7.29-12.7 9.65-28.03 6.65-43.19zm-24.37 33.04c-.5.89-1.05 1.73-1.61 2.55a7.58 7.58 0 0 0-.35.5 27.19 27.19 0 0 1-1.81 2.29c-.12.15-.26.3-.39.45-.49.56-.99 1.08-1.51 1.58-.19.19-.38.38-.59.56-.64.6-1.32 1.17-2 1.69a5.25 5.25 0 0 1-.49.37c-.75.56-1.53 1.06-2.32 1.54a19.97 19.97 0 0 1-1.35.75c-.44.23-.9.45-1.36.67-.34.15-.69.3-1.05.44l-.54.22c-.03.01-.07.03-.1.04a14.07 14.07 0 0 1-.98.33c-.1.04-.19.08-.29.1-.18.07-.37.14-.56.18-.04.01-.08.03-.12.03-.33.1-.64.19-.97.27-.42.11-.84.2-1.27.29-8.12 1.61-16.59-.61-23.82-6.24-7.67-5.95-13.01-14.93-15.05-25.25-2.04-10.34-.5-20.66 4.32-29.09.29-.49.57-.98.89-1.46.14-.22.27-.42.42-.63.37-.57.76-1.13 1.17-1.66l.34-.45c.04-.03.07-.05.1-.1.05-.08.12-.15.18-.23.1-.12.19-.25.3-.35.07-.1.15-.19.23-.29v-.01c.01-.01.03-.04.04-.05h.01c.12-.15.25-.29.37-.42.27-.31.54-.61.83-.9l.18-.18c.34-.35.68-.69 1.02-1.02a29.32 29.32 0 0 1 1.07-.95c.05-.05.11-.1.16-.14a6.45 6.45 0 0 0 .29-.25c.1-.09.19-.16.3-.23.12-.1.25-.19.37-.29.07-.07.15-.12.22-.19.2-.15.41-.31.63-.44a5.72 5.72 0 0 1 .3-.22c.19-.12.37-.26.56-.38.08-.05.16-.11.25-.15a2.69 2.69 0 0 1 .22-.14c.07-.05.15-.11.23-.15.08-.05.15-.11.23-.15 0 0 .01-.01.03-.01.03-.01.04-.03.07-.04.07-.04.14-.08.2-.12a24.51 24.51 0 0 1 .69-.4c.08-.04.18-.1.27-.15.2-.11.42-.22.63-.31a8.52 8.52 0 0 1 .68-.33c.01-.01.03-.03.04-.03.16-.08.33-.15.49-.22.11-.05.2-.11.3-.14.2-.1.41-.18.61-.24.04-.03.08-.04.12-.05.12-.05.26-.11.39-.15.15-.07.3-.12.45-.16.22-.1.45-.16.67-.23.14-.05.26-.1.39-.12.01-.01.03-.01.05-.01.29-.11.59-.19.87-.26.14-.04.27-.08.41-.11.15-.04.3-.08.45-.11.31-.08.61-.14.93-.2 1.73-.34 3.47-.5 5.22-.5 6.46 0 12.91 2.32 18.61 6.74 7.67 5.95 13.01 14.93 15.05 25.25 2.04 10.31.5 20.63-4.32 29.06z"/><path d="m129.1 536.51 49.03 118.54H163.4l-45.44-109.84-3.2-7.72 12.58-5.22zm347.43-69.39c-.6 7.37-2.03 23.44-4.37 43.84l-1.7 14.23-.64 5.02-1.09 8.31-.44 3.23-.82 5.82-1.21 8.32-1.99 12.86-.75 4.59-.31 1.89v.03l-1.36 7.93-1.12 6.17-.49 2.66c-4.26 22.75-9.43 44.89-15.55 63.02h-14.42c1.04-2.85 2.04-5.84 3.02-8.95l.98-3.17c.22-.67.42-1.35.61-2.03l.6-2.06c1.58-5.45 3.08-11.18 4.51-17.12l1.12-4.74.44-1.89.76-3.41.46-2.1 1.2-5.64.54-2.67.71-3.51c.16-.89.34-1.76.52-2.64l2.97-16.21.67-3.88 1.28-7.76.93-5.8 1.44-9.57.56-3.79c0-.01 0-.04.01-.07l.49-3.46 3.06-23.21.19-1.57.57-4.64a38.82 38.82 0 0 1 .18-1.51 40.76 40.76 0 0 1 .18-1.5l.31-2.72c.01-.08.01-.15.03-.23l.48-4.24c.01-.07.03-.14.03-.22l.5-4.49 1.72-16.49.2-2.07.26-2.71.19-1.98.3-3.23a7.87 7.87 0 0 1 .07-.73l.1-1.14c.03-.24.04-.49.07-.72.03-.25.04-.48.07-.71l.2-2.41c-65.41-24.37-173.21-21.03-174.3-21l-.14.01h-.14l-1.7-.01c-4.22 0-8.47.07-12.71.22l-6.35.26a475.97 475.97 0 0 0-19.79 1.4l-3.98.38a548.93 548.93 0 0 0-26.22 3.26l-3.85.59-4.79.76c-18.99 3.08-36.18 6.76-49.92 10.05l-2.06.49-3.95.97-5.49 1.39-17.13 4.69h-.01l.49 4.29.95 8.54.01.01v.01l.2 1.85-13.54 1.52-1.8-15.99-.11-.99a10.9 10.9 0 0 1 7.71-11.66c11.81-3.53 64.33-18.46 122.82-23.77l13.62-1.05 3.62-.2 6.07-.3 9.38-.27c.93-.03 1.87-.04 2.79-.04l4.02-.03 1.65.01c.33-.01.94-.04 1.83-.05l5.69-.11 4.86-.04 3.08-.01 13.62.11c38.1.64 105.23 4.55 152.39 22.75 4.47 1.69 7.31 6.24 6.91 11.03zm-46.69 26.01a22.942 22.942 0 0 0-16.96-8.35l-113.7-3.71a22.91 22.91 0 0 0-17.62 7.4 22.924 22.924 0 0 0-5.9 18.17l13.74 117.91c1.35 11.56 11.14 20.28 22.79 20.28h81.27c11.29 0 20.81-8.09 22.64-19.23l18.66-114.21c1.07-6.51-.72-13.16-4.92-18.26zm-2.95 14.57c0 .79-.05 1.58-.19 2.37l-18.66 114.21c-.04.23-.08.45-.14.67-.01.03-.01.07-.01.1a1.37 1.37 0 0 1-.08.35c-.03.07-.04.14-.05.2a.4.4 0 0 1-.03.15l-.15.49c-.03.1-.05.19-.1.29-.03.07-.04.14-.07.2a.88.88 0 0 1-.05.15c-.03.12-.07.24-.12.35-.03.08-.07.18-.11.26-.04.15-.11.29-.18.44-.03.05-.05.11-.08.16l-.29.59-.3.57h-.01c-.08.15-.16.3-.26.44a.49.49 0 0 1-.07.11c-.18.29-.37.57-.59.86-.01.03-.03.04-.04.07-.1.12-.19.25-.29.35a8.06 8.06 0 0 1-.52.64 1.2 1.2 0 0 0-.11.12c-.11.11-.22.23-.34.34 0 0 0 .01-.01.03a7 7 0 0 1-.48.46s-.01.01-.03.01c-.01.03-.03.04-.04.05a4.81 4.81 0 0 1-.48.42s-.01 0-.03.01a7.68 7.68 0 0 1-.63.5c-.05.05-.11.1-.16.14-.07.04-.12.08-.18.14-.07.04-.12.08-.19.11-.05.05-.11.1-.16.12-.22.15-.44.29-.65.41a9.06 9.06 0 0 1-.68.38c-.2.11-.42.22-.63.31-.26.12-.53.23-.8.34a11.5 11.5 0 0 1-1.66.54c-.29.08-.57.15-.87.2-.15.03-.3.05-.45.08l-.82.11c-.27.03-.56.05-.83.07-.27.01-.54.03-.82.03h-81.27c-7.49 0-13.8-5.61-14.67-13.05l-13.74-117.91c-.07-.57-.1-1.16-.1-1.73 0-.27.01-.53.03-.79.01-.42.05-.84.12-1.27.01-.2.05-.4.1-.6a1.82 1.82 0 0 1 .1-.45 5.05 5.05 0 0 1 .12-.53 10.17 10.17 0 0 1 .3-1.04l.34-.89c0-.04.01-.08.04-.12l.12-.29c.04-.11.1-.22.15-.33.02-.05.04-.09.06-.13.1-.23.22-.45.34-.67.03-.05.07-.12.11-.18.08-.16.18-.31.27-.48.04-.08.1-.16.16-.25.05-.08.09-.15.15-.21.03-.04.05-.08.08-.12.01-.03.01-.04.03-.05.12-.18.25-.34.37-.5v-.01c.01-.01.01-.01.03-.01 0-.01.01-.04.04-.05.04-.05.07-.1.11-.14.04-.07.1-.12.14-.18 0-.01.01-.04.04-.05.05-.07.11-.14.16-.2.05-.07.11-.14.18-.2a1.74 1.74 0 0 1 .12-.14l.08-.08c.18-.19.35-.38.54-.56a10.85 10.85 0 0 1 .95-.86 1.3 1.3 0 0 1 .18-.15c.2-.16.41-.31.61-.46a16.31 16.31 0 0 1 1.36-.86 4.25 4.25 0 0 1 .6-.31 10.25 10.25 0 0 1 1.39-.61c.19-.08.4-.15.59-.22l.86-.25c.25-.07.49-.12.74-.18l.75-.14c.25-.04.5-.07.75-.1a15.56 15.56 0 0 1 1.54-.08h.48l113.7 3.72c4.24.14 8.23 2.1 10.92 5.37a25.03 25.03 0 0 1 .78 1.02 12.22 12.22 0 0 1 .44.71c.04.04.05.08.07.12.03 0 .03.01.01.03.1.15.19.31.27.48.15.25.27.49.38.74a7.77 7.77 0 0 1 .26.6c.1.2.18.42.25.63a22.96 22.96 0 0 1 .33.99c.05.19.11.38.15.57.08.33.15.65.2.97.07.41.12.83.16 1.25a13.06 13.06 0 0 1 .05 1.25c.02.03.02.04.02.04z"/><path d="M247 385.49h13.62v55.92H247zm56.63.57h13.62v54.01h-13.62z"/><path d="m282.35 393.64-.25-.01-198-9.18a33.98 33.98 0 0 1-28.37-18.05 33.925 33.925 0 0 1-3.88-15.73v-45.6h13.62v45.6c0 3.31.78 6.47 2.31 9.39 3.33 6.32 9.82 10.45 16.95 10.79l197.75 9.17 180.13-4.91c11.02-.31 19.65-9.18 19.65-20.19V145.1l.06-.44c.03-.34.94-11.06-10.87-24.94-18.74-22.02-67.29-49.89-192.15-57.65-3.6-.08-86.8-1.49-153.03 21.42-66.05 22.85-60.9 72.43-60.84 72.92l.05.81v6.65H51.86v-6.32c-.25-2.79-1.05-16.96 6.25-33.79 7.25-16.7 24.18-39.47 63.71-53.15 69.75-24.13 154.38-22.25 157.95-22.17l.25.01c131.02 8.13 182.5 38.96 202.62 63.39 13.82 16.78 13.53 30.82 13.25 34.04v209.01c0 18.44-14.45 33.29-32.89 33.8z"/><path d="m120.49 231.78-.03-.7-.08-2.07-.04-.6-.15-2.14-.11-1.2-.18-1.72-.1-.84-.11-.84-.25-1.8-.38-2.34-.42-2.27c0-.01 0-.04-.01-.05l-.14-.65-.52-2.38-1.39-5.22-.8-2.6-1.78-4.89-2.06-4.75-1.12-2.3-1.18-2.25-1.1-1.99c-.05-.07-.1-.14-.12-.2l-1.23-2.02-.08-.11-2.75-4.07-1.46-1.95-1.93-2.37-2.41-2.71-.33-.34-.76-.8-.72-.71c-.07-.05-.12-.11-.18-.16l-.29-.29-1.17-1.1c-.04-.03-.08-.07-.12-.1a1.2 1.2 0 0 1-.12-.11l-.23-.2-1.5-1.31-1.33-1.08-.94-.74-.54-.41c-.26-.22-.53-.41-.8-.6-.23-.18-.47-.33-.69-.48l-1.15-.8h-.03l-.35-.23-1.53-.97h-.03s0-.03-.01-.03c-6.25-3.76-13.07-6.18-20.25-6.96-1.72-.2-3.46-.3-5.22-.3-2.85 0-5.65.26-8.4.76-4.43.79-8.69 2.21-12.76 4.17h-.01C16.27 173.01 0 201.34 0 234.46c0 39.05 22.61 71.43 51.88 76.68a46.95 46.95 0 0 0 8.4.76c1.76 0 3.5-.1 5.22-.3l1.81-.23 1.77-.3h.03c10.12-1.92 19.44-7.08 27.28-14.64l.02-.01 1.05-1.05c.03-.01.04-.03.07-.05.08-.08.16-.16.23-.25l.49-.5c.01-.01.03-.04.04-.05s.03-.03.03-.04l.03-.03c.01-.01.03-.04.04-.05.25-.23.48-.48.69-.72l.12-.12a1.74 1.74 0 0 1 .12-.14c.29-.3.57-.61.84-.94.08-.08.15-.16.2-.25a4.36 4.36 0 0 0 .41-.46c.12-.15.25-.29.38-.45l1.47-1.81c.49-.61.95-1.24 1.43-1.88.12-.14.22-.29.33-.42.22-.3.44-.6.64-.91.01-.01.03-.04.03-.05.08-.12.18-.25.26-.37.44-.61.84-1.24 1.25-1.87.05-.08.11-.15.15-.22.25-.38.49-.76.72-1.16.72-1.14 1.4-2.33 2.07-3.53.39-.69.78-1.42 1.14-2.14.26-.5.52-1.02.76-1.54.61-1.25 1.2-2.53 1.74-3.83 1.1-2.59 2.11-5.28 2.98-8.04.18-.53.33-1.06.49-1.59.05-.16.1-.34.14-.5l.75-2.7c.29-1.08.53-2.15.78-3.26 0-.03.01-.04.01-.07.11-.48.2-.98.3-1.46.12-.56.23-1.12.33-1.69a87.51 87.51 0 0 0 .54-3.24l.22-1.57a42.38 42.38 0 0 0 .25-1.97c.07-.56.12-1.13.18-1.7.07-.72.12-1.46.18-2.19l.08-1.24c.03-.4.05-.8.07-1.2.03-.57.04-1.13.05-1.7l.04-1.27.01-1.74-.05-2.68zm-13.96 10.8c0 .08-.01.16-.03.24-.03.42-.07.84-.12 1.27l-.08.65c-.01.19-.04.38-.07.57 0 .1-.01.18-.04.27l-.23 1.72a27.75 27.75 0 0 1-.25 1.55l-.2 1.13a24.18 24.18 0 0 1-.29 1.48c-.11.6-.25 1.2-.38 1.8-.11.52-.23 1.05-.37 1.57 0 .03-.01.05-.01.08-.01.04-.03.08-.04.12l-.34 1.35-.46 1.62c-.03.11-.05.22-.08.31-.03.07-.04.14-.07.2-.37 1.23-.76 2.45-1.18 3.64-.15.44-.31.87-.48 1.29-.01.04-.03.07-.03.1l-.53 1.36-.53 1.29c-.18.45-.37.89-.57 1.32a30.97 30.97 0 0 1-.6 1.31c-.45.97-.91 1.91-1.4 2.82-.12.25-.25.49-.38.72a61.63 61.63 0 0 1-1.53 2.66c-.23.4-.48.79-.72 1.17l-1.27 1.92c-.07.1-.14.19-.19.29l-.56.78-.76 1.03a39.98 39.98 0 0 1-.95 1.23c-.05.08-.12.16-.18.23-.15.19-.29.35-.44.53l-1.18 1.4-.34.38c-.17.2-.34.38-.51.55l-1.06 1.12c-.76.79-1.55 1.54-2.37 2.26-.2.19-.41.37-.63.54a6.53 6.53 0 0 1-.64.54c-.31.29-.64.55-.97.79-.33.26-.65.52-.99.75a18.87 18.87 0 0 1-.99.72 38.8 38.8 0 0 1-6.28 3.64c-.31.15-.64.3-.97.44-.2.1-.41.18-.63.26-.45.19-.91.37-1.38.53-.12.05-.23.1-.35.14-.25.08-.48.16-.72.25-.11.03-.22.07-.31.1l-1.09.33c-.14.04-.3.1-.45.14-.05.01-.12.03-.19.04a22.1 22.1 0 0 1-.87.22c-.99.24-2 .44-3.01.57-.46.07-.93.12-1.39.18-.3.04-.6.07-.9.08-.3.03-.59.04-.89.05a27.04 27.04 0 0 1-1.8.05c-25.73 0-46.66-28.63-46.66-63.83 0-.87.01-1.73.04-2.59.01-.78.05-1.55.1-2.32a20.6 20.6 0 0 1 .05-.83c.03-.56.08-1.1.12-1.65a1.43 1.43 0 0 1 .03-.29c.05-.71.12-1.43.22-2.12.03-.27.05-.54.1-.83.08-.68.16-1.36.27-2.02.11-.82.25-1.62.4-2.44.14-.8.29-1.61.46-2.4.33-1.59.69-3.15 1.12-4.67l.56-1.95a64.35 64.35 0 0 1 .82-2.57 51.52 51.52 0 0 1 .78-2.19l.84-2.14c.27-.7.57-1.39.87-2.07a77.93 77.93 0 0 1 .97-2.07c.33-.68.65-1.33 1.01-1.99.26-.5.53-1.02.82-1.51.01-.03.03-.05.04-.07.07-.11.14-.23.2-.35 0-.03.01-.04.03-.05.37-.67.76-1.32 1.17-1.98a31.22 31.22 0 0 1 1.06-1.66l1.12-1.65a25.53 25.53 0 0 1 .69-.94 2.14 2.14 0 0 0 .19-.26c.14-.19.29-.38.42-.57l.04-.04c.1-.11.18-.22.26-.33.68-.87 1.36-1.72 2.08-2.52l.72-.8.08-.08c.07-.08.15-.18.23-.26l.76-.8c.34-.35.68-.71 1.04-1.04.16-.16.34-.33.52-.49.05-.05.12-.12.19-.18.27-.26.54-.52.83-.76.04-.04.1-.08.15-.14.11-.1.2-.19.31-.27a15.02 15.02 0 0 1 .97-.82c.1-.08.18-.15.27-.23.23-.19.48-.38.71-.56.12-.1.25-.19.35-.27l.31-.23c.14-.11.29-.22.42-.33a27.53 27.53 0 0 1 1.42-.98c.03-.03.07-.05.11-.08.07-.05.15-.11.23-.15a26.91 26.91 0 0 1 1.13-.72c.01-.01.04-.03.05-.03.54-.34 1.09-.65 1.65-.95.15-.1.31-.18.46-.26.39-.22.75-.42 1.16-.61l.05-.01c.83-.41 1.63-.78 2.48-1.09h.01l.01-.01c2.08-.84 4.22-1.5 6.42-1.92.53-.11 1.04-.2 1.57-.27.1-.01.19-.03.29-.04.37-.07.76-.11 1.13-.15.05 0 .11-.01.16-.01.19-.03.37-.04.56-.05a30.1 30.1 0 0 1 3.02-.14c25.73 0 46.66 28.63 46.66 63.81 0 .65-.01 1.31-.03 1.96l-.05 1.77-.04.78a34.52 34.52 0 0 1-.05 1.04c-.01.33-.04.64-.07.97l-.14 1.61zm383 74.83-.94-13.59c22.46-1.55 40.05-26.02 40.05-55.71 0-29.68-17.59-54.15-40.05-55.7l.94-13.59c29.57 2.04 52.73 32.47 52.73 69.28 0 36.83-23.16 67.27-52.73 69.31z"/><path d="M80.68 311.91a81.54 81.54 0 0 1-12.83-1.01l1.07-6.68-.01-6.85h.56l.54.09a67.4 67.4 0 0 0 10.68.84c37 0 67.09-30.1 67.09-67.09 0-37-30.1-67.09-67.09-67.09-11.7 0-23.19 3.06-33.3 8.85l-1.35 1.39-2.92.02-.05-6.91-4.77-4.67 2-2.05h1.06a80.692 80.692 0 0 1 39.34-10.23c44.51 0 80.71 36.21 80.71 80.71-.02 44.47-36.23 80.68-80.73 80.68zm408.38 35.02v7.98c0 14.63-11.65 26.59-26.27 27l-180.38 4.92-198-9.18c-9.89-.46-18.33-6.2-22.66-14.42l103.53-17.65 300.94 17.39c7.86.45 15.61-2.94 20.08-9.43 1.37-2 2.42-4.23 2.76-6.61z"/><ellipse cx="282.26" cy="202.7" rx="41.41" ry="43.54"/></g><ellipse cx="291.12" cy="187.03" fill="#fff" rx="12.44" ry="13.08"/><ellipse cx="418.46" cy="202.7" fill="#24242b" rx="41.41" ry="43.54"/><ellipse cx="427.32" cy="187.03" fill="#fff" rx="12.44" ry="13.08"/><g fill="#24242b"><path d="m278.87 261.26 159.26 11.8a1.54 1.54 0 0 1 1.41 1.74l-4.39 32.76c-.11.8-.82 1.38-1.62 1.33l-150.02-9.56c-.73-.05-1.33-.6-1.43-1.33l-4.85-35c-.13-.96.66-1.81 1.64-1.74zM324.91 60.3l-13.16-3.52c.78-2.9 1.17-5.9 1.17-8.92 0-18.88-15.36-34.24-34.24-34.24s-34.24 15.36-34.24 34.24c0 2.42.25 4.82.74 7.11l-13.32 2.84c-.69-3.22-1.03-6.57-1.03-9.95C230.83 21.47 252.3 0 278.69 0s47.86 21.47 47.86 47.86a48.66 48.66 0 0 1-1.64 12.44zm251.91 594.75h-43.34c-42.09-19.25-64.97-49.96-73.24-63.02-1.1-1.73-1.95-3.13-2.55-4.18v-.01c-.6-1.06-.95-1.74-1.06-1.95l5.22-2.68 6.89-3.54c.08.15 2.93 5.54 8.87 13.42.59.78 1.18 1.57 1.85 2.38a11.04 11.04 0 0 0 .31.41l1.17 1.46a177.47 177.47 0 0 0 3.88 4.62 104.7 104.7 0 0 0 2.74 3.06l1.7 1.81 1.61 1.68c3.36 3.45 7.14 7.01 11.33 10.58l1.74 1.46a140.19 140.19 0 0 0 7.55 5.87 72.08 72.08 0 0 0 1.77 1.28c2.23 1.61 4.58 3.17 7.01 4.71l2.6 1.62c.71.44 1.43.87 2.17 1.29.16.11.34.2.52.3l2.26 1.29c4.77 2.68 9.86 5.2 15.27 7.5 1.73.74 3.45 1.43 5.15 2.1a208.08 208.08 0 0 0 7.6 2.78l4.97 1.61c4.82 1.48 9.53 2.72 14.1 3.73l1.91.42zm53.46-44.42c-88.19-4.2-122.25-52.91-123.65-54.99l11.27-7.65-5.63 3.83 5.62-3.84c.31.45 32.06 45.19 113.05 49.05z"/><path d="M626.1 596.74a67.82 67.82 0 0 0-4.3 13.33l-.93 5.37-.46 4.79a11.21 11.21 0 0 0-.05.83l-.1 3.58a57.07 57.07 0 0 0 .03 1.85l.04.87c-.01.05-.01.12 0 .18l.07 1.36.19 2.49.57 4.4 1.36 6.44 1.32 4.44 1.39 3.77a50.58 50.58 0 0 0 1.72 3.92l.33.67h15.6a55.706 55.706 0 0 1-8.92-33.14l.08-1.36c.1-1.36.25-2.7.44-4.03l.39-2.3a12.13 12.13 0 0 1 .16-.83c.05-.3.12-.6.19-.9l.22-.94c.07-.29.14-.59.22-.87.08-.34.18-.67.27-1.01.08-.3.16-.6.26-.9a41.2 41.2 0 0 1 .45-1.47l.35-1.03.31-.87a32.01 32.01 0 0 1 .48-1.25 7.44 7.44 0 0 0 .2-.5c.14-.34.27-.68.42-1.01 1.57-3.68 3.53-7.14 5.82-10.37a19.99 19.99 0 0 1 .59-.78c0-.01.01-.01.01-.03l.78-1.02c.04-.05.07-.11.12-.16.01-.03.04-.04.07-.07.01-.04.04-.07.05-.1.27-.35.56-.7.84-1.05.04-.04.07-.08.11-.11l1.05-1.23c.05-.08.14-.16.2-.25.08-.1.16-.19.26-.29l.12-.12v-18.28c-9.67 7.19-17.42 16.82-22.32 27.98zM103.62 547.8l-1.83 2.14h-.01c-28.22 33.78-26.41 84.68-24.69 102.88l.23 2.23H63.63l-.35-3.95v-.01l-.19-2.7-.1-1.61-.11-2.29-.04-.93-.12-4-.04-2.87v-4.28l.08-3.92.15-3.75c.03-.57.05-1.16.1-1.74.44-7.79 1.36-16.32 3.06-25.09a60.46 60.46 0 0 1 .42-2.11c.37-1.82.79-3.66 1.23-5.5a86.02 86.02 0 0 1 .74-2.87c.02-.06.03-.12.05-.19l.65-2.39a12.45 12.45 0 0 1 .09-.31l.84-2.87.93-2.89c.31-.97.64-1.92.98-2.87l.99-2.7c.01-.05.04-.12.07-.18a67.55 67.55 0 0 1 1.12-2.86l.37-.87.84-1.96c.3-.71.61-1.42.94-2.12.11-.24.22-.48.34-.71l1.35-2.81c.46-.93.94-1.85 1.44-2.78.1-.18.19-.37.3-.55.33-.61.65-1.23 1.01-1.82l.29-.52 1.53-2.57c.54-.9 1.12-1.8 1.69-2.68l1.77-2.63h.01v-.01c2.25-3.24 4.71-6.39 7.41-9.4zm-34.71-34.16c-.12.12-3.69 3.73-8.88 9.92v.01l-1.16 1.39-1.21 1.47c-.04.05-.08.12-.15.18l-.94 1.17-.46.59-.5.63-.9 1.16c-2 2.57-4.14 5.42-6.32 8.47l-2.15 3.08-2.18 3.23-1.48 2.29-.68 1.06-1.09 1.72-1.08 1.76a41.7 41.7 0 0 0-.95 1.59c-.76 1.25-1.5 2.53-2.23 3.83a173.162 173.162 0 0 0-5.03 9.55l-.79 1.62c-1.63 3.46-3.17 7.01-4.56 10.64l-.74 1.98a62.43 62.43 0 0 0-.74 2.06c0 .01-.01.03-.01.04-.25.69-.48 1.4-.71 2.11a113.77 113.77 0 0 0-2.81 10.11c-.11.45-.2.91-.3 1.36-.42 1.95-.78 3.91-1.06 5.87l-.3 2.17c-1.1 8.83-1.55 16.86-1.55 24.08l.03 2.94a161.21 161.21 0 0 0 .37 8.59l.22 2.64c.07.86.15 1.7.25 2.53l.16 1.47c.04.41.1.83.15 1.23.03.25.05.48.1.72a29.68 29.68 0 0 0 .18 1.36l.34 2.25.35 2.15c.03.14.04.27.07.41H6.4c-2.08-12.95-3.09-30.4-.39-52.07 5.79-46.34 42.52-87.62 51.43-97.03l1.89-1.95z"/><path d="M77.08 652.81c-4.33-1.12-8.98-1.72-13.8-1.73h-.01c-.1 0-.19 0-.27.01l-.72.01c-.44 0-.87 0-1.31.03-.72.01-1.46.05-2.21.11-.27.01-.53.03-.8.05-.6.05-1.21.11-1.81.18a46.38 46.38 0 0 0-2.33.3c-.64.1-1.31.2-1.96.33-.27.04-.54.1-.83.15-.33.05-.65.12-.99.2-.54.11-1.1.23-1.66.37-1.31.3-2.62.65-3.92 1.05-1.2.37-2.37.75-3.53 1.17h42.8a49.89 49.89 0 0 0-6.65-2.23z"/></g><path fill="#f3c33e" d="M297.52 623.61c.87 7.44 7.17 13.05 14.66 13.05h81.28c7.27 0 13.4-5.21 14.57-12.38l18.67-114.2c.69-4.19-.47-8.48-3.17-11.76a14.78 14.78 0 0 0-10.92-5.38l-113.69-3.71c-.16-.01-.32-.01-.48-.01-4.12 0-8.06 1.72-10.86 4.77a14.75 14.75 0 0 0-3.8 11.7zm-117.27-49.23c7.24 5.62 15.7 7.84 23.82 6.23 8.12-1.6 15.11-6.87 19.66-14.82 4.82-8.42 6.36-18.75 4.32-29.09-2.04-10.33-7.39-19.3-15.05-25.26-5.7-4.43-12.15-6.74-18.61-6.74a26.98 26.98 0 0 0-5.21.51c-8.12 1.6-15.11 6.87-19.66 14.82-4.82 8.42-6.36 18.75-4.32 29.09 2.03 10.33 7.38 19.3 15.05 25.26zm108.24-127.35-.14.01h-.14l-1.7-.01c-4.22 0-8.47.07-12.71.22l-6.35.26a475.97 475.97 0 0 0-19.79 1.4l-3.98.38a548.93 548.93 0 0 0-26.22 3.26l-3.85.59-4.79.76c-18.99 3.08-36.18 6.76-49.92 10.05l-2.06.49-3.95.97-5.49 1.39-17.13 4.69.48 4.29.97 8.55v.01c.68.91 1.32 1.84 1.91 2.81.15.23.29.46.42.71.19.31.38.63.56.95.14.25.29.5.41.76.1.16.18.33.26.49l.56 1.13.67 1.47.34.84a12.19 12.19 0 0 1 .37.94 25.05 25.05 0 0 1 .53 1.53 27.49 27.49 0 0 1 .34 1.08 22.66 22.66 0 0 1 .41 1.47c.34 1.27.6 2.57.8 3.9a5.78 5.78 0 0 1 .07.44c.08.53.15 1.06.19 1.59.03.1.04.19.04.29a24.95 24.95 0 0 1 .12 1.53l.04.75c.03.6.04 1.21.04 1.81 0 .71-.01 1.42-.05 2.12-.07 1.31-.19 2.61-.39 3.9-.03.3-.08.59-.14.87-.07.45-.15.89-.25 1.32-.01.11-.04.22-.07.33a23.19 23.19 0 0 1-.38 1.65c-.03.15-.07.29-.12.44a12.06 12.06 0 0 1-.31 1.14 16.13 16.13 0 0 1-.37 1.18c-.08.26-.16.5-.26.75-.12.34-.25.68-.38 1.01-.07.22-.15.42-.25.63a18.95 18.95 0 0 1-.63 1.49 23.64 23.64 0 0 1-.76 1.61c-.04.11-.1.2-.16.3-.19.4-.4.79-.61 1.19-.16.29-.33.59-.5.87-.45.79-.94 1.57-1.46 2.33l-.91 1.27c-.83 1.16-1.73 2.26-2.68 3.31l49.03 118.54h252.13c1.04-2.85 2.04-5.84 3.02-8.95l.98-3.17c.22-.67.42-1.35.61-2.03l.6-2.06c1.58-5.45 3.08-11.18 4.51-17.12l1.12-4.74.44-1.89.76-3.41.46-2.1 1.2-5.64.54-2.67.71-3.51c.16-.89.34-1.76.52-2.64l2.97-16.21.67-3.88 1.28-7.76.93-5.8 1.44-9.57.56-3.79c0-.01 0-.04.01-.07l.49-3.46 3.06-23.21.19-1.57.57-4.64a38.82 38.82 0 0 1 .18-1.51 40.76 40.76 0 0 1 .18-1.5l.31-2.72c.01-.08.01-.15.03-.23l.48-4.24c.01-.07.03-.14.03-.22l.5-4.49 1.72-16.49.2-2.07.26-2.71.19-1.98.3-3.23a7.87 7.87 0 0 1 .07-.73l.1-1.14c.03-.24.04-.49.07-.72.03-.25.04-.48.07-.71l.2-2.41c-65.43-24.42-173.23-21.08-174.32-21.06zm-47.03 128.91c-7.53 13.17-19.41 21.94-33.42 24.71a47.65 47.65 0 0 1-9.26.91c-10.94 0-21.71-3.79-31.05-11.05-11.55-8.98-19.56-22.28-22.56-37.44s-.64-30.5 6.62-43.19c7.55-13.17 19.42-21.94 33.44-24.72 14.02-2.76 28.33.84 40.32 10.15 11.55 8.98 19.56 22.27 22.56 37.44 2.98 15.16.62 30.49-6.65 43.19zM416.1 625.6a22.865 22.865 0 0 1-22.64 19.23h-81.27c-11.65 0-21.44-8.72-22.79-20.28l-13.74-117.91c-.78-6.63 1.38-13.25 5.9-18.17s10.96-7.61 17.62-7.4l113.7 3.71c6.59.22 12.78 3.26 16.96 8.35 4.2 5.11 5.99 11.75 4.92 18.27zM279.75 48.45l.25.01a824.85 824.85 0 0 1 32.75 2.66l.17-3.25c0-18.88-15.36-34.24-34.24-34.24s-34.24 15.36-34.24 34.24c0 .44.02.87.03 1.31 20.25-1.07 33.89-.77 35.28-.73zm368.67 538.62v67.98h-5.56a55.706 55.706 0 0 1-8.92-33.14l.08-1.36c.1-1.36.25-2.7.44-4.03l.39-2.3a12.13 12.13 0 0 1 .16-.83c.05-.3.12-.6.19-.9l.22-.94c.07-.29.14-.59.22-.87.08-.34.18-.67.27-1.01.08-.3.16-.6.26-.9a41.2 41.2 0 0 1 .45-1.47l.35-1.03.31-.87a32.01 32.01 0 0 1 .48-1.25 7.44 7.44 0 0 0 .2-.5c.14-.34.27-.68.42-1.01 1.57-3.68 3.53-7.14 5.82-10.37.19-.26.38-.52.59-.78 0-.01.01-.01.01-.03l.78-1.02c.04-.05.07-.11.12-.16.03-.05.08-.11.12-.16.27-.35.56-.7.84-1.05.37-.45.75-.9 1.16-1.33.05-.08.14-.16.2-.25.08-.1.16-.19.26-.29zM60.25 298.29c25.73 0 46.66-28.63 46.66-63.82s-20.93-63.82-46.66-63.82c-4.57 0-8.98.92-13.16 2.6l-1.06 1.09-1.42.01c-18.05 8.82-31.01 32.43-31.01 60.12-.01 35.19 20.92 63.82 46.65 63.82z"/><path fill="#875336" d="M470.45 525.22c-1.94 15.52-4.34 32.7-7.25 50.03 4.35 2.72 9.41 4.21 14.61 4.21 15.24 0 27.64-12.4 27.64-27.64 0-15.23-12.4-27.62-27.64-27.62-2.52 0-4.98.36-7.36 1.02z"/><path fill="#f3c33e" d="M380.3 185.75c-.01.05-.04.11-.05.16 0-.01 0-.04.03-.05l.04-.11zm-1.36 3.92-.04.16a.68.68 0 0 1 .07-.2c.01-.04.03-.08.03-.12a.64.64 0 0 0-.06.16zm-.58 2.16-.1.41c-.01.04-.03.1-.03.15l.14-.56.48-1.81-.49 1.81zm-.45 2.01c0 .03-.01.07-.01.1.01-.03.01-.07.03-.1zm-.48 14.79.04.27a.11.11 0 0 1 0-.08c-.03-.06-.03-.12-.04-.19zm.19 1.23-.14-.89.04.38.11.64c-.01-.03-.02-.08-.01-.13zm-.19-13.03c-.01.08-.03.16-.03.25-.01.01-.01.03-.01.05.04-.1.05-.22.05-.34-.01.01-.01.02-.01.04zm-.18 10.09c0 .22.03.42.05.64.01.16.03.34.07.5l-.12-1.14zm-.12-6.91c-.01.1-.01.19-.01.29-.01.1-.01.19-.01.29l.04-.57h-.02zm-.03.78h-.01l-.04 1.92.04 1.96h.01l-.04-1.96.04-1.92zm.22-3.04s-.01.01 0 .03c0-.01.01-.01.01-.04zm-.05.48v.03c.01-.01.01-.03.01-.04zm-.09 7.8c-.01-.03-.03-.07-.01-.1a3.73 3.73 0 0 0 .04.57c0 .01 0 .03.01.04l-.04-.51zm-.02-.19a.34.34 0 0 0 .01.1c-.01-.05-.01-.12-.01-.18zm-.07-1.11v.03c0-.02.01-.02.01-.02h-.01zM244.1 185.75c-.01.05-.04.11-.05.16 0-.01 0-.04.03-.05l.04-.11zm-1.36 3.92-.04.16a.68.68 0 0 1 .07-.2c.01-.04.03-.08.03-.12-.04.06-.05.11-.06.16zm-.59 2.16-.1.41c-.01.04-.03.1-.03.15l.14-.56.48-1.81-.49 1.81zm-.45 2.01c0 .03-.01.07-.01.1.01-.03.01-.07.03-.1zm-.48 14.79.04.27a.11.11 0 0 1 0-.08c-.02-.06-.02-.12-.04-.19zm.2 1.23-.14-.89.04.38.11.64c-.01-.03-.03-.08-.01-.13zm-.2-13.03c-.01.08-.03.16-.03.25-.01.01-.01.03-.01.05.04-.1.05-.22.05-.34-.01.01-.01.02-.01.04zm-.17 10.09c0 .22.03.42.05.64.01.16.03.34.07.5l-.12-1.14zm-.13-6.91c-.01.1-.01.19-.01.29-.01.1-.01.19-.01.29l.04-.57h-.02zm-.02.78h-.01l-.04 1.92.04 1.96h.01l-.04-1.96.04-1.92zm.22-3.04s-.01.01 0 .03c0-.01.01-.01.01-.04zm-.06.48v.03c.01-.01.01-.03.01-.04zm-.08 7.8c-.01-.03-.03-.07-.01-.1a3.73 3.73 0 0 0 .04.57c0 .01 0 .03.01.04l-.04-.51zm-.03-.19a.34.34 0 0 0 .01.1c-.01-.05-.01-.12-.01-.18zm-.07-1.11v.03c0-.02.01-.02.01-.02h-.01zm139.42-18.98c-.01.05-.04.11-.05.16 0-.01 0-.04.03-.05l.04-.11zm-1.36 3.92-.04.16a.68.68 0 0 1 .07-.2c.01-.04.03-.08.03-.12a.64.64 0 0 0-.06.16zm-.58 2.16-.1.41c-.01.04-.03.1-.03.15l.14-.56.48-1.81-.49 1.81zm-.45 2.01c0 .03-.01.07-.01.1.01-.03.01-.07.03-.1zm-.29 16.02-.14-.89.04.38.11.64c-.01-.03-.02-.08-.01-.13zm-.19-13.03c-.01.08-.03.16-.03.25-.01.01-.01.03-.01.05.04-.1.05-.22.05-.34-.01.01-.01.02-.01.04zm-.18 10.09c0 .22.03.42.05.64.01.16.03.34.07.5l-.12-1.14zm.07-9.17s-.01.01 0 .03c0-.01.01-.01.01-.04zm-.05.48v.03c.01-.01.01-.03.01-.04zm-.09 7.8c-.01-.03-.03-.07-.01-.1a3.73 3.73 0 0 0 .04.57c0 .01 0 .03.01.04l-.04-.51zm-.02-.19a.34.34 0 0 0 .01.1c-.01-.05-.01-.12-.01-.18zm-.03-5.83c-.01.1-.01.19-.01.29-.01.1-.01.19-.01.29l.04-.57h-.02zm-.03.78h-.01l-.04 1.92.04 1.96h.01l-.04-1.96.04-1.92zm-133-15.04c-.01.05-.04.11-.05.16 0-.01 0-.04.03-.05l.04-.11zm-1.36 3.92-.04.16a.68.68 0 0 1 .07-.2c.01-.04.03-.08.03-.12-.04.06-.05.11-.06.16zm-.59 2.16-.1.41c-.01.04-.03.1-.03.15l.14-.56.48-1.81-.49 1.81zm-.45 2.01c0 .03-.01.07-.01.1.01-.03.01-.07.03-.1zm-.28 16.02-.14-.89.04.38.11.64c-.01-.03-.03-.08-.01-.13zm-.2-13.03c-.01.08-.03.16-.03.25-.01.01-.01.03-.01.05.04-.1.05-.22.05-.34-.01.01-.01.02-.01.04zm-.17 10.09c0 .22.03.42.05.64.01.16.03.34.07.5l-.12-1.14zm.07-9.17s-.01.01 0 .03c0-.01.01-.01.01-.04zm-.06.48v.03c.01-.01.01-.03.01-.04zm-.08 7.8c-.01-.03-.03-.07-.01-.1a3.73 3.73 0 0 0 .04.57c0 .01 0 .03.01.04l-.04-.51zm-.03-.19a.34.34 0 0 0 .01.1c-.01-.05-.01-.12-.01-.18zm-.03-5.83c-.01.1-.01.19-.01.29-.01.1-.01.19-.01.29l.04-.57h-.02zm-.02.78h-.01l-.04 1.92.04 1.96h.01l-.04-1.96.04-1.92zm141.08 22.51.33.61-.25-.46c-.03-.05-.05-.09-.08-.15zm-1.68-37.55c-.01.04-.03.07-.03.11l.04-.11zm-1.4 4.09a.68.68 0 0 1 .07-.2c.01-.04.03-.08.03-.12-.03.05-.04.11-.05.16-.02.05-.04.1-.05.16zm-.54 1.99-.1.41c-.01.04-.03.1-.03.15l.14-.56.48-1.81-.49 1.81zm-.47 2.11c.01-.03.01-.07.03-.1h-.01c0 .03-.02.07-.02.1zm-.37 15.42c.03.16.05.34.1.5l-.14-.89a4.67 4.67 0 0 1 .04.39zm-.06-12.71c.01-.01.01-.03.01-.03h-.01s-.02.01 0 .03zm-.06.42c-.01.01-.01.04 0 .07.03-.11.04-.23.04-.35-.01.01-.01.03-.01.04-.01.08-.03.16-.03.24zm-.09 10.49c.01.16.03.34.07.5l-.12-1.14c-.01.22.02.42.05.64zm.01-9.81s-.01.01 0 .03c0-.01.01-.01.01-.04zm-.04.34v.08c0-.03.01-.04.01-.07zm-.01.14v.03c.01-.01.01-.03.01-.04zm-.06 8.28c0 .01 0 .03.01.04l-.04-.52c0 .17 0 .32.03.48zm-.09-6.21c-.01.1-.01.19-.01.29l.04-.57v-.05c-.01.01-.01.03-.01.05-.02.09-.02.18-.02.28zm-.03.49-.04 1.92.04 1.96h.01l-.04-1.96.04-1.92zM245.77 223.3l.33.61-.25-.46c-.02-.05-.05-.09-.08-.15zm-1.67-37.55c-.01.04-.03.07-.03.11l.04-.11zm-1.4 4.09a.68.68 0 0 1 .07-.2c.01-.04.03-.08.03-.12-.03.05-.04.11-.05.16-.03.05-.04.1-.05.16zm-.55 1.99-.1.41c-.01.04-.03.1-.03.15l.14-.56.48-1.81-.49 1.81zm-.46 2.11c.01-.03.01-.07.03-.1h-.01c-.01.03-.02.07-.02.1zm-.37 15.42c.03.16.05.34.1.5l-.14-.89.04.39zm-.07-12.71c.01-.01.01-.03.01-.03h-.01s-.01.01 0 .03zm-.05.42c-.01.01-.01.04 0 .07.03-.11.04-.23.04-.35-.01.01-.01.03-.01.04-.02.08-.03.16-.03.24zm-.1 10.49c.01.16.03.34.07.5l-.12-1.14a4.6 4.6 0 0 0 .05.64zm.02-9.81s-.01.01 0 .03c0-.01.01-.01.01-.04zm-.05.34v.08c0-.03.01-.04.01-.07zm-.01.14v.03c.01-.01.01-.03.01-.04zm-.05 8.28c0 .01 0 .03.01.04l-.04-.52c0 .17 0 .32.03.48zm-.1-6.21c-.01.1-.01.19-.01.29l.04-.57v-.05c-.01.01-.01.03-.01.05-.02.09-.02.18-.02.28zm-.03.49-.04 1.92.04 1.96h.01l-.04-1.96.04-1.92zm241.32-59.13-.35-2.19-.18-.79c-.05-.27-.12-.56-.2-.84-.38-1.5-.94-3.2-1.74-5.09-.49-1.16-1.08-2.37-1.77-3.65l-1.76-2.97-.67-1.02-1.48-2.12-1.68-2.15-.91-1.1-1.87-2.08-1.5-1.58-.63-.63-2.12-2.03-1.17-1.08-2.53-2.17-4.18-3.27-3.08-2.19-3.31-2.18-7.34-4.36-8.39-4.3-2.27-1.08-6.46-2.82-1.09-.45-4.86-1.93-2.71-1.02-6.36-2.25-2.22-.75-3.01-.97-3.9-1.2-2.38-.71-2.03-.59-4.17-1.16-1.06-.29a353.39 353.39 0 0 0-14.14-3.49l-2.18-.49c-.4-.08-.78-.18-1.17-.24l-2.66-.57c-.61-.14-1.24-.27-1.87-.4-.61-.14-1.24-.26-1.87-.38l-3.81-.75-3.68-.69c-7.61-1.42-15.7-2.72-24.29-3.92l-4.74-.64-8.94-1.1-3.05-.35-2.85-.31-1.28-.14-3.87-.41-5.24-.52-5.37-.49-1.53-.14-3.94-.33-2.04-.16-1.76-.14-1.78-.14-5.68-.41-5.8-.38c-3.61-.08-86.8-1.48-153.04 21.42a126.94 126.94 0 0 0-5.52 2.04l-1.4.56-.52.2c-.08.03-.15.05-.22.08l-.01.01c-.41.16-.82.34-1.21.5-.05.03-.11.04-.16.07l-1.01.44c-.79.34-1.57.69-2.33 1.05a2.68 2.68 0 0 0-.42.19l-2.06.98-1.28.64c-.23.12-.46.23-.69.34l-.68.35a14.48 14.48 0 0 0-.68.35c-.2.1-.39.2-.59.31-.05.03-.1.05-.14.08-.42.22-.84.45-1.25.68-.27.14-.53.29-.8.45-.14.07-.27.15-.39.22-.25.14-.49.27-.72.42l-1.87 1.1-1.63 1.02c-.48.31-.97.61-1.43.93-.48.31-.94.63-1.4.94-.12.08-.25.16-.35.24-.25.16-.49.34-.74.52-.33.23-.65.46-.98.71-.29.2-.56.41-.84.61-.48.35-.94.71-1.4 1.06a52.78 52.78 0 0 0-1.4 1.12c-.07.04-.12.1-.19.15l-1.88 1.57c-.18.16-.37.31-.54.48-.56.48-1.09.97-1.62 1.46a22.91 22.91 0 0 0-.87.83c-.37.34-.71.68-1.06 1.02-.19.18-.38.37-.57.56l-.99 1.02c-.01.02-.01.02-.03.04l-.8.84-.33.35-1.21 1.36-.4.46c-.94 1.09-1.81 2.18-2.64 3.27l-.01.01-1.16 1.57a43.65 43.65 0 0 0-.84 1.2l-.87 1.29c-.27.44-.56.86-.82 1.29 0 .01-.01.01-.03.03l-.37.6c-.12.22-.25.41-.37.61-.03.03-.04.07-.05.1-.25.41-.48.82-.71 1.23-.49.87-.95 1.73-1.4 2.59-.07.14-.14.27-.19.41-.14.26-.27.53-.39.8l-.59 1.24-.57 1.27c-.1.2-.18.41-.26.61-.23.53-.45 1.06-.64 1.58l-.08.19-.45 1.2c0 .01 0 .01-.01.03l-.49 1.39c-.11.31-.22.63-.31.94-.12.38-.25.76-.35 1.14a23.69 23.69 0 0 0-.33 1.12c-.48 1.63-.84 3.2-1.14 4.67l-.23 1.2c-.07.31-.12.61-.16.91-.03.16-.05.33-.08.49 0 .03-.01.05-.01.08v.03c0 .03-.01.07-.01.1s-.01.05-.01.07v.01c-.01.04-.01.07-.03.1-.03.15-.04.29-.05.44-.05.3-.1.6-.12.89l-.11.86c-.04.29-.07.56-.1.83l-.08.79c-.01.27-.04.52-.05.76-.01.14-.03.29-.03.42l-.1 1.65v.08c.71-.14 1.42-.26 2.12-.38l1.06-.16 1.1-.16c.08-.01.16-.03.26-.03l1.16-.15 1.92-.22 2.36-.19 2.02-.1c.34-.03.68-.04 1.04-.04.07-.01.15-.01.22-.01l2.1-.03c1.39 0 2.78.04 4.15.11l1.76.11c.78.05 1.55.12 2.33.2l1.95.22c.2.03.4.05.6.08.08.01.15.03.23.04.26.03.53.07.82.11l.82.12 2.04.35 1.58.3c.39.08.78.16 1.17.26l1.31.3c.67.15 1.33.33 1.99.5a42.94 42.94 0 0 1 1.62.45l1.02.3c.44.12.87.26 1.29.41.57.18 1.13.35 1.68.56l.9.31.65.24c.53.19 1.06.4 1.59.6a.61.61 0 0 1 .12.05c.59.23 1.17.46 1.76.72a28.14 28.14 0 0 1 1.8.79c.5.22.99.45 1.48.68.22.11.44.2.65.31l1.39.71c.59.29 1.16.6 1.73.91.57.3 1.14.63 1.7.95.49.27.98.57 1.47.86.45.27.9.54 1.35.84.27.16.54.34.82.52.27.16.54.35.8.53a52.55 52.55 0 0 1 1.72 1.17l1.62 1.17 1.59 1.21 1.57 1.25a11.54 11.54 0 0 1 .76.63l.76.65.74.64a8.8 8.8 0 0 1 .72.65c1.5 1.33 2.94 2.75 4.33 4.21.9.93 1.77 1.89 2.62 2.86 1.69 1.96 3.3 3.99 4.79 6.1a86.22 86.22 0 0 1 2.18 3.21l1.04 1.66c1.35 2.22 2.6 4.51 3.73 6.85a46.99 46.99 0 0 1 .82 1.78c.01.04.04.08.05.12.22.46.42.93.61 1.39l.12.29a40.57 40.57 0 0 1 .75 1.81c.23.57.45 1.14.65 1.73l.63 1.74c.33.95.64 1.92.93 2.89.01.05.03.1.04.15.23.76.45 1.54.65 2.32a48.08 48.08 0 0 1 .44 1.72c.01.04.03.1.04.15 0 .03.01.04.01.07.1.38.18.76.27 1.14 0 .03.01.05.01.08.11.45.2.9.29 1.36.01.1.04.19.05.29.12.54.23 1.1.33 1.66a47.43 47.43 0 0 1 .29 1.72l.33 2.29c.1.68.18 1.35.23 2.03l.14 1.4a2.26 2.26 0 0 1 .01.26c.03.3.05.6.07.9.01.04.01.08.01.12a21.48 21.48 0 0 1 .08 1.4c.04.68.07 1.38.08 2.07l.03 2.08a58.81 58.81 0 0 1-.04 2.3c-.01.63-.03 1.24-.07 1.85l-.11 1.77c-.03.3-.04.61-.07.91-.01.1-.01.18-.03.27-.03.38-.07.75-.11 1.13l-.23 2.03c-.05.49-.14.98-.2 1.47l-.11.75c-.04.25-.07.5-.12.75 0 .03-.01.05-.01.08a20.99 20.99 0 0 1-.18 1.05 41.58 41.58 0 0 1-.37 1.88c-.11.57-.25 1.16-.37 1.73-.04.18-.08.37-.14.56 0 .03-.01.05-.01.08-.08.38-.19.76-.29 1.14-.03.1-.05.2-.08.3-.01.03-.01.05-.01.08-.33 1.27-.68 2.52-1.06 3.76-.01.05-.04.12-.05.18-.16.52-.33 1.03-.5 1.54l-.42 1.23c-.03.07-.05.15-.08.22-.12.37-.26.72-.4 1.09l-.54 1.42a41.33 41.33 0 0 1-.75 1.83c-.25.61-.52 1.21-.79 1.8-.19.44-.4.87-.6 1.31-.16.35-.33.69-.5 1.03-.19.4-.4.79-.6 1.19-.42.83-.87 1.66-1.32 2.47-.03.07-.07.14-.11.19-.45.82-.91 1.62-1.4 2.41-.16.27-.33.53-.49.79-.16.27-.33.53-.49.79l-1.36 2.06c-.1.14-.19.29-.3.42-.01.01-.03.04-.04.05l-.87 1.23a5.21 5.21 0 0 0-.2.3c-.34.48-.69.94-1.05 1.4a85.55 85.55 0 0 1-1.66 2.11l-1.14 1.36c-.31.38-.64.74-.95 1.1-.04.04-.08.1-.12.14s-.08.1-.12.14l-1.28 1.39-.04.04c-.14.15-.27.3-.41.44-.12.14-.25.26-.38.4l-.9.93c-.08.1-.18.2-.29.29-.11.1-.22.2-.33.31l-1.96 1.88c-.23.22-.46.42-.69.64-.23.2-.46.41-.69.63-.54.48-1.09.94-1.65 1.4-.2.18-.41.34-.61.5l-2.57 2.02a4.33 4.33 0 0 1-.37.27c-.01.02-.02.02-.04.04-.3.23-.6.45-.9.65-.14.1-.27.19-.41.3-1.06.75-2.12 1.47-3.21 2.18-.26.15-.5.3-.75.46a1.76 1.76 0 0 1-.23.14c-.52.33-1.05.64-1.57.95l-1.77 1.02c-.33.19-.65.37-.99.54l-.98.52c-.27.15-.56.29-.83.44l-1.77.87-2.19 1.01-1.01.44c-.2.08-.41.16-.61.25-.07.04-.14.07-.2.08a12.14 12.14 0 0 1-.99.41c-.11.04-.2.08-.31.12l-1.18.45c-.08.03-.18.07-.27.1l-.34.12a.75.75 0 0 1-.18.07c-.46.18-.94.34-1.42.5-.07.03-.15.04-.22.07-.14.05-.27.1-.41.14-.26.1-.53.18-.79.26-.63.2-1.25.4-1.89.57-.16.05-.33.11-.49.15l-.44.12c-.08.03-.18.04-.26.07-.2.07-.41.12-.61.16l-.61.16-1.77.44-.69.16c-.08.01-.15.03-.23.05l-1.2.25a43.27 43.27 0 0 1-1.92.37c-.03.01-.04.01-.05.01-.16.03-.34.07-.5.08-.22.05-.45.08-.67.12-.1.01-.2.03-.3.05h-.05c-.08.01-.18.03-.26.04l-2.4.34-1.04.12-.82.08c-.59.07-1.17.12-1.77.16-.18.01-.35.03-.54.04-.18.01-.35.03-.53.04l-.75.04-.49.03a81.8 81.8 0 0 1-4.15.11c-.46 0-.91 0-1.36-.01-.35 0-.71-.01-1.06-.03a11.44 11.44 0 0 1-.82-.03c-.44-.01-.87-.04-1.29-.05l-1.1-.08h-.07c-.03 0-.05 0-.08-.01-.02.01-.04.01-.05 0l-1.62-.12c-.05 0-.1-.01-.15-.01l-1.13-.12c-.48-.04-.95-.1-1.43-.16-.48-.05-.95-.12-1.43-.19h-.03c-.59.11-1.17.2-1.77.3l-1.81.23v39.05a19.58 19.58 0 0 0 .59 4.85c.08.33.16.64.26.97.08.26.16.52.26.78.1.29.19.57.31.86a16.31 16.31 0 0 0 .35.84l.54 1.1a18.02 18.02 0 0 0 .56.98c.19.33.41.64.61.95l96.32-16.43 300.94 17.39a21.81 21.81 0 0 0 1.4.04c.45 0 .9-.01 1.33-.04.29-.01.56-.04.83-.07.25-.01.49-.04.74-.07.41-.05.79-.11 1.18-.18.37-.05.74-.14 1.09-.22.07-.01.15-.04.22-.05.01 0 .04 0 .05-.01.05-.01.11-.03.16-.04s.11-.03.16-.04c.31-.05.61-.15.93-.23.01 0 .03-.01.04-.01a16.37 16.37 0 0 0 1.18-.4c.27-.1.53-.19.8-.3.03-.01.04-.01.07-.03.2-.07.42-.16.63-.26.29-.12.59-.26.87-.39.23-.11.46-.23.69-.35.26-.14.52-.27.78-.42s.5-.3.75-.46a10.5 10.5 0 0 0 .74-.49 6.78 6.78 0 0 0 .34-.23c.1-.07.18-.14.27-.2.1-.07.19-.14.27-.2.05-.03.1-.07.14-.1.03-.03.05-.04.08-.07.08-.53.15-1.05.2-1.59l.04-.6.03-1.02V145.09l.05-.44c-.1-.1-.02-1.16-.22-2.99zm-172.1 93.28a23.26 23.26 0 0 1-.9.83 25.99 25.99 0 0 1-1.38 1.18c-.05.04-.12.1-.16.12l-.03.03c-.45.38-.93.75-1.4 1.1-.04.01-.07.04-.1.07-.5.38-1.02.75-1.55 1.1-.01 0-.01.01-.03.01-.27.19-.54.37-.81.54l-.82.5c-.01 0-.03.01-.04.03-.54.33-1.09.64-1.65.94-.04.03-.08.04-.12.07-.54.3-1.1.59-1.66.86a.46.46 0 0 0-.14.07c-.52.25-1.05.48-1.58.69l-.29.12a24.3 24.3 0 0 1-1.28.5l-1.01.35c-.08.04-.18.07-.27.1-.31.11-.64.22-.97.31a3.72 3.72 0 0 1-.31.1c-.05.01-.11.04-.15.05-.07.01-.14.04-.19.05s-.12.04-.18.05h-.03c-.07.03-.15.04-.23.07-.07.01-.14.04-.2.05-.07.01-.14.04-.22.05h-.03c-.03.01-.05.01-.08.03-.04.01-.1.03-.15.04-.03.01-.05.01-.1.03-.08.01-.16.04-.25.05 0 .01-.01.01-.03.01-.05.01-.11.03-.16.04-.45.11-.9.2-1.35.3h-.01c-.56.12-1.12.22-1.69.31l-.95.14c-.15.03-.29.04-.44.05-.23.04-.46.07-.68.08-.12.01-.23.03-.34.04s-.22.03-.31.03l-1.44.11h-.1a34.72 34.72 0 0 1-2.04.05c-.46 0-.94-.01-1.4-.03-.44-.01-.86-.04-1.29-.07l-1.54-.14a18.39 18.39 0 0 1-1.04-.12c-.52-.07-1.05-.15-1.57-.24-.34-.05-.68-.12-1.02-.19a33.16 33.16 0 0 1-2.98-.72c-.31-.08-.61-.18-.91-.27-.75-.23-1.5-.49-2.25-.78l-1.18-.46c-.22-.08-.42-.18-.64-.27l-1.5-.68-1.53-.79c-2.7-1.44-5.22-3.2-7.53-5.22-.5-.42-.98-.87-1.46-1.32-.05-.04-.1-.1-.14-.14-.33-.31-.64-.63-.95-.94l-.4-.41a55.77 55.77 0 0 1-1.28-1.4c-.04-.05-.08-.11-.14-.16a41.94 41.94 0 0 1-1.16-1.42c-.04-.04-.08-.1-.11-.14-.39-.5-.79-1.03-1.17-1.58-.01-.01-.03-.04-.04-.05-.37-.5-.71-1.02-1.05-1.54a2.69 2.69 0 0 1-.14-.22c-.35-.54-.68-1.1-1.01-1.66a18.35 18.35 0 0 1-.64-1.14c-.03-.04-.05-.1-.07-.14-.01-.03-.04-.05-.04-.07-.08-.16-.16-.32-.25-.47-.03-.05-.05-.1-.08-.15-.22-.42-.44-.84-.63-1.28l-.6-1.33c-.04-.04-.05-.1-.07-.15-.19-.46-.4-.94-.57-1.42-.05-.1-.1-.19-.12-.3-.15-.38-.29-.75-.42-1.14-.2-.57-.39-1.14-.56-1.73-.01-.03-.03-.07-.03-.1-.05-.19-.11-.38-.16-.57-.04-.1-.07-.19-.08-.29-.12-.38-.23-.78-.31-1.17-.05-.18-.1-.35-.14-.53-.14-.56-.27-1.1-.37-1.68-.03-.14-.05-.29-.08-.44l-.1-.5c-.03-.15-.04-.3-.07-.45a.587.587 0 0 1-.04-.23c-.01-.04-.03-.08-.01-.14l-.14-.89c-.01-.03-.01-.04-.01-.07a.11.11 0 0 1 0-.08c-.03-.07-.03-.12-.04-.19v-.05c-.01-.1-.03-.18-.03-.27a.03.03 0 0 1 0-.04c-.03-.07-.04-.14-.03-.2l-.12-1.14c-.03-.08-.03-.16-.03-.25a.11.11 0 0 1 0-.08c-.01-.01-.01-.01 0-.03v.03c-.01-.18-.04-.34-.04-.52-.01-.03-.03-.07-.01-.1-.01-.05-.01-.12-.01-.18-.03-.33-.04-.64-.05-.95-.01-.01-.01-.01 0-.03 0-.01-.01-.01-.01-.02 0-.02.01-.02.01-.02-.01-.01 0-.03 0-.03l-.01-.01-.03-1.97c0-.64.01-1.28.04-1.92h-.01l.01-.02c-.01-.02 0-.02 0-.02-.01-.01 0-.03 0-.03a.03.03 0 0 1 0-.04c-.01-.03-.01-.04 0-.05v-.03l.04-.57v-.05a.87.87 0 0 1 .01-.23l.08-1.14c0-.04 0-.07.01-.1 0-.04.01-.08.01-.12v-.04a.03.03 0 0 1 0-.04v-.03c.01-.01.01-.03.01-.04-.01-.01-.01-.02 0-.02 0-.04.01-.05.01-.08-.01-.08 0-.13.02-.19-.01-.01-.01-.01 0-.03.01-.03.01-.05.01-.08-.01-.01 0-.03 0-.03 0-.01.01-.01.01-.04 0-.04 0-.08.01-.12a1.03 1.03 0 0 1 .03-.26c0-.03.01-.07.01-.1s.01-.07.01-.1v-.03c.03-.11.04-.23.04-.35-.01-.05 0-.1.01-.14.01-.01.01-.03.01-.03v-.03a1.53 1.53 0 0 1 .04-.38c0-.07.01-.12.03-.18 0-.08.01-.16.04-.23.01-.03.01-.05.01-.08.01-.1.03-.18.04-.27 0-.07.01-.12.03-.19.03-.22.07-.44.11-.65l.12-.67c.01-.03.01-.07.03-.1.03-.12.05-.26.08-.38 0-.03.01-.07.01-.1.04-.23.1-.46.15-.69.01-.01.01-.01.01-.03.01-.04.01-.07.03-.11.01-.05.01-.08.03-.14v-.01c.04-.19.1-.38.14-.56.15-.61.31-1.21.48-1.81.03-.05.04-.12.05-.18a.68.68 0 0 1 .07-.2c.01-.04.03-.08.03-.12.03-.04.03-.1.04-.15-.01-.01 0-.01.01-.03 0-.01 0-.01.01-.03v-.01c.01-.03.01-.04.03-.07v-.01c.01-.04.03-.07.04-.11.1-.33.19-.64.3-.95.04-.16.1-.31.16-.48.11-.33.23-.64.35-.97.01-.03.03-.07.04-.1.03-.07.05-.15.08-.22.04-.16.11-.31.18-.48 0-.01 0-.04.03-.05l.04-.11c.08-.21.16-.43.27-.65 0-.04.01-.07.04-.11a18.77 18.77 0 0 1 .34-.79c.01-.01.03-.03.03-.04s.01-.04.01-.05c.16-.37.34-.74.52-1.1l.25-.49c.04-.11.1-.22.16-.33.1-.2.2-.41.31-.61.07-.14.14-.27.23-.41.04-.08.08-.16.12-.23a13.82 13.82 0 0 1 .67-1.16l.22-.37c.03-.07.07-.14.11-.19.07-.12.14-.24.23-.37.01-.05.05-.1.1-.15.1-.16.2-.33.31-.49.05-.11.14-.23.22-.34.2-.33.42-.64.65-.95l.01-.01c.03-.04.05-.08.08-.12l.93-1.27c.04-.05.08-.11.12-.16l.42-.53c.25-.31.5-.64.76-.94l.8-.93.94-1.04a16.68 16.68 0 0 0 .72-.74c.29-.29.59-.57.87-.84a16.93 16.93 0 0 1 .89-.82c.16-.15.33-.29.49-.42a14.2 14.2 0 0 1 .75-.64c.38-.33.78-.64 1.18-.94l1.23-.91a35.62 35.62 0 0 1 1.81-1.21c.2-.14.41-.26.61-.38.04-.03.07-.04.11-.07.38-.23.78-.46 1.17-.68.49-.29.99-.55 1.5-.8.6-.31 1.21-.6 1.83-.87.31-.14.63-.27.94-.4.67-.29 1.35-.54 2.03-.78.27-.11.56-.2.84-.29a3.58 3.58 0 0 1 .35-.11c.42-.15.86-.27 1.28-.4h.03c.48-.14.97-.26 1.46-.38.29-.07.56-.14.84-.19l1.18-.23.67-.12c.41-.07.82-.12 1.23-.18.34-.05.68-.1 1.04-.12l.74-.08c.31-.03.64-.05.97-.07l.79-.04c.22-.01.44-.01.67-.03.35-.01.71-.01 1.08-.01 22.87 0 41.41 19.49 41.41 43.54 0 .75-.01 1.5-.05 2.25v.1a69.57 69.57 0 0 1-.16 2.11c-.05.65-.14 1.31-.23 1.96l-.04.29c0 .04-.01.1-.03.14a3.98 3.98 0 0 1-.05.34c0 .03-.01.05-.01.08a23.75 23.75 0 0 1-.26 1.51 46.31 46.31 0 0 1-.46 2.11 21.74 21.74 0 0 1-.4 1.44c-.01.08-.04.16-.07.25-.01.08-.04.16-.07.24-.03.12-.07.23-.1.35-.14.49-.3.98-.46 1.46 0 .01 0 .01-.01.03-.08.23-.16.49-.26.72-.04.11-.07.22-.11.33-.12.34-.26.68-.39 1.01l-.2.5a11.73 11.73 0 0 1-.41.97c-.15.38-.33.75-.5 1.12-.14.3-.27.6-.44.9-.14.3-.29.6-.46.89a14.27 14.27 0 0 1-.59 1.09c-.01.03-.03.04-.04.07-.11.2-.23.42-.37.63-.2.38-.44.75-.67 1.12-.01.03-.03.04-.04.07l-.44.67c-.01.01-.01.03-.03.04a17.59 17.59 0 0 1-.71 1.05c-.1.15-.2.3-.33.45-.29.41-.59.82-.9 1.21-.01.01-.01.01-.01.03-.35.44-.69.89-1.06 1.31-.03.03-.04.05-.07.08-.26.31-.53.63-.83.94a20.28 20.28 0 0 1-.65.74c-.07.07-.14.15-.2.22l-1.02 1.04-.04.04a6.72 6.72 0 0 0-.33.31zm125.07 72.62c-.05.38-.25.72-.52.95-.3.26-.69.41-1.12.38l-2.71-.18-147.31-9.38a1.52 1.52 0 0 1-.52-.12c-.1-.04-.19-.1-.27-.16a.655.655 0 0 1-.25-.22.42.42 0 0 1-.12-.15c-.05-.05-.08-.11-.11-.16-.08-.15-.14-.33-.16-.5l-4.85-35a1.5 1.5 0 0 1 .44-1.29 1.54 1.54 0 0 1 1.2-.45l159.26 11.8c.11 0 .19.03.29.05h.01a1.41 1.41 0 0 1 .5.26 1.19 1.19 0 0 1 .2.19c.07.07.12.15.18.22.05.08.1.16.12.26.04.1.07.18.08.27a1.62 1.62 0 0 1 .03.49zm24.65-102.6v.1a69.57 69.57 0 0 1-.16 2.11c-.05.65-.14 1.31-.23 1.96l-.04.29c0 .04-.01.1-.03.14a3.98 3.98 0 0 1-.05.34c0 .03-.01.05-.01.08a23.75 23.75 0 0 1-.26 1.51 46.31 46.31 0 0 1-.46 2.11 21.74 21.74 0 0 1-.4 1.44c-.01.08-.04.16-.07.25-.01.08-.04.16-.07.24-.03.12-.07.23-.1.35-.14.49-.3.98-.46 1.46 0 .01 0 .01-.01.03-.08.23-.16.49-.26.72-.04.11-.07.22-.11.33-.12.34-.26.68-.4 1.01l-.2.5a11.73 11.73 0 0 1-.41.97c-.15.38-.33.75-.5 1.12-.14.3-.27.6-.44.9-.14.3-.29.6-.46.89a14.27 14.27 0 0 1-.59 1.09c-.01.03-.03.04-.04.07-.11.2-.23.42-.37.63-.2.38-.44.75-.67 1.12-.01.03-.03.04-.04.07l-.44.67c-.01.01-.01.03-.03.04a17.59 17.59 0 0 1-.71 1.05c-.1.15-.2.3-.33.45-.29.41-.59.82-.9 1.21-.01.01-.01.01-.01.03-.35.44-.69.89-1.06 1.31-.03.03-.04.05-.07.08-.26.31-.53.63-.83.94a20.28 20.28 0 0 1-.65.74c-.07.07-.14.15-.2.22l-1.02 1.04-.04.04-.38.37a23.26 23.26 0 0 1-.9.83 25.99 25.99 0 0 1-1.38 1.18c-.05.04-.12.1-.16.12l-.03.03c-.45.38-.93.75-1.4 1.1-.04.01-.07.04-.1.07-.5.38-1.02.75-1.55 1.1-.01 0-.01.01-.03.01-.27.19-.54.37-.81.54l-.82.5c-.01 0-.03.01-.04.03-.54.33-1.09.64-1.65.94-.04.03-.08.04-.12.07-.54.3-1.1.59-1.66.86a.46.46 0 0 0-.14.07c-.52.25-1.05.48-1.58.69l-.29.12a24.3 24.3 0 0 1-1.28.5l-1.01.35c-.08.04-.18.07-.27.1-.31.11-.64.22-.97.31a3.72 3.72 0 0 1-.31.1c-.05.01-.11.04-.15.05-.07.01-.14.04-.19.05s-.12.04-.18.05h-.03c-.07.03-.15.04-.23.07-.07.01-.14.04-.2.05-.07.01-.14.04-.22.05h-.03c-.03.01-.05.01-.08.03-.04.01-.1.03-.15.04-.03.01-.05.01-.1.03-.08.01-.16.04-.25.05 0 .01-.01.01-.03.01-.05.01-.11.03-.16.04-.45.11-.9.2-1.35.3h-.01c-.56.12-1.12.22-1.69.31l-.95.14c-.15.03-.29.04-.44.05-.23.04-.46.07-.68.08-.12.01-.23.03-.34.04s-.22.03-.31.03l-1.44.11h-.1a34.72 34.72 0 0 1-2.04.05c-.46 0-.94-.01-1.4-.03-.44-.01-.86-.04-1.29-.07l-1.54-.14a18.39 18.39 0 0 1-1.04-.12c-.52-.07-1.05-.15-1.57-.24-.34-.05-.68-.12-1.02-.19a33.16 33.16 0 0 1-2.98-.72c-.31-.08-.61-.18-.91-.27-.75-.23-1.5-.49-2.25-.78l-1.18-.46c-.22-.08-.42-.18-.64-.27l-1.5-.68-1.53-.79c-2.7-1.44-5.22-3.2-7.53-5.22-.5-.42-.98-.87-1.46-1.32-.05-.04-.1-.1-.14-.14-.33-.31-.64-.63-.95-.94l-.4-.41c-.44-.46-.86-.93-1.28-1.4-.04-.05-.08-.11-.14-.16a32.52 32.52 0 0 1-1.16-1.42c-.04-.04-.08-.1-.11-.14a28.12 28.12 0 0 1-1.17-1.58c-.01-.01-.03-.04-.04-.05-.37-.5-.71-1.02-1.05-1.54a2.69 2.69 0 0 1-.14-.22c-.35-.54-.68-1.1-1.01-1.66a18.35 18.35 0 0 1-.64-1.14c-.03-.04-.05-.1-.07-.14-.01-.03-.04-.05-.04-.07-.08-.16-.16-.32-.25-.47-.03-.05-.05-.1-.08-.15-.22-.42-.44-.84-.63-1.28l-.6-1.33c-.04-.04-.05-.1-.07-.15-.19-.46-.4-.94-.57-1.42-.05-.1-.1-.19-.12-.3-.15-.38-.29-.75-.42-1.14-.2-.57-.4-1.14-.56-1.73-.01-.03-.03-.07-.03-.1-.05-.19-.11-.38-.16-.57-.04-.1-.07-.19-.08-.29-.12-.38-.23-.78-.31-1.17-.05-.18-.1-.35-.14-.53-.14-.56-.27-1.1-.37-1.68-.03-.14-.05-.29-.08-.44l-.1-.5c-.03-.15-.04-.3-.07-.45a.587.587 0 0 1-.04-.23c-.01-.04-.03-.08-.01-.14l-.14-.89c-.01-.03-.01-.04-.01-.07a.11.11 0 0 1 0-.08c-.03-.07-.03-.12-.04-.19v-.05c-.01-.1-.03-.18-.03-.27a.03.03 0 0 1 0-.04c-.03-.07-.04-.14-.03-.2l-.12-1.14c-.03-.08-.03-.16-.03-.25a.11.11 0 0 1 0-.08c-.01-.01-.01-.01 0-.03v-.01c-.01-.18-.04-.34-.04-.52-.01-.03-.03-.07-.01-.1-.01-.05-.01-.12-.01-.18-.03-.33-.04-.64-.05-.95-.01-.01-.01-.01 0-.03 0-.01-.01-.01-.01-.02 0-.02.01-.02.01-.02-.01-.01 0-.03 0-.03l-.01-.01-.03-1.97c0-.64.01-1.28.04-1.92h-.01l.01-.02c-.01-.02 0-.02 0-.02-.01-.01 0-.03 0-.03a.03.03 0 0 1 0-.04c-.01-.03-.01-.04 0-.05v-.03l.04-.57v-.05a.87.87 0 0 1 .01-.23l.08-1.14c0-.04 0-.07.01-.1 0-.04.01-.08.01-.12v-.04a.03.03 0 0 1 0-.04v-.03c.01-.01.01-.03.01-.04-.01-.01-.01-.02 0-.02 0-.04.01-.05.01-.08-.01-.08 0-.13.02-.19-.01-.01-.01-.01 0-.03.01-.03.01-.05.01-.08-.01-.01 0-.03 0-.03 0-.01.01-.01.01-.04 0-.04 0-.08.01-.12a1.03 1.03 0 0 1 .03-.26c0-.03.01-.07.01-.1s.01-.07.01-.1v-.03c.03-.11.04-.23.04-.35-.01-.05 0-.1.01-.14.01-.01.01-.03.01-.03v-.03a1.53 1.53 0 0 1 .04-.38c0-.07.01-.12.03-.18 0-.08.01-.16.04-.23.01-.03.01-.05.01-.08.01-.1.03-.18.04-.27 0-.07.01-.12.03-.19.03-.22.07-.44.11-.65l.12-.67c.01-.03.01-.07.03-.1.03-.12.05-.26.08-.38 0-.03.01-.07.01-.1.04-.23.1-.46.15-.69.01-.01.01-.01.01-.03.01-.04.01-.07.03-.11.01-.05.01-.08.03-.14v-.01c.04-.19.1-.38.14-.56.15-.61.31-1.21.48-1.81.03-.05.04-.12.05-.18a.68.68 0 0 1 .07-.2c.01-.04.03-.08.03-.12.03-.04.03-.1.04-.15-.01-.01 0-.01.01-.03 0-.01 0-.01.01-.03v-.01c.01-.03.01-.04.03-.07v-.01c.01-.04.03-.07.04-.11.1-.33.19-.64.3-.95.04-.16.1-.31.16-.48.11-.33.23-.64.35-.97.01-.03.03-.07.04-.1.03-.07.05-.15.08-.22.04-.16.11-.31.18-.48 0-.01 0-.04.03-.05l.04-.11c.08-.21.16-.43.27-.65 0-.04.01-.07.04-.11a18.77 18.77 0 0 1 .34-.79c.01-.01.03-.03.03-.04s.01-.04.01-.05c.16-.37.34-.74.52-1.1l.25-.49c.04-.11.1-.22.16-.33.1-.2.2-.41.31-.61.07-.14.14-.27.23-.41.04-.08.08-.16.12-.23a13.82 13.82 0 0 1 .67-1.16l.22-.37c.03-.07.07-.14.11-.19a5.4 5.4 0 0 1 .23-.37c.01-.05.05-.1.1-.15.1-.16.2-.33.31-.49.05-.11.14-.23.22-.34.2-.33.42-.64.65-.95l.01-.01c.03-.04.05-.08.08-.12l.93-1.27c.04-.05.08-.11.12-.16l.42-.53c.25-.31.5-.64.76-.94l.8-.93.94-1.04a16.68 16.68 0 0 0 .72-.74c.29-.29.59-.57.87-.84a16.93 16.93 0 0 1 .89-.82c.16-.15.33-.29.49-.42a14.2 14.2 0 0 1 .75-.64c.38-.33.78-.64 1.18-.94l1.23-.91a35.62 35.62 0 0 1 1.81-1.21c.2-.14.41-.26.61-.38.04-.03.07-.04.11-.07.38-.23.78-.46 1.17-.68.49-.29.99-.55 1.5-.8.6-.31 1.21-.6 1.83-.87.31-.14.63-.27.94-.4.67-.29 1.35-.54 2.03-.78.27-.11.56-.2.84-.29a3.58 3.58 0 0 1 .35-.11c.42-.15.86-.27 1.28-.4h.03c.48-.14.97-.26 1.46-.38.29-.07.56-.14.84-.19l1.18-.23.67-.12c.41-.07.82-.12 1.23-.18.34-.05.68-.1 1.04-.12l.74-.08c.31-.03.64-.05.97-.07l.79-.04c.22-.01.44-.01.67-.03.35-.01.71-.01 1.08-.01 22.87 0 41.41 19.49 41.41 43.54a16.58 16.58 0 0 1 .01 2.23zm-218.92-4.17h-.01c-.03.64-.04 1.28-.04 1.92 0 .65.01 1.31.04 1.96h.01c-.03-.65-.04-1.31-.04-1.96 0-.64.01-1.28.04-1.92zm.02-.78c-.01.1-.01.19-.01.29-.01.1-.01.19-.01.29l.04-.57v-.05c-.02 0-.02.01-.02.04zm.06 6.02c-.01-.03-.03-.07-.01-.1a3.73 3.73 0 0 0 .04.57c0 .01 0 .03.01.04-.01-.17-.04-.33-.04-.51zm-.03-.19a.34.34 0 0 0 .01.1c-.01-.05-.01-.12-.01-.18zm.11-7.61v.03c.01-.01.01-.03.01-.04zm.06-.48s-.01.01 0 .03c0-.01.01-.01.01-.04zm-.07 9.17c0 .22.03.42.05.64.01.16.03.34.07.5l-.12-1.14zm.17-10.09c-.01.08-.03.16-.03.25-.01.01-.01.03-.01.05.04-.1.05-.22.05-.34-.01.01-.01.02-.01.04zm.03-.21s-.01.01 0 .03c.01-.01.01-.03.01-.03zm.17 13.24-.14-.89c.01.12.03.25.04.38l.11.64c-.01-.03-.03-.08-.01-.13zm.28-16.02c0 .03-.01.07-.01.1.01-.03.01-.07.03-.1zm.45-2.01c-.04.14-.07.27-.1.41-.01.04-.03.1-.03.15.04-.19.1-.38.14-.56.15-.61.31-1.21.48-1.81-.18.59-.34 1.19-.49 1.81zm.59-2.16c-.01.05-.03.11-.04.16a.68.68 0 0 1 .07-.2c.01-.04.03-.08.03-.12-.04.06-.05.11-.06.16zm1.36-3.92c-.01.05-.04.11-.05.16 0-.01 0-.04.03-.05l.04-.11zm133 15.04h-.01c-.03.64-.04 1.28-.04 1.92 0 .65.01 1.31.04 1.96h.01c-.03-.65-.04-1.31-.04-1.96 0-.64.02-1.28.04-1.92zm.03-.78c-.01.1-.01.19-.01.29-.01.1-.01.19-.01.29l.04-.57v-.05c-.02 0-.02.01-.02.04zm.05 6.02c-.01-.03-.03-.07-.01-.1a3.73 3.73 0 0 0 .04.57c0 .01 0 .03.01.04-.01-.17-.04-.33-.04-.51zm-.02-.19a.34.34 0 0 0 .01.1c-.01-.05-.01-.12-.01-.18zm.11-7.61v.03c.01-.01.01-.03.01-.04zm.05-.48s-.01.01 0 .03c0-.01.01-.01.01-.04zm-.07 9.17c0 .22.03.42.05.64.01.16.03.34.07.5l-.12-1.14zm.18-10.09c-.01.08-.03.16-.03.25-.01.01-.01.03-.01.05.04-.1.05-.22.05-.34-.01.01-.01.02-.01.04zm.03-.21s-.01.01 0 .03c.01-.01.01-.03.01-.03zm.16 13.24-.14-.89c.01.12.03.25.04.38l.11.64c-.01-.03-.02-.08-.01-.13zm.29-16.02c0 .03-.01.07-.01.1.01-.03.01-.07.03-.1zm.45-2.01c-.04.14-.07.27-.1.41-.01.04-.03.1-.03.15.04-.19.1-.38.14-.56.15-.61.31-1.21.48-1.81-.18.59-.34 1.19-.49 1.81zm.58-2.16c-.01.05-.03.11-.04.16a.68.68 0 0 1 .07-.2c.01-.04.03-.08.03-.12a.64.64 0 0 0-.06.16zm1.36-3.92c-.01.05-.04.11-.05.16 0-.01 0-.04.03-.05l.04-.11zm-139.38 14.26c-.01.1-.01.19-.01.29-.01.1-.01.19-.01.29l.04-.57h-.02zm-.02.78h-.01c-.03.64-.04 1.28-.04 1.92 0 .65.01 1.31.04 1.96h.01c-.03-.65-.04-1.31-.04-1.96 0-.64.01-1.28.04-1.92zm.08 5.24c-.01-.03-.03-.07-.01-.1a3.73 3.73 0 0 0 .04.57c0 .01 0 .03.01.04-.01-.17-.04-.33-.04-.51zm-.03-.19a.34.34 0 0 0 .01.1c-.01-.05-.01-.12-.01-.18zm.17-8.09s-.01.01 0 .03c0-.01.01-.01.01-.04zm-.06.48v.03c.01-.01.01-.03.01-.04zm-.01 8.69c0 .22.03.42.05.64.01.16.03.34.07.5l-.12-1.14zm.17-10.09c-.01.08-.03.16-.03.25-.01.01-.01.03-.01.05.04-.1.05-.22.05-.34-.01.01-.01.02-.01.04zm.2 13.03-.14-.89c.01.12.03.25.04.38l.11.64c-.01-.03-.03-.08-.01-.13zm.28-16.02c0 .03-.01.07-.01.1.01-.03.01-.07.03-.1zm.45-2.01c-.04.14-.07.27-.1.41-.01.04-.03.1-.03.15.04-.19.1-.38.14-.56.15-.61.31-1.21.48-1.81-.18.59-.34 1.19-.49 1.81zm.59-2.16c-.01.05-.03.11-.04.16a.68.68 0 0 1 .07-.2c.01-.04.03-.08.03-.12-.04.06-.05.11-.06.16zm1.36-3.92c-.01.05-.04.11-.05.16 0-.01 0-.04.03-.05l.04-.11zm133.03 14.26c-.01.1-.01.19-.01.29-.01.1-.01.19-.01.29l.04-.57h-.02zm-.03.78h-.01c-.03.64-.04 1.28-.04 1.92 0 .65.01 1.31.04 1.96h.01c-.03-.65-.04-1.31-.04-1.96 0-.64.02-1.28.04-1.92zm.08 5.24c-.01-.03-.03-.07-.01-.1a3.73 3.73 0 0 0 .04.57c0 .01 0 .03.01.04-.01-.17-.04-.33-.04-.51zm-.02-.19a.34.34 0 0 0 .01.1c-.01-.05-.01-.12-.01-.18zm.16-8.09s-.01.01 0 .03c0-.01.01-.01.01-.04zm-.05.48v.03c.01-.01.01-.03.01-.04zm-.02 8.69c0 .22.03.42.05.64.01.16.03.34.07.5l-.12-1.14zm.18-10.09c-.01.08-.03.16-.03.25-.01.01-.01.03-.01.05.04-.1.05-.22.05-.34-.01.01-.01.02-.01.04zm.19 13.03-.14-.89c.01.12.03.25.04.38l.11.64c-.01-.03-.02-.08-.01-.13zm.29-16.02c0 .03-.01.07-.01.1.01-.03.01-.07.03-.1zm.45-2.01c-.04.14-.07.27-.1.41-.01.04-.03.1-.03.15.04-.19.1-.38.14-.56.15-.61.31-1.21.48-1.81-.18.59-.34 1.19-.49 1.81zm.58-2.16c-.01.05-.03.11-.04.16a.68.68 0 0 1 .07-.2c.01-.04.03-.08.03-.12a.64.64 0 0 0-.06.16zm1.36-3.92c-.01.05-.04.11-.05.16 0-.01 0-.04.03-.05l.04-.11zm-139.32 20.28c-.01-.03-.03-.07-.01-.1a3.73 3.73 0 0 0 .04.57c0 .01 0 .03.01.04-.01-.17-.04-.33-.04-.51zm-.03-.19c0 .03 0 .07.01.1-.01-.05-.01-.12-.01-.18zm-.03-5.83c-.01.1-.01.19-.01.29-.01.1-.01.19-.01.29l.04-.57h-.02zm-.04 4.67v.07c0-.02.01-.02.01-.02-.01-.01 0-.03 0-.03zm.02-3.89h-.01c-.03.64-.04 1.28-.04 1.92 0 .65.01 1.31.04 1.96v.01l-.03-1.97c0-.64.01-1.28.04-1.92zm.22-3.04s-.01.01 0 .03c0-.01.01-.01.01-.04zm-.06.48v.03c.01-.01.01-.03.01-.04zm-.01 8.69c0 .22.03.42.05.64.01.16.03.34.07.5l-.12-1.14zm.17 1.71c.01.08.03.18.04.27a.11.11 0 0 1 0-.08c-.02-.06-.02-.12-.04-.19zm.2 1.23-.14-.89c.01.12.03.25.04.38l.11.64c-.01-.03-.03-.08-.01-.13zm-.2-13.03c-.01.08-.03.16-.03.25-.01.01-.01.03-.01.05.04-.1.05-.22.05-.34-.01.01-.01.02-.01.04zm.48-2.99c0 .03-.01.07-.01.1.01-.03.01-.07.03-.1zm.45-2.01c-.04.14-.07.27-.1.41-.01.04-.03.1-.03.15.04-.19.1-.38.14-.56.15-.61.31-1.21.48-1.81-.18.59-.34 1.19-.49 1.81zm.59-2.16c-.01.05-.03.11-.04.16a.68.68 0 0 1 .07-.2c.01-.04.03-.08.03-.12-.04.06-.05.11-.06.16zm1.36-3.92c-.01.05-.04.11-.05.16 0-.01 0-.04.03-.05l.04-.11zm133.08 20.28c-.01-.03-.03-.07-.01-.1a3.73 3.73 0 0 0 .04.57c0 .01 0 .03.01.04-.01-.17-.04-.33-.04-.51zm-.02-.19a.34.34 0 0 0 .01.1c-.01-.05-.01-.12-.01-.18zm-.03-5.83c-.01.1-.01.19-.01.29-.01.1-.01.19-.01.29l.04-.57h-.02zm-.04 4.67v.07c0-.02.01-.02.01-.02-.01-.01 0-.03 0-.03zm.01-3.89h-.01c-.03.64-.04 1.28-.04 1.92 0 .65.01 1.31.04 1.96v.01l-.03-1.97c0-.64.02-1.28.04-1.92zm.22-3.04s-.01.01 0 .03c0-.01.01-.01.01-.04zm-.05.48v.03c.01-.01.01-.03.01-.04zm-.02 8.69c0 .22.03.42.05.64.01.16.03.34.07.5l-.12-1.14zm.18 1.71c.01.08.03.18.04.27a.11.11 0 0 1 0-.08c-.03-.06-.03-.12-.04-.19zm.19 1.23-.14-.89c.01.12.03.25.04.38l.11.64c-.01-.03-.02-.08-.01-.13zm-.19-13.03c-.01.08-.03.16-.03.25-.01.01-.01.03-.01.05.04-.1.05-.22.05-.34-.01.01-.01.02-.01.04zm.48-2.99c0 .03-.01.07-.01.1.01-.03.01-.07.03-.1zm.45-2.01c-.04.14-.07.27-.1.41-.01.04-.03.1-.03.15.04-.19.1-.38.14-.56.15-.61.31-1.21.48-1.81-.18.59-.34 1.19-.49 1.81zm.58-2.16c-.01.05-.03.11-.04.16a.68.68 0 0 1 .07-.2c.01-.04.03-.08.03-.12a.64.64 0 0 0-.06.16zm1.36-3.92c-.01.05-.04.11-.05.16 0-.01 0-.04.03-.05l.04-.11z"/><path fill="#875336" d="M260.62 392.63v41.63c8.6-.54 17.26-.84 25.9-.84h1.64c1.28-.04 6.85-.21 15.47-.22v-40.15l-21.28.58-.25-.01zm366.65 262.42h-50.41l-1.95-.42a182.815 182.815 0 0 1-19.07-5.34c-2.51-.86-5.04-1.78-7.6-2.78l-5.15-2.1c-5.41-2.3-10.5-4.82-15.27-7.5l-2.26-1.29c-.18-.1-.35-.19-.52-.3-.74-.42-1.46-.86-2.17-1.29-.89-.53-1.74-1.08-2.6-1.62a142.44 142.44 0 0 1-7.01-4.71c-.6-.42-1.19-.84-1.77-1.28-2.66-1.93-5.18-3.9-7.55-5.87a63.83 63.83 0 0 1-1.74-1.46c-4.2-3.57-7.97-7.14-11.33-10.58-.56-.56-1.09-1.12-1.61-1.68l-1.7-1.81-2.74-3.06a149.37 149.37 0 0 1-3.88-4.62l-1.17-1.46c-.11-.14-.22-.27-.31-.41l-1.84-2.38h.19a32.78 32.78 0 0 0 1.73-.04c.14 0 .27 0 .4-.01h.08c.15-.01.3-.01.45-.04.46-.03.91-.05 1.36-.1.04-.01.07-.01.1-.01.04 0 .07 0 .1-.01.25-.03.48-.04.71-.08.18-.01.34-.04.5-.07.29-.03.57-.07.86-.11.01 0 .03 0 .04-.01a4.69 4.69 0 0 0 .37-.05c.23-.04.45-.07.67-.12.68-.11 1.36-.26 2.03-.42.25-.04.5-.11.75-.18.05-.01.11-.03.16-.04a22.82 22.82 0 0 0 1.72-.48c.18-.05.37-.11.54-.16l1.47-.5c.04-.03.1-.04.14-.05.53-.19 1.04-.38 1.54-.61.03-.01.07-.03.1-.04.08-.03.16-.05.25-.1.52-.22 1.04-.44 1.54-.68.01-.01.03-.03.04-.03a3.14 3.14 0 0 0 .37-.18 1.28 1.28 0 0 0 .2-.11c.49-.22.97-.48 1.44-.74h.01c.56-.31 1.1-.63 1.65-.95.05-.04.12-.07.18-.11a28.16 28.16 0 0 0 1.47-.94c.07-.05.12-.1.19-.14a38.91 38.91 0 0 0 1.53-1.09c.57-.42 1.13-.87 1.69-1.33.4-.33.78-.65 1.16-.99.26-.23.5-.46.75-.69.14-.14.29-.27.42-.41.01-.01.03-.01.03-.03.23-.2.45-.44.67-.65.76-.78 1.48-1.58 2.18-2.4.2-.24.41-.49.6-.74.34-.41.65-.82.97-1.24.25-.33.49-.67.71-1.01.37-.52.72-1.03 1.04-1.55a.87.87 0 0 0 .16-.26c.12-.19.25-.38.35-.57a17.1 17.1 0 0 0 .34-.57c.07-.11.12-.22.18-.33a23.28 23.28 0 0 0 .65-1.19c.1-.19.19-.37.27-.56a12.66 12.66 0 0 0 .42-.82l.45-.99c.15-.3.29-.61.41-.91.12-.31.26-.63.37-.94l1.44 1.39.76.71 1.61 1.46c.27.26.56.5.84.75l.87.76 2.67 2.25 2.1 1.68 1.81 1.39.67.5a54.06 54.06 0 0 0 1.58 1.14l1.69 1.21c2.66 1.87 5.53 3.75 8.64 5.61l1.39.82a160.03 160.03 0 0 0 4.59 2.59l2.32 1.23 2.45 1.25 1.24.61c1.62.79 3.28 1.57 5.01 2.34l3.23 1.4c.03.01.04.01.07.03l3.83 1.55c.37.14.74.29 1.1.44l1.84.68 2.74.99 1.96.68a92.67 92.67 0 0 0 1.99.67c1.33.44 2.71.87 4.09 1.28l2.06.61 3.23.9 3.3.86c1.48.38 2.98.73 4.49 1.08a85.23 85.23 0 0 0 2.3.5c1.93.42 3.91.82 5.92 1.17l6.16 1.05 1.91.27 5.67.75 2.63.29 2.4.24 2.93.26h.01v.01c-.38 1.76-.69 3.54-.94 5.35-.2 1.58-.37 3.17-.46 4.79a11.21 11.21 0 0 0-.05.83c-.07 1.19-.1 2.38-.1 3.58a57.07 57.07 0 0 0 .03 1.85c0 .29.01.57.04.87-.01.05-.01.12 0 .18.01.45.04.91.07 1.36.04.83.11 1.66.19 2.49a77.69 77.69 0 0 0 .57 4.4c.35 2.18.8 4.33 1.36 6.44.39 1.5.83 2.98 1.32 4.44.44 1.28.9 2.53 1.39 3.77a59.61 59.61 0 0 0 1.72 3.92c.05.23.16.45.27.67z"/><path fill="#f3c33e" d="M85.74 164.31c20.53 12.36 34.79 39.15 34.79 70.15 0 25.3-9.5 47.81-24.15 61.95 29.45-7.09 51.4-33.63 51.4-65.22-.01-35.29-27.4-64.28-62.04-66.88zm442.9 83.8c0-26.39-13.91-48.63-32.77-54.34v108.7c18.87-5.71 32.77-27.97 32.77-54.36z"/><g fill="#875336"><circle cx="98.54" cy="508.82" r="27.63"/><path d="M86.05 548.12v.01h-.01l-1.77 2.63-1.69 2.68-4.56 8.24c-2.33 4.66-4.32 9.41-6.02 14.21-.68 1.91-1.31 3.83-1.91 5.76-.89 2.87-1.66 5.76-2.37 8.64l-.54 2.32c-.48 2.12-.91 4.25-1.32 6.35l-.45 2.59-.48 2.92a182.5 182.5 0 0 0-.76 5.52l-.35 3.08-.22 2.12c-.01.22-.03.42-.05.63l-.19 2.17-.16 2.19-.33 5.61-.08 2.26c0 .15 0 .3-.01.45l-.08 3.92c-.04 3.47.01 6.73.11 9.71l.05 1.44.15 3.21.1 1.61c.05.94.12 1.84.19 2.7v.01h-.27l-.72.01c-.44 0-.87 0-1.31.03-.12 0-.26 0-.41.01-.12 0-.25.01-.37.01-.11 0-.2 0-.31.01-.37.03-.74.04-1.12.07-.27.01-.53.03-.8.05-.6.05-1.21.11-1.81.18a46.38 46.38 0 0 0-2.33.3c-.64.1-1.31.2-1.96.33-.27.04-.54.1-.83.15-.33.05-.65.12-.99.2-.54.11-1.1.23-1.66.37-1.31.3-2.62.65-3.92 1.05-1.2.37-2.37.75-3.53 1.17H20.19c-.03-.14-.05-.27-.08-.41l-.35-2.15-.34-2.25c-.07-.45-.12-.9-.18-1.36a20.65 20.65 0 0 1-.1-.72l-.15-1.23-.16-1.47a67.71 67.71 0 0 1-.25-2.53l-.22-2.64c-.19-2.71-.31-5.58-.37-8.59l-.03-2.94c0-7.22.45-15.25 1.55-24.08l.3-2.17a91.46 91.46 0 0 1 1.06-5.87l.3-1.36a114.72 114.72 0 0 1 2.81-10.11l.71-2.11c0-.01.01-.03.01-.04.23-.7.48-1.38.74-2.06.23-.67.49-1.32.74-1.98 1.39-3.62 2.93-7.18 4.56-10.64l.79-1.62c.99-2.03 2.02-4.02 3.06-5.98l1.97-3.57 2.23-3.83c.31-.54.63-1.08.95-1.59l1.08-1.76 1.09-1.72.68-1.06 1.48-2.29 2.18-3.23 2.15-3.08c2.18-3.05 4.32-5.9 6.32-8.47.15-.18.29-.37.44-.55.16-.22.33-.42.46-.61.18-.22.34-.42.5-.63.11-.14.22-.26.31-.38.05-.07.11-.14.15-.2.15-.16.27-.33.41-.49l.49-.61c.07-.08.14-.16.19-.24l1.21-1.47 1.16-1.39c.27.72.57 1.44.9 2.15l.67 1.42a16.55 16.55 0 0 0 .53 1.02c.48.9.99 1.8 1.54 2.66a43.93 43.93 0 0 0 .89 1.33 56.78 56.78 0 0 0 1.62 2.21c.18.22.35.45.54.67.53.65 1.1 1.29 1.69 1.92.18.19.35.4.56.59.14.15.29.31.45.46.48.48.98.95 1.48 1.42a51.06 51.06 0 0 0 1.58 1.35 7.68 7.68 0 0 0 .63.5c.82.64 1.65 1.25 2.52 1.83.48.33.95.64 1.46.94.49.3.98.59 1.5.87a34.14 34.14 0 0 0 1.47.78c.57.3 1.17.57 1.77.84.46.2.93.41 1.4.59.2.1.41.16.61.25.45.18.9.34 1.35.49.01.01.03.01.03.01.26.09.54.18.82.26z"/></g><path fill="#fff" d="M235.89 208.54c0 24.05 18.54 43.54 41.41 43.54 13.63 0 25.72-6.92 33.26-17.61-7.4 7.3-17.35 11.77-28.3 11.77-22.87 0-41.41-19.49-41.41-43.54 0-9.72 3.03-18.69 8.15-25.93-8.07 7.94-13.11 19.24-13.11 31.77zm136.2 0c0 24.05 18.54 43.54 41.41 43.54 13.63 0 25.72-6.92 33.26-17.61-7.4 7.3-17.35 11.77-28.3 11.77-22.87 0-41.41-19.49-41.41-43.54 0-9.72 3.03-18.69 8.15-25.93-8.06 7.94-13.11 19.24-13.11 31.77zm98.36 316.68-.64 5 3.03-.19c15.24 0 27.64 12.39 27.64 27.62 0 5.43-1.6 10.48-4.31 14.76 5.67-5.06 9.27-12.41 9.27-20.6 0-15.23-12.4-27.62-27.64-27.62a27.87 27.87 0 0 0-7.35 1.03zM272.27 268.85l4.85 35c.1.72.7 1.28 1.43 1.33l150.02 9.56a1.53 1.53 0 0 0 1.62-1.33l.63-4.68-147.31-9.38c-.73-.05-1.33-.6-1.43-1.33l-4.25-30.62-3.93-.29c-.97-.08-1.77.77-1.63 1.74zm-54.81 304.87c2.4-2.21 4.51-4.87 6.27-7.93 4.82-8.42 6.36-18.75 4.32-29.09-2.04-10.33-7.39-19.3-15.05-25.26-5.7-4.43-12.15-6.74-18.61-6.74a26.98 26.98 0 0 0-5.21.51c-7.39 1.46-13.82 5.95-18.35 12.73 3.83-3.53 8.4-5.91 13.39-6.89a26.98 26.98 0 0 1 5.21-.51c6.45 0 12.91 2.31 18.61 6.74 7.66 5.96 13.01 14.93 15.05 25.26s.51 20.66-4.32 29.09a43.47 43.47 0 0 1-1.31 2.09zm86.17-140.52v-40.15l-21.28.58-.25-.01-21.47-1v6.07l16.51.77.25.01 21.28-.58v34.34l4.96-.03zM96.38 296.42l.51-.13 1.47-1.89-1.98 2.02zm306.69 333.7c-.23 1.4-.65 2.72-1.23 3.94a14.71 14.71 0 0 0 6.19-9.78l18.67-114.2c.69-4.19-.47-8.48-3.17-11.76a14.78 14.78 0 0 0-10.92-5.38l-113.69-3.71c-.16-.01-.32-.01-.48-.01-4.12 0-8.06 1.72-10.86 4.77a14.75 14.75 0 0 0-2.47 3.68 14.756 14.756 0 0 1 8.85-2.6l113.69 3.71a14.78 14.78 0 0 1 10.92 5.38c2.7 3.28 3.85 7.57 3.17 11.76z"/><path fill="#24242b" d="M477.81 593.08h-.19l3.87 4.91c10.33-2.21 19.23-8.3 25.11-16.67-7.44 7.26-17.59 11.76-28.79 11.76z"/><path fill="#fff" d="M523.68 253.95c0 14.95-4.46 28.57-11.76 38.61 10.19-10.21 16.72-26.35 16.72-44.44 0-26.39-13.91-48.63-32.77-54.34v7.77c16.29 7.8 27.81 28.38 27.81 52.4zM60.03 523.57l-4.88 6.03c4.5 11.55 14.06 20.59 25.94 24.37-22.64 32.49-24.23 74.71-23.12 97.34 1.79-.15 3.56-.22 5.31-.22-1.59-20.56-1.9-67.56 22.77-102.96-11.96-3.81-21.55-12.92-26.02-24.56zm567.24 131.48h-7.45a68.87 68.87 0 0 1-4.52-24.56c0-5 .53-9.87 1.54-14.57-56.08-4.64-88.72-27.5-104.16-42.1l-.01-.01a43.5 43.5 0 0 0 1.97-3.46 60.13 60.13 0 0 0 .87-1.81c.15-.3.29-.61.41-.91.12-.31.26-.63.37-.94l1.44 1.39.76.71 1.61 1.46c.27.26.56.5.84.75l.87.76 2.67 2.25 2.1 1.68 1.81 1.39.67.5a54.06 54.06 0 0 0 1.58 1.14l1.69 1.21c2.66 1.87 5.53 3.75 8.64 5.61l1.39.82a160.03 160.03 0 0 0 4.59 2.59l2.32 1.23 2.45 1.25 1.24.61c1.62.79 3.28 1.57 5.01 2.34l3.23 1.4c.03.01.04.01.07.03l3.83 1.55c.37.14.74.29 1.1.44l1.84.68 2.74.99 1.96.68a92.67 92.67 0 0 0 1.99.67c1.33.44 2.71.87 4.09 1.28l2.06.61 3.23.9 3.3.86c1.48.38 2.98.73 4.49 1.08a85.23 85.23 0 0 0 2.3.5c1.93.42 3.91.82 5.92 1.17l6.16 1.05 1.91.27 5.67.75 2.63.29 2.4.24 2.93.26h.01v.01c-.38 1.76-.69 3.54-.94 5.35-.2 1.58-.37 3.17-.46 4.79a11.21 11.21 0 0 0-.05.83c-.07 1.19-.1 2.38-.1 3.58a57.07 57.07 0 0 0 .03 1.85c0 .29.01.57.04.87-.01.05-.01.12 0 .18.01.45.04.91.07 1.36.04.83.11 1.66.19 2.49a77.69 77.69 0 0 0 .57 4.4c.35 2.18.8 4.33 1.36 6.44.39 1.5.83 2.98 1.32 4.44.44 1.28.9 2.53 1.39 3.77a59.61 59.61 0 0 0 1.72 3.92c.08.25.19.47.3.69zm21.15-67.98v1.01l-3.62 3.41c0-.01.01-.01.01-.03l.97-1.25 1.01-1.25 1.05-1.23.58-.66zm-522.25-78.25c0-15.24-12.39-27.63-27.63-27.63-9.81 0-18.42 5.15-23.32 12.88 4.89-4.36 11.31-7.04 18.36-7.04 15.24 0 27.63 12.39 27.63 27.63 0 5.43-1.6 10.48-4.31 14.75 5.67-5.06 9.27-12.41 9.27-20.59zm21.6-277.63c0-35.29-27.4-64.29-62.03-66.88 4.18 2.52 8.1 5.64 11.69 9.27 26.37 9.04 45.38 34.05 45.38 63.45 0 15.17-5.07 29.17-13.6 40.42 11.49-12.04 18.56-28.34 18.56-46.26z"/><path fill="#24242b" d="m69.08 311.07-3.61.53v5.48c3.38.43 6.81.67 10.25.67 25.99 0 49.13-12.36 63.9-31.49-14.74 15.77-35.7 25.65-58.94 25.65-3.91 0-7.8-.29-11.6-.84z"/><path fill="#fff" d="m462.79 468.04-.2 2.41-.07.71-.07.72-.1 1.14-.07.73-.3 3.23-.19 1.98-.26 2.71-.2 2.07-1.72 16.49-.5 4.49a.78.78 0 0 1-.03.22l-.48 4.24c-.01.08-.01.15-.03.23l-.31 2.72-.18 1.5-.18 1.51-.57 4.64a41.99 41.99 0 0 1-.19 1.57l-3.06 23.21-.49 3.46c-.01.03-.01.05-.01.07l-.56 3.79-1.44 9.57-.93 5.8-1.28 7.76-.67 3.88-2.97 16.21-.52 2.64-.71 3.51-.54 2.67-1.2 5.64-.46 2.1-.76 3.41-.44 1.89-1.12 4.74c-1.43 5.94-2.93 11.67-4.51 17.12l-.6 2.06c-.19.68-.39 1.36-.61 2.03l-.98 3.17c-.98 3.11-1.99 6.1-3.02 8.95h-2.96c19.27-58.17 28.79-161.05 30.52-181.17-65.42-24.37-173.21-21.04-174.32-21h-1.97c-62.2 0-126.56 16.13-150.79 22.9l-.49-4.29h.01c3.73-1.09 9.59-2.74 17.13-4.69l5.49-1.39 3.95-.97 2.06-.49c13.74-3.3 30.93-6.97 49.92-10.05l4.79-.76 3.85-.59c8.49-1.25 17.27-2.37 26.22-3.26l3.98-.38c6.54-.6 13.16-1.08 19.79-1.4l6.35-.26c4.24-.15 8.49-.22 12.71-.22l1.7.01h.14l.14-.01c1.1 0 108.9-3.34 174.31 21.03zM39.64 180.18l1.42-.01 1.06-1.09c4.18-1.68 8.59-2.6 13.16-2.6 25.73 0 46.66 28.63 46.66 63.82 0 17.73-5.32 33.8-13.89 45.37 11.43-11.64 18.85-30.26 18.85-51.21 0-35.19-20.93-63.82-46.66-63.82-4.57 0-8.98.92-13.16 2.6l-1.06 1.09-1.42.01c-6.49 3.17-12.32 8.27-17.13 14.77 3.68-3.75 7.77-6.78 12.17-8.93zm81.66-90.86c66.23-22.91 149.43-21.5 153.03-21.42 124.86 7.76 173.41 35.64 192.15 57.65 11.81 13.87 10.9 24.6 10.87 24.94l-.06.44v209.81c0 .06-.01.12-.01.18 1.67-.75 3.26-1.68 4.7-2.81.16-1.05.27-2.11.27-3.21V145.1l.06-.44c.03-.34.94-11.06-10.87-24.94-18.74-22.02-67.29-49.89-192.15-57.65-3.6-.08-86.8-1.49-153.03 21.42-23.87 8.26-38.43 20-47.31 31.66 9.06-9.65 22.47-18.95 42.35-25.83zm152.42-69.86c17.85 0 32.54 13.73 34.1 31.18l4.93.47c.1-1.08.17-2.17.17-3.25 0-18.88-15.36-34.24-34.24-34.24-11.83 0-22.28 6.03-28.43 15.18 6.13-5.79 14.39-9.34 23.47-9.34z"/><path fill="#24242b" d="M259.19 384.66c-.48 13.22-1.34 43.9 1.44 32.69 3.5-14.15 43-24.29 43-24.29l-1.26-8.39h-43.18z"/><circle cx="559.44" cy="624.65" r="4.03" fill="#512b18"/><circle cx="385.35" cy="529.41" r="4.03"/><circle cx="378.54" cy="601.56" r="4.03"/></svg>