<svg version="1.1" id="Layer_1" xmlns="http://www.w3.org/2000/svg" xmlns:xlink="http://www.w3.org/1999/xlink" x="0px" y="0px"
	 viewBox="0 0 216 216" style="enable-background:new 0 0 216 216;" xml:space="preserve">
<path d="M117.19,111.23c-1.86,0.71-3.88,1.3-6.03,1.79c-2,0.46-4.12,0.82-6.32,1.08c-2.44,0.3-4.99,0.48-7.6,0.52
	c-0.48,0.02-0.97,0.02-1.46,0.02c-4.45,0-8.74-0.37-12.67-1.08c-0.29-0.04-0.57-0.09-0.85-0.15c-4.3,0.83-9.04,1.28-13.87,1.28
	c-0.31,0-0.63,0-0.94-0.01c0.1,0.06,0.21,0.12,0.33,0.17c3.77,2,8.68,3.64,14.49,4.66c0.28,0.05,0.57,0.1,0.86,0.14
	c5.82-0.98,11.14-2.56,15.71-4.64v5.57c1.94-0.06,3.81-0.2,5.61-0.39c0.13-0.01,0.26-0.03,0.39-0.04c2.22-0.25,4.33-0.58,6.32-1
	c4.28-0.87,8.03-2.1,11.12-3.55C118.9,113.86,117.42,112.15,117.19,111.23z M132.15,57.39c-1.18-8.16-17.01-14.63-36.37-14.63
	c-19.36,0-35.19,6.47-36.37,14.63c-0.03-0.02-0.05-0.05-0.08-0.07v38.67c2.92-0.35,5.97-0.53,9.06-0.53c0.68,0,1.35,0.01,2.02,0.03
	c-3.34-1.2-4.8-2.42-5.08-2.98v-8.45c0.16,0.07,0.32,0.14,0.48,0.21c0.02,0.01,0.05,0.02,0.07,0.03c0.72,0.34,1.5,0.66,2.34,0.97
	c0.06,0.02,0.13,0.05,0.19,0.07c0.04,0.02,0.07,0.03,0.11,0.04c7.7,2.91,17.11,4.54,27.26,4.58c11.6,0,22.24-2.11,30.45-5.85v8.4
	c-0.6,1.2-6.56,5.36-24.66,6.11c-0.01,0-0.01,0-0.01,0c-1.81,0.07-3.73,0.11-5.78,0.11c-2.32,0-4.49-0.05-6.49-0.14
	c0.88,0.3,1.71,0.62,2.51,0.96c5.13,2.2,7.04,4.56,7.04,5.53c0,0.2-0.08,0.45-0.24,0.74c1.5-0.05,2.98-0.13,4.44-0.25
	c0.6-0.04,1.2-0.09,1.79-0.16h0.01c3.7-0.36,7.25-0.95,10.58-1.75c3.92-0.94,7.55-2.16,10.81-3.65v4.66c1.84-0.67,3.86-1.24,6-1.71
	V57.32C132.2,57.35,132.18,57.37,132.15,57.39z M72.37,52.85c6.06-2.6,14.6-4.09,23.41-4.09c8.81,0,17.35,1.49,23.41,4.09
	c5.13,2.19,7.04,4.55,7.04,5.52c0,0.97-1.91,3.33-7.04,5.53c-6.06,2.59-14.6,4.08-23.41,4.08c-8.81,0-17.35-1.49-23.41-4.08
	c-5.13-2.2-7.04-4.56-7.04-5.53C65.33,57.4,67.24,55.04,72.37,52.85z M95.78,82.93c-12.14,0-19.83-1.41-24.44-2.91
	c-0.16-0.04-0.31-0.1-0.47-0.16c-0.06-0.03-0.13-0.05-0.21-0.08c-0.47-0.18-0.93-0.36-1.38-0.55c-0.33-0.13-0.65-0.27-0.97-0.41
	c-0.07-0.03-0.13-0.05-0.19-0.08c-0.04-0.02-0.07-0.04-0.11-0.05c-0.03-0.01-0.05-0.02-0.08-0.04c-1.62-0.82-2.4-1.55-2.6-1.94
	v-8.45c8.21,3.73,18.85,5.85,30.45,5.89c11.6,0,22.24-2.1,30.45-5.85v8.41C125.57,78.03,118.43,82.93,95.78,82.93z"/>
<path d="M183.98,110c-1.19-8.17-17.02-14.63-36.37-14.63c-5.49,0-10.71,0.52-15.38,1.46c-7.19,1.43-13.1,3.84-16.81,6.83
	c-2.37,1.91-3.84,4.06-4.18,6.34c-0.03-0.02-0.05-0.05-0.08-0.07v47.71c0,7.52,14.66,15.61,36.45,15.61
	c21.8,0,36.45-8.09,36.45-15.61v-47.71C184.03,109.95,184.01,109.98,183.98,110z M178.06,157.63c-0.04,0.47-1.43,2.9-6.99,5.38
	c-6.12,2.74-14.45,4.24-23.46,4.24c-9,0-17.34-1.5-23.46-4.24c-5.56-2.48-6.95-4.91-6.99-5.37v-5.06c8.2,3.73,18.85,5.85,30.45,5.9
	c11.59,0,22.24-2.11,30.45-5.85V157.63z M178.06,145.13c-0.66,1.32-7.8,6.22-30.45,6.22c-22.65,0-29.79-4.9-30.45-6.22v-8.45
	c0.17,0.08,0.34,0.15,0.51,0.22c0.03,0.01,0.07,0.03,0.1,0.04c0.05,0.03,0.09,0.05,0.14,0.07c0.35,0.16,0.71,0.31,1.07,0.46
	c0.03,0.01,0.05,0.03,0.08,0.04c0.14,0.05,0.28,0.11,0.43,0.17c0.2,0.08,0.4,0.15,0.61,0.23c0.06,0.02,0.13,0.05,0.19,0.07
	c0.02,0.01,0.04,0.02,0.06,0.02c7.69,2.91,17.11,4.53,27.26,4.57c11.59,0,22.24-2.1,30.45-5.85V145.13z M178.06,129.33
	c-0.66,1.31-7.8,6.21-30.45,6.21c-12.27,0-19.99-1.44-24.59-2.96c-0.02-0.01-0.04-0.01-0.06-0.02c-0.05-0.02-0.1-0.03-0.14-0.05
	c-0.11-0.04-0.21-0.08-0.32-0.12c-0.86-0.32-1.69-0.66-2.48-1.01c-0.02-0.01-0.05-0.02-0.07-0.03c-0.01,0-0.02-0.01-0.02-0.01
	c-0.01,0-0.01-0.01-0.02-0.01c-1.72-0.84-2.54-1.59-2.75-2v-8.46c8.2,3.73,18.85,5.85,30.45,5.9c11.59,0,22.24-2.11,30.45-5.85
	V129.33z M171.02,116.51c-6.06,2.6-14.6,4.09-23.41,4.09s-17.35-1.49-23.41-4.09c-0.7-0.3-1.34-0.6-1.92-0.91
	c-3.38-1.74-4.86-3.45-5.09-4.37c-0.02-0.09-0.03-0.17-0.03-0.24c0-0.97,1.91-3.33,7.04-5.53c0.65-0.28,1.33-0.54,2.03-0.79
	c1.84-0.67,3.86-1.24,6-1.71c4.69-1.03,9.98-1.59,15.38-1.59c8.81,0,17.35,1.49,23.41,4.09c5.13,2.2,7.04,4.56,7.04,5.53
	C178.06,111.96,176.15,114.31,171.02,116.51z"/>
<path d="M104.76,104.09c-0.02-0.13-0.04-0.25-0.07-0.38c-0.02-0.13-0.05-0.25-0.08-0.38c-0.04-0.13-0.07-0.25-0.11-0.38
	c-0.04-0.12-0.09-0.25-0.13-0.37c-0.05-0.12-0.1-0.25-0.15-0.37c-0.06-0.12-0.11-0.24-0.17-0.37c-0.11-0.22-0.23-0.44-0.36-0.66
	c-0.02-0.02-0.03-0.04-0.04-0.06c-0.15-0.24-0.31-0.48-0.48-0.71c-0.1-0.13-0.2-0.26-0.3-0.4c-0.21-0.26-0.44-0.52-0.68-0.77
	c-0.12-0.13-0.24-0.25-0.37-0.38c-0.08-0.08-0.16-0.16-0.25-0.24c-0.01,0-0.01,0-0.01,0c-0.09-0.1-0.18-0.18-0.27-0.26
	c-0.24-0.22-0.49-0.44-0.76-0.65c-0.14-0.11-0.27-0.21-0.41-0.32c-0.14-0.1-0.28-0.21-0.43-0.31c-0.14-0.11-0.29-0.21-0.44-0.31
	c-0.3-0.2-0.61-0.41-0.93-0.6c-0.16-0.1-0.32-0.2-0.49-0.3c-0.17-0.1-0.34-0.19-0.51-0.29c-0.17-0.09-0.34-0.19-0.52-0.28
	c-0.17-0.1-0.35-0.19-0.53-0.28c-0.36-0.18-0.73-0.36-1.11-0.54c-0.57-0.27-1.16-0.52-1.78-0.77c-0.41-0.16-0.82-0.33-1.25-0.48
	c-0.4-0.15-0.8-0.29-1.22-0.43c-0.05-0.02-0.11-0.04-0.17-0.06c-0.35-0.12-0.7-0.23-1.06-0.34c-0.34-0.1-0.68-0.21-1.04-0.31
	c-0.4-0.12-0.81-0.23-1.23-0.34c-0.07-0.02-0.15-0.04-0.23-0.06c-0.3-0.08-0.6-0.15-0.91-0.22c-0.37-0.1-0.74-0.18-1.11-0.26
	c-0.46-0.11-0.93-0.21-1.4-0.29c-0.38-0.08-0.78-0.16-1.18-0.23c-0.51-0.1-1.03-0.18-1.55-0.26c-0.28-0.05-0.57-0.09-0.86-0.13
	c-0.42-0.07-0.84-0.13-1.27-0.18c-0.47-0.06-0.95-0.12-1.43-0.17c-0.57-0.06-1.15-0.12-1.73-0.17c-0.42-0.04-0.84-0.07-1.26-0.1
	c-1.98-0.15-4.01-0.22-6.09-0.22c-1.03,0-2.05,0.02-3.06,0.05c-1.02,0.04-2.03,0.09-3.03,0.17c-0.42,0.03-0.84,0.06-1.26,0.1
	c-0.57,0.05-1.15,0.11-1.71,0.17c-0.01,0-0.01,0-0.02,0c-0.48,0.05-0.96,0.11-1.43,0.17c-0.43,0.05-0.85,0.11-1.27,0.18
	c-0.29,0.04-0.58,0.08-0.86,0.13c-0.52,0.08-1.04,0.16-1.55,0.26c-0.4,0.07-0.8,0.15-1.18,0.23c-0.47,0.08-0.94,0.18-1.4,0.29
	c-0.37,0.08-0.74,0.16-1.11,0.26c-0.31,0.07-0.61,0.14-0.91,0.22c-0.08,0.02-0.16,0.04-0.23,0.06c-0.42,0.11-0.83,0.22-1.23,0.34
	c-0.36,0.1-0.7,0.21-1.04,0.31c-0.36,0.11-0.71,0.22-1.06,0.34c-0.06,0.02-0.12,0.04-0.17,0.06c-0.42,0.14-0.82,0.28-1.22,0.43
	c-0.43,0.15-0.84,0.32-1.25,0.48c-0.62,0.25-1.21,0.5-1.78,0.77c-0.38,0.18-0.75,0.36-1.11,0.54c-0.18,0.09-0.36,0.18-0.53,0.28
	c-0.18,0.09-0.35,0.19-0.52,0.28c-0.17,0.1-0.34,0.19-0.51,0.29s-0.33,0.2-0.49,0.3c-0.32,0.19-0.63,0.4-0.93,0.6
	c-0.15,0.1-0.3,0.2-0.44,0.31c-0.15,0.1-0.29,0.21-0.43,0.31c-0.14,0.11-0.27,0.21-0.41,0.32c-0.27,0.21-0.52,0.43-0.76,0.65
	c-0.19,0.17-0.36,0.33-0.53,0.5c-0.13,0.13-0.25,0.25-0.37,0.38c-0.24,0.25-0.47,0.51-0.68,0.77c-0.1,0.14-0.2,0.27-0.3,0.4
	c-0.17,0.23-0.33,0.47-0.48,0.71c-0.01,0.02-0.02,0.04-0.04,0.06c-0.13,0.22-0.25,0.44-0.36,0.66c-0.06,0.13-0.11,0.25-0.17,0.37
	c-0.05,0.12-0.1,0.25-0.15,0.37c-0.04,0.12-0.09,0.25-0.13,0.37c-0.04,0.13-0.07,0.25-0.11,0.38c-0.03,0.13-0.06,0.25-0.08,0.38
	c-0.03,0.13-0.05,0.25-0.07,0.38c-0.03-0.02-0.05-0.05-0.08-0.07v15.81v3.66v12.24v3.57v12.43c0,7.52,14.65,15.61,36.45,15.61
	c21.79,0,36.45-8.09,36.45-15.61V139.3v-3.57v-12.24v-3.66v-15.81C104.81,104.05,104.79,104.07,104.76,104.09z M37.94,130.77
	c0.16,0.07,0.32,0.14,0.48,0.21c0.81,0.38,1.7,0.75,2.65,1.09c0.02,0.01,0.04,0.01,0.06,0.02c7.69,2.91,17.11,4.54,27.26,4.57
	c11.59,0,22.24-2.1,30.45-5.85v8.41c-0.66,1.32-7.8,6.22-30.45,6.22c-22.65,0-29.79-4.9-30.45-6.22V130.77z M44.98,99.55
	c3.94-1.69,8.92-2.91,14.35-3.56c2.92-0.35,5.97-0.53,9.06-0.53c0.68,0,1.35,0.01,2.02,0.03c6.93,0.18,13.59,1.27,18.88,3.1
	c0.88,0.3,1.71,0.62,2.51,0.96c5.13,2.2,7.04,4.56,7.04,5.53c0,0.2-0.08,0.45-0.24,0.74c-0.66,1.17-2.7,3.02-6.8,4.78
	c-2.74,1.18-5.99,2.12-9.54,2.81c-4.3,0.83-9.04,1.28-13.87,1.28c-0.31,0-0.63,0-0.94-0.01c-8.48-0.1-16.63-1.57-22.47-4.08
	c-5.13-2.2-7.04-4.55-7.04-5.52C37.94,104.11,39.85,101.75,44.98,99.55z M37.94,123.42v-8.46c8.2,3.73,18.85,5.85,30.45,5.9
	c5.14,0,10.1-0.42,14.74-1.21c5.82-0.98,11.14-2.56,15.71-4.64v8.41c-0.66,1.31-7.8,6.21-30.45,6.21c-12.74,0-20.57-1.55-25.11-3.14
	c-0.73-0.27-1.43-0.56-2.12-0.85c-0.14-0.07-0.29-0.13-0.43-0.2C38.99,124.59,38.15,123.83,37.94,123.42z M98.84,151.72
	c-0.04,0.47-1.43,2.9-6.99,5.38c-6.12,2.74-14.46,4.24-23.46,4.24c-9.01,0-17.34-1.5-23.46-4.24c-5.56-2.48-6.95-4.91-6.99-5.37
	v-5.06c8.2,3.73,18.85,5.85,30.45,5.9c11.59,0,22.24-2.11,30.45-5.85V151.72z"/>
</svg>