<svg xmlns="http://www.w3.org/2000/svg" viewBox="15.5 15.5 224.5 224.5"><defs><radialGradient id="r" cx=".5" cy="0"><stop stop-color="#f06b59"/><stop offset="1" stop-color="#df2227"/></radialGradient><radialGradient id="g" cx=".65" cy=".3" r=".76"><stop offset=".65" stop-color="#4cb749"/><stop offset="1" stop-color="#388b41"/></radialGradient><radialGradient id="y" cx=".36" cy=".25" r=".8"><stop offset=".6" stop-color="#FCD209"/><stop offset=".7" stop-color="#f7c616"/><stop offset="1" stop-color="#bc821e"/></radialGradient><radialGradient id="cf" cx=".5" cy="0" r="1" spreadMethod="pad"><stop offset=".1" stop-color="#7FB3DF"/><stop offset=".9" stop-color="#0F5B94"/></radialGradient><radialGradient id="cb" cx=".5" cy="0" r="1"><stop offset="0" stop-color="#F6F0EE"/><stop offset="1" stop-color="#ddd"/></radialGradient></defs><path fill-opacity=".1" d="m198,148a70,70 0 0 0 -140,0l20,0a50,50 0 0 1 100,0"/><circle cx="127.5" cy="127.6" r="45" fill="url(#cf)" stroke="url(#cb)" stroke-width="9"/><path fill="url(#r)" d="m228,78a112,112 0 0 0 -193,-13l45,78a50,50 0 0 1 47,-65"/><path fill="url(#g)" d="m35,65a112,112 0 0 0 84,174l47,-80a50,50 0 0 1 -86,-16"/><path fill="url(#y)" d="m119,239a112,112 0 0 0 109,-161l-101,0a50,50 0 0 1 39,81"/><path d="m35,65l45,78a50,50 0 0 1 2,-34l-45,-47" opacity=".075"/><path d="m119,239l47,-80a50,50 0 0 1 -29,17l-20,63" opacity=".05"/><path d="m228,78l-101,0a50,50 0 0 1 39,19l64,-16" opacity=".05"/></svg>