<svg xmlns="http://www.w3.org/2000/svg" id="Layer_1" data-name="Layer 1" version="1.1" viewBox="0 0 191.78 163.91"><defs><style>.cls-1{fill:#010101;stroke-width:0}</style></defs><g><path d="M167.93,140.04c-1.19.13-1.53-.33-1.48-1.48.09-1.91.04-3.83.03-5.75,0-1.8-.47-2.72-1.72-3.09H28.02v-.07c-1.48.3-2.03,1.21-2.04,3.15,0,1.92-.06,3.84.03,5.75.05,1.15-.3,1.61-1.48,1.48-1.6-.18-3.07.07-3.79,1.8v11.8c.77,1.34,1.97,1.73,3.45,1.72,48.03-.02,96.05-.02,144.08,0,1.49,0,2.68-.38,3.45-1.72v-11.8c-.72-1.73-2.19-1.98-3.79-1.8ZM31.12,134.7c.74-.62,2.34-.22,3.56-.22,41.66,0,83.32,0,124.99,0,2.26,0,1.95-.22,1.96,1.96.01,3.6,0,3.6-3.58,3.6-20.63,0-41.27,0-61.9,0-21.22,0-42.45-.01-63.67.03-1.36,0-1.86-.36-1.68-1.71.17-1.25-.55-2.92.32-3.65ZM163.11,150.42h-66.91c-22.94,0-45.89-.02-68.83.03-1.44,0-1.8-.38-1.76-1.78.09-3.8.03-3.8,3.88-3.8,45.2,0,90.4.01,135.59-.03,1.48,0,1.79.44,1.76,1.82-.08,3.76-.02,3.76-3.73,3.76Z" class="cls-1"/><path d="M169.09,53.41c-23.56-13.46-47.13-26.92-70.68-40.41-1.54-.88-2.83-.88-4.37,0-23.55,13.5-47.11,26.95-70.68,40.41-.97.56-1.93,1.12-2.63,2.03v9.44c.82,1.61,2.24,1.94,3.86,1.75,1.09-.13,1.47.24,1.42,1.37-.09,2.06-.04,4.13-.02,6.19,0,.51.09.91.21,1.27h1.81v-.07h138.29c.08-.27.14-.56.15-.9.05-2.21.06-4.42,0-6.63-.03-.98.31-1.31,1.27-1.22,1.64.16,3.16-.05,4-1.75v-9.44c-.7-.91-1.66-1.47-2.63-2.03ZM157.85,72.2c-41.66,0-83.31,0-124.97,0-2.28,0-2.06.31-2.06-2.02q-.01-3.54,3.49-3.54h61.9c21.22,0,42.44.01,63.66-.03,1.38,0,1.85.29,1.81,1.75-.1,3.84-.03,3.84-3.82,3.84ZM166.74,61.4c-.22.38-.59.29-.91.3-1.18.02-2.36.02-3.54.02-22.01,0-44.03,0-66.04,0-22.85,0-45.7,0-68.55-.03-.67,0-1.67.56-2.02-.53-.51-1.56.03-3.42,1.06-4.01,14.06-8.04,28.13-16.07,42.19-24.11,8.69-4.97,17.39-9.93,26.07-14.93.86-.5,1.5-.55,2.4-.03,22.7,13.01,45.42,25.99,68.13,38.97,1.06.61,1.81,3.31,1.21,4.35Z" class="cls-1"/></g><path d="M146.26,127.74h-5.44c-1.48,0-2.68-1.66-2.68-3.71v-41.68c0-2.05,1.2-3.71,2.68-3.71h5.44c1.48,0,2.68,1.66,2.68,3.71v41.68c0,2.05-1.2,3.71-2.68,3.71ZM140.78,82.34v41.68l5.48-.04.04-41.65-5.48.04-.04-.04Z" class="cls-1"/><path d="M99.51,127.74h-5.44c-1.48,0-2.68-1.66-2.68-3.71v-41.68c0-2.05,1.2-3.71,2.68-3.71h5.44c1.48,0,2.68,1.66,2.68,3.71v41.68c0,2.05-1.2,3.71-2.68,3.71ZM94.03,82.34v41.68l5.48-.04.04-41.65-5.48.04-.04-.04Z" class="cls-1"/><path d="M81.09,127.74h-5.44c-1.48,0-2.68-1.66-2.68-3.71v-41.68c0-2.05,1.2-3.71,2.68-3.71h5.44c1.48,0,2.68,1.66,2.68,3.71v41.68c0,2.05-1.2,3.71-2.68,3.71ZM75.61,82.34v41.68l5.48-.04.04-41.65-5.48.04-.04-.04Z" class="cls-1"/><path d="M48.66,127.74h-5.44c-1.48,0-2.68-1.66-2.68-3.71v-41.68c0-2.05,1.2-3.71,2.68-3.71h5.44c1.48,0,2.68,1.66,2.68,3.71v41.68c0,2.05-1.2,3.71-2.68,3.71ZM43.18,82.34v41.68l5.48-.04.04-41.65-5.48.04-.04-.04Z" class="cls-1"/><rect width="7.57" height="49" x="155.43" y="78.02" class="cls-1"/><rect width="7.57" height="49" x="123.88" y="78.02" class="cls-1"/><rect width="7.57" height="49" x="108.87" y="78.02" class="cls-1"/><rect width="7.57" height="49" x="58.92" y="78.02" class="cls-1"/><rect width="7.57" height="49" x="28.06" y="78.02" class="cls-1"/></svg>