<svg xmlns="http://www.w3.org/2000/svg" version="1.1" viewBox="0 0 660 300"><defs><style>.cls-1{fill:#000;stroke-width:0}</style></defs><g id="Layer_2" data-name="Layer 2"><g><rect width="7.41" height="26.68" x="157.52" y="266.32" class="cls-1"/><rect width="7.41" height="26.68" x="82.1" y="266.32" class="cls-1"/><rect width="7.41" height="26.68" x="100.95" y="266.32" class="cls-1"/><rect width="7.41" height="26.68" x="119.81" y="266.32" class="cls-1"/><rect width="7.41" height="26.68" x="138.66" y="266.32" class="cls-1"/></g><g><g><path d="M76.4,223.31c0-3.13.57-6.23,1.7-9.29,1.13-3.06,2.78-5.79,4.95-8.2,2.17-2.41,4.82-4.36,7.95-5.85,3.13-1.49,6.7-2.24,10.7-2.24,4.72,0,8.8,1.04,12.25,3.11,3.44,2.07,6.01,4.77,7.7,8.09l-7.66,5.28c-.68-1.45-1.49-2.66-2.46-3.65-.96-.99-2-1.77-3.11-2.35-1.11-.58-2.27-1-3.47-1.26-1.21-.26-2.39-.4-3.54-.4-2.51,0-4.69.51-6.54,1.52-1.86,1.01-3.4,2.33-4.63,3.94-1.23,1.62-2.16,3.45-2.78,5.49-.63,2.05-.94,4.08-.94,6.11,0,2.27.36,4.44,1.08,6.54.72,2.1,1.75,3.94,3.07,5.53,1.32,1.59,2.91,2.87,4.77,3.83,1.85.96,3.89,1.45,6.11,1.45,1.16,0,2.36-.14,3.61-.43,1.25-.29,2.44-.75,3.58-1.37,1.13-.63,2.18-1.43,3.14-2.42.96-.99,1.73-2.18,2.31-3.58l8.17,4.7c-.82,1.93-1.99,3.63-3.51,5.1-1.52,1.47-3.23,2.71-5.13,3.72-1.9,1.01-3.94,1.78-6.11,2.31-2.17.53-4.29.8-6.36.8-3.66,0-7.01-.77-10.05-2.31-3.04-1.54-5.65-3.55-7.84-6.03-2.19-2.48-3.9-5.3-5.13-8.46-1.23-3.16-1.84-6.37-1.84-9.65Z" class="cls-1"/><path d="M150.98,249.69c-3.76,0-7.17-.73-10.23-2.2-3.06-1.47-5.69-3.42-7.88-5.85-2.19-2.43-3.89-5.22-5.1-8.35-1.21-3.13-1.81-6.33-1.81-9.61s.64-6.7,1.92-9.83c1.28-3.13,3.04-5.9,5.28-8.31,2.24-2.41,4.9-4.32,7.99-5.75,3.08-1.42,6.43-2.13,10.05-2.13s7.09.76,10.15,2.28c3.06,1.52,5.67,3.51,7.84,5.96,2.17,2.46,3.85,5.25,5.06,8.38,1.2,3.13,1.81,6.31,1.81,9.54,0,3.42-.63,6.69-1.88,9.79-1.25,3.11-2.99,5.85-5.2,8.24-2.22,2.38-4.87,4.29-7.95,5.71-3.08,1.42-6.43,2.13-10.05,2.13ZM136.1,223.67c0,2.22.34,4.36,1.01,6.43.67,2.07,1.65,3.9,2.93,5.49,1.28,1.59,2.84,2.87,4.7,3.83,1.85.96,3.96,1.45,6.32,1.45s4.54-.49,6.4-1.48c1.85-.99,3.42-2.3,4.7-3.94,1.28-1.64,2.24-3.48,2.89-5.53.65-2.05.98-4.13.98-6.25s-.35-4.36-1.05-6.43c-.7-2.07-1.69-3.9-2.96-5.49-1.28-1.59-2.84-2.85-4.7-3.79-1.86-.94-3.94-1.41-6.25-1.41s-4.55.49-6.43,1.48c-1.88.99-3.45,2.29-4.7,3.9-1.25,1.62-2.2,3.45-2.85,5.49-.65,2.05-.98,4.13-.98,6.25Z" class="cls-1"/><path d="M205.4,240.87c2.36,0,4.35-.48,5.96-1.45,1.61-.96,2.91-2.22,3.9-3.76.99-1.54,1.69-3.31,2.1-5.31.41-2,.61-4.06.61-6.18v-26.16h9.9v26.16c0,3.52-.42,6.82-1.26,9.9-.84,3.08-2.17,5.78-3.97,8.09s-4.13,4.14-6.97,5.49c-2.84,1.35-6.24,2.02-10.19,2.02s-7.58-.71-10.44-2.13c-2.87-1.42-5.19-3.3-6.97-5.64-1.78-2.34-3.07-5.05-3.87-8.13-.79-3.08-1.19-6.29-1.19-9.61v-26.16h9.97v26.16c0,2.17.2,4.25.61,6.25.41,2,1.11,3.77,2.1,5.31.99,1.54,2.28,2.78,3.87,3.72s3.54,1.41,5.85,1.41Z" class="cls-1"/><path d="M237.93,249.33v-51.31h22.69c2.36,0,4.54.49,6.54,1.48,2,.99,3.72,2.29,5.17,3.9,1.45,1.62,2.58,3.45,3.4,5.49.82,2.05,1.23,4.11,1.23,6.18,0,3.32-.83,6.35-2.49,9.07-1.66,2.72-3.92,4.69-6.76,5.89l11.71,19.3h-11.2l-10.48-17.2h-9.83v17.2h-9.97ZM247.9,223.38h12.5c.91,0,1.77-.22,2.57-.65.79-.43,1.48-1.02,2.06-1.77.58-.75,1.04-1.63,1.37-2.64.34-1.01.51-2.1.51-3.25s-.19-2.31-.58-3.33c-.39-1.01-.9-1.89-1.55-2.64-.65-.75-1.4-1.32-2.24-1.73-.84-.41-1.7-.61-2.57-.61h-12.07v16.62Z" class="cls-1"/></g><path d="M323.06,206.76h-16.41v42.57h-9.9v-42.57h-16.41v-8.74h42.71v8.74Z" class="cls-1"/><g><path d="M342.21,249.33v-51.31h5.06v46.83h29.63v4.48h-34.69Z" class="cls-1"/><path d="M380.74,249.33v-51.31h5.06v51.31h-5.06Z" class="cls-1"/><path d="M425.04,207.63c-1.45-1.64-3.37-2.96-5.78-3.97-2.41-1.01-5.16-1.52-8.24-1.52-4.53,0-7.83.86-9.9,2.57-2.07,1.71-3.11,4.04-3.11,6.97,0,1.54.28,2.81.83,3.79.55.99,1.41,1.84,2.57,2.57,1.16.72,2.64,1.35,4.44,1.88,1.81.53,3.94,1.06,6.4,1.59,2.75.58,5.22,1.23,7.41,1.95,2.19.72,4.06,1.63,5.6,2.71,1.54,1.08,2.72,2.4,3.54,3.94.82,1.54,1.23,3.47,1.23,5.78s-.46,4.41-1.37,6.14c-.92,1.73-2.19,3.18-3.83,4.34-1.64,1.16-3.59,2.01-5.85,2.57-2.27.55-4.75.83-7.44.83-7.95,0-14.82-2.48-20.6-7.44l2.53-4.12c.91.96,2.01,1.88,3.29,2.75,1.28.87,2.7,1.63,4.26,2.28,1.57.65,3.24,1.16,5.02,1.52,1.78.36,3.66.54,5.64.54,4.09,0,7.29-.73,9.58-2.2,2.29-1.47,3.43-3.7,3.43-6.69,0-1.59-.33-2.93-.98-4.01-.65-1.08-1.63-2.02-2.93-2.82-1.3-.8-2.92-1.48-4.84-2.06-1.93-.58-4.17-1.16-6.72-1.73-2.7-.63-5.06-1.28-7.08-1.95-2.02-.67-3.73-1.52-5.13-2.53-1.4-1.01-2.45-2.23-3.14-3.65-.7-1.42-1.05-3.17-1.05-5.24,0-2.36.44-4.47,1.34-6.32.89-1.85,2.16-3.4,3.79-4.63,1.64-1.23,3.56-2.17,5.78-2.82,2.22-.65,4.67-.98,7.37-.98,3.42,0,6.47.52,9.14,1.55,2.67,1.04,5.1,2.49,7.26,4.37l-2.46,4.05Z" class="cls-1"/><path d="M471.72,202.5h-18.29v46.83h-5.06v-46.83h-18.28v-4.48h41.63v4.48Z" class="cls-1"/><path d="M510.25,244.85v4.48h-34.47v-51.31h33.82v4.48h-28.76v18.5h25.08v4.26h-25.08v19.59h29.41Z" class="cls-1"/><path d="M521.23,207.41v41.92h-5.06v-51.31h3.9l33.97,42.71v-42.64h5.06v51.24h-4.41l-33.46-41.92Z" class="cls-1"/><path d="M602.82,244.85v4.48h-34.47v-51.31h33.82v4.48h-28.76v18.5h25.08v4.26h-25.08v19.59h29.41Z" class="cls-1"/><path d="M608.75,249.33v-51.31h21.68c2.22,0,4.25.47,6.11,1.41,1.85.94,3.46,2.17,4.81,3.69,1.35,1.52,2.4,3.24,3.14,5.17.75,1.93,1.12,3.88,1.12,5.85s-.28,3.67-.83,5.38c-.55,1.71-1.33,3.25-2.31,4.63-.99,1.37-2.18,2.53-3.58,3.47-1.4.94-2.96,1.58-4.7,1.92l12.58,19.8h-5.71l-12.07-18.94h-15.18v18.94h-5.06ZM613.81,225.91h16.77c1.49,0,2.85-.33,4.08-.98,1.23-.65,2.28-1.53,3.14-2.64.87-1.11,1.54-2.36,2.02-3.76.48-1.4.72-2.87.72-4.41s-.28-3.02-.83-4.45c-.55-1.42-1.3-2.66-2.24-3.72-.94-1.06-2.05-1.9-3.32-2.53-1.28-.63-2.61-.94-4.01-.94h-16.33v23.42Z" class="cls-1"/></g></g><g><path d="M206.01,285.31c0,1.01-.2,1.94-.61,2.79-.4.85-.95,1.58-1.63,2.2-.68.62-1.48,1.1-2.39,1.44s-1.88.51-2.92.51h-12.7v-26.91h12.96c.93,0,1.78.2,2.54.61.76.4,1.4.93,1.93,1.57.53.64.94,1.38,1.23,2.2.29.82.44,1.65.44,2.48,0,1.36-.34,2.61-1.02,3.73-.68,1.12-1.63,1.96-2.84,2.52,1.54.45,2.76,1.3,3.66,2.54.9,1.24,1.35,2.68,1.35,4.32ZM188.43,267.65v9.93h9.25c.66,0,1.27-.14,1.84-.42.57-.28,1.05-.64,1.46-1.1.4-.45.72-.98.95-1.57.23-.59.34-1.22.34-1.88s-.11-1.33-.32-1.93c-.21-.61-.52-1.13-.91-1.57-.39-.44-.85-.8-1.38-1.06-.53-.27-1.11-.4-1.74-.4h-9.48ZM203.36,284.85c0-.66-.11-1.29-.34-1.91-.23-.62-.55-1.16-.97-1.63-.42-.47-.91-.85-1.48-1.14-.57-.29-1.18-.44-1.84-.44h-10.31v10.2h10.04c.68,0,1.32-.14,1.91-.42.59-.28,1.11-.65,1.55-1.12.44-.47.79-1.01,1.04-1.63.25-.62.38-1.26.38-1.91Z" class="cls-1"/><path d="M212.72,265.34l8.79,14.48,8.87-14.48h2.88l-10.42,16.9v10.01h-2.65v-10.08l-10.38-16.83h2.92Z" class="cls-1"/></g><g><path d="M250.92,292.25v-26.91h17.66v2.35h-15.01v9.89h12.66v2.2h-12.66v12.47h-2.65Z" class="cls-1"/><path d="M275.9,292.25v-26.91h11.37c1.16,0,2.23.25,3.2.74.97.49,1.81,1.14,2.52,1.93.71.8,1.26,1.7,1.65,2.71.39,1.01.59,2.03.59,3.07s-.15,1.93-.44,2.82c-.29.9-.7,1.71-1.21,2.43-.52.72-1.14,1.33-1.88,1.82-.73.49-1.55.83-2.46,1l6.59,10.39h-2.99l-6.33-9.93h-7.96v9.93h-2.65ZM278.55,279.97h8.79c.78,0,1.5-.17,2.14-.51s1.19-.8,1.65-1.38c.45-.58.81-1.24,1.06-1.97.25-.73.38-1.5.38-2.31s-.15-1.59-.44-2.33c-.29-.75-.68-1.4-1.17-1.95-.49-.56-1.07-1-1.74-1.33-.67-.33-1.37-.49-2.1-.49h-8.57v12.28Z" class="cls-1"/><path d="M321.38,289.9v2.35h-18.08v-26.91h17.74v2.35h-15.08v9.7h13.15v2.24h-13.15v10.27h15.43Z" class="cls-1"/><path d="M347.11,289.9v2.35h-18.08v-26.91h17.74v2.35h-15.08v9.7h13.15v2.24h-13.15v10.27h15.43Z" class="cls-1"/></g><path d="M356.66,292.66c-.68,0-1.26-.22-1.75-.65-.49-.44-.74-1.05-.74-1.83,0-.66.23-1.24.7-1.72.47-.48,1.05-.72,1.73-.72s1.27.24,1.76.71c.48.47.73,1.05.73,1.72,0,.77-.24,1.38-.73,1.82-.48.44-1.05.66-1.71.66Z" class="cls-1"/><g><path d="M365.25,292.25v-26.91h2.65v24.56h15.54v2.35h-18.19Z" class="cls-1"/><path d="M398.34,265.34h2.24l11.18,26.91h-2.8l-3.49-8.41h-12.09l-3.45,8.41h-2.84l11.26-26.91ZM404.85,281.75l-5.42-13.3-5.5,13.3h10.92Z" class="cls-1"/></g><path d="M421.15,265.53h2.5l3.79,9.55,3.83-9.55h2.54l-4.7,11.48,5.15,12.17,9.74-23.84h2.88l-11.41,26.91h-2.35l-5.65-13.3-5.69,13.3h-2.31l-11.37-26.91h2.84l9.78,23.84,5.12-12.17-4.7-11.48Z" class="cls-1"/><path d="M121.57,7.25c-3.35.78-6.05,3.49-6.81,6.84-1.03,4.56,1.38,8.71,5.16,10.45v156.84h7.68V24.54c3.19-1.44,5.41-4.63,5.41-8.35,0-5.77-5.39-10.33-11.44-8.94Z" class="cls-1"/></g><g id="Layer_3" data-name="Layer 3"><g><path d="M221.44,145.29h-47.72v3.94c.02,4.77,2.92,7.69,7.67,7.69,10.39-.02,20.77-.05,31.18-.07.94-.02,1.93-.05,2.86-.3,5.73-1.52,6.79-6.26,6.01-11.26Z" class="cls-1"/><path d="M231.69,86.77c-1.73-1.75-3.87-2.63-6.43-2.63-2.76,0-5.02.85-6.77,2.58-.85.83-1.5,1.8-1.91,2.88h-57.66v92.53h7.48s0-85.05,0-85.05h28.97c0,3.34,0,6.68-.05,10.02-.02.64-.12,1.34-.32,1.93-3.43,9.7-6.89,19.37-10.27,29.04-.3.85-.67,1.13-1.52,1.11-2.99-.05-5.96,0-8.94.02-.99,0-1.38.39-1.38,1.27s.44,1.29,1.5,1.27c2.86,0,5.69-.07,8.54-.09,12.9-.05,25.79-.12,38.71-.16,1.17,0,1.73-.44,1.7-1.29s-.51-1.22-1.66-1.22c-2.46,0-4.91,0-7.35.05-.71.02-1.04-.21-1.31-.88-4.1-9.67-8.2-19.32-12.3-28.99-.14-.3-.21-.62-.21-.94v-11.12h16.07c.39.94.97,1.84,1.7,2.69,1.64,1.84,3.91,2.79,6.86,2.79,2.6,0,4.79-.88,6.52-2.65,1.73-1.75,2.6-3.94,2.6-6.61s-.88-4.77-2.6-6.54ZM208.61,138.98h-19.55c2.92-8.24,5.85-16.51,8.77-24.76h.25c3.5,8.2,6.98,16.4,10.52,24.76ZM227.89,96.47c-.78.88-1.7,1.31-2.76,1.31s-2.05-.44-2.83-1.34c-.78-.9-1.17-1.98-1.17-3.25,0-1.17.41-2.16,1.2-2.99.78-.85,1.73-1.27,2.81-1.27s1.98.46,2.76,1.34c.78.9,1.17,1.93,1.17,3.13s-.39,2.19-1.17,3.06Z" class="cls-1"/><path d="M75.41,165.88H27.7c0,1.43-.02,2.67,0,3.91,0,4.77,2.92,7.69,7.65,7.69,10.39-.02,20.8-.05,31.18-.07.94,0,1.93-.05,2.86-.3,5.73-1.52,6.79-6.26,6.03-11.24Z" class="cls-1"/><path d="M31.13,110.35c-.44-1.22-1.13-2.33-2.07-3.29-1.75-1.75-3.89-2.63-6.45-2.63-2.74,0-5,.85-6.75,2.58s-2.63,3.96-2.63,6.68c0,2.39.81,4.51,2.44,6.38,1.64,1.84,3.91,2.79,6.86,2.79,2.6,0,4.77-.88,6.52-2.63.71-.74,1.27-1.52,1.7-2.4h18.56c0,3.27,0,6.56-.05,9.83,0,.64-.12,1.34-.32,1.93-3.41,9.7-6.86,19.34-10.27,29.04-.3.85-.64,1.11-1.52,1.11-2.97-.05-5.96,0-8.94.02-.97,0-1.38.39-1.38,1.27.02.88.46,1.27,1.52,1.27,2.83-.02,5.69-.07,8.52-.09,12.9-.07,25.82-.12,38.71-.16,1.2-.02,1.73-.44,1.7-1.31,0-.83-.48-1.2-1.66-1.2-2.44,0-4.91-.02-7.35.05-.69,0-1.04-.21-1.31-.88-4.08-9.67-8.2-19.32-12.3-28.99-.12-.3-.21-.64-.21-.97,0-3.62,0-7.28.02-10.92h28.92v64.3h7.48s0-71.78,0-71.78H31.13ZM25.26,116.76c-.81.88-1.7,1.31-2.76,1.31s-2.05-.44-2.83-1.34c-.78-.9-1.17-1.98-1.17-3.25,0-1.15.39-2.16,1.2-2.99.78-.83,1.73-1.27,2.81-1.27s1.96.46,2.76,1.34c.78.9,1.17,1.93,1.17,3.13s-.39,2.21-1.17,3.06ZM62.59,159.54h-19.55c2.92-8.24,5.85-16.51,8.77-24.76.07,0,.16,0,.25-.02,3.48,8.2,6.95,16.42,10.52,24.78Z" class="cls-1"/><path d="M112.63,33.53c-1.73-1.75-3.87-2.63-6.43-2.63-2.74,0-5,.85-6.75,2.58-1.77,1.73-2.65,3.96-2.65,6.68,0,2.39.83,4.51,2.46,6.38.83.94,1.84,1.66,3.02,2.1v133.5h7.48V48.64c1.06-.44,2-1.08,2.86-1.96,1.75-1.75,2.6-3.94,2.6-6.61s-.85-4.77-2.6-6.54ZM108.83,43.22c-.78.88-1.7,1.31-2.74,1.31-1.11,0-2.05-.44-2.83-1.34-.78-.9-1.17-1.98-1.17-3.25,0-1.17.39-2.16,1.17-2.99.78-.85,1.73-1.27,2.83-1.27,1.04,0,1.96.46,2.74,1.34.81.9,1.2,1.93,1.2,3.13s-.39,2.19-1.2,3.06Z" class="cls-1"/><path d="M150.53,55.04c-1.73-1.75-3.89-2.65-6.45-2.65-2.74,0-5,.88-6.75,2.6-1.75,1.73-2.63,3.94-2.63,6.68,0,2.39.81,4.51,2.44,6.38.83.94,1.84,1.64,3.02,2.1v111.99h7.48v-111.99c1.06-.44,2.03-1.11,2.88-1.96,1.73-1.75,2.6-3.96,2.6-6.61s-.88-4.79-2.6-6.54ZM146.73,64.73c-.78.88-1.7,1.31-2.76,1.31s-2.05-.46-2.83-1.34c-.78-.9-1.17-1.98-1.17-3.25,0-1.17.39-2.16,1.2-2.99.78-.85,1.73-1.27,2.81-1.27s1.98.44,2.76,1.34c.78.9,1.17,1.93,1.17,3.13s-.39,2.19-1.17,3.06Z" class="cls-1"/></g></g></svg>