<?xml version="1.0" encoding="UTF-8" standalone="no"?>
<svg version="1.1"
     width="70"
     height="40"
     xmlns="http://www.w3.org/2000/svg">
  <g>
    <path fill="#AE0B0B"
          d="m 22.75,1.1875 c -5.702744,0 -10.8018,1.5346135 -14.8046875,4.6601562 -4.1673901,3.2352102 -6.9101561,8.4446668 -6.9101563,14.5312498 0,7.073596 3.4003829,12.064204 7.7871094,15.080078 4.0028874,2.68687 8.7192294,3.673829 13.6542964,3.673828 3.509382,0 7.45576,-0.823046 8.66211,-1.261718 0.603175,-0.219337 1.261913,-0.43916 1.919922,-0.548828 0.822511,-1.041848 2.248974,-4.660347 2.632812,-7.511719 -0.219336,-0.383839 -2.326346,-0.492921 -2.710185,-0.21875 -1.261184,3.235211 -3.102938,5.839844 -10.176533,5.839844 -8.992789,0 -14.2851568,-4.359844 -14.2851568,-15.875 0,-11.3506551 5.1279638,-14.6699223 13.5175778,-14.6699222 7.950941,0 9.13332,2.2771421 9.955831,6.0058592 0.383838,0.329005 2.490703,0.274464 2.764872,-0.109375 C 34.31914,7.4383244 34.045068,3.9838401 33.990234,2.7226562 33.496728,2.7774904 33.113087,2.6684086 32.455078,2.5039062 29.877876,1.7910633 25.71104,1.1875 22.75,1.1875 Z"
    />
    <path fill="#000099"
          d="M 39.172074,2.3904377 C 38.843069,2.55494 38.731741,4.7508792 39.060746,4.9702155 l 1.371094,0.109375 c 3.454545,0.2741704 3.564453,0.050711 3.564453,5.8082885 v 19.849005 c 0,5.757578 -0.108688,5.45249 -3.289062,5.781495 l -1.646485,0.164062 c -0.329005,0.329005 -0.217677,2.367582 0.111328,2.532084 3.07071,-0.109668 6.35194,-0.251079 8.654969,-0.251079 h 4.82699 c 5.647909,0 10.857758,0.141406 13.654297,0.251079 0.767676,-1.48052 2.302735,-7.07456 2.302735,-7.677734 0,-0.383839 -2.214,-0.614895 -2.532084,-0.328126 -0.703785,2.023024 -2.129562,2.769726 -3.226244,3.427735 -0.877346,0.493507 -2.75915,0.760658 -5.92136,0.712891 -4.090751,-0.06179 -5.373387,-0.743607 -5.976562,-1.346782 -0.987012,-1.041848 -1.152344,-1.564624 -1.152344,-3.923828 V 10.887879 c 0,-5.7575775 0.110493,-5.5341181 3.345703,-5.8082885 L 54.46458,4.9702155 C 54.793586,4.7508792 54.684211,2.55494 54.355205,2.3904377 c -2.741699,0.1096682 -4.389634,0.2728326 -6.528162,0.2728326 -2.193364,0 -5.584259,-0.1631641 -8.654969,-0.2728326 z"
    />
  </g>
</svg>
