<svg version="1.1" id="Layer_1" xmlns="http://www.w3.org/2000/svg" xmlns:xlink="http://www.w3.org/1999/xlink" x="0px" y="0px"
	 viewBox="0 0 216 216" style="enable-background:new 0 0 216 216;" xml:space="preserve">
<path d="M144.7,57.34c0-0.1,0-0.2-0.02-0.29c0-0.11-0.01-0.22-0.03-0.32c-0.01-0.12-0.03-0.24-0.05-0.37
	c-0.01-0.08-0.03-0.15-0.04-0.23c-0.03-0.15-0.06-0.29-0.1-0.44c-0.01-0.03-0.02-0.06-0.02-0.08c0-0.01-0.01-0.03-0.01-0.04
	c-0.06-0.22-0.12-0.42-0.2-0.63c0-0.01-0.01-0.03-0.01-0.04c-0.08-0.22-0.16-0.43-0.25-0.64c-0.01-0.01-0.02-0.02-0.02-0.03
	c-0.1-0.23-0.21-0.45-0.33-0.67c-0.08-0.14-0.16-0.29-0.25-0.43c-0.07-0.13-0.15-0.25-0.23-0.38c-0.02-0.03-0.03-0.05-0.05-0.08
	c-0.09-0.13-0.19-0.27-0.29-0.41c-0.1-0.14-0.21-0.28-0.32-0.42c-0.11-0.14-0.23-0.28-0.35-0.42c-0.04-0.05-0.08-0.1-0.13-0.15
	c-0.12-0.14-0.24-0.28-0.37-0.41c-0.21-0.23-0.44-0.45-0.67-0.67c-0.12-0.12-0.25-0.24-0.38-0.35c-0.02-0.01-0.03-0.03-0.05-0.05
	c-0.25-0.22-0.51-0.44-0.78-0.66c-0.29-0.24-0.6-0.47-0.91-0.7c-0.14-0.1-0.29-0.2-0.44-0.3c-0.16-0.11-0.31-0.22-0.48-0.32
	c-0.15-0.11-0.3-0.21-0.46-0.3c-0.19-0.12-0.38-0.24-0.58-0.36l-0.6-0.36c-0.2-0.11-0.41-0.23-0.62-0.34
	c-0.21-0.12-0.42-0.23-0.64-0.34c-0.43-0.23-0.87-0.45-1.33-0.66c-0.23-0.11-0.46-0.21-0.7-0.32c-0.23-0.11-0.47-0.21-0.71-0.31
	c-0.48-0.21-0.97-0.41-1.47-0.6c-0.38-0.15-0.76-0.29-1.15-0.43c-0.3-0.11-0.61-0.22-0.93-0.33c-0.18-0.07-0.38-0.13-0.57-0.19
	c-0.3-0.1-0.6-0.2-0.9-0.29c-0.42-0.13-0.83-0.26-1.26-0.38c-0.32-0.1-0.63-0.19-0.96-0.27c-0.06-0.02-0.11-0.03-0.17-0.04
	c-0.24-0.08-0.49-0.14-0.73-0.2c-1.16-0.3-2.36-0.58-3.59-0.83c-0.46-0.1-0.93-0.19-1.4-0.27c-0.47-0.09-0.95-0.17-1.43-0.25
	c-0.48-0.08-0.96-0.16-1.45-0.23c-0.48-0.08-0.98-0.15-1.47-0.21c-1.04-0.14-2.08-0.26-3.15-0.36c-0.28-0.03-0.55-0.06-0.83-0.08
	c-0.47-0.04-0.96-0.08-1.44-0.11c-0.58-0.04-1.16-0.08-1.75-0.11c-0.58-0.03-1.17-0.06-1.76-0.08c-0.3-0.02-0.6-0.02-0.9-0.03
	c-0.29-0.01-0.59-0.01-0.89-0.02c-0.6-0.01-1.21-0.02-1.81-0.02c-0.6,0-1.21,0.01-1.81,0.02c-0.3,0.01-0.6,0.01-0.89,0.02
	c-0.3,0.01-0.6,0.01-0.9,0.03c-0.59,0.02-1.18,0.05-1.76,0.08c-0.59,0.03-1.17,0.07-1.75,0.11c-0.48,0.03-0.97,0.07-1.44,0.11
	c-0.28,0.02-0.55,0.05-0.83,0.08c-1.07,0.1-2.11,0.22-3.15,0.36c-0.49,0.06-0.99,0.13-1.47,0.21c-0.49,0.07-0.97,0.15-1.45,0.23
	c-0.48,0.08-0.96,0.16-1.43,0.25c-0.47,0.08-0.94,0.17-1.4,0.27c-1.23,0.25-2.43,0.53-3.59,0.83c-0.24,0.06-0.49,0.12-0.73,0.2
	c-0.06,0.01-0.11,0.02-0.17,0.04c-0.33,0.08-0.64,0.17-0.96,0.27c-0.43,0.12-0.84,0.25-1.26,0.38c-0.3,0.09-0.6,0.19-0.9,0.29
	c-0.19,0.06-0.39,0.12-0.57,0.19c-0.32,0.11-0.63,0.22-0.93,0.33c-0.39,0.14-0.77,0.28-1.15,0.43c-0.5,0.19-0.99,0.39-1.47,0.6
	c-0.24,0.1-0.48,0.2-0.71,0.31c-0.24,0.11-0.47,0.21-0.7,0.32c-0.45,0.21-0.9,0.43-1.33,0.66c-0.22,0.11-0.43,0.22-0.64,0.34
	c-0.21,0.11-0.42,0.23-0.62,0.34l-0.6,0.36c-0.2,0.12-0.39,0.24-0.58,0.36c-0.16,0.09-0.31,0.19-0.46,0.3
	c-0.17,0.1-0.32,0.21-0.48,0.32c-0.15,0.1-0.3,0.2-0.44,0.3c-0.31,0.23-0.62,0.46-0.91,0.7c-0.27,0.22-0.53,0.44-0.78,0.66
	c-0.02,0.02-0.03,0.04-0.05,0.05c-0.13,0.11-0.26,0.23-0.38,0.35c-0.23,0.22-0.46,0.44-0.67,0.67c-0.13,0.13-0.25,0.27-0.37,0.41
	c-0.05,0.05-0.09,0.1-0.13,0.15c-0.12,0.14-0.24,0.28-0.35,0.42c-0.11,0.14-0.22,0.28-0.32,0.42c-0.1,0.14-0.2,0.28-0.29,0.41
	c-0.02,0.03-0.03,0.05-0.05,0.08c-0.08,0.13-0.16,0.25-0.23,0.38c-0.09,0.14-0.17,0.29-0.25,0.43c-0.12,0.22-0.23,0.44-0.33,0.67
	c0,0.01-0.01,0.02-0.02,0.03c-0.09,0.21-0.17,0.42-0.25,0.64c0,0.01-0.01,0.03-0.01,0.04c-0.08,0.21-0.14,0.41-0.2,0.63
	c0,0.01-0.01,0.03-0.01,0.04c0,0.02-0.01,0.05-0.02,0.08c-0.04,0.15-0.07,0.29-0.1,0.44c-0.01,0.08-0.03,0.15-0.04,0.23
	c-0.02,0.13-0.04,0.25-0.05,0.37c-0.02,0.1-0.03,0.21-0.03,0.32c-0.02,0.09-0.02,0.19-0.02,0.29c-0.01,0.04-0.01,0.07-0.01,0.11
	v0.22v18.29v4.15v14.25v4.27v14.13v4.27v14.25v4.15v14.47c0,8.76,17.07,18.18,42.44,18.18c3.99,0,7.77-0.23,11.31-0.66
	c-3.66-1.27-7.07-3.09-10.13-5.35c-0.39,0.01-0.78,0.01-1.18,0.01c-10.89,0-20.91-1.86-28.21-5.25c-6.22-2.88-8.23-5.91-8.23-6.93
	v-6.55c5.03,2.81,13.02,4.76,23.1,5.66h0.03c1.17,0.16,2.36,0.29,3.57,0.41c-0.03-0.05-0.06-0.11-0.08-0.16
	c-1.04-1.96-1.92-4.03-2.6-6.18c0,0,0,0,0-0.01c-0.07,0-0.13-0.01-0.2-0.02h-0.04c-9.44-1.26-17.63-3.85-23.72-7.34v-0.01
	c-0.04-0.1-0.06-0.19-0.06-0.27v-10.48c4.88,2.73,12.56,4.65,22.24,5.58c0.01-0.05,0.01-0.11,0.01-0.16
	c0.06-1.97,0.27-3.91,0.62-5.8c0.02-0.05,0.03-0.11,0.03-0.16c-9.09-1.3-16.98-3.84-22.88-7.25c-0.02-0.05-0.02-0.09-0.02-0.13
	v-10.48c5.48,3.06,14.45,5.1,25.84,5.86c0.5,0.06,1,0.11,1.5,0.14c0.01-0.01,0.02-0.03,0.03-0.04c1.17-2.02,2.52-3.91,4.04-5.67
	c0.04-0.05,0.08-0.1,0.12-0.15c-1.74-0.05-3.4-0.13-4.98-0.23c-10.62-1.09-19.85-3.84-26.53-7.7c-0.02-0.05-0.02-0.09-0.02-0.13
	v-10.6c0.24,0.13,0.49,0.27,0.74,0.4c0.47,0.24,0.97,0.48,1.49,0.7c0.23,0.11,0.46,0.21,0.71,0.31c0.03,0.01,0.07,0.03,0.1,0.04
	c0.04,0.02,0.09,0.04,0.15,0.06c0.01,0,0.01,0.01,0.02,0.01c0.34,0.14,0.7,0.27,1.06,0.41c0.03,0.02,0.08,0.03,0.12,0.04
	c0.38,0.14,0.77,0.28,1.17,0.41c0.1,0.03,0.21,0.07,0.31,0.1c0.41,0.14,0.84,0.27,1.27,0.39c0.49,0.15,0.99,0.29,1.5,0.42
	c0.37,0.1,0.75,0.2,1.13,0.29c0.29,0.07,0.59,0.14,0.9,0.21c0.36,0.08,0.72,0.16,1.09,0.24c1.15,0.24,2.35,0.47,3.6,0.67
	c0.04,0.01,0.09,0.01,0.13,0.02c0.56,0.09,1.13,0.18,1.71,0.26c0.6,0.09,1.2,0.17,1.82,0.25c0.33,0.04,0.67,0.08,1.01,0.12
	c0.05,0,0.1,0.01,0.15,0.02c0.34,0.03,0.7,0.08,1.05,0.11c0.62,0.06,1.24,0.12,1.87,0.18c0.01,0.01,0.02,0.01,0.03,0
	c0.02,0,0.04,0,0.06,0.01c4.24,0.56,8.68,0.86,13.25,0.88c4.92,0,9.7-0.33,14.23-0.97c0.08-0.01,0.17-0.02,0.25-0.03
	c0.01,0,0.01,0,0.02,0c0.46-0.04,0.91-0.09,1.36-0.14c0.49-0.05,0.97-0.11,1.44-0.17h0.04c1.29-0.16,2.54-0.34,3.75-0.54
	c0.06-0.01,0.12-0.02,0.19-0.03c1.14-0.19,2.24-0.4,3.3-0.62c0.46-0.1,0.92-0.2,1.37-0.3c0.01,0,0.02,0,0.03-0.01
	c0.19-0.04,0.39-0.09,0.58-0.14c0.42-0.09,0.83-0.2,1.24-0.31c0.51-0.13,1.01-0.27,1.5-0.42c0.47-0.13,0.93-0.28,1.37-0.42
	c0.59-0.19,1.16-0.39,1.7-0.59c0.24-0.09,0.47-0.18,0.69-0.27c0.22-0.08,0.43-0.17,0.63-0.26c0.04-0.02,0.07-0.03,0.11-0.05
	c0.13-0.05,0.25-0.1,0.36-0.15c0.14-0.06,0.28-0.12,0.41-0.19c0.39-0.17,0.77-0.36,1.13-0.54c0.25-0.13,0.5-0.27,0.74-0.4v7.76
	c0.98,0.34,1.93,0.72,2.87,1.15c1.07,0.48,2.11,1.01,3.13,1.59v-4.17V80.11v-4.15V57.67v-0.22
	C144.71,57.41,144.71,57.38,144.7,57.34z M102.27,45.49c22.6,0,36.44,7.89,36.44,12.18s-13.84,12.18-36.44,12.18
	c-22.6,0-36.44-7.89-36.44-12.18S79.67,45.49,102.27,45.49z M115.73,87.67c0,0-0.01,0-0.02,0c-3.87,0.36-8.33,0.58-13.44,0.58
	c-4.65,0-8.76-0.18-12.39-0.49c-9.55-1.24-17.84-3.84-23.99-7.37v-0.01c-0.04-0.1-0.06-0.19-0.06-0.27V68.64
	c9.59,4.69,22.4,7.36,36.44,7.42c14.04,0,26.85-2.66,36.44-7.38v11.43c0,0.1-0.03,0.21-0.08,0.33
	C132.72,83.86,124.83,86.4,115.73,87.67z"/>
<path d="M178.49,152.25l-21.8-12.16c0.92-3.22,1.35-6.64,1.2-10.19c-0.73-17.2-14.77-30.64-31.98-30.64
	c-17.6,0-31.94,14.28-32.01,31.87c-0.08,17.59,14.22,32.05,31.82,32.16c11.86,0.07,22.25-6.34,27.84-15.88l21.15,11.81
	c1.92,1.05,4.33,0.33,5.38-1.59C181.12,155.71,180.41,153.3,178.49,152.25z M126.01,156.8c-13.92,0-25.24-11.32-25.24-25.24
	c0-13.92,11.32-25.24,25.24-25.24c13.92,0,25.24,11.32,25.24,25.24C151.26,145.48,139.93,156.8,126.01,156.8z"/>
</svg>