<?xml version="1.0" encoding="UTF-8" standalone="no"?>
<!-- Created with Inkscape (http://www.inkscape.org/) -->

<svg
   xmlns:dc="http://purl.org/dc/elements/1.1/"
   xmlns:cc="http://creativecommons.org/ns#"
   xmlns:rdf="http://www.w3.org/1999/02/22-rdf-syntax-ns#"
   xmlns:svg="http://www.w3.org/2000/svg"
   xmlns="http://www.w3.org/2000/svg"
   xmlns:sodipodi="http://sodipodi.sourceforge.net/DTD/sodipodi-0.dtd"
   xmlns:inkscape="http://www.inkscape.org/namespaces/inkscape"
   width="25.522015mm"
   height="28.393717mm"
   viewBox="0 0 25.522015 28.393717"
   version="1.1"
   id="svg5535"
   inkscape:version="0.92.5 (2060ec1f9f, 2020-04-08)"
   sodipodi:docname="api-and-replication.svg">
  <defs
     id="defs5529" />
  <sodipodi:namedview
     id="base"
     pagecolor="#ffffff"
     bordercolor="#666666"
     borderopacity="1.0"
     inkscape:pageopacity="0.0"
     inkscape:pageshadow="2"
     inkscape:zoom="0.35"
     inkscape:cx="-407.48371"
     inkscape:cy="47.943123"
     inkscape:document-units="mm"
     inkscape:current-layer="layer1"
     showgrid="false"
     fit-margin-top="0"
     fit-margin-left="0"
     fit-margin-right="0"
     fit-margin-bottom="0"
     inkscape:window-width="2560"
     inkscape:window-height="1328"
     inkscape:window-x="0"
     inkscape:window-y="38"
     inkscape:window-maximized="1" />
  <metadata
     id="metadata5532">
    <rdf:RDF>
      <cc:Work
         rdf:about="">
        <dc:format>image/svg+xml</dc:format>
        <dc:type
           rdf:resource="http://purl.org/dc/dcmitype/StillImage" />
        <dc:title></dc:title>
      </cc:Work>
    </rdf:RDF>
  </metadata>
  <g
     inkscape:label="Layer 1"
     inkscape:groupmode="layer"
     id="layer1"
     transform="translate(-44.691373,-133.12457)">
    <g
       id="g100"
       transform="matrix(0.35277777,0,0,-0.35277777,62.756939,154.45951)">
      <path
         d="m 0,0 v 25.379 l 4.123,4.49 c 0.238,-0.106 0.498,-0.163 0.775,-0.163 1.071,0 1.94,0.866 1.94,1.94 0,1.072 -0.869,1.939 -1.94,1.939 -1.072,0 -1.943,-0.867 -1.943,-1.939 0,-0.318 0.078,-0.617 0.213,-0.875 L 0,27.316 v 29.397 c 0.752,0.269 1.287,0.983 1.287,1.826 0,1.07 -0.869,1.938 -1.939,1.938 -1.075,0 -1.942,-0.868 -1.942,-1.938 0,-0.843 0.539,-1.557 1.287,-1.826 V 16.329 l -6.724,9.513 v 12.199 l -5.934,6.152 c 0.143,0.267 0.223,0.576 0.223,0.898 0,1.073 -0.867,1.942 -1.936,1.942 -1.076,0 -1.943,-0.869 -1.943,-1.942 0,-1.07 0.867,-1.939 1.943,-1.939 0.264,0 0.516,0.054 0.746,0.151 l 5.586,-5.808 V 25.424 L -1.307,14.057 V 0 c 0,-0.362 0.289,-0.655 0.655,-0.655 C -0.293,-0.655 0,-0.362 0,0"
         style="fill:#2c3e50;fill-opacity:1;fill-rule:nonzero;stroke:none"
         id="path102"
         inkscape:connector-curvature="0" />
    </g>
    <g
       id="g104"
       transform="matrix(0.35277777,0,0,-0.35277777,64.164628,154.45951)">
      <path
         d="m 0,0 v 23.285 l 8.094,8.087 v 11.426 c 0.791,0.245 1.367,0.985 1.367,1.855 0,1.074 -0.869,1.944 -1.94,1.944 -1.074,0 -1.941,-0.87 -1.941,-1.944 0,-0.809 0.494,-1.501 1.199,-1.791 V 31.915 l -8.09,-8.087 V 0 c 0,-0.362 0.295,-0.655 0.661,-0.655 C -0.289,-0.655 0,-0.362 0,0"
         style="fill:#2c3e50;fill-opacity:1;fill-rule:nonzero;stroke:none"
         id="path106"
         inkscape:connector-curvature="0" />
    </g>
    <g
       id="g108"
       transform="matrix(0.35277777,0,0,-0.35277777,66.671256,144.87627)">
      <path
         d="m 0,0 c 0,-0.309 0.074,-0.602 0.201,-0.859 l -4.906,-4.995 v -21.311 c 0,-0.362 0.295,-0.655 0.654,-0.655 0.363,0 0.658,0.293 0.658,0.655 V -6.39 l 4.538,4.62 c 0.246,-0.107 0.509,-0.17 0.794,-0.17 1.075,0 1.938,0.867 1.938,1.94 0,1.072 -0.863,1.937 -1.938,1.937 C 0.865,1.937 0,1.072 0,0"
         style="fill:#2c3e50;fill-opacity:1;fill-rule:nonzero;stroke:none"
         id="path110"
         inkscape:connector-curvature="0" />
    </g>
    <g
       id="g112"
       transform="matrix(0.35277777,0,0,-0.35277777,66.875197,154.45951)">
      <path
         d="m 0,0 v 17.571 l 8.09,8.092 v 11.422 c 0.842,0.259 1.437,1.067 1.367,2.007 -0.07,0.916 -0.799,1.675 -1.715,1.778 -1.168,0.129 -2.16,-0.787 -2.16,-1.929 0,-0.811 0.496,-1.504 1.199,-1.794 V 26.204 L -1.311,18.117 V 0 c 0,-0.362 0.297,-0.655 0.657,-0.655 C -0.289,-0.655 0,-0.362 0,0"
         style="fill:#2c3e50;fill-opacity:1;fill-rule:nonzero;stroke:none"
         id="path114"
         inkscape:connector-curvature="0" />
    </g>
    <g
       id="g116"
       transform="matrix(0.35277777,0,0,-0.35277777,69.084219,153.8504)">
      <path
         d="m 0,0 c -3.879,-3.739 -12.635,-10.015 -19.549,-10.969 -7.84,-1.077 -20.467,-0.302 -25.164,0.338 -0.953,0.115 -1.933,-0.142 -2.695,-0.742 l -5.66,-4.437 c -0.403,-0.317 -0.998,-0.245 -1.305,0.161 l -8.184,10.427 c -0.32,0.404 -0.248,0.989 0.159,1.306 l 11.191,8.776 c 2.531,1.988 5.713,3.13 8.939,2.74 l 18.907,-1.206 0.183,-0.021 c 2.086,-0.253 3.658,-2.308 3.643,-4.39 -0.11,-1.629 -1.498,-2.975 -3.129,-2.907 l -12.213,0.493 -0.027,-0.524 -0.034,-0.505 11.702,-0.559 c 0.041,0.005 -0.403,-0.004 -0.403,-0.004 v -0.01 l 4.787,-0.177 c 0.723,-0.157 1.738,0.003 2.3,0.408 l 11.976,7.145 c 0.767,0.56 1.782,0.767 2.704,0.599 C -0.944,5.78 -0.104,5.267 0.432,4.479 1.4,3.07 1.24,1.184 0,0"
         style="fill:#999999;fill-opacity:1;fill-rule:nonzero;stroke:none"
         id="path118"
         inkscape:connector-curvature="0" />
    </g>
    <g
       id="g120"
       transform="matrix(0.35277777,0,0,-0.35277777,48.993102,161.30456)">
      <path
         d="m 0,0 -11.857,15.119 c -0.538,0.689 -0.42,1.687 0.271,2.224 l 6.227,4.885 c 0.689,0.54 1.685,0.418 2.226,-0.272 L 8.721,6.84 C 9.26,6.15 9.139,5.156 8.453,4.615 L 2.225,-0.269 C 1.535,-0.808 0.539,-0.687 0,0"
         style="fill:#2c3e50;fill-opacity:1;fill-rule:nonzero;stroke:none"
         id="path122"
         inkscape:connector-curvature="0" />
    </g>
    <g
       id="g124"
       transform="matrix(0.35277777,0,0,-0.35277777,50.329812,159.62816)">
      <path
         d="M 0,0 C -1.133,-0.89 -2.775,-0.689 -3.666,0.443 -4.557,1.58 -4.357,3.221 -3.225,4.108 -2.084,5.001 -0.447,4.804 0.443,3.666 1.334,2.531 1.135,0.891 0,0"
         style="fill:#ffffff;fill-opacity:1;fill-rule:nonzero;stroke:none"
         id="path126"
         inkscape:connector-curvature="0" />
    </g>
  </g>
</svg>
