<svg xmlns="http://www.w3.org/2000/svg" xmlns:svg="http://www.w3.org/2000/svg" version="1.1" viewBox="0 0 72.35 80.49"><defs><style>.cls-1{fill:#afb1b4}.cls-1,.cls-2,.cls-3{stroke-width:0}.cls-2{fill:#231f20}.cls-3{fill:#fff}</style></defs><g id="svg5535"><g id="g100"><path id="path102" d="M51.21,60.48v-25.38l4.12-4.49c.24.11.5.16.78.16,1.07,0,1.94-.87,1.94-1.94s-.87-1.94-1.94-1.94-1.94.87-1.94,1.94c0,.32.08.62.21.88l-3.17,3.45V3.76c.75-.27,1.29-.98,1.29-1.83C52.5.87,51.63,0,50.56,0s-1.94.87-1.94,1.94c0,.84.54,1.56,1.29,1.83v40.38l-6.72-9.51v-12.2l-5.93-6.15c.14-.27.22-.58.22-.9,0-1.07-.87-1.94-1.94-1.94s-1.94.87-1.94,1.94.87,1.94,1.94,1.94c.26,0,.52-.05.75-.15l5.59,5.81v12.07l8.04,11.37v14.06c0,.36.29.65.65.65s.65-.29.65-.65" class="cls-2"/></g><g id="g104"><path id="path106" d="M55.2,60.48v-23.28l8.09-8.09v-11.43c.79-.24,1.37-.99,1.37-1.85,0-1.07-.87-1.94-1.94-1.94s-1.94.87-1.94,1.94c0,.81.49,1.5,1.2,1.79v10.95l-8.09,8.09v23.83c0,.36.29.65.66.65s.65-.29.65-.65" class="cls-2"/></g><g id="g108"><path id="path110" d="M62.31,33.31c0,.31.07.6.2.86l-4.91,5v21.31c0,.36.3.66.65.66s.66-.29.66-.66v-20.78l4.54-4.62c.25.11.51.17.79.17,1.07,0,1.94-.87,1.94-1.94s-.86-1.94-1.94-1.94c-1.07,0-1.94.87-1.94,1.94" class="cls-2"/></g><g id="g112"><path id="path114" d="M62.88,60.48v-17.57l8.09-8.09v-11.42c.84-.26,1.44-1.07,1.37-2.01-.07-.92-.8-1.67-1.72-1.78-1.17-.13-2.16.79-2.16,1.93,0,.81.5,1.5,1.2,1.79v10.94l-8.09,8.09v18.12c0,.36.3.65.66.65s.65-.29.65-.65" class="cls-2"/></g><g id="g116"><path id="path118" d="M69.15,58.75c-3.88,3.74-12.64,10.02-19.55,10.97-7.84,1.08-20.47.3-25.16-.34-.95-.11-1.93.14-2.69.74l-5.66,4.44c-.4.32-1,.25-1.31-.16l-8.18-10.43c-.32-.4-.25-.99.16-1.31l11.19-8.78c2.53-1.99,5.71-3.13,8.94-2.74l18.91,1.21.18.02c2.09.25,3.66,2.31,3.64,4.39-.11,1.63-1.5,2.97-3.13,2.91l-12.21-.49-.03.52-.03.5,11.7.56s-.4,0-.4,0h0s4.79.19,4.79.19c.72.16,1.74,0,2.3-.41l11.98-7.14c.77-.56,1.78-.77,2.7-.6.93.16,1.77.68,2.3,1.46.97,1.41.81,3.3-.43,4.48" class="cls-1"/></g><g id="g120"><path id="path122" d="M12.19,79.88L.34,64.76c-.54-.69-.42-1.69.27-2.22l6.23-4.89c.69-.54,1.68-.42,2.23.27l11.85,15.12c.54.69.42,1.68-.27,2.23l-6.23,4.88c-.69.54-1.69.42-2.22-.27" class="cls-2"/></g><g id="g124"><path id="path126" d="M15.98,75.13c-1.13.89-2.78.69-3.67-.44-.89-1.14-.69-2.78.44-3.66,1.14-.89,2.78-.7,3.67.44.89,1.13.69,2.77-.44,3.67" class="cls-3"/></g></g></svg>