<?xml version="1.0" encoding="UTF-8"?>
<svg id="Layer_2" data-name="Layer 2" xmlns="http://www.w3.org/2000/svg" version="1.1" viewBox="0 0 191.78 163.91">
  <defs>
    <style>
      .cls-1 {
        fill: #000;
        stroke-width: 0px;
      }
    </style>
  </defs>
  <path class="cls-1" d="M31.21,30.56c.15-.73.3-1.45.44-2.18.97-4.97,4.89-8.42,10.1-8.85,1.15-.09,2.31-.15,3.46-.15,19.76,0,39.52,0,59.28,0,1.68,0,3.36.13,4.94.72,4.11,1.52,6.29,4.63,7.3,8.78,1.22,5.02-2.59,12.6-10.2,13.21-.99.08-1.99.14-2.98.14-15.97,0-31.94,0-47.91,0-1.7,0-1.51-.18-1.51,1.56,0,26.95,0,53.89,0,80.84v1.52h1.29c27.11,0,54.21,0,81.32,0,.2,0,.4-.02.6,0,.56.05.65-.25.64-.73-.05-5.31-.11-10.61-.09-15.92,0-1.54.1-3.12.41-4.63,1-4.91,5.66-8.54,10.66-8.69,5.39-.16,10.48,3.81,11.4,9.15.16.94.24,1.9.24,2.85.02,8.82.04,17.65-.01,26.47-.01,1.94.14,3.9-.42,5.82-1.26,4.3-4.09,6.93-8.42,7.91-1.15.26-2.37.32-3.56.32-35.05.02-70.1-.02-105.15.05-5.63.01-10.18-3.94-11.17-8.36-.21-.93-.28-1.88-.41-2.83-.02-.16,0-.32,0-.48-.02-28.9-.04-57.8-.07-86.71,0-.46-.11-.91-.18-1.37,0-6.15,0-12.3,0-18.45ZM95.85,142.7c17.33,0,34.65,0,51.98,0,.52,0,1.04.02,1.56-.02,2.12-.19,3.88-1,4.7-3.11.31-.8.47-1.7.47-2.56.04-9.54.03-19.08.04-28.62,0-.4,0-.8-.02-1.2-.26-3.28-3.19-5.22-5.68-4.97-2.15.22-4.91,1.85-4.9,5.38.02,4.79-.03,9.58-.03,14.37,0,1.88.04,3.75.03,5.63,0,1.18-.27,2.29-1.1,3.2-.97,1.05-2.19,1.34-3.57,1.34-29.1-.01-58.21,0-87.31,0-.24,0-.48,0-.72,0-1.48-.1-2.75-1.16-3.06-2.6-.13-.62-.19-1.26-.19-1.9,0-28.78,0-57.57,0-86.35,0-.67.05-1.36.18-2.02.29-1.56,1.23-2.57,2.79-2.92.61-.14,1.26-.18,1.9-.18,17.01,0,34.01,0,51.02,0,.68,0,1.36,0,2.03-.05,2.53-.17,4.63-2.28,4.92-4.9.24-2.22-1.55-4.85-3.81-5.45-.83-.22-1.73-.26-2.6-.26-20.16-.01-40.32-.01-60.48,0-.6,0-1.2,0-1.79.06-2.36.21-4.02,1.56-4.59,3.88-.21.84-.24,1.73-.25,2.61,0,6.07.03,12.14.03,18.2.01,28.66.01,57.33.02,85.99,0,.36-.02.72,0,1.08.13,2.19,1.04,3.89,3.05,4.93.88.45,1.83.5,2.79.5,17.53,0,35.05,0,52.58,0Z"/>
  <path class="cls-1" d="M118.67,55.42c0-2.23,0-4.34,0-6.45,0-1.34.26-2.61.87-3.81,1.63-3.25,5.34-4.57,8.64-3.05.65.3,1.26.69,1.86,1.08,8.99,5.84,17.98,11.7,26.97,17.54,1.68,1.09,2.83,2.57,3.3,4.52.73,3.05-.49,6.02-3.22,7.74-3.2,2.02-6.43,4-9.66,5.99-6.21,3.82-12.43,7.63-18.64,11.47-1.74,1.08-3.59,1.54-5.59,1.03-2.87-.74-4.93-3.39-5-6.43-.05-1.95.02-3.91.04-5.86,0-.43,0-.86,0-1.36h-26.67c0,.42,0,.85,0,1.27,0,9.58,0,19.16,0,28.74,0,1.62-.26,3.18-.92,4.65-1.2,2.68-3.28,4.43-6.06,5.2-3.4.94-6.88,1.02-10.27.04-3.5-1.01-5.85-3.32-6.78-6.91-.22-.84-.32-1.73-.32-2.6-.02-14.17-.05-28.34,0-42.51.02-6.23,4.28-9.74,9.74-10.2.83-.07,1.67-.07,2.51-.07,12.65,0,25.31,0,37.96,0h1.24ZM73.3,86.92c0,7.07,0,14.13,0,21.2,0,2.09.96,3.4,2.98,3.9,1.92.47,3.88.35,5.82.07.43-.06.86-.2,1.25-.37,1.08-.48,1.83-1.28,2.02-2.48.11-.71.2-1.42.2-2.13.01-10.38,0-20.76.01-31.14,0-.51,0-1.05.14-1.54.48-1.72,1.83-2.65,3.8-2.65,8.14,0,16.29,0,24.43,0,2.24,0,4.47-.02,6.71,0,2.16.02,3.66,1.54,3.69,3.71.01.76,0,1.52-.02,2.27-.06,2.15-.15,4.3-.18,6.46-.02,1.4.47,1.67,1.61.97,9.17-5.64,18.34-11.28,27.5-16.93.27-.17.55-.33.78-.55.5-.47.52-1.09.04-1.57-.25-.25-.56-.44-.86-.64-8.89-5.79-17.78-11.57-26.67-17.36-.27-.17-.54-.35-.82-.5-.41-.21-.75-.05-.85.35-.13.49-.19,1.02-.2,1.53-.04,2.71-.03,5.43-.08,8.14-.03,2.18-1.5,3.67-3.67,3.78-.52.03-1.04.02-1.56.02-12.98,0-25.95-.01-38.93-.02-.84,0-1.69-.08-2.51.03-.9.11-1.81.3-2.65.64-1.2.48-1.84,1.49-1.96,2.78-.04.44-.05.88-.05,1.31,0,6.91,0,13.81,0,20.72Z"/>
</svg>