<svg xmlns="http://www.w3.org/2000/svg" id="Layer_2" data-name="Layer 2" version="1.1" viewBox="0 0 191.78 212.22"><defs><style>.cls-1{fill:#000;stroke-width:0}</style></defs><path d="M10.33,143.94c.65-2.04,1.9-3.75,3.05-5.51,10.14-15.59,23.54-27.51,40.24-35.71,7.44-3.65,15.22-6.29,23.35-7.94.31-.06.6-.17,1.04-.3-.6-.55-1.12-1.04-1.64-1.52-4.13-3.77-8.25-7.54-12.4-11.28-.65-.58-.91-1.17-.9-2.06.04-7.59.02-15.18.02-22.77v-1.26c-2.95-1.93-3.14-4.38-2.54-6.18.57-1.71,2.33-3.42,4.89-3.32,2.24.08,4.04,1.7,4.57,3.6.57,2.06-.2,4.59-2.81,5.93-.02.27-.06.58-.06.89,0,7.19,0,14.38-.01,21.57,0,.64.16,1.1.66,1.55,4.91,4.44,9.81,8.91,14.68,13.4.53.49,1.04.64,1.72.56,2.65-.29,5.31-.56,7.99-.84.11-.42.28-3.58.14-3.93-.1-.25-.28-.47-.48-.66-3.8-3.76-7.62-7.52-11.42-11.28-1.13-1.12-2.23-2.28-3.29-3.37-2.37.5-4.78-.08-6.06-2.66-.96-1.95-.46-4.33,1.16-5.8,1.53-1.39,4.01-1.65,5.8-.61,2.14,1.24,2.84,3.37,2.12,6.31.82.85,1.61,1.69,2.43,2.5,4.08,4.06,8.11,8.16,12.28,12.12,1.2,1.14,1.69,2.27,1.54,3.85-.1,1.1-.02,2.22-.02,3.42,1.98.08,3.88.15,5.84.23.04-.31.1-.57.1-.84,0-2.52-.01-5.03.02-7.55,0-.61-.18-1.03-.64-1.45-5.56-5.04-11.09-10.12-16.65-15.15-.59-.53-.83-1.05-.83-1.84.03-7.19.01-14.38.03-21.57,0-.75-.12-1.29-.8-1.83-1.74-1.37-2.22-3.75-1.35-5.75.85-1.93,2.95-3.16,5.04-2.94,2.14.23,3.99,1.85,4.36,4.01.35,2.01-.31,3.7-1.97,4.94-.35.26-.75.46-1.23.75v.99c0,6.51.02,13.02-.02,19.53,0,.85.28,1.39.89,1.95,5.47,4.96,10.9,9.96,16.38,14.91.62.57.86,1.14.86,1.96-.04,3.31-.02,6.63-.02,10.04,1.65.37,3.32.45,5.04.67.03-.31.08-.61.08-.92,0-3.79,0-7.59,0-11.38,0-.53-.04-.99-.48-1.4-2.84-2.63-5.65-5.29-8.5-7.96-1.3.36-2.54.19-3.71-.42-.99-.51-1.71-1.3-2.17-2.31-.88-1.93-.39-4.34,1.15-5.71,1.76-1.56,4.25-1.65,5.99-.54,2.05,1.3,2.73,3.48,1.9,6.35,1.82,1.72,3.69,3.48,5.6,5.28.3-1.13.43-42.8.19-53.87-.2-.13-.43-.26-.65-.43-1.54-1.12-2.33-2.64-2.15-4.53.19-1.98,1.29-3.39,3.13-4.19.21-.09.42-.21.63-.31.8,0,1.6,0,2.4,0,.65.37,1.36.66,1.93,1.13,2.66,2.23,2.35,6.17-.6,8.04-.17.11-.34.2-.55.33v72.24c.59-.54,1.11-1.01,1.61-1.5,4-3.85,7.98-7.72,12-11.54.61-.58.69-1.2.66-1.93-.13-3.39-.26-6.78-.36-10.16-.13-4.07-.23-8.14-.36-12.2-.02-.56.17-.97.54-1.39,4.13-4.66,8.24-9.34,12.35-14.02.18-.21.36-.42.56-.66-.58-1.26-.87-2.55-.46-3.94.71-2.38,3.01-3.91,5.55-3.51,2.75.44,4.12,2.82,4.11,4.74-.02,2.93-1.97,5.02-4.89,5.03-.67,0-1.1.21-1.53.7-3.84,4.38-7.7,8.75-11.56,13.11-.42.48-.6.98-.57,1.62.16,4.19.31,8.37.44,12.56.06,2.07.08,4.15.13,6.23.03,1.32.08,2.63.17,3.94.04.61-.15,1.05-.59,1.47-4.24,4.06-8.46,8.13-12.69,12.2-.4.39-.82.75-1.37,1.25.48.16.79.28,1.11.35,14.34,3.44,27.26,9.79,38.78,18.98,9.68,7.73,17.65,16.96,23.93,27.64.8,1.36.77,2.58-.03,3.92-5.36,9.08-11.96,17.13-19.83,24.15-6.53,5.83-13.7,10.71-21.51,14.63-8.2,4.12-16.8,7.06-25.83,8.76-5.14.97-10.32,1.51-15.55,1.74-3.36.15-6.71.05-10.04-.17-8.18-.54-16.19-2.07-23.99-4.62-11.84-3.87-22.59-9.74-32.23-17.63-9.08-7.43-16.63-16.18-22.62-26.27-.46-.77-.78-1.63-1.16-2.45,0-.08,0-.16,0-.24ZM17.02,144.05c15.87,26.55,46.81,47.08,85.03,45.17,34-1.7,61.34-21.62,75.09-45.19-12.87-21.92-36.47-38.79-61.57-43.33-.02.28-.04.55-.04.83,0,5.63.02,11.27-.02,16.9,0,.76.35,1.12.88,1.53,9.06,7.15,12.76,16.45,10.64,27.79-2.78,14.85-17.55,25.08-33.31,21.5-14-3.18-23.22-16.43-21.24-30.86.83-6.07,3.43-11.34,7.82-15.66.59-.58.82-1.17.82-1.99-.03-6.43-.02-12.86-.02-19.29,0-.39-.03-.78-.05-1.17-24.24,3.68-49.53,19.45-64.02,43.79ZM85.2,118.52c2.4-1.06,4.76-2.1,7.24-3.19.01-.25.05-.64.04-1.03-.03-1.47-.1-2.94-.11-4.42-.02-2.99,0-5.98,0-8.97,0-.66-.04-1.32-.07-2.07-2.46.29-4.8.25-7.1.77v18.91ZM96.51,114.57h5.72v-15.69h-5.72v15.69ZM111.41,116.89v-17.04c-1.68-.18-3.26-.61-4.89-.52-.25,1.24-.21,15.01.02,15.89,1.58.54,3.15,1.07,4.87,1.66Z" class="cls-1"/><path d="M125.42,32.76c-.63-1.43-.76-2.75-.29-4.1.73-2.13,2.96-3.54,5.16-3.23,2.55.36,4.33,2.23,4.42,4.58.1,2.54-1.37,4.56-3.77,5.12-.5.12-1.03.19-1.53.15-.48-.04-.82.06-1.16.41-1.04,1.05-2.11,2.07-3.19,3.07-.4.37-.47.78-.48,1.28-.06,4.91-.14,9.81-.19,14.72-.04,3.47-.02,6.95-.05,10.42-.04,3.67-.11,7.34-.18,11.01-.02,1.31-.84,2.22-1.99,2.23-1.16.02-2.05-.88-2.04-2.18.03-3.55.1-7.1.15-10.65.03-2.15.05-4.31.06-6.46.03-5.39.04-10.78.07-16.17,0-1.59.09-3.19.1-4.78,0-.53.21-.87.59-1.23,1.45-1.36,2.87-2.77,4.33-4.19Z" class="cls-1"/><path d="M91.46,21.59c2.73,2.49,5.47,4.98,8.21,7.48,1.03.94,2.05,1.9,3.11,2.8.57.48.78.99.78,1.74-.03,5.79-.02,11.57-.02,17.36,0,1.2.01,2.39,0,3.59-.01,1.29-.75,2.09-1.92,2.12-1.15.03-2.01-.78-2.11-1.99-.03-.32,0-.64,0-.96,0-6.07-.01-12.13.01-18.2,0-.77-.19-1.32-.79-1.86-3.15-2.82-6.27-5.67-9.37-8.54-.55-.51-1.06-.63-1.82-.47-2.57.56-5.09-1.22-5.68-3.91-.55-2.51,1.15-5.16,3.66-5.76,3.33-.8,6.35,1.87,6.11,5.02-.04.51-.1,1.02-.16,1.57Z" class="cls-1"/></svg>