<?xml version="1.0" encoding="UTF-8" standalone="no"?>
<!-- Created with Inkscape (http://www.inkscape.org/) -->

<svg
   xmlns:dc="http://purl.org/dc/elements/1.1/"
   xmlns:cc="http://creativecommons.org/ns#"
   xmlns:rdf="http://www.w3.org/1999/02/22-rdf-syntax-ns#"
   xmlns:svg="http://www.w3.org/2000/svg"
   xmlns="http://www.w3.org/2000/svg"
   xmlns:sodipodi="http://sodipodi.sourceforge.net/DTD/sodipodi-0.dtd"
   xmlns:inkscape="http://www.inkscape.org/namespaces/inkscape"
   width="29.888144mm"
   height="28.9764mm"
   viewBox="0 0 29.888143 28.9764"
   version="1.1"
   id="svg6908"
   inkscape:version="0.92.5 (2060ec1f9f, 2020-04-08)"
   sodipodi:docname="eyecite.svg">
  <defs
     id="defs6902">
    <clipPath
       clipPathUnits="userSpaceOnUse"
       id="clipPath18">
      <path
         d="M 0,473 H 650.667 V 0 H 0 Z"
         id="path16"
         inkscape:connector-curvature="0" />
    </clipPath>
  </defs>
  <sodipodi:namedview
     id="base"
     pagecolor="#ffffff"
     bordercolor="#666666"
     borderopacity="1.0"
     inkscape:pageopacity="0.0"
     inkscape:pageshadow="2"
     inkscape:zoom="0.35"
     inkscape:cx="-1434.4965"
     inkscape:cy="395.73204"
     inkscape:document-units="mm"
     inkscape:current-layer="layer1"
     showgrid="false"
     fit-margin-top="0"
     fit-margin-left="0"
     fit-margin-right="0"
     fit-margin-bottom="0"
     inkscape:window-width="2560"
     inkscape:window-height="1328"
     inkscape:window-x="0"
     inkscape:window-y="38"
     inkscape:window-maximized="1" />
  <metadata
     id="metadata6905">
    <rdf:RDF>
      <cc:Work
         rdf:about="">
        <dc:format>image/svg+xml</dc:format>
        <dc:type
           rdf:resource="http://purl.org/dc/dcmitype/StillImage" />
        <dc:title></dc:title>
      </cc:Work>
    </rdf:RDF>
  </metadata>
  <g
     inkscape:label="Layer 1"
     inkscape:groupmode="layer"
     id="layer1"
     transform="translate(-316.42183,-224.56104)">
    <g
       transform="matrix(0.35277777,0,0,-0.35277777,184.06293,382.70095)"
       id="g12"
       inkscape:export-xdpi="255.08348"
       inkscape:export-ydpi="255.08348">
      <g
         id="g14"
         clip-path="url(#clipPath18)">
        <g
           id="g20"
           transform="translate(446.5049,384.7153)">
          <path
             d="m 0,0 c -1.958,-0.954 -4.16,-2.569 -6.712,-4.44 -7.493,-5.498 -17.757,-13.029 -29.984,-9.35 -9.013,2.711 -15.903,10.918 -18.301,14.097 0,0 8.325,10.609 14.405,14.451 C -50.123,10.686 -58.33,2.428 -58.874,1.872 l -1.078,-1.098 0.844,-1.286 c 0.352,-0.535 8.75,-13.155 21.311,-16.934 14.052,-4.227 25.66,4.291 33.346,9.927 2.399,1.763 4.616,3.04 6.122,4.086 6.63,4.604 11.613,3.21 11.737,3.101 C 13.212,-0.146 8.531,4.154 0,0"
             style="fill:#999999;fill-opacity:1;fill-rule:nonzero;stroke:none"
             id="path22"
             inkscape:connector-curvature="0" />
        </g>
        <g
           id="g24"
           transform="translate(388.5986,390.9268)">
          <path
             d="m 0,0 c 1.958,0.954 4.16,2.569 6.71,4.44 7.495,5.498 17.759,13.029 29.986,9.35 9.013,-2.711 15.903,-10.918 18.301,-14.097 0,0 -8.327,-10.609 -14.405,-14.451 9.531,4.072 17.738,12.33 18.282,12.886 l 1.077,1.098 -0.845,1.286 C 58.756,1.047 50.358,13.667 37.796,17.446 23.745,21.673 12.135,13.155 4.451,7.519 2.051,5.757 -0.165,4.479 -1.671,3.433 -8.301,-1.171 -13.284,0.223 -13.408,0.332 -13.214,0.146 -8.532,-4.153 0,0"
             style="fill:#999999;fill-opacity:1;fill-rule:nonzero;stroke:none"
             id="path26"
             inkscape:connector-curvature="0" />
        </g>
        <g
           id="g28"
           transform="translate(427.7344,388.0713)">
          <path
             d="m 0,0 c 0,-5.856 -4.747,-10.604 -10.604,-10.604 -5.857,0 -10.604,4.748 -10.604,10.604 0,5.856 4.747,10.604 10.604,10.604 C -4.747,10.604 0,5.856 0,0"
             style="fill:#2c3e50;fill-opacity:1;fill-rule:nonzero;stroke:none"
             id="path30"
             inkscape:connector-curvature="0" />
        </g>
        <g
           id="g32"
           transform="translate(422.0127,391.0825)">
          <path
             d="m 0,0 v 20.967 l -3.403,3.708 c -0.198,-0.085 -0.413,-0.133 -0.641,-0.133 -0.886,0 -1.602,0.718 -1.602,1.603 0,0.885 0.716,1.603 1.602,1.603 0.886,0 1.604,-0.718 1.604,-1.603 0,-0.262 -0.065,-0.509 -0.175,-0.727 L 0,22.569 v 24.284 c -0.619,0.223 -1.062,0.813 -1.062,1.507 0,0.886 0.718,1.603 1.604,1.603 0.886,0 1.603,-0.717 1.603,-1.603 0,-0.694 -0.443,-1.284 -1.062,-1.507 V 13.492 l 5.555,7.858 v 10.076 l 4.9,5.083 c -0.117,0.222 -0.184,0.475 -0.184,0.743 0,0.886 0.717,1.603 1.603,1.603 0.885,0 1.603,-0.717 1.603,-1.603 0,-0.885 -0.718,-1.603 -1.603,-1.603 -0.22,0 -0.43,0.045 -0.621,0.125 L 7.721,30.978 V 21.005 L 1.083,11.614 V 0 C 1.083,-0.299 0.842,-0.542 0.542,-0.542 0.244,-0.542 0,-0.299 0,0"
             style="fill:#2c3e50;fill-opacity:1;fill-rule:nonzero;stroke:none"
             id="path34"
             inkscape:connector-curvature="0" />
        </g>
        <g
           id="g36"
           transform="translate(418.7178,391.0825)">
          <path
             d="m 0,0 v 19.237 l -6.684,6.683 v 9.439 c -0.655,0.202 -1.13,0.811 -1.13,1.532 0,0.885 0.717,1.604 1.601,1.604 0.887,0 1.603,-0.719 1.603,-1.604 0,-0.668 -0.409,-1.24 -0.991,-1.481 V 26.369 L 1.083,19.687 V 0 C 1.083,-0.299 0.84,-0.542 0.542,-0.542 0.242,-0.542 0,-0.299 0,0"
             style="fill:#2c3e50;fill-opacity:1;fill-rule:nonzero;stroke:none"
             id="path38"
             inkscape:connector-curvature="0" />
        </g>
        <g
           id="g40"
           transform="translate(418.7178,421.3345)">
          <path
             d="m 0,0 v 7.679 l -6.684,6.683 v 9.439 c -0.693,0.213 -1.185,0.881 -1.128,1.655 0.058,0.759 0.661,1.386 1.416,1.47 0.968,0.107 1.786,-0.648 1.786,-1.593 0,-0.668 -0.409,-1.241 -0.991,-1.481 V 14.811 L 1.083,8.128 V 0 C 1.083,-0.299 0.84,-0.542 0.542,-0.542 0.242,-0.542 0,-0.299 0,0"
             style="fill:#2c3e50;fill-opacity:1;fill-rule:nonzero;stroke:none"
             id="path42"
             inkscape:connector-curvature="0" />
        </g>
        <g
           id="g44"
           transform="translate(412.8486,413.5249)">
          <path
             d="m 0,0 c 0,-0.255 -0.061,-0.495 -0.166,-0.709 l 4.052,-4.127 v -17.606 c 0,-0.299 -0.241,-0.542 -0.541,-0.542 -0.298,0 -0.542,0.243 -0.542,0.542 v 17.163 l -3.749,3.817 c -0.201,-0.09 -0.421,-0.141 -0.656,-0.141 -0.885,0 -1.602,0.717 -1.602,1.603 0,0.884 0.717,1.603 1.602,1.603 C -0.718,1.603 0,0.884 0,0"
             style="fill:#2c3e50;fill-opacity:1;fill-rule:nonzero;stroke:none"
             id="path46"
             inkscape:connector-curvature="0" />
        </g>
        <g
           id="g48"
           transform="translate(405.9326,439.4429)">
          <path
             d="m 0,0 c 0,-0.255 -0.061,-0.496 -0.166,-0.709 l 4.052,-4.126 v -17.606 c 0,-0.3 -0.241,-0.542 -0.541,-0.542 -0.3,0 -0.542,0.242 -0.542,0.542 v 17.162 l -3.749,3.818 c -0.201,-0.09 -0.423,-0.142 -0.658,-0.142 -0.884,0 -1.602,0.717 -1.602,1.603 0,0.885 0.718,1.603 1.602,1.603 C -0.718,1.603 0,0.885 0,0"
             style="fill:#2c3e50;fill-opacity:1;fill-rule:nonzero;stroke:none"
             id="path50"
             inkscape:connector-curvature="0" />
        </g>
        <g
           id="g52"
           transform="translate(429.4248,435.8623)">
          <path
             d="m 0,0 c 0,-0.255 0.061,-0.495 0.166,-0.709 l -4.053,-4.127 v -17.606 c 0,-0.299 0.244,-0.541 0.542,-0.541 0.3,0 0.543,0.242 0.543,0.541 v 17.163 l 3.748,3.818 c 0.2,-0.091 0.423,-0.142 0.657,-0.142 0.885,0 1.603,0.717 1.603,1.603 0,0.885 -0.718,1.603 -1.603,1.603 C 0.717,1.603 0,0.885 0,0"
             style="fill:#2c3e50;fill-opacity:1;fill-rule:nonzero;stroke:none"
             id="path54"
             inkscape:connector-curvature="0" />
        </g>
        <g
           id="g56"
           transform="translate(412.3682,391.0825)">
          <path
             d="M 0,0 V 14.518 L -6.683,21.2 v 9.439 c -0.692,0.213 -1.184,0.882 -1.127,1.656 0.058,0.759 0.661,1.386 1.415,1.469 0.968,0.107 1.787,-0.647 1.787,-1.593 0,-0.668 -0.409,-1.24 -0.992,-1.481 V 21.649 L 1.084,14.967 V 0 C 1.084,-0.299 0.841,-0.542 0.543,-0.542 0.243,-0.542 0,-0.299 0,0"
             style="fill:#2c3e50;fill-opacity:1;fill-rule:nonzero;stroke:none"
             id="path58"
             inkscape:connector-curvature="0" />
        </g>
      </g>
    </g>
  </g>
</svg>
