<?xml version="1.0" encoding="UTF-8"?>
<svg id="Layer_1" xmlns="http://www.w3.org/2000/svg" version="1.1" viewBox="0 0 432 432">
  <!-- Generator: Adobe Illustrator 29.3.1, SVG Export Plug-In . SVG Version: 2.1.0 Build 151)  -->
  <defs>
    <style>
      .st0 {
        fill: #606161;
      }

      .st1 {
        opacity: .2;
      }
    </style>
  </defs>
  <path d="M310.5,107.4c-.2-3.1-1.4-5.5-3.8-7.9-18.2-18-36.2-36.1-54.2-54.2-2.3-2.3-4.8-3.4-8.1-3.4-5.5,0-11,0-16.5,0s-5.9,0-8.8,0c-44.2,0-88.5,0-132.7,0-12,0-19,6.9-19.1,18.9,0,5.2,0,10.3,0,15.8-5.6,0-10.8,0-16,0-11.6,0-18.8,7.3-18.8,18.9,0,91.6,0,183.1,0,274.7,0,10,5,16,14.1,19.1h215c2.5-1.3,5.2-2.2,7.4-3.9,4.7-3.5,6.6-8.4,6.7-14.2,0-5.4,0-10.8,0-16.7h14.7c13.2,0,20-6.8,20-20v-100.8c-2.4,1.3-4.6,2.7-6.7,4.3h-.1c0,.1-.1.2-.1.2,0,0-.2.1-.2.2h-.2c-1.5,1.2-2.8,2.4-4.2,3.7,0,31,0,62.1,0,93.1s-2,7.8-8.1,7.8H87c-6.3,0-8.1-1.8-8.1-8.1,0-91.1,0-182.2,0-273.3,0-6.5,1.7-8.2,8.3-8.2,44,0,87.9,0,131.9,0h18l8.9-.3,38.5,41.3c1.7,1.7,3.3,3.3,5,5l7.8,7.7,1.6,1.6v6c0,0,0,66,0,66,3.4,3.3,7.3,6.1,11.6,8.4,0-24.4,0-48.8,0-73.1v-7.5c0-.5,0-.9,0-1.4ZM86.4,354.7c57.8,0,115.5,0,173.3,0h4.5v14.4c0,7.2-1.6,8.7-8.8,8.7H52.9c-1.1,0-2.3,0-3.4,0-2.9-.4-4.8-2-5.3-4.9-.2-1.1-.2-2.3-.2-3.4,0-91,0-182,0-273s0-1.6,0-2.4c.4-3.6,2.3-5.7,5.9-5.8,5.5-.2,11.1,0,17.3,0v5c0,80.3,0,160.5,0,240.8,0,2.7,0,5.5.8,8.1,2.2,8,8.9,12.6,18.3,12.6Z"/>
  <g class="st1">
    <g>
      <path d="M130.6,191.5c15.4,0,54.3,0,87.4,0-.4.2-.8.4-1.1.5-4,1.8-8.2,3.2-12.7,4.8-2.1.8-4.3,1.5-6.5,2.3h-.1c-2.8,1-4.7,2.4-6.1,3.9h-30.9c-10,0-20,0-29.9,0h-2.3c-1.2,0-2.5,0-3.7-.2-2.8-.5-4.4-2.3-4.6-5.1-.2-2.8,1.1-4.9,3.8-5.8,1.4-.5,2.9-.5,4.3-.5h2.5Z"/>
      <path d="M99.7,203c-5.8,0-8.6-1.8-8.6-5.6,0-3.9,2.9-5.9,8.6-5.9,1.3,0,2.7,0,4,.2,3.1.6,4.7,2.7,4.7,5.7,0,2.9-2.2,5.2-5.3,5.5-1.1.1-2.3,0-3.4,0Z"/>
    </g>
    <g>
      <path d="M249.8,154c-.5,1.5-1.1,2.9-1.6,4.4-.9,2.5-2,4.9-3.1,7.2-29.4,0-76.9,0-84.7,0s-19.9,0-29.8,0h-2.4c-1.2,0-2.5,0-3.7-.3-1.5-.3-2.7-1.1-3.5-2.3-.7-1-1.1-2.3-1-3.7.3-2.9,1.9-4.8,4.9-5.2,1.1-.2,2.3-.2,3.4-.2,17.7,0,85.9,0,121.5,0Z"/>
      <path d="M274.7,163.2c0-.2-.2-.4-.2-.6-1-2.8-2-5.6-3-8.4l3.3,9Z"/>
      <path d="M99.5,165.6c-.7,0-1.4,0-2,0-4-.2-6.5-2.6-6.5-5.9,0-3.3,2.6-5.5,6.7-5.7,1.7,0,3.4,0,5.1,0,3.4.3,5.6,2.6,5.6,5.6,0,3-2.2,5.4-5.5,5.8-1.1.1-2.3,0-3.4,0,0,0,0,0,0,0Z"/>
    </g>
    <g>
      <path d="M251.7,274.4c.4,1.2.8,2.4,1.2,3.5h-.6c-4.1,0-47.3,0-73,0h-18.7c-10.7,0-21.5,0-32.2,0-1.2,0-2.5,0-3.7-.2-2.8-.5-4.4-2.3-4.6-5.1-.2-2.8,1.1-4.9,3.8-5.8,1.4-.5,2.9-.5,4.3-.5,6.6,0,20.4,0,36.9,0,1.1,0,2.3,0,3.4,0,6,0,12.3,0,18.8,0h61.6c1,2.6,1.9,5.3,2.9,8.1Z"/>
      <path d="M99.7,277.9c-5.8,0-8.6-1.8-8.6-5.6,0-3.9,2.9-5.9,8.6-5.9,1.3,0,2.7,0,4,.2,3.1.6,4.7,2.7,4.7,5.7,0,2.9-2.2,5.2-5.3,5.5-1.1.1-2.3,0-3.4,0Z"/>
    </g>
    <g>
      <path d="M160.6,315.5c-10.7,0-21.5,0-32.2,0-1.2,0-2.5,0-3.7-.2-2.8-.5-4.4-2.3-4.6-5.1-.2-2.8,1.1-4.9,3.8-5.8,1.4-.5,2.9-.5,4.3-.5,21.6,0,118,0,139.6,0,.7,0,1.4,0,2,0,3.8.3,6.1,2.6,5.9,6-.1,3.3-2.3,5.4-6.1,5.5-5.8.1-11.5,0-17.3,0-5.7,0-86.1,0-91.7,0Z"/>
      <path d="M99.7,315.4c-5.8,0-8.6-1.8-8.6-5.6,0-3.9,2.9-5.9,8.6-5.9,1.3,0,2.7,0,4,.2,3.1.6,4.7,2.7,4.7,5.7,0,2.9-2.2,5.2-5.3,5.5-1.1.1-2.3,0-3.4,0Z"/>
    </g>
    <g>
      <path d="M211.9,229.2c7.8,2.7,14.4,6.5,19.9,11.3-15.7,0-33.5,0-47.6,0h-23.8c-9.9,0-19.9,0-29.8,0h-2.4c-1.2,0-2.5,0-3.7-.3-2.9-.6-4.8-3.1-4.5-5.9.3-2.9,1.9-4.8,4.9-5.2,1.1-.2,2.3-.2,3.4-.2h2.3c7.2,0,19.7,0,34.4,0h45.9c.3.1.6.2.9.3Z"/>
      <path d="M99.5,240.5c-.7,0-1.4,0-2,0-4-.2-6.5-2.6-6.5-5.9,0-3.3,2.6-5.5,6.7-5.7,1.7,0,3.4,0,5.1,0,3.4.3,5.6,2.6,5.6,5.6,0,3-2.2,5.4-5.5,5.8-1.1.1-2.3,0-3.4,0,0,0,0,0,0,0Z"/>
    </g>
  </g>
  <g class="st1">
    <path d="M132.6,88.1h-35.4c-4.9,0-9,4-9,9v32.4c0,4.9,4,9,9,9h35.4c4.9,0,9-4,9-9v-32.4c0-4.9-4-9-9-9ZM133.4,129.5c0,.4-.4.8-.8.8h-35.4c-.4,0-.8-.4-.8-.8v-32.4c0-.4.4-.8.8-.8h35.4c.4,0,.8.4.8.8v32.4Z"/>
  </g>
  <polygon points="165 225.2 203.9 256.1 165 290.7 165 225.2"/>
  <polygon points="203.9 256.1 192.6 247.1 187.1 247.1 168.4 232.3 168.4 247.1 130.6 247.1 130.6 163 112.3 163 112.3 263.8 168.4 263.8 168.4 283.1 190.1 263.8 195.2 263.8 203.9 256.1"/>
  <path class="st0" d="M274.7,163.2c0-.2-.2-.4-.2-.6-1-2.8-2-5.6-3-8.4l3.3,9Z"/>
  <path d="M333.6,211.6c-.2,1.6-1.5,2-2.7,2.4-5.8,2.1-11.7,4.1-17.4,6.3-.7.3-1.3.5-1.9.8-.4.2-.8.4-1.2.5-4.2,1.9-8,4.1-11.6,6.5-.5.4-1.1.8-1.6,1.2-.3.2-.5.4-.8.6-5.8,4.5-10.8,9.9-14.8,16.1-2.6,4-4.8,8.3-6.6,13-1,2.6-2,5.2-2.9,7.8-1.1,3.1-2.2,6.2-3.3,9.4-.2.6-.4,1.2-.7,1.7-.3.6-.8,1-1.7,1-.8,0-1.3-.4-1.7-.9-.3-.5-.5-1.1-.7-1.7-1.2-3.3-2.3-6.6-3.5-9.9-.7-2-1.4-4-2.2-5.9-2.9-7.6-6.6-14.2-11.3-19.9-3.6-4.4-7.6-8.3-12.2-11.6h0c-5.6-4.1-12-7.4-19.2-9.9-2.7-1-5.4-1.9-8.2-2.9-2-.7-3.9-1.4-5.9-2.1-1.1-.4-2.4-.8-2.4-2.3,0-1.5,1.3-1.9,2.4-2.3,5.7-2.1,11.5-4,17.2-6.3.9-.4,1.8-.7,2.6-1.1.5-.2.9-.4,1.4-.6,5.9-2.7,11.1-6,15.7-9.9,8.1-6.8,14.4-15.5,18.7-25.9.5-1.1.9-2.3,1.4-3.5,1-2.7,2-5.4,2.9-8.1.8-2.3,1.7-4.7,2.5-7,.4-1.2.8-2.6,2.4-2.6,1.6,0,2,1.5,2.4,2.7.9,2.4,1.7,4.8,2.6,7.2,1,2.8,2,5.6,3,8.4,0,.2.2.4.2.6,5.2,13.5,13.3,24.1,24.2,31.7,3.6,2.5,7.4,4.7,11.6,6.6,1.9.9,3.8,1.7,5.8,2.4,5,1.8,10,3.6,14.9,5.4,1.1.4,2.3.9,2.4,2.4Z"/>
  <path class="st0" d="M400.5,212.9c0,.6-.5.8-1,.9-1.4.5-2.8,1.1-4.2,1.5-7.9,2.7-13.2,7.9-15.9,15.9-.5,1.4-1,2.7-1.5,4.1-.2.5-.4,1.1-1.1,1.1-.7,0-.8-.7-1-1.2-.6-1.7-1.3-3.4-1.9-5.2-2.6-7-7.4-11.7-14.4-14.4-1.7-.6-3.3-1.2-5-1.8-.5-.2-1.3-.3-1.2-1.1,0-.7.7-.8,1.2-1,3.1-1.2,6.3-2.1,9.2-3.8,5.1-3,8.5-7.4,10.4-13,.6-1.6,1.1-3.1,1.7-4.7.2-.5.4-1,1-1,.6,0,.8.5,1,1,.6,1.6,1.2,3.1,1.7,4.7,2.6,7.5,7.8,12.6,15.2,15.2,1.6.6,3.1,1.1,4.7,1.7.5.2,1,.4,1,1Z"/>
  <path d="M400.5,212.9c0,.6-.5.8-1,.9-1.4.5-2.8,1.1-4.2,1.5-7.9,2.7-13.2,7.9-15.9,15.9-.5,1.4-1,2.7-1.5,4.1-.2.5-.4,1.1-1.1,1.1-.7,0-.8-.7-1-1.2-.6-1.7-1.3-3.4-1.9-5.2-2.6-7-7.4-11.7-14.4-14.4-1.7-.6-3.3-1.2-5-1.8-.5-.2-1.3-.3-1.2-1.1,0-.7.7-.8,1.2-1,3.1-1.2,6.3-2.1,9.2-3.8,5.1-3,8.5-7.4,10.4-13,.6-1.6,1.1-3.1,1.7-4.7.2-.5.4-1,1-1,.6,0,.8.5,1,1,.6,1.6,1.2,3.1,1.7,4.7,2.6,7.5,7.8,12.6,15.2,15.2,1.6.6,3.1,1.1,4.7,1.7.5.2,1,.4,1,1Z"/>
  <path class="st0" d="M391.7,288.7c-.1.8-.7,1.1-1.3,1.3-.1,0-.3.1-.4.2-3.1,1.1-6.2,2.2-9.2,3.4-3,1.2-5.8,2.6-8.3,4.3-4.2,2.8-7.7,6.3-10.4,10.6-1.7,2.6-3.1,5.4-4.2,8.5-1,2.8-2,5.6-3,8.3,0,0,0,0,0,.1-.3.8-.6,1.7-1.5,1.7-1.2,0-1.4-.9-1.7-1.8,0,0,0,0,0,0-.5-1.4-1-2.9-1.6-4.3-.5-1.4-1.1-2.9-1.6-4.3-.2-.6-.5-1.2-.7-1.8,0-.2-.2-.4-.3-.6,0,0,0-.1,0-.2-.1-.4-.3-.7-.5-1t0,0c0-.2-.2-.4-.3-.6,0-.1-.1-.3-.2-.4-.2-.4-.4-.8-.6-1.2,0,0,0-.2-.1-.2-.1-.2-.2-.5-.4-.7,0,0,0,0,0-.1h0c-.2-.4-.5-.8-.7-1.2,0,0,0,0,0-.1-4.5-6.9-10.8-11.9-19-15-3-1.1-6-2.2-9-3.3-.8-.3-1.6-.6-1.6-1.6,0-1,.9-1.3,1.6-1.6,2.8-1,5.6-2,8.5-3.1,8.2-3,14.6-7.9,19.1-14.6,1.8-2.7,3.4-5.7,4.6-9,1-2.6,1.8-5.1,2.8-7.7.2-.4.3-.9.4-1.3.2-.7.6-1.3,1.6-1.2,1.5.1,1.5,1.7,1.9,2.7.4,1,.8,2.1,1.2,3.2.7,1.9,1.4,3.9,2.1,5.8,4.4,10.9,12.3,18.2,23.3,22.3,1.3.5,2.7,1,4.1,1.5,1.4.5,2.8,1,4.1,1.5.8.3,1.8.6,1.8,1.8Z"/>
  <path d="M391.7,288.7c-.1.8-.7,1.1-1.3,1.3-.1,0-.3.1-.4.2-3.1,1.1-6.2,2.2-9.2,3.4-3,1.2-5.8,2.6-8.3,4.3-4.2,2.8-7.7,6.3-10.4,10.6-1.7,2.6-3.1,5.4-4.2,8.5-1,2.8-2,5.6-3,8.3,0,0,0,0,0,.1-.3.8-.6,1.7-1.5,1.7-1.2,0-1.4-.9-1.7-1.8,0,0,0,0,0,0-.5-1.4-1-2.9-1.6-4.3-.5-1.4-1.1-2.9-1.6-4.3-.2-.6-.5-1.2-.7-1.8,0-.2-.2-.4-.3-.6,0,0,0-.1,0-.2-.1-.4-.3-.7-.5-1t0,0c0-.2-.2-.4-.3-.6,0-.1-.1-.3-.2-.4-.2-.4-.4-.8-.6-1.2,0,0,0-.2-.1-.2-.1-.2-.2-.5-.4-.7,0,0,0,0,0-.1h0c-.2-.4-.5-.8-.7-1.2,0,0,0,0,0-.1-4.5-6.9-10.8-11.9-19-15-3-1.1-6-2.2-9-3.3-.8-.3-1.6-.6-1.6-1.6,0-1,.9-1.3,1.6-1.6,2.8-1,5.6-2,8.5-3.1,8.2-3,14.6-7.9,19.1-14.6,1.8-2.7,3.4-5.7,4.6-9,1-2.6,1.8-5.1,2.8-7.7.2-.4.3-.9.4-1.3.2-.7.6-1.3,1.6-1.2,1.5.1,1.5,1.7,1.9,2.7.4,1,.8,2.1,1.2,3.2.7,1.9,1.4,3.9,2.1,5.8,4.4,10.9,12.3,18.2,23.3,22.3,1.3.5,2.7,1,4.1,1.5,1.4.5,2.8,1,4.1,1.5.8.3,1.8.6,1.8,1.8Z"/>
</svg>