<?xml version="1.0" encoding="UTF-8"?>
<svg id="Layer_1" data-name="Layer 1" xmlns="http://www.w3.org/2000/svg" version="1.1" viewBox="0 0 191.78 163.91">
  <defs>
    <style>
      .cls-1 {
        fill: #000;
        stroke-width: 0px;
      }
    </style>
  </defs>
  <path class="cls-1" d="M70.25,89.44c1.06,1.81,1.93,3.36,2.87,4.86.6.96.48,1.71-.28,2.53-.93.99-1.9,1.92-3.09,2.57-.78.42-.85.88-.63,1.67,1.28,4.54,2.51,9.1,3.75,13.65.11.38.21.77.28,1.16.21,1.17-.28,1.84-1.47,1.89-1.2.05-2.4.02-3.6.02-4.76,0-9.52,0-14.28,0-1.9,0-2.42-.7-1.92-2.52,1.3-4.72,2.57-9.46,3.91-14.17.23-.82.07-1.23-.68-1.63-1.16-.62-2.13-1.5-3.05-2.45-.77-.8-.91-1.57-.29-2.53.89-1.37,1.7-2.79,2.54-4.19.12-.2.41-.4.17-.66-.18-.19-.42-.03-.61.03-3.59,1.04-7.22,1.96-10.76,3.16-3.98,1.34-6.53,5.23-6.56,9.64-.03,4.22-.04,8.43.02,12.65.01.99-.29,1.24-1.23,1.19-1.94-.09-1.63.19-1.64-1.61-.02-4.11,0-8.21,0-12.32,0-5.93,3.8-10.99,9.5-12.65,3.48-1.02,6.97-2.01,10.46-3.02.39-.11.9-.08.97-.69.05-.51-.09-.89-.51-1.23-.91-.73-1.75-1.54-2.45-2.47-.4-.53-.61-.37-.96.04-1.42,1.62-3.27,2.11-5.09,1.4-1.75-.69-2.77-2.31-2.76-4.41,0-.29-.02-.58.02-.87.1-.82-.1-1.34-.93-1.83-2.11-1.24-2.68-3.86-1.39-5.99.32-.53.31-.83,0-1.33-.9-1.45-.94-2.99-.05-4.44.4-.64.3-1.04-.03-1.64-1.53-2.77.17-6.1,3.3-6.45.72-.08.96-.46,1.25-.99,3.88-7.05,9.85-10.84,17.9-10.7,7.48.13,13.11,3.77,16.81,10.3.45.79.83,1.3,1.89,1.46,2.85.42,4.32,3.78,2.88,6.37-.34.61-.41,1-.03,1.64.87,1.45.84,2.99-.05,4.44-.31.5-.34.82-.02,1.35,1.36,2.3.67,4.86-1.66,6.16-.55.3-.7.64-.66,1.19.04.58.04,1.16.02,1.74-.05,1.81-1.19,3.4-2.85,4.02-1.67.62-3.64.22-4.77-1.17-.65-.8-.94-.65-1.47.04-.62.8-1.38,1.48-2.16,2.15-.92.79-.75,1.53.38,1.86,3.48,1.02,6.97,2.02,10.45,3.04,5.78,1.68,9.57,6.7,9.57,12.71,0,4.25-.03,8.51.02,12.76,0,.9-.22,1.28-1.14,1.12-.25-.04-.51-.03-.76,0-.76.1-.99-.22-.99-.97.03-4.14.02-8.29.01-12.43,0-5.36-2.87-9.13-8-10.57-2.93-.83-5.86-1.68-8.79-2.53-.34-.1-.68-.18-1.35-.35ZM61.95,60.06c2.05,0,3.72,0,5.4,0,5.16,0,8.83,3.69,8.83,8.88,0,3.45,0,6.91,0,10.36,0,1.18.57,1.87,1.5,1.88.96,0,1.56-.74,1.54-1.96-.02-1.02-.08-2.03-.06-3.05.01-.9.44-1.58,1.39-1.67.99-.1,1.59-.51,1.6-1.54.01-1.06-.72-1.42-1.63-1.55-.8-.12-1.24-.59-1.25-1.39-.02-.89.52-1.3,1.33-1.45.11-.02.22-.01.32-.04.76-.19,1.21-.65,1.24-1.45.02-.8-.4-1.29-1.15-1.52-.14-.04-.29-.05-.43-.08-.79-.13-1.27-.6-1.27-1.39,0-.84.48-1.33,1.33-1.45.21-.03.43-.08.63-.16.8-.35,1.05-1,.84-1.79-.2-.75-.78-1.13-1.57-1.09-1.96.12-1.96.14-2.76-1.68-3.31-7.58-11.82-11.63-19.78-9.36-5.25,1.5-8.93,4.85-11.03,9.89-.4.95-.92,1.54-2.05,1.27-1.1-.26-1.87.14-2.08.99-.23.98.24,1.68,1.41,1.91.87.17,1.43.6,1.4,1.5-.03.84-.57,1.28-1.41,1.39-.92.11-1.47.63-1.43,1.59.03.92.61,1.34,1.48,1.44.82.1,1.37.51,1.39,1.39.03.93-.52,1.38-1.4,1.48-.04,0-.07,0-.11.01-.83.19-1.4.61-1.37,1.55.03.91.54,1.39,1.43,1.48,1.12.11,1.57.79,1.56,1.85,0,1.16-.08,2.33-.02,3.48.05.89.66,1.4,1.54,1.36.86-.04,1.39-.56,1.44-1.47.02-.33.01-.65.01-.98,0-3.38,0-6.76,0-10.14.01-4.01,2.79-7.48,6.71-8.3,2.26-.47,4.57-.08,6.47-.21ZM62.52,62.93h0c-1.71,0-3.42-.02-5.12.01-2.71.05-5.08,1.61-5.47,4.12-.51,3.33-.52,6.73.09,10.08.06.31.21.62.36.91,1.83,3.73,4.9,6.03,8.67,7.51,1.19.47,2.36.25,3.5-.22,1.83-.76,3.46-1.83,4.93-3.16,2.54-2.31,4.1-5.04,3.81-8.63-.12-1.55,0-3.12-.02-4.69-.03-3.6-2.35-5.92-5.95-5.93-1.6,0-3.2,0-4.8,0ZM62.39,114.87c2.18,0,4.35-.01,6.53,0,.66,0,1.02-.05.78-.89-1.15-4.08-2.26-8.17-3.36-12.27-.14-.53-.36-.66-.93-.53-1.93.42-3.89.45-5.83.05-.63-.13-.9.05-1.06.68-1.07,4.03-2.16,8.05-3.3,12.06-.23.82.06.92.74.91,2.14-.02,4.28,0,6.42,0ZM62.47,98.65c2.13-.05,4.2-.62,6.07-1.86,1.95-1.3,1.93-1.28.75-3.31-.41-.72-.64-.82-1.3-.18-2.89,2.77-7.04,3.04-10.28.81-.52-.36-.93-1.27-1.5-1.03-.52.22-.73,1.11-1.16,1.64-.51.64-.22,1.01.29,1.42,2.06,1.65,4.41,2.45,7.13,2.51ZM67.46,88.53q0-1.35-1.18-.8c-.86.39-1.74.71-2.68.89-1.89.36-3.58-.28-5.25-1.03-.24-.11-.7-.52-.79-.03-.14.8-.31,1.68.14,2.45,1.2,2.07,3.67,3.09,6,2.54,1.87-.44,3.75-2.45,3.76-4.01Z"/>
  <g>
    <path class="cls-1" d="M72.81,142.37c-16.33.08-32.65-.13-48.98.12-6.99.11-12.25-4.67-12.22-12.18.13-31.11.05-62.21.06-93.32,0-7.72,4.28-12.06,11.99-12.07,24.27-.02,48.54,0,72.8,0,23.97,0,47.95.01,71.92-.01,3.17,0,6.17.42,8.65,2.6,2.59,2.27,3.8,5.19,3.8,8.59.01,31.7.03,63.39,0,95.09,0,6.71-4.57,11.21-11.25,11.23-16.62.04-33.24.04-49.86-.03M96.02,135.99c24.19,0,48.38,0,72.57,0,4.45,0,5.82-1.36,5.82-5.77,0-31.03,0-62.06,0-93.09,0-4.37-1.48-5.88-5.79-5.88-48.23,0-96.47,0-144.7,0-4.36,0-5.81,1.47-5.81,5.84,0,30.88,0,61.76,0,92.65,0,5.04,1.2,6.24,6.23,6.24,23.9,0,47.79,0,71.69,0ZM109.11,142.39c-4.26.06-8.61,0-12.87,0-4.18,0-8.27.09-12.45,0"/>
    <path class="cls-1" d="M131.56,71.86c7.28,0,14.56,0,21.84,0,2.53,0,3.99,1.14,4.05,3.06.06,1.98-1.5,3.33-4.08,3.33-14.63.02-29.26.02-43.9,0-2.68,0-4.03-1.21-3.97-3.36.06-2.06,1.31-3.03,3.99-3.03,7.35-.01,14.71,0,22.06,0Z"/>
    <path class="cls-1" d="M131.55,89.07c7.28,0,14.56-.01,21.84,0,2.52,0,3.99,1.14,4.06,3.05.08,1.98-1.5,3.33-4.06,3.34-14.63.02-29.27.02-43.9,0-2.69,0-4.04-1.19-3.98-3.34.05-2.06,1.31-3.05,3.98-3.05,7.35-.01,14.71,0,22.06,0Z"/>
    <path class="cls-1" d="M131.34,54.65c7.35,0,14.71,0,22.06,0,2.53,0,3.98,1.13,4.05,3.05.07,1.97-1.5,3.33-4.07,3.34-14.63.02-29.26.02-43.89,0-2.68,0-4.03-1.22-3.97-3.36.06-2.06,1.31-3.03,3.99-3.03,7.28-.01,14.56,0,21.84,0Z"/>
    <path class="cls-1" d="M131.54,106.3c7.28,0,14.56,0,21.84,0,2.53,0,3.98,1.11,4.07,3.04.09,1.97-1.5,3.36-4.05,3.37-14.63.02-29.27.01-43.9.01-1.54,0-3-.32-3.7-1.87-.55-1.2-.45-2.44.46-3.51.86-1.01,2.02-1.05,3.22-1.05,7.35.02,14.71,0,22.06,0Z"/>
  </g>
</svg>