<svg xmlns="http://www.w3.org/2000/svg" version="1.1" viewBox="0 0 191.78 163.91"><defs><style>.cls-1,.cls-2{fill:#000;stroke-width:0}.cls-2{fill:#fff}</style></defs><g id="Layer_1" data-name="Layer 1"><path d="M113.3,43.85c-.12-.13-.26-.24-.44-.32v-.21h-.81c-.25-.03-.52-.05-.85-.05-16.13.03-27.1.05-43.23.05h-23.51c-9.32,0-14.84,0-24.16,0q-2.79,0-2.79,2.81c0,38.09.02,58.32-.06,96.41,0,2.18.62,2.65,2.62,2.65,33.36-.06,57.76-.06,91.12.01,1.06,0,1.94.16,2.11-.57V43.85ZM39.28,128.42c-.05-4.11-.04-8.22-.02-12.33.03-4.57,2.67-8.6,6.8-9.99,3.67-1.24,7.43-2.2,11.16-3.27.2-.06.45-.23.64-.03.25.27-.05.48-.17.68-.87,1.45-1.71,2.92-2.63,4.35-.64,1-.51,1.79.3,2.62.95.98,1.96,1.9,3.16,2.54.78.41.94.83.7,1.69-1.3,4.57-2.53,9.16-3.79,13.75-5.38,0-10.75,0-16.13,0ZM47.22,87.07c-.92-.09-1.45-.59-1.48-1.53-.04-.97.56-1.41,1.42-1.61.04,0,.07,0,.11-.01.91-.11,1.48-.58,1.45-1.54-.02-.91-.59-1.34-1.44-1.44-.9-.11-1.49-.54-1.53-1.49-.04-1,.53-1.53,1.48-1.65.87-.11,1.43-.56,1.46-1.44.04-.94-.55-1.38-1.45-1.56-1.21-.24-1.71-.97-1.46-1.98.21-.88,1.01-1.29,2.15-1.03,1.18.28,1.72-.33,2.13-1.32,2.18-5.23,5.99-8.7,11.43-10.26,8.25-2.36,17.07,1.85,20.5,9.7.82,1.88.82,1.87,2.86,1.74.81-.05,1.41.35,1.62,1.13.22.81-.04,1.5-.87,1.86-.2.09-.43.14-.65.17-.88.13-1.38.64-1.37,1.51,0,.82.5,1.31,1.32,1.44.15.02.3.03.44.08.77.24,1.22.75,1.19,1.57-.03.83-.5,1.31-1.28,1.5-.11.03-.23.02-.34.04-.84.15-1.4.58-1.38,1.5.02.83.47,1.32,1.3,1.44.94.14,1.7.5,1.68,1.61-.01,1.06-.63,1.49-1.66,1.59-.98.1-1.42.8-1.44,1.73-.02,1.05.05,2.11.06,3.16.02,1.26-.6,2.04-1.6,2.03-.96,0-1.55-.72-1.55-1.95,0-3.58,0-7.16,0-10.74,0-5.38-3.8-9.21-9.15-9.21-1.73,0-3.47,0-5.59,0-1.97.14-4.36-.27-6.71.22-4.06.85-6.94,4.44-6.95,8.6,0,3.5,0,7.01,0,10.51,0,.34,0,.68-.01,1.02-.05.94-.6,1.49-1.5,1.53-.91.04-1.55-.48-1.6-1.41-.06-1.2.02-2.41.02-3.61,0-1.1-.46-1.8-1.62-1.91ZM55.19,79.38c.4-2.6,2.86-4.22,5.67-4.27,1.77-.03,3.54,0,5.31,0h0c1.66,0,3.32-.01,4.97,0,3.73.01,6.15,2.42,6.17,6.15.01,1.62-.1,3.25.02,4.86.29,3.72-1.32,6.54-3.95,8.94-1.52,1.38-3.21,2.49-5.11,3.28-1.18.49-2.39.71-3.62.23-3.91-1.53-7.09-3.92-8.99-7.78-.15-.3-.31-.62-.37-.94-.63-3.48-.63-7-.1-10.45ZM71.3,101.63c0,1.61-1.96,3.7-3.9,4.16-2.42.58-4.97-.48-6.22-2.63-.46-.79-.29-1.71-.14-2.54.09-.51.57-.08.82.03,1.73.78,3.48,1.45,5.44,1.07.97-.19,1.88-.51,2.78-.92q1.23-.56,1.23.83ZM58.42,108.05c.44-.55.66-1.47,1.2-1.7.59-.25,1.02.69,1.55,1.07,3.36,2.32,7.66,2.04,10.66-.84.69-.66.92-.55,1.35.19,1.22,2.11,1.25,2.09-.78,3.44-1.94,1.29-4.08,1.88-6.29,1.93-2.82-.06-5.26-.89-7.39-2.6-.54-.43-.83-.81-.3-1.48ZM58.55,128.41c0-.11.02-.23.06-.4,1.18-4.16,2.31-8.33,3.42-12.5.17-.65.45-.84,1.1-.7,2.01.42,4.04.39,6.05-.05.59-.13.81,0,.96.55,1.15,4.24,2.3,8.49,3.49,12.72.05.16.05.27.05.38-5.05,0-10.09,0-15.13,0ZM92.99,128.41c-5.39,0-10.78,0-16.17,0-1.25-4.59-2.5-9.19-3.79-13.78-.23-.82-.16-1.29.65-1.73,1.23-.67,2.24-1.63,3.2-2.66.79-.85.92-1.63.29-2.62-.98-1.55-1.87-3.16-2.98-5.04.69.18,1.05.26,1.4.36,7.2,2.07,17.4,3.84,17.41,13.58,0,3.96.01,7.92-.01,11.89ZM107.45,128.32c-.3.06-.65.09-1.07.09-3.47,0-6.93,0-10.4,0-.04-4.13-.02-8.26-.02-12.38-.01-11.78-11.9-13.73-20.77-16.32-1.18-.34-1.35-1.11-.4-1.93.8-.69,1.59-1.4,2.24-2.23.56-.71.85-.87,1.53-.04,1.17,1.44,3.21,1.86,4.95,1.22,1.72-.64,2.9-2.29,2.96-4.16.02-.6.02-1.21-.02-1.81-.04-.58.12-.92.68-1.24,2.42-1.34,3.13-4,1.72-6.38-.32-.55-.29-.88.02-1.4.92-1.5.96-3.1.05-4.61-.4-.66-.32-1.07.03-1.7,1.49-2.69-.03-6.17-2.98-6.6-1.1-.16-1.5-.7-1.96-1.51-3.83-6.77-9.67-10.54-17.43-10.68-8.34-.15-14.53,3.78-18.56,11.09-.3.55-.55.94-1.29,1.02-3.24.37-5,3.82-3.42,6.69.34.62.45,1.03.04,1.7-.92,1.5-.88,3.1.05,4.6.33.52.34.83,0,1.38-1.33,2.21-.74,4.92,1.44,6.21.85.5,1.06,1.04.96,1.89-.03.3-.02.6-.02.9,0,2.18,1.05,3.86,2.87,4.57,1.88.74,3.8.23,5.28-1.45.37-.42.59-.59,1-.04.73.96,1.59,1.81,2.54,2.56.43.35.58.74.53,1.27-.07.64-.6.6-1,.72-3.61,1.05-7.23,2.08-10.84,3.13-5.91,1.72-9.85,6.97-9.85,13.12,0,4.14-.01,8.28,0,12.42-4.57,0-12.2,0-12.2,0,0-.1.02-.63.03-2.7.08-24.34,0-48.69,0-73.03,0-2.56-.03-2.4-.03-2.4,1.73,0,1.72-.02,3.45-.02h.19s79.71-.01,79.71-.01v78.07Z" class="cls-1"/><rect width="10.01" height="3.04" x="72.67" y="39.49" class="cls-2" rx="1.13" ry="1.13"/><rect width=".14" height=".14" x="24.72" y="18.19" class="cls-2"/></g><g id="Layer_2" data-name="Layer 2"><path d="M81.11,39.41c.26-.97.53-2.26.95-3.97.62-2.53.89-3.48.89-3.48,27.03,6.49,58.76,15.24,86.05,22.24,0,0,.04.56-.53,2.67-8.49,31.18-12.3,45.84-20.15,70.42-.9,2.81-.64,2.79-.92,2.72-8.54-2.26-16.1-4.44-24.35-6.69.03-.15,0-.22,0-.4.02-.41,0-.83-.02-1.24-.23-4.89-.44-9.77-.71-14.66-.05-.85.13-1.3,1.01-1.55,1.34-.38,2.54-1.11,3.7-1.9.96-.65,1.25-1.39.86-2.5-.61-1.73-1.14-3.49-1.8-5.56.64.32.97.48,1.29.66,2.77,1.51,5.54,3.04,8.32,4.55,4.86,2.63,6.91,7.09,5.7,12.51-.93,4.19-1.86,8.39-2.83,12.57-.18.77,0,1.02.78,1.21.35.09.55.16.8.21.9.17,1.18,0,1.38-.92.92-4.31,1.91-8.61,2.87-12.91,1.35-6.07-1.34-12.02-6.81-15.02-3.3-1.81-6.6-3.62-9.89-5.44-1.07-.59-1.07-1.38.03-1.97.93-.5,1.86-1.02,2.67-1.69.7-.58,1.03-.67,1.5.29.83,1.66,2.73,2.52,4.56,2.27,1.82-.25,3.33-1.6,3.8-3.42.15-.58.28-1.17.37-1.77.09-.57.32-.88.94-1.06,2.65-.78,3.93-3.22,3.07-5.85-.2-.6-.1-.92.33-1.36,1.23-1.26,1.61-2.82,1.06-4.48-.24-.73-.08-1.12.4-1.65,2.04-2.3,1.32-6.02-1.47-7.1-1.03-.4-1.31-1.01-1.58-1.91-2.26-7.44-7.14-12.4-14.68-14.23-4.34-1.05-8.32-.78-11.94.62v3.23c1.87-.84,3.94-1.33,6.19-1.47,8.57-.5,16.26,5.53,17.89,13.94.39,2.02.39,2,2.41,2.32.8.13,1.3.65,1.34,1.45.04.84-.37,1.45-1.25,1.62-.22.04-.45.04-.67.02-.88-.07-1.48.32-1.67,1.17-.18.8.2,1.38.97,1.69.14.06.29.1.42.17.7.4,1.02.99.82,1.8-.21.8-.77,1.16-1.58,1.18-.11,0-.22-.03-.34-.03-.85-.03-1.49.27-1.67,1.17-.16.82.17,1.39.96,1.69.89.34,1.55.86,1.29,1.94-.24,1.03-.94,1.32-1.97,1.19-.98-.12-1.56.47-1.78,1.37-.25,1.02-.41,2.07-.63,3.1-.25,1.23-1.03,1.86-2,1.63-.94-.22-1.35-1.04-1.09-2.24.77-3.5,1.56-6.99,2.34-10.48,1.18-5.25-1.7-9.81-6.92-10.98-1.69-.38-3.38-.76-5.46-1.22-1.95-.29-4.2-1.22-6.59-1.25-.34,0-.67.06-1,.09v2.97c.75-.1,1.54-.09,2.33.08,1.73.35,3.46.77,5.19,1.15,0,0,0,0,0,0,1.62.36,3.24.72,4.85,1.09,3.64.83,5.47,3.7,4.68,7.35-.34,1.58-.81,3.15-1.04,4.75-.53,3.69-2.72,6.1-5.81,7.86-1.78,1.02-3.68,1.73-5.7,2.08-1.26.22-2.48.18-3.59-.57-.32-.22-.61-.46-.91-.69v3.59c.85.43,1.77.73,2.8.76.99.03,1.95-.09,2.91-.29q1.33-.28,1.02,1.08c-.36,1.57-2.72,3.18-4.71,3.21-.7,0-1.38-.12-2.02-.35v3.12c2.03.45,4.21.16,6.18-1.04.81-.49,1.01-.34,1.27.48.73,2.33.76,2.31-1.51,3.18-1.96.75-3.97.89-5.94.6v3.02c.59.07,1.19.12,1.79.12.6,0,.79.19.82.75.19,4.39.39,8.78.63,13.17.05.9-.09,2.35-.05,2.35.77,0-2.24-.66-3.19-.88v19.11c11.18,2.68,16.98,5.25,28.14,8.04,1.8.45,2.68.21,3.19-1.54,11.11-38.36,15.12-51.82,26.51-94.52.42-1.59.2-2.24-1.53-2.66-33.78-8.2-60.29-15.74-93.86-24.76-.4-.11-.64.11-.97,1.6-.99,4.42-1.24,4.68-2.32,9.08-.34,1.37-.67,2.49-.87,3.37" class="cls-1"/></g></svg>