<?xml version="1.0" encoding="UTF-8" standalone="no"?>
<!-- Created with Inkscape (http://www.inkscape.org/) -->

<svg
   xmlns:dc="http://purl.org/dc/elements/1.1/"
   xmlns:cc="http://creativecommons.org/ns#"
   xmlns:rdf="http://www.w3.org/1999/02/22-rdf-syntax-ns#"
   xmlns:svg="http://www.w3.org/2000/svg"
   xmlns="http://www.w3.org/2000/svg"
   xmlns:sodipodi="http://sodipodi.sourceforge.net/DTD/sodipodi-0.dtd"
   xmlns:inkscape="http://www.inkscape.org/namespaces/inkscape"
   width="35.768188mm"
   height="27.729427mm"
   viewBox="0 0 35.768188 27.729427"
   version="1.1"
   id="svg6908"
   inkscape:version="0.92.5 (2060ec1f9f, 2020-04-08)"
   sodipodi:docname="juriscraper.svg">
  <defs
     id="defs6902" />
  <sodipodi:namedview
     id="base"
     pagecolor="#ffffff"
     bordercolor="#666666"
     borderopacity="1.0"
     inkscape:pageopacity="0.0"
     inkscape:pageshadow="2"
     inkscape:zoom="0.35"
     inkscape:cx="-708.12085"
     inkscape:cy="32.402051"
     inkscape:document-units="mm"
     inkscape:current-layer="layer1"
     showgrid="false"
     fit-margin-top="0"
     fit-margin-left="0"
     fit-margin-right="0"
     fit-margin-bottom="0"
     inkscape:window-width="2560"
     inkscape:window-height="1328"
     inkscape:window-x="0"
     inkscape:window-y="38"
     inkscape:window-maximized="1" />
  <metadata
     id="metadata6905">
    <rdf:RDF>
      <cc:Work
         rdf:about="">
        <dc:format>image/svg+xml</dc:format>
        <dc:type
           rdf:resource="http://purl.org/dc/dcmitype/StillImage" />
        <dc:title></dc:title>
      </cc:Work>
    </rdf:RDF>
  </metadata>
  <g
     inkscape:label="Layer 1"
     inkscape:groupmode="layer"
     id="layer1"
     transform="translate(-124.23495,-129.67695)">
    <g
       id="g7644"
       transform="matrix(0.35277777,0,0,-0.35277777,126.35162,138.35634)"
       inkscape:export-xdpi="213.42674"
       inkscape:export-ydpi="213.42674">
      <path
         d="M 0,0 H 26.92 C 25.09,-1 23.38,-2 21.83,-4 H 0 Z"
         style="fill:#999999;fill-opacity:1;fill-rule:nonzero;stroke:none"
         id="path7646"
         inkscape:connector-curvature="0" />
    </g>
    <g
       id="g7648"
       transform="matrix(0.35277777,0,0,-0.35277777,142.21593,139.62243)"
       inkscape:export-xdpi="213.42674"
       inkscape:export-ydpi="213.42674">
      <path
         d="m 0,0 c 0.311,-0.069 0.61,-0.411 0.92,-0.411 h -11.29 c 0.96,1 1.95,0.586 2.95,0.716 C -4.979,0.645 -2.47,0.62 0,0"
         style="fill:#999999;fill-opacity:1;fill-rule:nonzero;stroke:none"
         id="path7650"
         inkscape:connector-curvature="0" />
    </g>
    <g
       id="g7652"
       transform="matrix(0.35277777,0,0,-0.35277777,154.57384,138.35634)"
       inkscape:export-xdpi="213.42674"
       inkscape:export-ydpi="213.42674">
      <path
         d="m 0,0 v -4 h -21.38 c -0.1,0 -0.19,0.29 -0.29,0.37 -1.44,1.33 -3.05,2.63 -4.8,3.63 z"
         style="fill:#999999;fill-opacity:1;fill-rule:nonzero;stroke:none"
         id="path7654"
         inkscape:connector-curvature="0" />
    </g>
    <g
       id="g7656"
       transform="matrix(0.35277777,0,0,-0.35277777,153.51551,139.0619)"
       inkscape:export-xdpi="213.42674"
       inkscape:export-ydpi="213.42674">
      <path
         d="m 0,0 v -28.456 l -7,1.912 V 0 Z"
         style="fill:#999999;fill-opacity:1;fill-rule:nonzero;stroke:none"
         id="path7658"
         inkscape:connector-curvature="0" />
    </g>
    <path
       d="m 127.73627,138.97265 h 2.29447 v 14.59371 h -2.29447 z"
       style="fill:#999999;fill-opacity:1;fill-rule:nonzero;stroke:none;stroke-width:0.35277775"
       id="path7660"
       inkscape:connector-curvature="0"
       inkscape:export-xdpi="213.42674"
       inkscape:export-ydpi="213.42674" />
    <path
       d="M 153.92261,140.24547 H 150.682 v -1.20086 h 3.24061 z"
       style="fill:#2c3e50;fill-opacity:1;fill-rule:nonzero;stroke:none;stroke-width:0.35277775"
       id="path7662"
       inkscape:connector-curvature="0"
       inkscape:export-xdpi="213.42674"
       inkscape:export-ydpi="213.42674" />
    <path
       d="m 127.26284,153.56601 h 3.24062 v -1.63195 h -3.24062 z"
       style="fill:#2c3e50;fill-opacity:1;fill-rule:nonzero;stroke:none;stroke-width:0.35277775"
       id="path7664"
       inkscape:connector-curvature="0"
       inkscape:export-xdpi="213.42674"
       inkscape:export-ydpi="213.42674" />
    <path
       d="m 127.26284,140.24547 h 3.24062 v -1.20086 h -3.24062 z"
       style="fill:#2c3e50;fill-opacity:1;fill-rule:nonzero;stroke:none;stroke-width:0.35277775"
       id="path7666"
       inkscape:connector-curvature="0"
       inkscape:export-xdpi="213.42674"
       inkscape:export-ydpi="213.42674" />
    <path
       d="m 153.9212,153.56706 h -0.47307 v -0.13052 h 0.47307 z"
       style="fill:#999999;fill-opacity:1;fill-rule:nonzero;stroke:none;stroke-width:0.35277775"
       id="path7668"
       inkscape:connector-curvature="0"
       inkscape:export-xdpi="213.42674"
       inkscape:export-ydpi="213.42674" />
    <g
       id="g7670"
       transform="matrix(0.35277777,0,0,-0.35277777,138.50488,155.64902)"
       inkscape:export-xdpi="213.42674"
       inkscape:export-ydpi="213.42674">
      <path
         d="m 0,0 c 0.04,-0.01 0.08,0.019 0.12,0.019 h -36.57 v 6 h 24.57 c 2.02,-2 4.35,-3.304 6.949,-4.444 C -4.86,1.535 -4.8,1.518 -4.73,1.487 -3.17,0.817 -1.59,0.36 0,0"
         style="fill:#999999;fill-opacity:1;fill-rule:nonzero;stroke:none"
         id="path7672"
         inkscape:connector-curvature="0" />
    </g>
    <g
       id="g7674"
       transform="matrix(0.35277777,0,0,-0.35277777,154.77849,155.64246)"
       inkscape:export-xdpi="213.42674"
       inkscape:export-ydpi="213.42674">
      <path
         d="m 0,0 h -34.47 c 0.57,0 1.12,0.211 1.67,0.372 0.84,0.25 1.66,0.51 2.47,0.84 0.16,0.06 0.32,0.185 0.49,0.306 0.09,0.07 0.18,0.132 0.279,0.172 2.511,1.09 4.861,2.716 6.931,4.567 l 7.925,-0.09 c 0.687,-0.281 1.545,-0.643 2.135,-0.893 l 8.79,-3.712 z"
         style="fill:#999999;fill-opacity:1;fill-rule:nonzero;stroke:none"
         id="path7676"
         inkscape:connector-curvature="0" />
    </g>
    <g
       id="g7678"
       transform="matrix(0.35277777,0,0,-0.35277777,155.98495,156.25879)"
       inkscape:export-xdpi="213.42674"
       inkscape:export-ydpi="213.42674">
      <path
         d="m 0,0 v -3.253 h -90 v 7 h 35.72 c 1.56,-1 4.96,-1.908 5.02,-1.918 0.93,-0.19 1.88,-0.484 2.81,-0.575 2.5,-0.26 5,-0.212 7.42,0.228 0.39,0.06 0.77,0.1 1.14,0.179 0.57,0.12 1.12,0.255 1.67,0.415 0.84,0.25 1.66,0.532 2.47,0.862 0.16,0.06 26.125,0.312 26.125,0.312 l 4.01,-1.618 z"
         style="fill:#2c3e50;fill-opacity:1;fill-rule:nonzero;stroke:none"
         id="path7680"
         inkscape:connector-curvature="0" />
    </g>
    <g
       id="g7682"
       transform="matrix(0.35277777,0,0,-0.35277777,154.75023,138.35634)"
       inkscape:export-xdpi="213.42674"
       inkscape:export-ydpi="213.42674">
      <path
         d="m 0,0 h -26.97 c -0.88,1 -1.8,0.825 -2.76,1.235 C -30.54,1.575 -31.35,2 -32.17,2 h 20.25 L -40.5,19.103 v 0.09 -0.05 0.05 -0.09 L -68.34,2 h 19.94 c -1.2,0 -2.37,-0.644 -3.49,-1.184 -0.57,-0.269 -1.392,-0.45 -1.942,-0.77 L -80.41,0.074 -40.5,24.513 v 0.09 -0.05 0.05 -0.09 z"
         style="fill:#2c3e50;fill-opacity:1;fill-rule:nonzero;stroke:none"
         id="path7684"
         inkscape:connector-curvature="0" />
    </g>
    <g
       id="g7686"
       transform="matrix(0.35277777,0,0,-0.35277777,140.64875,133.54012)"
       inkscape:export-xdpi="213.42674"
       inkscape:export-ydpi="213.42674">
      <path
         d="M 0,0 C -0.053,0 -0.106,-0.004 -0.158,-0.008 -0.212,-0.004 -0.264,0 -0.317,0 c -1.866,0 -3.377,-1.511 -3.377,-3.376 0,-1.865 1.511,-3.377 3.377,-3.377 0.053,0 0.105,0.004 0.159,0.007 0.052,-0.003 0.105,-0.007 0.158,-0.007 1.865,0 3.377,1.512 3.377,3.377 C 3.377,-1.511 1.865,0 0,0"
         style="fill:#2c3e50;fill-opacity:1;fill-rule:nonzero;stroke:none"
         id="path7688"
         inkscape:connector-curvature="0" />
    </g>
    <g
       id="g7690"
       transform="matrix(0.35277777,0,0,-0.35277777,134.1799,153.17301)"
       inkscape:export-xdpi="213.42674"
       inkscape:export-ydpi="213.42674">
      <path
         d="M 0,0 C 0.13,-1 0.25,0 0.38,0 Z"
         style="fill:#2c3e50;fill-opacity:1;fill-rule:nonzero;stroke:none"
         id="path7692"
         inkscape:connector-curvature="0" />
    </g>
    <g
       id="g7694"
       transform="matrix(0.35277777,0,0,-0.35277777,146.5316,149.09419)"
       inkscape:export-xdpi="213.42674"
       inkscape:export-ydpi="213.42674">
      <path
         d="m 0,0 c -0.587,-1.4 -1.33,-2.669 -2.205,-3.821 -2.372,-3.146 -5.666,-5.379 -9.329,-6.47 -0.336,-0.1 -0.675,-0.201 -1.013,-0.269 -2.162,-0.526 -4.445,-0.656 -6.708,-0.337 -1.6,0.208 -3.195,0.654 -4.755,1.319 -9.299,3.98 -13.609,14.73 -9.629,24 0.368,0.863 0.805,1.677 1.294,2.441 2.082,3.385 5.161,5.886 8.691,7.285 1.411,0.566 2.881,0.953 4.399,1.152 2.202,0.307 4.475,0.208 6.708,-0.347 0.984,-0.229 1.966,-0.557 2.928,-0.963 C -0.326,20.009 3.979,9.26 0,0 M 34.649,-8.346 15.046,0.07 C 13,0.943 10.739,0.526 9.12,-0.754 L 6.382,0.407 c 3.405,11.553 -2.324,24.099 -13.69,28.982 -0.89,0.377 -1.794,0.705 -2.699,0.962 -3.931,1.171 -7.976,1.281 -11.787,0.478 -1.919,-0.397 -3.784,-1.034 -5.541,-1.877 -3.404,-1.627 -6.432,-4.06 -8.784,-7.176 -1.152,-1.518 -2.145,-3.205 -2.936,-5.041 -5.252,-12.25 0.447,-26.442 12.723,-31.713 1.49,-0.634 3.008,-1.111 4.538,-1.438 0.841,-0.179 1.695,-0.318 2.539,-0.396 2.263,-0.239 4.518,-0.14 6.708,0.257 0.863,0.148 1.709,0.347 2.54,0.585 0.757,0.228 1.501,0.487 2.236,0.785 3.523,1.409 6.699,3.642 9.239,6.569 0.984,1.132 1.866,2.363 2.642,3.693 L 6.559,-5.984 C 6.51,-8.287 7.83,-10.521 10.083,-11.483 L 29.705,-19.9 c 2.938,-1.261 6.383,0.099 7.644,3.067 l 0.368,0.843 c 1.261,2.948 -0.1,6.383 -3.068,7.644"
         style="fill:#2c3e50;fill-opacity:1;fill-rule:nonzero;stroke:none"
         id="path7696"
         inkscape:connector-curvature="0" />
    </g>
    <g
       id="g7698"
       transform="matrix(0.35277777,0,0,-0.35277777,137.6984,149.00529)"
       inkscape:export-xdpi="213.42674"
       inkscape:export-ydpi="213.42674">
      <path
         d="m 0,0 c 0,1.005 -0.815,1.819 -1.822,1.819 -1.006,0 -1.822,-0.814 -1.822,-1.819 0,-1.005 0.816,-1.82 1.822,-1.82 C -0.815,-1.82 0,-1.005 0,0"
         style="fill:#999999;fill-opacity:1;fill-rule:nonzero;stroke:none"
         id="path7700"
         inkscape:connector-curvature="0" />
    </g>
    <g
       id="g7702"
       transform="matrix(0.35277777,0,0,-0.35277777,141.76808,141.19511)"
       inkscape:export-xdpi="213.42674"
       inkscape:export-ydpi="213.42674">
      <path
         d="m 0,0 h -8.855 c -2.417,0 -4.377,-1.96 -4.377,-4.377 v -20.997 c 0,-2.417 1.96,-4.377 4.377,-4.377 H 3.778 c 2.418,0 4.375,1.96 4.375,4.377 v 17.217 z"
         style="fill:#2c3e50;fill-opacity:1;fill-rule:nonzero;stroke:none"
         id="path7704"
         inkscape:connector-curvature="0" />
    </g>
    <g
       id="g7706"
       transform="matrix(0.35277777,0,0,-0.35277777,141.76808,141.19511)"
       inkscape:export-xdpi="213.42674"
       inkscape:export-ydpi="213.42674">
      <path
         d="M 0,0 8.153,-8.157 H 1.741 C 0.78,-8.157 0,-7.378 0,-6.417 Z"
         style="fill:#999999;fill-opacity:1;fill-rule:nonzero;stroke:none"
         id="path7708"
         inkscape:connector-curvature="0" />
    </g>
    <g
       id="g7710"
       transform="matrix(0.35277777,0,0,-0.35277777,137.11307,145.44189)"
       inkscape:export-xdpi="213.42674"
       inkscape:export-ydpi="213.42674">
      <path
         d="m 0,0 c -1.077,0 -1.953,-0.877 -1.953,-1.958 v -8.198 h 0.035 C -1.745,-9.251 -0.953,-8.57 0,-8.57 H 19.716 V 0 Z"
         style="fill:#999999;fill-opacity:1;fill-rule:nonzero;stroke:none"
         id="path7712"
         inkscape:connector-curvature="0" />
    </g>
    <g
       id="g7714"
       transform="matrix(0.35277777,0,0,-0.35277777,138.18551,146.99545)"
       inkscape:export-xdpi="213.42674"
       inkscape:export-ydpi="213.42674">
      <path
         d="m 0,0 c 0.19,-0.05 0.43,-0.07 0.72,-0.07 1.05,0 1.689,0.509 1.689,1.439 0,0.89 -0.63,1.319 -1.59,1.319 C 0.44,2.688 0.15,2.659 0,2.619 Z m -0.869,3.248 c 0.42,0.07 0.97,0.13 1.669,0.13 0.859,0 1.489,-0.2 1.888,-0.56 C 3.059,2.499 3.278,2.009 3.278,1.409 3.278,0.799 3.099,0.32 2.759,-0.03 2.299,-0.52 1.55,-0.77 0.7,-0.77 0.44,-0.77 0.2,-0.76 0,-0.709 v -2.699 h -0.869 z"
         style="fill:#ffffff;fill-opacity:1;fill-rule:nonzero;stroke:none"
         id="path7716"
         inkscape:connector-curvature="0" />
    </g>
    <g
       id="g7718"
       transform="matrix(0.35277777,0,0,-0.35277777,140.0624,147.95455)"
       inkscape:export-xdpi="213.42674"
       inkscape:export-ydpi="213.42674">
      <path
         d="m 0,0 c 0.22,-0.04 0.54,-0.05 0.88,-0.05 1.858,0 2.868,1.04 2.868,2.859 C 3.758,4.398 2.858,5.407 1.02,5.407 0.57,5.407 0.23,5.367 0,5.317 Z m -0.869,5.957 c 0.529,0.08 1.159,0.14 1.848,0.14 1.25,0 2.139,-0.29 2.729,-0.84 C 4.308,4.708 4.657,3.928 4.657,2.838 4.657,1.739 4.317,0.84 3.688,0.22 3.059,-0.41 2.02,-0.75 0.71,-0.75 c -0.62,0 -1.14,0.031 -1.579,0.081 z"
         style="fill:#ffffff;fill-opacity:1;fill-rule:nonzero;stroke:none"
         id="path7720"
         inkscape:connector-curvature="0" />
    </g>
    <g
       id="g7722"
       transform="matrix(0.35277777,0,0,-0.35277777,142.10502,145.82133)"
       inkscape:export-xdpi="213.42674"
       inkscape:export-ydpi="213.42674">
      <path
         d="M 0,0 H 3.628 V -0.729 H 0.869 v -2.239 h 2.549 v -0.72 H 0.869 V -6.736 H 0 Z"
         style="fill:#ffffff;fill-opacity:1;fill-rule:nonzero;stroke:none"
         id="path7724"
         inkscape:connector-curvature="0" />
    </g>
  </g>
</svg>
