<svg xmlns="http://www.w3.org/2000/svg" id="Layer_2" data-name="Layer 2" version="1.1" viewBox="0 0 191.78 163.91"><defs><style>.cls-1{fill:#000;stroke-width:0}</style></defs><path d="M152.92,155.13h-2.64c-.59-.4-1.25-.73-1.76-1.21-.67-.62-1.22-1.37-1.83-2.06-1.84-2.09-3.68-4.18-5.46-6.2-.45,1.2-.76,2.45-1.35,3.55-1.76,3.29-6.52,3.33-8.25.16-.32-.59-.62-1.21-.81-1.85-.66-2.18-.64-4.4-.32-6.63.23-1.58.85-2.98,1.9-4.19.15-.17.23-.4.38-.66-1.8-2.06-3.58-4.09-5.38-6.13-.32.14-.57.25-.82.35-1.29.53-2.65.66-4,.44-1.91-.31-3.1-1.55-3.77-3.31-.96-2.53-1.12-5.12-.5-7.82-.94-1.06-1.88-2.12-2.87-3.23-.08.18-.11.23-.1.25.04.11.09.22.14.33,1.51,3.46,1.45,6.97.27,10.5-.14.41-.37.8-.61,1.16-1.45,2.14-4.14,2.81-6.33,1.61-1.23-.67-1.94-1.77-2.39-3.04-1.06-3.04-1.09-6.11.03-9.14.31-.84.93-1.57,1.45-2.32.19-.27.49-.46.86-.8-6.24-1.74-12.15-3.85-17.84-6.55-1.05,1.14-2.33,1.3-3.68,1.41-2.23.18-3.96-.6-4.94-2.58-.49-.99-.81-2.08-1.02-3.17-.14-.7-.42-1.12-1.01-1.48-3.59-2.17-6.98-4.64-10.26-7.25-.15-.12-.36-.18-.69-.33.13.33.19.48.25.62,1.98,4.19,3.96,8.37,5.93,12.56,1.16,2.45,2.34,4.9,3.45,7.38,1.07,2.4-.3,4.51-2.89,4.51-18.73,0-37.46,0-56.19,0-1.99,0-3.58-.83-4.69-2.43-.55-.8-.86-1.78-1.27-2.68,0-32.27,0-64.53,0-96.8.13-.37.26-.75.4-1.12.76-1.95,2.12-3.28,4.16-3.8.68-.18,1.42-.17,2.13-.17,38.06,0,76.12,0,114.18,0,1.2,0,2.4.06,3.59-.01,2.26-.14,4.94,1.47,5.78,4.19.28.9.37,1.88.37,2.83.02,23.24.02,46.47.02,69.71,0,.32.01.64,0,.96-.09,1.33-.61,2.4-1.9,2.94-1.26.53-2.41.29-3.45-.59-1.46-1.24-2.94-2.46-4.41-3.68-6.71-5.59-13.43-11.19-20.15-16.78-.23-.2-.51-.35-.76-.52,3.9,6.78,7.01,13.85,9.48,21.16.38.08.65.16.93.2,1.83.28,3.02,1.38,3.73,3.02.81,1.87,1.01,3.85.82,5.85-.15,1.57-.46,3.13-.72,4.8,6.25,5.07,12.62,10.23,19.14,15.51v-5.47c-.9.44-1.67.81-2.57,1.25-.18-.7-.31-1.25-.47-1.87,1.11-.6,2.11-1.19,3.14-1.68.7-.33,1.45-.33,2.29.07,0,.42,0,.85,0,1.29,0,2.44.03,4.87-.02,7.31-.01.76.23,1.26.82,1.73,2.41,1.91,4.78,3.87,7.17,5.8,2.45,1.99,4.92,3.95,7.35,5.96,1.41,1.17,2.07,2.68,1.45,4.47-.33.96-.5,1.91-.53,2.91-.02.67-.06,1.37-.26,2.01-.34,1.09-.67,2.24-1.26,3.2-1.09,1.76-2.79,2.43-4.84,2.08-.65-.11-1.28-.37-2.18-.64-.36.43-.77.97-1.24,1.46-.97,1-1.9,2.06-3.17,2.7ZM75.19,61.71h-1.62c-10.46,0-20.93,0-31.39,0-.55,0-1.13,0-1.66-.14-.98-.24-1.52-1.01-1.46-1.92.06-.91.7-1.63,1.66-1.78.47-.08.96-.05,1.43-.05,11.94,0,23.88,0,35.83.01.87,0,1.49-.25,2.1-.87,3.14-3.19,6.31-6.34,9.48-9.5,1.4-1.39,3-1.47,4.5-.23,3.9,3.24,7.79,6.49,11.68,9.74,4.54,3.78,9.07,7.57,13.61,11.35,5.12,4.27,10.24,8.53,15.36,12.8,1.09.91,2.19,1.81,3.44,2.83v-41.9c-1.2-.26-116.83-.24-117.79,0-.26,1.24-.21,70.78.05,71.67,1.42.24,49.75.17,50.74-.12-3.64-7.69-7.27-15.36-10.93-23.11-.53,0-1,0-1.47,0-5.63,0-11.26,0-16.9,0-.4,0-.81.02-1.19-.05-.94-.17-1.58-.92-1.61-1.82-.03-.87.46-1.6,1.39-1.85.49-.14,1.02-.16,1.54-.17,4.99-.01,9.99,0,14.98,0,.42,0,.84-.03,1.41-.05-.49-1.03-.91-1.88-1.31-2.75-.18-.4-.41-.8-.48-1.22-.2-1.15-.01-2.2.91-3.07,1.09-1.03,2.13-2.12,3.39-3.38-.72,0-1.15,0-1.58,0-5.75,0-11.5,0-17.25,0-.55,0-1.12-.04-1.65-.19-.86-.24-1.33-.92-1.33-1.77,0-.88.53-1.6,1.44-1.81.5-.11,1.03-.12,1.54-.13,7.19,0,14.38-.01,21.57,0,.82,0,1.43-.23,2.01-.82,2.91-2.96,5.86-5.88,8.8-8.82.22-.22.41-.46.78-.87ZM20.29,38.01c2.02.27,117,.17,117.83-.08.26-1.63.17-17.9-.11-18.71-1.9-.25-116.84-.14-117.72.12v18.67ZM63.67,82.37c.19.23.37.48.59.71,3.22,3.34,6.66,6.43,10.34,9.25,9.11,6.98,19.11,12.29,30.01,15.86,3.18,1.04,6.44,1.8,9.67,2.68.68.18,1.3.21,1.87-.37,1.5-1.55,3.03-3.06,4.57-4.57.38-.37.46-.74.35-1.28-1.51-7.22-3.91-14.13-7-20.81-3.67-7.93-8.25-15.3-13.84-22.03-2.2-2.65-4.5-5.18-7.24-7.28-.31-.24-.64-.44-.87-.6-9.51,9.51-18.93,18.93-28.46,28.46ZM120.19,113.9c10.43,11.89,20.88,23.8,31.4,35.79,3.29-3.13,6.39-6.2,9.52-9.38-12.51-10.12-24.9-20.13-37.17-30.05-1.31,1.27-2.47,2.4-3.75,3.64ZM114.18,122.54c-.05,0-.1,0-.15-.01,0-.68.07-1.36-.01-2.03-.15-1.22-.31-2.46-1.21-3.43-1.05-1.12-2.66-1.03-3.45.29-.42.7-.79,1.51-.9,2.31-.2,1.49-.28,3.01-.23,4.51.04,1.23.37,2.44,1.08,3.5.92,1.36,2.65,1.44,3.61.11.38-.54.69-1.19.82-1.84.23-1.12.31-2.28.45-3.42ZM134.28,137.9c-.27.36-.49.63-.67.92-1.09,1.75-1.08,7.69.01,9.42.52.82,1.12,1.5,2.14,1.49,1.01-.01,1.67-.67,2.12-1.52.13-.24.27-.5.32-.77.19-1.05.37-2.11.52-3.17.15-1.01-.17-1.84-.89-2.59-.94-.97-1.8-2.01-2.71-3.02-.23-.26-.5-.47-.83-.78ZM120.41,121.92c0,1.8.1,3.3.67,4.72.22.54.54,1.08.94,1.49.94.94,2.64.83,3.65-.21-1.69-1.92-3.38-3.85-5.26-5.99ZM126.23,103.97c.05-.38.15-.89.19-1.4.16-1.88-.03-3.72-.7-5.5-.28-.74-.76-1.33-1.61-1.65.73,2.97,1.44,5.81,2.11,8.54ZM159.54,149.4c.78.48,1.38.5,2.13-.12,1.14-.95,1.45-2.24,1.5-3.52-1.22,1.22-2.44,2.44-3.63,3.64ZM88.47,107.16c-1.56-.84-2.96-1.6-4.43-2.39.27,2.62,2.13,3.69,4.43,2.39Z" class="cls-1"/><path d="M165.69,122.57c.09,1.77-.12,3.58-.97,5.27-.74,1.46-1.83,2.5-3.5,2.81-1.9.35-3.47-.2-4.65-1.74-.34-.44-.64-.93-.84-1.44-1.21-3.22-1.28-6.47-.02-9.68.6-1.54,1.61-2.74,3.28-3.24,2.22-.67,4.39.16,5.55,2.17.73,1.27,1.06,2.66,1.14,4.11.03.56,0,1.12,0,1.76ZM157.17,122.54c.21,1.25.35,2.52.66,3.75.16.63.55,1.25.98,1.75.84.98,2.18.99,3.04.01.46-.52.83-1.2,1-1.86.62-2.42.63-4.88.04-7.32-.14-.57-.43-1.11-.74-1.62-.35-.58-.91-.86-1.6-.89-1.09-.05-1.92.49-2.45,1.73-.6,1.41-.81,2.91-.94,4.46Z" class="cls-1"/><path d="M167.13,122.46c.12-1.07.16-2.15.39-3.19.19-.84.51-1.69.96-2.43,1.07-1.78,2.66-2.71,4.8-2.49,1.96.2,3.2,1.39,3.93,3.1.84,1.98,1.05,4.09.84,6.22-.14,1.47-.35,2.93-1.05,4.27-.96,1.82-2.43,2.83-4.5,2.82-1.53,0-2.78-.65-3.68-1.9-1.01-1.4-1.44-3.01-1.57-4.7-.04-.56,0-1.12,0-1.67-.04,0-.07,0-.11-.01ZM175.75,122.45s-.09-.01-.13-.02c0-.32.02-.64,0-.96-.11-1.27-.27-2.54-.83-3.71-.38-.79-.97-1.35-1.92-1.42-1-.08-1.7.38-2.16,1.21-.29.51-.55,1.07-.69,1.64-.56,2.24-.57,4.49,0,6.72.16.64.45,1.29.84,1.83.99,1.39,2.77,1.31,3.67-.13.27-.43.51-.92.61-1.42.25-1.24.42-2.5.62-3.76Z" class="cls-1"/><path d="M130.33,101.58c-.1-1.85.18-3.61,1-5.25.73-1.47,1.83-2.49,3.48-2.85,2.15-.47,4.08.4,5.17,2.31.71,1.24,1,2.6,1.15,3.99.26,2.38.06,4.71-.91,6.91-1.03,2.34-3.01,3.38-5.53,2.98-1.86-.3-2.89-1.59-3.58-3.2-.67-1.56-.9-3.22-.79-4.89ZM132.66,101.46c.07,0,.13.02.2.03,0,.68-.04,1.36,0,2.03.09,1.2.38,2.36,1.12,3.35.92,1.22,2.37,1.31,3.36.14.4-.47.69-1.07.88-1.67.57-1.81.61-3.69.43-5.56-.11-1.14-.32-2.28-.96-3.3-.94-1.5-2.72-1.59-3.74-.14-.29.42-.57.89-.67,1.38-.27,1.23-.43,2.49-.64,3.74Z" class="cls-1"/><path d="M167.25,143.55c-.13-2.05.2-3.95,1.19-5.71,1-1.77,2.56-2.64,4.54-2.58,2.03.07,3.42,1.22,4.19,3.07.83,1.99,1.07,4.08.88,6.21-.07.83-.21,1.66-.4,2.47-.15.61-.38,1.22-.65,1.79-.9,1.92-2.45,2.93-4.56,2.9-2.11-.02-3.48-1.24-4.32-3.08-.74-1.63-1.01-3.35-.87-5.08ZM175.76,143.48c-.2-1.28-.34-2.54-.64-3.77-.15-.63-.52-1.26-.95-1.75-.95-1.06-2.32-.99-3.18.16-.42.56-.76,1.23-.93,1.91-.59,2.26-.63,4.55-.04,6.83.13.5.32.99.55,1.44.45.86,1.13,1.49,2.16,1.43,1-.06,1.65-.73,2.07-1.6.14-.28.27-.59.33-.89.23-1.25.42-2.5.63-3.76Z" class="cls-1"/><path d="M178.16,101.77c-.14.91-.29,2.17-.53,3.42-.11.58-.37,1.14-.62,1.68-.91,1.92-2.45,2.93-4.56,2.91-2-.02-3.37-1.12-4.22-2.86-.6-1.22-.98-2.53-.98-3.91,0-1.83-.22-3.69.49-5.44.34-.84.71-1.71,1.26-2.42,1.87-2.44,5.99-2.59,7.8.5,1.04,1.78,1.23,3.76,1.37,6.13ZM175.76,101.48c-.21-1.27-.36-2.53-.65-3.77-.13-.56-.45-1.12-.82-1.56-1-1.18-2.43-1.15-3.35.1-.39.53-.71,1.17-.88,1.81-.61,2.3-.64,4.63-.04,6.95.13.49.33.98.57,1.43.44.82,1.11,1.41,2.08,1.38.95-.03,1.61-.63,2.04-1.45.17-.31.33-.65.39-1,.24-1.28.43-2.57.65-3.88Z" class="cls-1"/><path d="M157.09,97.34c-.16-.26-.28-.39-.32-.53-.1-.38-.17-.77-.27-1.24,1.12-.79,2.34-1.37,3.56-1.94.24-.11.55-.09.82-.09.94,0,1.13.17,1.16,1.1.03.92.01,1.83.01,2.75,0,3.47,0,6.94,0,10.41,0,.5-.08,1-.13,1.56h-2.21c-.27-2.24-.09-4.43-.12-6.6-.03-2.15,0-4.3,0-6.67-.9.45-1.65.83-2.49,1.26Z" class="cls-1"/><path d="M149.48,109.36h-2.01c-.25-2.24-.08-4.42-.11-6.59-.03-2.18,0-4.36,0-6.72-.94.47-1.71.86-2.62,1.31-.16-.46-.3-.81-.41-1.17-.14-.45.03-.77.44-.99.88-.47,1.74-.97,2.63-1.42.67-.34,1.37-.32,2.04-.11.27.96.32,14.23.05,15.69Z" class="cls-1"/><path d="M116.56,143.36c.08,1.86-.17,3.69-1,5.43-.92,1.93-2.45,2.92-4.56,2.89-2.1-.02-3.55-1.18-4.33-3.05-.47-1.12-.74-2.36-.91-3.57-.31-2.25-.05-4.46.86-6.56.47-1.09,1.2-1.98,2.23-2.59,2.27-1.35,5.06-.63,6.46,1.65.81,1.32,1.14,2.79,1.25,4.32.03.48,0,.96,0,1.47ZM114.17,143.45s-.09,0-.14-.01c0-.64.1-1.29-.02-1.9-.21-1.04-.42-2.13-.9-3.05-.83-1.61-2.59-1.67-3.7-.24-.24.31-.43.67-.56,1.04-.95,2.63-.92,5.3-.2,7.97.15.56.45,1.12.81,1.57,1.03,1.29,2.58,1.24,3.5-.11.37-.55.66-1.2.79-1.84.22-1.12.29-2.28.42-3.42Z" class="cls-1"/><path d="M92.12,122.09c-.22,2.07-.27,3.95-1.1,5.68-1.45,3.03-5.06,3.95-7.51,1.89-.88-.74-1.42-1.73-1.76-2.8-.89-2.81-.91-5.64-.05-8.46.31-1,.82-1.9,1.57-2.65,2.16-2.16,5.54-1.91,7.26.62.46.68.84,1.47,1.03,2.27.29,1.19.4,2.43.55,3.46ZM89.69,122.51s-.07-.01-.11-.02c0-.24.02-.48,0-.72-.15-1.38-.21-2.79-.89-4.06-.44-.83-1.06-1.36-2.07-1.38-.97-.02-1.58.49-2,1.27-.27.48-.5,1-.64,1.54-.62,2.36-.62,4.73.06,7.08.16.56.45,1.11.79,1.59.9,1.29,2.79,1.25,3.61-.14.28-.48.56-.99.67-1.52.25-1.2.4-2.43.59-3.64Z" class="cls-1"/><path d="M92.12,143.12c-.23,2.21-.28,4.22-1.33,6.01-.81,1.38-1.94,2.29-3.59,2.49-2.08.25-3.82-.51-4.8-2.38-.49-.94-.86-1.99-1.05-3.03-.47-2.54-.4-5.08.6-7.51.74-1.82,2.01-3.05,4.02-3.36,1.71-.26,3.21.2,4.25,1.59.58.78,1.05,1.72,1.31,2.65.34,1.22.42,2.51.58,3.54ZM89.74,143.49c-.25-1.42-.39-2.73-.71-3.99-.35-1.36-1.35-2.22-2.34-2.25-1.04-.04-1.98.69-2.44,2.1-.31.93-.42,1.93-.61,2.91-.34,1.77.02,3.49.48,5.18.13.49.41.96.71,1.37.64.89,1.73,1.16,2.64.73.77-.37,1.26-1.01,1.45-1.81.33-1.43.57-2.87.83-4.23Z" class="cls-1"/><path d="M124.97,151.29h-2.19c-.15-2.24-.05-4.43-.07-6.6-.02-2.15,0-4.29,0-6.67-.91.45-1.66.83-2.57,1.28-.2-.67-.36-1.21-.57-1.89,1.26-.65,2.42-1.33,3.66-1.85.5-.21,1.15-.03,1.68-.03.32,1.05.36,14.4.06,15.76Z" class="cls-1"/><path d="M98.21,117.04c-1,.47-1.78.84-2.62,1.23-.16-.39-.3-.66-.4-.96-.16-.52-.05-.93.47-1.2.85-.44,1.68-.91,2.54-1.34.68-.34,1.39-.19,2.06-.13.33,1.01.36,14.52.04,15.75h-1.96c-.04-.47-.12-.93-.12-1.39-.01-3.47,0-6.94,0-10.41,0-.43,0-.87,0-1.56Z" class="cls-1"/><path d="M100.34,151.29h-2.02c-.23-2.25-.07-4.43-.1-6.61-.03-2.18,0-4.36,0-6.68-.99.46-1.8.84-2.69,1.25-.15-.46-.29-.79-.37-1.13-.1-.43.03-.79.44-1.01.91-.49,1.81-1.01,2.75-1.46.63-.3,1.31-.29,1.95-.06.28.94.34,14.23.05,15.68Z" class="cls-1"/><path d="M42.14,29.46c-.08-2.83,2.49-5.51,5.58-5.5,2.84.01,5.56,2.36,5.54,5.55-.02,2.82-1.95,5.5-5.54,5.55-3.38.05-5.61-2.61-5.59-5.6ZM47.65,31.7c1.32.02,2.33-.92,2.36-2.19.03-1.09-1.08-2.22-2.22-2.26-1.26-.05-2.35.95-2.39,2.18-.04,1.27.94,2.26,2.25,2.28Z" class="cls-1"/><path d="M59.99,23.99c2.74-.14,5.55,2.28,5.49,5.56-.05,3.01-2.16,5.49-5.58,5.5-3.45.01-5.55-2.73-5.55-5.65,0-2.78,2.51-5.6,5.64-5.42ZM59.91,31.7c1.3,0,2.33-.99,2.31-2.23-.01-1.11-1.12-2.2-2.26-2.22-1.26-.02-2.34,1-2.35,2.22-.01,1.28.97,2.23,2.29,2.24Z" class="cls-1"/><path d="M35.47,23.99c2.87-.16,5.59,2.32,5.57,5.52-.02,2.86-2,5.53-5.56,5.55-3.53.03-5.51-2.77-5.57-5.54-.06-2.89,2.52-5.68,5.56-5.52ZM35.48,31.7c1.3,0,2.32-.99,2.31-2.24,0-1.1-1.13-2.2-2.26-2.22-1.26-.02-2.33,1-2.34,2.22,0,1.27.98,2.23,2.3,2.23Z" class="cls-1"/><path d="M151.73,143.46c-1.84,0-3.18-1.31-3.18-3.12,0-1.8,1.39-3.23,3.13-3.23,1.86,0,3.16,1.36,3.17,3.3,0,1.75-1.31,3.04-3.11,3.05Z" class="cls-1"/></svg>