<?xml version="1.0" encoding="utf-8"?>
<!-- Generator: Adobe Illustrator 24.0.0, SVG Export Plug-In . SVG Version: 6.00 Build 0)  -->
<svg version="1.1" id="Layer_1" xmlns="http://www.w3.org/2000/svg" xmlns:xlink="http://www.w3.org/1999/xlink" x="0px" y="0px"
	 viewBox="0 0 216 216" style="enable-background:new 0 0 216 216;" xml:space="preserve">
<style type="text/css">
	.st0{fill-rule:evenodd;clip-rule:evenodd;}
	.st1{fill:#FFFFFF;}
</style>
<g>
	<g>
		<path d="M149.54,81.49c0-13.43,0-26.85-0.01-40.28c0-8.34-4.95-13.33-13.21-13.34c-19.39-0.03-38.49-0.03-56.78,0
			c-7.94,0.01-13.07,5.16-13.07,13.12c-0.01,38.99-0.01,77.98,0.02,116.97c0,1.75,0.18,3.22,0.55,4.5
			c1.58,5.52,6.25,8.83,12.49,8.84c10.2,0.01,20.39,0.02,30.59,0.02c8.66,0,17.32,0,25.98-0.01c8.54,0,13.43-4.94,13.44-13.54
			c0-14.87,0-29.73,0-44.6l0-13.38L149.54,81.49z M72.19,151.36l0-2.59h71.35c0.01,1.11,0.03,2.23,0.06,3.34
			c0.07,2.88,0.14,5.85-0.17,8.72c-0.31,2.88-3.23,4.81-7.29,4.81c-8.24,0.01-16.48,0.01-24.72,0l-9.89,0l-6.4,0
			c-5.04,0-10.09,0-15.13-0.01c-5.17-0.01-7.8-2.65-7.81-7.83C72.19,155.68,72.19,153.54,72.19,151.36z M143.69,56.4v86.31H72.36
			V56.4H143.69z M96.07,33.52l11.21,0c9.49,0,18.97,0,28.46,0c5.58,0,8.07,2.51,8.09,8.15c0.01,2.13,0,4.26,0,6.41l0,2.37H72.33
			c-0.01-1.08-0.03-2.15-0.05-3.21c-0.06-2.78-0.11-5.4,0.13-8.03c0.32-3.48,3.08-5.66,7.2-5.68
			C85.09,33.51,90.58,33.52,96.07,33.52z"/>
		<path d="M107.99,161.59c0.01,0,0.01,0,0.02,0c1.25,0,2.39-0.46,3.21-1.28c0.83-0.84,1.27-2,1.25-3.28
			c-0.04-2.46-2.03-4.46-4.44-4.46c0,0,0,0,0,0c-1.18,0-2.35,0.51-3.23,1.41c-0.87,0.89-1.35,2.07-1.33,3.23
			C103.54,159.65,105.52,161.58,107.99,161.59z"/>
		<path d="M97.95,44.89c3.65,0.01,7.3,0.02,10.94,0.02c3.04,0,6.09,0,9.13-0.01c2.02,0,3.18-1.03,3.18-2.81
			c0-0.87-0.25-1.55-0.74-2.04c-0.55-0.55-1.4-0.83-2.53-0.83c-0.01,0-0.03,0-0.05,0c-2.32,0.02-4.64,0.01-6.97,0.01l-2.86,0
			l-2.95,0c-2.36,0-4.72,0-7.08-0.01C96,39.23,94.89,40.2,94.85,42c-0.02,0.86,0.22,1.55,0.71,2.05
			C96.1,44.6,96.9,44.89,97.95,44.89z"/>
	</g>
	<g>
		<path class="st1" d="M106.53,83.38c0,12.23,0,24.45,0,36.66c0.98,0,1.88,0,2.83,0c0-12.25,0-24.46,0-36.72
			c0.56,0,1.08-0.02,1.59,0c0.42,0.02,0.6-0.13,0.58-0.57c-0.03-0.61-0.01-1.23-0.01-1.82c0.77-0.05,1.46-0.09,2.15-0.15
			c2.12-0.2,4.08-0.85,5.68-2.27c1.01-0.89,1.92-1.9,2.78-2.93c1.8-2.14,4.04-3.12,6.83-2.82c0.54,0.06,1.08,0.14,1.64,0.21
			c0.14-0.62,0.28-1.2,0.43-1.84c-2.47-0.56-4.83-0.53-7.12,0.56c-1.53,0.73-2.68,1.9-3.71,3.19c-1.55,1.96-3.38,3.48-5.94,3.86
			c-0.89,0.13-1.8,0.16-2.74,0.24c0-0.86-0.01-1.59,0-2.31c0.01-0.42-0.16-0.6-0.59-0.58c-0.53,0.02-1.06,0-1.6,0
			c0-0.76,0.01-1.44,0-2.11c-0.02-0.85-0.62-1.45-1.44-1.44c-0.78,0.01-1.35,0.53-1.38,1.32c-0.02,0.74-0.01,1.47-0.01,2.24
			c-0.59,0-1.09,0.02-1.59-0.01c-0.46-0.02-0.6,0.16-0.6,0.61c0.02,1.54,0.01,3.08,0,4.63c0,0.19-0.05,0.45-0.17,0.55
			c-1.98,1.61-4.18,2.57-6.79,2.26c-1.11-0.13-2.22-0.33-3.33-0.48c-3.98-0.53-6.9,1.24-9.27,4.3c0.54,0.4,1.03,0.77,1.56,1.16
			c0.17-0.21,0.31-0.39,0.47-0.58c1.13-1.34,2.48-2.35,4.19-2.83c1.47-0.41,2.92-0.17,4.36,0.1c1.44,0.26,2.88,0.43,4.33,0.23
			c1.96-0.27,3.71-1.1,5.26-2.31C105.41,83.37,105.87,83.25,106.53,83.38z M75.07,110.46c-0.05,3.11,1.64,6.58,5.12,8.43
			c3.59,1.91,8,1.5,11.1-1.04c2.32-1.9,3.49-4.37,3.57-7.39C88.22,110.46,81.66,110.46,75.07,110.46z M140.93,94.12
			c-6.61,0-13.19,0-19.76,0c-0.13,4.34,3.37,9.07,8.94,9.53C136.53,104.18,140.96,99.2,140.93,94.12z M127.94,126.02
			c-13.38,0-26.7,0-40.04,0c0,0.99,0,1.93,0,2.88c13.37,0,26.7,0,40.04,0C127.94,127.93,127.94,127,127.94,126.02z M95.02,124.8
			c8.62,0,17.18,0,25.75,0c0-1,0-1.96,0-2.92c-8.6,0-17.16,0-25.75,0C95.02,122.86,95.02,123.81,95.02,124.8z M85.2,90.18
			c-0.07,0.11-0.12,0.17-0.14,0.23c-2.24,5.09-4.47,10.19-6.71,15.28c-0.23,0.52-0.48,1.04-0.69,1.57c-0.21,0.54,0.08,1.06,0.6,1.08
			c0.46,0.01,0.65-0.3,0.82-0.67c1.95-4.46,3.91-8.92,5.87-13.38c0.05-0.11,0.12-0.22,0.21-0.39c1.46,3.55,2.9,7.03,4.33,10.51
			c0.47,1.13,0.93,2.27,1.41,3.4c0.2,0.46,0.56,0.64,0.94,0.49c0.42-0.16,0.57-0.54,0.41-1.03c-0.03-0.1-0.08-0.19-0.12-0.29
			c-1.86-4.52-3.72-9.04-5.59-13.56C86.1,92.34,85.66,91.28,85.2,90.18z M131.23,77.47c0.78,1.88,1.51,3.67,2.25,5.45
			c1.15,2.79,2.3,5.59,3.47,8.38c0.1,0.25,0.38,0.54,0.62,0.59c0.66,0.15,1-0.43,0.7-1.17c-2.07-5.01-4.14-10.03-6.2-15.04
			c-0.25-0.62-0.51-1.23-0.79-1.91c-0.09,0.19-0.14,0.29-0.19,0.4c-1.8,4.1-3.6,8.19-5.4,12.29c-0.63,1.44-1.28,2.87-1.88,4.32
			c-0.1,0.25-0.09,0.64,0.04,0.86c0.1,0.17,0.5,0.29,0.71,0.23c0.23-0.07,0.48-0.34,0.58-0.58c1.57-3.54,3.13-7.08,4.68-10.63
			C130.28,79.63,130.73,78.59,131.23,77.47z"/>
		<path d="M106.53,83.38c-0.66-0.13-1.12-0.01-1.59,0.36c-1.55,1.22-3.29,2.04-5.26,2.31c-1.45,0.2-2.9,0.03-4.33-0.23
			c-1.45-0.27-2.9-0.51-4.36-0.1c-1.71,0.48-3.07,1.48-4.19,2.83c-0.15,0.18-0.3,0.37-0.47,0.58c-0.53-0.39-1.02-0.76-1.56-1.16
			c2.37-3.05,5.29-4.82,9.27-4.3c1.11,0.15,2.22,0.34,3.33,0.48c2.61,0.31,4.81-0.65,6.79-2.26c0.13-0.1,0.17-0.36,0.17-0.55
			c0.01-1.54,0.02-3.08,0-4.63c-0.01-0.45,0.14-0.63,0.6-0.61c0.5,0.03,1,0.01,1.59,0.01c0-0.76-0.02-1.5,0.01-2.24
			c0.03-0.79,0.59-1.31,1.38-1.32c0.82-0.01,1.43,0.59,1.44,1.44c0.01,0.67,0,1.35,0,2.11c0.54,0,1.07,0.02,1.6,0
			c0.43-0.02,0.6,0.16,0.59,0.58c-0.02,0.73,0,1.45,0,2.31c0.94-0.08,1.85-0.11,2.74-0.24c2.56-0.38,4.39-1.9,5.94-3.86
			c1.03-1.3,2.18-2.47,3.71-3.19c2.29-1.09,4.66-1.12,7.12-0.56c-0.15,0.63-0.28,1.22-0.43,1.84c-0.56-0.07-1.1-0.15-1.64-0.21
			c-2.79-0.3-5.03,0.68-6.83,2.82c-0.87,1.03-1.78,2.04-2.78,2.93c-1.61,1.41-3.57,2.07-5.68,2.27c-0.69,0.06-1.38,0.1-2.15,0.15
			c0,0.59-0.02,1.21,0.01,1.82c0.02,0.44-0.16,0.59-0.58,0.57c-0.52-0.02-1.03,0-1.59,0c0,12.26,0,24.47,0,36.72
			c-0.95,0-1.86,0-2.83,0C106.53,107.83,106.53,95.61,106.53,83.38z"/>
		<path d="M75.07,110.46c6.6,0,13.15,0,19.79,0c-0.08,3.02-1.25,5.49-3.57,7.39c-3.1,2.54-7.52,2.95-11.1,1.04
			C76.71,117.04,75.02,113.57,75.07,110.46z"/>
		<path d="M140.93,94.12c0.02,5.08-4.41,10.06-10.82,9.53c-5.57-0.46-9.08-5.19-8.94-9.53C127.75,94.12,134.32,94.12,140.93,94.12z"
			/>
		<path d="M127.94,126.02c0,0.98,0,1.91,0,2.88c-13.34,0-26.67,0-40.04,0c0-0.95,0-1.89,0-2.88
			C101.24,126.02,114.57,126.02,127.94,126.02z"/>
		<path d="M95.02,124.8c0-0.99,0-1.94,0-2.92c8.58,0,17.15,0,25.75,0c0,0.96,0,1.92,0,2.92C112.2,124.8,103.64,124.8,95.02,124.8z"
			/>
		<path d="M85.2,90.18c0.46,1.11,0.91,2.17,1.34,3.23c1.86,4.52,3.72,9.04,5.59,13.56c0.04,0.1,0.09,0.19,0.12,0.29
			c0.16,0.49,0.01,0.87-0.41,1.03c-0.38,0.14-0.74-0.03-0.94-0.49c-0.48-1.13-0.94-2.26-1.41-3.4c-1.43-3.48-2.87-6.96-4.33-10.51
			c-0.09,0.17-0.16,0.28-0.21,0.39c-1.96,4.46-3.92,8.92-5.87,13.38c-0.16,0.37-0.36,0.68-0.82,0.67c-0.51-0.01-0.81-0.53-0.6-1.08
			c0.21-0.53,0.46-1.04,0.69-1.57c2.24-5.09,4.47-10.19,6.71-15.28C85.08,90.34,85.13,90.29,85.2,90.18z"/>
		<path d="M131.23,77.47c-0.5,1.13-0.95,2.17-1.41,3.21c-1.56,3.54-3.11,7.09-4.68,10.63c-0.11,0.24-0.35,0.51-0.58,0.58
			c-0.21,0.06-0.61-0.06-0.71-0.23c-0.13-0.22-0.14-0.61-0.04-0.86c0.6-1.45,1.25-2.88,1.88-4.32c1.8-4.1,3.6-8.19,5.4-12.29
			c0.05-0.11,0.1-0.21,0.19-0.4c0.28,0.68,0.54,1.3,0.79,1.91c2.07,5.01,4.14,10.03,6.2,15.04c0.3,0.74-0.03,1.32-0.7,1.17
			c-0.24-0.06-0.52-0.35-0.62-0.59c-1.18-2.78-2.32-5.58-3.47-8.38C132.74,81.14,132,79.35,131.23,77.47z"/>
	</g>
</g>
</svg>
