<svg xmlns="http://www.w3.org/2000/svg" xmlns:svg="http://www.w3.org/2000/svg" id="svg478" width="350" height="390.631" version="1.1" viewBox="0 0 350 390.631"><defs id="defs408"><style id="style406">.cls-1{fill:#ce1a6f}.cls-1,.cls-2,.cls-3{stroke-width:0}.cls-2{fill:#848582}.cls-4{display:none}.cls-3{fill:#ea9c25}</style></defs><g id="Layer_3" class="cls-4" data-name="Layer 3" transform="translate(-3.4899999,-6.51)"><rect id="rect410" width="754.3" height="467" x="-57.3" y="165" class="cls-1"/></g><g id="g417" transform="matrix(1.5780693,0,0,1.5780693,-5.5074619,-10.273231)"><path id="path413" d="m 212.4,145.27 h -47.88 v 3.95 c 0.02,4.78 2.93,7.72 7.69,7.72 10.42,-0.02 20.84,-0.05 31.29,-0.07 0.95,-0.02 1.94,-0.05 2.87,-0.3 5.75,-1.53 6.82,-6.29 6.03,-11.3 z" class="cls-2"/><path id="path415" d="m 222.69,86.56 c -1.73,-1.76 -3.88,-2.63 -6.45,-2.63 -2.77,0 -5.04,0.85 -6.79,2.59 -0.85,0.83 -1.5,1.8 -1.92,2.89 h -57.86 v 164.61743 h 7.51 V 96.92 h 29.07 c 0,3.35 0,6.7 -0.05,10.05 -0.02,0.65 -0.12,1.34 -0.32,1.94 -3.44,9.73 -6.91,19.43 -10.31,29.14 -0.3,0.85 -0.67,1.13 -1.53,1.11 -3,-0.05 -5.98,0 -8.97,0.02 -0.99,0 -1.39,0.39 -1.39,1.27 0,0.88 0.44,1.29 1.5,1.27 2.87,0 5.71,-0.07 8.57,-0.09 12.94,-0.05 25.88,-0.12 38.84,-0.16 1.18,0 1.73,-0.44 1.71,-1.29 -0.02,-0.85 -0.51,-1.22 -1.66,-1.22 -2.47,0 -4.92,0 -7.37,0.05 -0.72,0.02 -1.04,-0.21 -1.32,-0.88 -4.11,-9.71 -8.23,-19.39 -12.34,-29.09 -0.14,-0.3 -0.21,-0.62 -0.21,-0.95 V 96.93 h 16.13 c 0.39,0.95 0.97,1.85 1.71,2.7 1.64,1.85 3.93,2.8 6.89,2.8 2.61,0 4.81,-0.88 6.54,-2.66 1.73,-1.76 2.61,-3.95 2.61,-6.63 0,-2.68 -0.88,-4.78 -2.61,-6.56 z m -23.16,52.38 h -19.62 c 2.93,-8.27 5.87,-16.57 8.8,-24.84 h 0.25 c 3.51,8.23 7,16.45 10.56,24.84 z m 19.34,-42.65 c -0.79,0.88 -1.71,1.32 -2.77,1.32 -1.06,0 -2.06,-0.44 -2.84,-1.34 -0.79,-0.9 -1.18,-1.99 -1.18,-3.26 0,-1.18 0.42,-2.17 1.2,-3 0.79,-0.85 1.73,-1.27 2.82,-1.27 1.09,0 1.99,0.46 2.77,1.34 0.79,0.9 1.18,1.94 1.18,3.14 0,1.2 -0.39,2.2 -1.18,3.07 z" class="cls-2"/></g><g id="g423" transform="matrix(1.5780693,0,0,1.5780693,-5.5074619,-10.273231)"><path id="path419" d="M 65.88,165.93 H 18 c 0,1.43 -0.02,2.68 0,3.93 0,4.78 2.93,7.72 7.67,7.72 10.42,-0.02 20.87,-0.05 31.29,-0.07 0.95,0 1.94,-0.05 2.87,-0.3 5.75,-1.53 6.82,-6.29 6.05,-11.28 z" class="cls-2"/><path id="path421" d="m 21.44,110.22 c -0.44,-1.22 -1.13,-2.33 -2.08,-3.3 -1.76,-1.76 -3.91,-2.63 -6.47,-2.63 -2.75,0 -5.01,0.85 -6.77,2.59 -1.76,1.74 -2.63,3.97 -2.63,6.7 0,2.4 0.81,4.53 2.45,6.4 1.64,1.85 3.93,2.8 6.89,2.8 2.61,0 4.78,-0.88 6.54,-2.63 0.72,-0.74 1.27,-1.53 1.71,-2.4 H 39.7 c 0,3.28 0,6.59 -0.05,9.87 0,0.65 -0.12,1.34 -0.32,1.94 -3.42,9.73 -6.89,19.41 -10.31,29.14 -0.3,0.85 -0.65,1.11 -1.53,1.11 -2.98,-0.05 -5.98,0 -8.97,0.02 -0.97,0 -1.39,0.39 -1.39,1.27 0.02,0.88 0.46,1.27 1.53,1.27 2.84,-0.02 5.71,-0.07 8.55,-0.09 12.94,-0.07 25.9,-0.12 38.84,-0.16 1.2,-0.02 1.73,-0.44 1.71,-1.32 0,-0.83 -0.49,-1.2 -1.66,-1.2 -2.45,0 -4.92,-0.02 -7.37,0.05 -0.69,0 -1.04,-0.21 -1.32,-0.88 -4.09,-9.71 -8.23,-19.39 -12.34,-29.09 -0.12,-0.3 -0.21,-0.65 -0.21,-0.97 0,-3.63 0,-7.3 0.02,-10.95 H 73.9 v 136.28743 h 7.51 V 110.25 H 21.44 Z m -5.89,6.42 c -0.81,0.88 -1.71,1.32 -2.77,1.32 -1.06,0 -2.06,-0.44 -2.84,-1.34 -0.79,-0.9 -1.18,-1.99 -1.18,-3.26 0,-1.16 0.39,-2.17 1.2,-3 0.79,-0.83 1.73,-1.27 2.82,-1.27 1.09,0 1.96,0.46 2.77,1.34 0.79,0.9 1.18,1.94 1.18,3.14 0,1.2 -0.39,2.22 -1.18,3.07 z m 37.46,42.94 H 33.39 c 2.93,-8.27 5.87,-16.57 8.8,-24.84 0.07,0 0.16,0 0.25,-0.02 3.49,8.23 6.98,16.48 10.56,24.86 z" class="cls-2"/></g><path id="path425" d="m 157.38086,42.008206 c -2.73006,-2.777402 -6.12291,-4.150322 -10.17855,-4.150322 -4.33969,0 -7.90613,1.341359 -10.68353,4.087199 -2.80896,2.73006 -4.19767,6.264935 -4.19767,10.573065 0,3.787366 1.3098,7.148654 3.89784,10.099644 1.30979,1.499165 2.91942,2.619595 4.78155,3.313945 V 390.56811 h 11.8513 V 65.931737 c 1.67275,-0.69435 3.17192,-1.720095 4.52906,-3.093016 2.7774,-2.777402 4.11876,-6.233374 4.11876,-10.462599 0,-4.229226 -1.34136,-7.543172 -4.11876,-10.352135 z m -6.01245,15.354615 c -1.24667,1.388701 -2.6985,2.083051 -4.33969,2.083051 -1.75166,0 -3.25082,-0.69435 -4.48172,-2.114613 -1.24667,-1.420262 -1.86212,-3.140358 -1.86212,-5.144506 0,-1.862122 0.61545,-3.42441 1.86212,-4.734208 1.24668,-1.341359 2.73006,-2.004148 4.48172,-2.004148 1.64119,0 3.09302,0.725912 4.33969,2.114613 1.27824,1.420262 1.89368,3.061455 1.89368,4.955138 0,1.893683 -0.61544,3.471752 -1.89368,4.844673 z" class="cls-2"/><path id="path427" d="m 191.43559,14.549799 c 0,-4.118761 -1.3887,-7.5905132 -4.11876,-10.3521345 C 184.53943,1.388701 181.14658,0 177.10672,0 c -4.33969,0 -7.90612,1.388701 -10.68353,4.118761 -2.7774,2.73006 -4.15032,6.233374 -4.15032,10.541503 0,3.834709 1.27824,7.180216 3.86627,10.099644 1.3887,1.609631 3.09302,2.73006 5.11295,3.471753 h -0.3314 V 390.58389 h 11.8513 V 28.231661 h -0.39452 c 1.86213,-0.66279 3.50332,-1.751657 4.95514,-3.203481 2.73006,-2.777402 4.11876,-6.264935 4.11876,-10.4626 z m -10.1312,5.00248 c -1.27824,1.388701 -2.73006,2.03571 -4.37126,2.03571 -1.75165,0 -3.25082,-0.694351 -4.48171,-2.114613 -1.24668,-1.388701 -1.86212,-3.093016 -1.86212,-5.112945 0,-1.862122 0.61544,-3.42441 1.86212,-4.7815501 1.27823,-1.3097975 2.73006,-1.9725867 4.48171,-1.9725867 1.6412,0 3.09302,0.6943506 4.37126,2.114613 1.24667,1.4202628 1.86212,3.0614548 1.86212,4.9235768 0,1.862121 -0.61545,3.503313 -1.86212,4.892014 z" class="cls-2"/><path id="path437" d="m 202.93972,71.896839 c -5.27075,1.230894 -9.54732,5.475901 -10.74665,10.746653 -1.67276,7.101312 2.00414,13.524054 7.7641,16.364579 V 389.36877 h 12.16691 V 99.434149 c 5.27075,-2.193516 8.96344,-7.385364 8.96344,-13.413589 0,-9.152802 -8.56892,-16.333018 -18.1478,-14.139501 z" class="cls-3"/></svg>