<?xml version="1.0" encoding="UTF-8" standalone="no"?>
<svg
   version="1.1"
   viewBox="0 0 350.33999 391.57001"
   id="svg70"
   sodipodi:docname="medium-color.svg"
   inkscape:version="1.2.2 (b0a8486541, 2022-12-01)"
   width="350.34"
   height="391.57001"
   xmlns:inkscape="http://www.inkscape.org/namespaces/inkscape"
   xmlns:sodipodi="http://sodipodi.sourceforge.net/DTD/sodipodi-0.dtd"
   xmlns="http://www.w3.org/2000/svg"
   xmlns:svg="http://www.w3.org/2000/svg">
  <sodipodi:namedview
     id="namedview72"
     pagecolor="#505050"
     bordercolor="#eeeeee"
     borderopacity="1"
     inkscape:showpageshadow="0"
     inkscape:pageopacity="0"
     inkscape:pagecheckerboard="0"
     inkscape:deskcolor="#d1d1d1"
     showgrid="false"
     inkscape:zoom="0.99788583"
     inkscape:cx="217.45975"
     inkscape:cy="247.02225"
     inkscape:window-width="1920"
     inkscape:window-height="1137"
     inkscape:window-x="0"
     inkscape:window-y="0"
     inkscape:window-maximized="1"
     inkscape:current-layer="svg70" />
  <defs
     id="defs4">
    <style
       id="style2">
      .cls-1 {
        fill: #848582;
      }

      .cls-1, .cls-2, .cls-3 {
        stroke-width: 0px;
      }

      .cls-2 {
        fill: #5064ad;
      }

      .cls-3 {
        fill: #848582;
      }
    </style>
  </defs>
  <path
     class="cls-2"
     d="m 144.64,41.46 c -5.01,1.2 -9.15,5.19 -10.49,10.2 -2.07,7.73 2.07,14.85 8.49,17.53 V 390.05 H 154.8 V 68.69 c 4.79,-2.4 8.1,-7.3 8.1,-13 0,-9.26 -8.6,-16.55 -18.26,-14.23 z"
     id="path50"
     sodipodi:nodetypes="ccccccsc" />
  <g
     id="g67"
     transform="translate(-35,-6.66)">
    <path
       class="cls-1"
       d="m 364.97,225.84 h -75.63 v 6.24 c 0.04,7.56 4.64,12.19 12.15,12.19 16.46,-0.04 32.92,-0.07 49.42,-0.11 1.5,-0.04 3.07,-0.07 4.53,-0.47 9.09,-2.41 10.77,-9.93 9.53,-17.85 z"
       id="path55" />
    <path
       class="cls-1"
       d="m 381.21,133.09 c -2.74,-2.77 -6.13,-4.16 -10.18,-4.16 -4.38,0 -7.96,1.35 -10.73,4.09 -1.35,1.31 -2.37,2.85 -3.03,4.56 h -91.39 v 260.65 h 11.86 V 149.44 h 45.92 c 0,5.29 0,10.58 -0.07,15.88 -0.04,1.02 -0.18,2.12 -0.51,3.07 -5.44,15.37 -10.91,30.7 -16.28,46.03 -0.47,1.35 -1.06,1.79 -2.41,1.75 -4.74,-0.07 -9.45,0 -14.16,0.04 -1.57,0 -2.19,0.62 -2.19,2.01 0,1.39 0.69,2.04 2.37,2.01 4.53,0 9.02,-0.11 13.54,-0.15 20.44,-0.07 40.88,-0.18 61.35,-0.26 1.86,0 2.74,-0.69 2.7,-2.04 -0.04,-1.35 -0.8,-1.93 -2.63,-1.93 -3.91,0 -7.77,0 -11.64,0.07 -1.13,0.04 -1.64,-0.33 -2.08,-1.39 -6.5,-15.33 -12.99,-30.62 -19.49,-45.95 -0.22,-0.47 -0.33,-0.99 -0.33,-1.5 v -17.63 h 25.48 c 0.62,1.5 1.53,2.92 2.7,4.27 2.59,2.92 6.2,4.42 10.88,4.42 4.12,0 7.59,-1.39 10.33,-4.2 2.74,-2.77 4.12,-6.24 4.12,-10.48 0,-4.24 -1.39,-7.56 -4.12,-10.37 z m -36.57,82.75 h -30.99 c 4.64,-13.07 9.27,-26.17 13.91,-39.24 h 0.4 c 5.55,12.99 11.06,25.99 16.68,39.24 z m 30.55,-67.38 c -1.24,1.39 -2.7,2.08 -4.38,2.08 -1.68,0 -3.25,-0.69 -4.49,-2.12 -1.24,-1.42 -1.86,-3.14 -1.86,-5.15 0,-1.86 0.66,-3.43 1.9,-4.74 1.24,-1.35 2.74,-2.01 4.45,-2.01 1.71,0 3.14,0.73 4.38,2.12 1.24,1.42 1.86,3.07 1.86,4.96 0,1.89 -0.62,3.47 -1.86,4.85 z"
       id="path57"
       sodipodi:nodetypes="csccccccccccccscccsscccscccscsccccccccscscscscc" />
    <path
       class="cls-1"
       d="M 133.53,258.47 H 57.91 c 0,2.26 -0.04,4.23 0,6.2 0,7.56 4.64,12.19 12.12,12.19 16.46,-0.04 32.96,-0.07 49.42,-0.11 1.5,0 3.07,-0.07 4.53,-0.47 9.09,-2.41 10.77,-9.93 9.56,-17.81 z"
       id="path59" />
    <path
       class="cls-1"
       d="m 63.35,170.47 c -0.69,-1.93 -1.79,-3.69 -3.28,-5.22 -2.77,-2.77 -6.17,-4.16 -10.22,-4.16 -4.34,0 -7.92,1.35 -10.69,4.09 -2.77,2.74 -4.16,6.28 -4.16,10.58 0,3.8 1.28,7.15 3.87,10.11 2.59,2.92 6.2,4.42 10.88,4.42 4.12,0 7.56,-1.39 10.33,-4.16 1.13,-1.17 2.01,-2.41 2.7,-3.8 H 92.2 c 0,5.18 0,10.4 -0.07,15.59 0,1.02 -0.18,2.12 -0.51,3.07 -5.4,15.37 -10.88,30.66 -16.28,46.02 -0.47,1.35 -1.02,1.75 -2.41,1.75 -4.71,-0.07 -9.45,0 -14.16,0.04 -1.53,0 -2.19,0.62 -2.19,2.01 0.04,1.39 0.73,2.01 2.41,2.01 4.49,-0.04 9.02,-0.11 13.5,-0.15 20.44,-0.11 40.91,-0.18 61.35,-0.26 1.9,-0.04 2.74,-0.69 2.7,-2.08 0,-1.31 -0.77,-1.9 -2.63,-1.9 -3.87,0 -7.77,-0.04 -11.64,0.07 -1.09,0 -1.64,-0.33 -2.08,-1.39 -6.46,-15.33 -12.99,-30.62 -19.49,-45.95 -0.18,-0.47 -0.33,-1.02 -0.33,-1.53 0,-5.73 0,-11.53 0.04,-17.3 h 45.84 v 215.9 h 11.86 V 170.46 H 63.35 Z m -9.31,10.15 c -1.28,1.39 -2.7,2.08 -4.38,2.08 -1.68,0 -3.25,-0.69 -4.49,-2.12 -1.24,-1.42 -1.86,-3.14 -1.86,-5.15 0,-1.82 0.62,-3.43 1.9,-4.75 1.24,-1.31 2.74,-2.01 4.45,-2.01 1.71,0 3.1,0.73 4.38,2.12 1.24,1.42 1.86,3.07 1.86,4.96 0,1.89 -0.62,3.5 -1.86,4.85 z m 59.16,67.81 H 82.21 c 4.64,-13.07 9.27,-26.17 13.91,-39.24 0.11,0 0.26,0 0.4,-0.04 5.51,12.99 11.02,26.02 16.68,39.27 z"
       id="path61"
       sodipodi:nodetypes="ccssscscccccccccccccscccsccccccccscscscscccccccc" />
    <path
       class="cls-1"
       d="m 226.6,21.23 c 0,-4.12 -1.39,-7.59 -4.12,-10.37 -2.77,-2.81 -6.17,-4.2 -10.22,-4.2 -4.34,0 -7.92,1.39 -10.69,4.12 -2.77,2.73 -4.16,6.24 -4.16,10.55 0,3.83 1.28,7.19 3.87,10.11 1.39,1.61 3.1,2.74 5.11,3.47 h -0.33 v 363.32 h 11.86 V 34.91 h -0.4 c 1.86,-0.66 3.5,-1.75 4.96,-3.21 2.74,-2.77 4.12,-6.28 4.12,-10.48 z m -10.14,5 c -1.28,1.39 -2.74,2.04 -4.38,2.04 -1.75,0 -3.25,-0.69 -4.49,-2.12 -1.24,-1.39 -1.86,-3.1 -1.86,-5.11 0,-1.86 0.62,-3.43 1.86,-4.78 1.28,-1.31 2.74,-1.97 4.49,-1.97 1.64,0 3.1,0.69 4.38,2.12 1.24,1.42 1.86,3.07 1.86,4.93 0,1.86 -0.62,3.5 -1.86,4.89 z"
       id="path63"
       sodipodi:nodetypes="ccssscccccccccccscscscsc" />
    <path
       class="cls-1"
       d="m 252.59,82.8 c -2.74,-2.77 -6.17,-4.2 -10.22,-4.2 -4.34,0 -7.92,1.39 -10.69,4.12 -2.77,2.74 -4.16,6.24 -4.16,10.58 0,3.8 1.28,7.15 3.87,10.11 1.31,1.5 2.92,2.59 4.78,3.32 v 291.49 h 11.86 V 106.74 c 1.68,-0.69 3.21,-1.75 4.56,-3.1 2.74,-2.77 4.12,-6.28 4.12,-10.48 0,-4.2 -1.39,-7.59 -4.12,-10.37 z m -6.02,15.37 c -1.24,1.39 -2.7,2.08 -4.38,2.08 -1.68,0 -3.25,-0.73 -4.49,-2.12 -1.24,-1.42 -1.86,-3.14 -1.86,-5.15 0,-1.86 0.62,-3.43 1.9,-4.74 1.24,-1.35 2.74,-2.01 4.45,-2.01 1.71,0 3.14,0.69 4.38,2.12 1.24,1.42 1.86,3.07 1.86,4.96 0,1.89 -0.62,3.47 -1.86,4.85 z"
       id="path65"
       sodipodi:nodetypes="cscsccccccscccscscscscc" />
  </g>
</svg>
