<?xml version="1.0" encoding="UTF-8" standalone="no"?>
<svg
   version="1.1"
   viewBox="0 0 350 390.60175"
   id="svg126"
   sodipodi:docname="medium-color.svg"
   width="350"
   height="390.60175"
   inkscape:version="1.2.2 (b0a8486541, 2022-12-01)"
   xmlns:inkscape="http://www.inkscape.org/namespaces/inkscape"
   xmlns:sodipodi="http://sodipodi.sourceforge.net/DTD/sodipodi-0.dtd"
   xmlns="http://www.w3.org/2000/svg"
   xmlns:svg="http://www.w3.org/2000/svg">
  <sodipodi:namedview
     id="namedview128"
     pagecolor="#505050"
     bordercolor="#eeeeee"
     borderopacity="1"
     inkscape:showpageshadow="0"
     inkscape:pageopacity="0"
     inkscape:pagecheckerboard="0"
     inkscape:deskcolor="#d1d1d1"
     showgrid="false"
     inkscape:zoom="1.1125147"
     inkscape:cx="382.9163"
     inkscape:cy="301.56906"
     inkscape:window-width="1920"
     inkscape:window-height="1137"
     inkscape:window-x="0"
     inkscape:window-y="0"
     inkscape:window-maximized="1"
     inkscape:current-layer="svg126" />
  <defs
     id="defs4">
    <style
       id="style2">
      .cls-1 {
        fill: #968f7f;
      }

      .cls-1, .cls-2, .cls-3 {
        stroke-width: 0px;
      }

      .cls-2 {
        fill: #c44536;
      }

      .cls-3 {
        fill: #848582;
      }
    </style>
  </defs>
  <path
     class="cls-2"
     d="m 171.5559,0.39853163 c -5.30471,1.23512647 -9.58015,5.52639907 -10.78361,10.83110937 -1.631,7.220738 2.18523,13.792244 8.17084,16.547526 V 389.39827 h 12.16124 V 27.777167 c 5.05136,-2.280233 8.56672,-7.331584 8.56672,-13.222186 0,-9.1367688 -8.53505,-16.3575081 -18.11519,-14.15644937 z"
     id="path76"
     sodipodi:nodetypes="ccccccsc" />
  <g
     id="g91"
     transform="matrix(1.5834955,0,0,1.5834955,-20.949645,-11.08181)">
    <path
       class="cls-3"
       d="m 221.44,145.29 h -47.72 v 3.94 c 0.02,4.77 2.92,7.69 7.67,7.69 10.39,-0.02 20.77,-0.05 31.18,-0.07 0.94,-0.02 1.93,-0.05 2.86,-0.3 5.73,-1.52 6.79,-6.26 6.01,-11.26 z"
       id="path79" />
    <path
       class="cls-3"
       d="m 231.69,86.77 c -1.73,-1.75 -3.87,-2.63 -6.43,-2.63 -2.76,0 -5.02,0.85 -6.77,2.58 -0.85,0.83 -1.5,1.8 -1.91,2.88 h -57.66 v 164.05889 h 7.48 V 97.08 h 28.97 c 0,3.34 0,6.68 -0.05,10.02 -0.02,0.64 -0.12,1.34 -0.32,1.93 -3.43,9.7 -6.89,19.37 -10.27,29.04 -0.3,0.85 -0.67,1.13 -1.52,1.11 -2.99,-0.05 -5.96,0 -8.94,0.02 -0.99,0 -1.38,0.39 -1.38,1.27 0,0.88 0.44,1.29 1.5,1.27 2.86,0 5.69,-0.07 8.54,-0.09 12.9,-0.05 25.79,-0.12 38.71,-0.16 1.17,0 1.73,-0.44 1.7,-1.29 -0.03,-0.85 -0.51,-1.22 -1.66,-1.22 -2.46,0 -4.91,0 -7.35,0.05 -0.71,0.02 -1.04,-0.21 -1.31,-0.88 -4.1,-9.67 -8.2,-19.32 -12.3,-28.99 -0.14,-0.3 -0.21,-0.62 -0.21,-0.94 V 97.1 h 16.07 c 0.39,0.94 0.97,1.84 1.7,2.69 1.64,1.84 3.91,2.79 6.86,2.79 2.6,0 4.79,-0.88 6.52,-2.65 1.73,-1.75 2.6,-3.94 2.6,-6.61 0,-2.67 -0.88,-4.77 -2.6,-6.54 z m -23.08,52.21 h -19.55 c 2.92,-8.24 5.85,-16.51 8.77,-24.76 h 0.25 c 3.5,8.2 6.98,16.4 10.52,24.76 z m 19.28,-42.51 c -0.78,0.88 -1.7,1.31 -2.76,1.31 -1.06,0 -2.05,-0.44 -2.83,-1.34 -0.78,-0.9 -1.17,-1.98 -1.17,-3.25 0,-1.17 0.41,-2.16 1.2,-2.99 0.78,-0.85 1.73,-1.27 2.81,-1.27 1.08,0 1.98,0.46 2.76,1.34 0.78,0.9 1.17,1.93 1.17,3.13 0,1.2 -0.39,2.19 -1.17,3.06 z"
       id="path81"
       sodipodi:nodetypes="csccccccccccccscccsscccscccscscccccccccssscscscc" />
    <path
       class="cls-3"
       d="M 75.41,165.88 H 27.7 c 0,1.43 -0.02,2.67 0,3.91 0,4.77 2.92,7.69 7.65,7.69 10.39,-0.02 20.8,-0.05 31.18,-0.07 0.94,0 1.93,-0.05 2.86,-0.3 5.73,-1.52 6.79,-6.26 6.03,-11.24 z"
       id="path83" />
    <path
       class="cls-3"
       d="m 31.13,110.35 c -0.44,-1.22 -1.13,-2.33 -2.07,-3.29 -1.75,-1.75 -3.89,-2.63 -6.45,-2.63 -2.74,0 -5,0.85 -6.75,2.58 -1.75,1.73 -2.63,3.96 -2.63,6.68 0,2.39 0.81,4.51 2.44,6.38 1.64,1.84 3.91,2.79 6.86,2.79 2.6,0 4.77,-0.88 6.52,-2.63 0.71,-0.74 1.27,-1.52 1.7,-2.4 h 18.56 c 0,3.27 0,6.56 -0.05,9.83 0,0.64 -0.12,1.34 -0.32,1.93 -3.41,9.7 -6.86,19.34 -10.27,29.04 -0.3,0.85 -0.64,1.11 -1.52,1.11 -2.97,-0.05 -5.96,0 -8.94,0.02 -0.97,0 -1.38,0.39 -1.38,1.27 0.02,0.88 0.46,1.27 1.52,1.27 2.83,-0.02 5.69,-0.07 8.52,-0.09 12.9,-0.07 25.82,-0.12 38.71,-0.16 1.2,-0.02 1.73,-0.44 1.7,-1.31 0,-0.83 -0.48,-1.2 -1.66,-1.2 -2.44,0 -4.91,-0.02 -7.35,0.05 -0.69,0 -1.04,-0.21 -1.31,-0.88 -4.08,-9.67 -8.2,-19.32 -12.3,-28.99 -0.12,-0.3 -0.21,-0.64 -0.21,-0.97 0,-3.62 0,-7.28 0.02,-10.92 h 28.92 v 135.82889 h 7.48 V 110.35 Z m -5.87,6.41 c -0.81,0.88 -1.7,1.31 -2.76,1.31 -1.06,0 -2.05,-0.44 -2.83,-1.34 -0.78,-0.9 -1.17,-1.98 -1.17,-3.25 0,-1.15 0.39,-2.16 1.2,-2.99 0.78,-0.83 1.73,-1.27 2.81,-1.27 1.08,0 1.96,0.46 2.76,1.34 0.78,0.9 1.17,1.93 1.17,3.13 0,1.2 -0.39,2.21 -1.17,3.06 z m 37.33,42.78 H 43.04 c 2.92,-8.24 5.85,-16.51 8.77,-24.76 0.07,0 0.16,0 0.25,-0.02 3.48,8.2 6.95,16.42 10.52,24.78 z"
       id="path85"
       sodipodi:nodetypes="ccssscscccccccccccccscccscccccccssscscscccccccc" />
    <path
       class="cls-3"
       d="m 112.63,33.53 c -1.73,-1.75 -3.87,-2.63 -6.43,-2.63 -2.74,0 -5,0.85 -6.75,2.58 -1.77,1.73 -2.65,3.96 -2.65,6.68 0,2.39 0.83,4.51 2.46,6.38 0.83,0.94 1.84,1.66 3.02,2.1 v 205.02889 h 7.48 V 48.64 c 1.06,-0.44 2,-1.08 2.86,-1.96 1.75,-1.75 2.6,-3.94 2.6,-6.61 0,-2.67 -0.85,-4.77 -2.6,-6.54 z m -3.8,9.69 c -0.78,0.88 -1.7,1.31 -2.74,1.31 -1.11,0 -2.05,-0.44 -2.83,-1.34 -0.78,-0.9 -1.17,-1.98 -1.17,-3.25 0,-1.17 0.39,-2.16 1.17,-2.99 0.78,-0.85 1.73,-1.27 2.83,-1.27 1.04,0 1.96,0.46 2.74,1.34 0.81,0.9 1.2,1.93 1.2,3.13 0,1.2 -0.39,2.19 -1.2,3.06 z"
       id="path87"
       sodipodi:nodetypes="cscsccccccscccssscscscc" />
    <path
       class="cls-3"
       d="m 150.53,55.04 c -1.73,-1.75 -3.89,-2.65 -6.45,-2.65 -2.74,0 -5,0.88 -6.75,2.6 -1.75,1.73 -2.63,3.94 -2.63,6.68 0,2.39 0.81,4.51 2.44,6.38 0.83,0.94 1.84,1.64 3.02,2.1 v 183.51889 h 7.48 V 70.15 c 1.06,-0.44 2.03,-1.11 2.88,-1.96 1.73,-1.75 2.6,-3.96 2.6,-6.61 0,-2.65 -0.88,-4.79 -2.6,-6.54 z m -3.8,9.69 c -0.78,0.88 -1.7,1.31 -2.76,1.31 -1.06,0 -2.05,-0.46 -2.83,-1.34 -0.78,-0.9 -1.17,-1.98 -1.17,-3.25 0,-1.17 0.39,-2.16 1.2,-2.99 0.78,-0.85 1.73,-1.27 2.81,-1.27 1.08,0 1.98,0.44 2.76,1.34 0.78,0.9 1.17,1.93 1.17,3.13 0,1.2 -0.39,2.19 -1.17,3.06 z"
       id="path89"
       sodipodi:nodetypes="cscsccccccscccscscssscc" />
  </g>
</svg>
