<svg xmlns="http://www.w3.org/2000/svg" xmlns:xlink="http://www.w3.org/1999/xlink" id="Layer_1" x="0" y="0" version="1.1" viewBox="0 0 216 216" style="enable-background:new 0 0 216 216" xml:space="preserve"><g><path d="M94.99,88.03c-1.13-1.13-3-1.13-4.13,0l-17.93,17.93c-1.13,1.13-1.13,3,0,4.13l17.93,17.93 c0.61,0.56,1.35,0.87,2.08,0.87s1.48-0.3,2.04-0.91c1.13-1.13,1.13-3,0-4.13L79.14,108l15.85-15.85 C96.12,91.02,96.12,89.15,94.99,88.03z" class="st0"/><path d="M112.23,94.76c0.83-1.43,2.61-1.91,3.99-1.09c1.43,0.83,1.91,2.61,1.09,3.99l-13.59,23.58 c-0.52,0.96-1.52,1.48-2.52,1.48c-0.52,0-1-0.13-1.48-0.39c-1.43-0.83-1.91-2.61-1.09-3.99L112.23,94.76z" class="st0"/><path d="M167.44,121.66l-12.55-7.25c0.3-2.13,0.43-4.26,0.43-6.38c0-2.13-0.13-4.26-0.43-6.38l12.55-7.25 c1.87-1.09,3.17-2.78,3.73-4.86c0.56-2.08,0.3-4.21-0.78-6.08l-9.94-17.24c-1.09-1.87-2.78-3.17-4.86-3.73 c-2.08-0.56-4.21-0.3-6.08,0.78l-12.55,7.25c-3.39-2.61-7.08-4.78-11.03-6.38V49.66c0-4.39-3.56-7.99-7.99-7.99H98.05 c-4.39,0-7.99,3.56-7.99,7.99v14.5c-3.95,1.61-7.64,3.78-11.03,6.38L66.48,63.3c-3.82-2.21-8.73-0.91-10.94,2.91L45.6,83.44 c-1.04,1.87-1.35,3.99-0.78,6.08c0.56,2.08,1.87,3.78,3.73,4.86l12.55,7.25c-0.3,2.13-0.43,4.26-0.43,6.38 c0,2.13,0.13,4.3,0.43,6.38l-12.55,7.25c-3.82,2.21-5.12,7.12-2.91,10.94l9.94,17.24c2.21,3.82,7.12,5.12,10.94,2.91l12.55-7.25 c3.39,2.65,7.08,4.78,11.03,6.38v14.46c0,4.39,3.56,7.99,7.99,7.99h19.89c4.39,0,7.99-3.6,7.99-8.03v-14.46 c3.95-1.61,7.64-3.78,11.03-6.38l12.55,7.21c3.82,2.21,8.73,0.91,10.94-2.91l9.86-17.15 C172.56,128.78,171.26,123.87,167.44,121.66z M165.38,129.62l-9.94,17.24c-0.61,1.04-1.91,1.39-2.95,0.78l-14.29-8.25 c-1.04-0.61-2.39-0.48-3.34,0.3c-3.82,3.21-8.08,5.69-12.77,7.38c-1.17,0.39-1.95,1.52-1.95,2.74v16.5c0,1.22-1,2.17-2.17,2.17 H98.07c-1.22,0-2.17-1-2.17-2.17v-16.5c0-1.22-0.78-2.3-1.95-2.74c-4.65-1.69-8.94-4.17-12.77-7.38 c-0.56-0.48-1.22-0.69-1.91-0.69c-0.52,0-1.04,0.13-1.48,0.39l-14.29,8.25c-1.04,0.61-2.34,0.26-2.95-0.78l-9.94-17.24 c-0.61-1.04-0.26-2.34,0.78-2.95l14.29-8.25c1.04-0.61,1.61-1.82,1.43-3.04c-0.43-2.43-0.65-4.91-0.65-7.38s0.22-4.95,0.65-7.38 c0.22-1.22-0.35-2.43-1.43-3.04L51.4,89.33c-0.48-0.26-0.87-0.74-1-1.3c-0.13-0.56-0.09-1.17,0.22-1.65l9.99-17.24 c0.61-1.04,1.91-1.39,2.95-0.78l14.29,8.25c1.04,0.61,2.39,0.48,3.34-0.3c3.82-3.21,8.12-5.69,12.77-7.38 c1.17-0.39,1.95-1.52,1.95-2.74v-16.5c0-1.22,1-2.17,2.17-2.17h19.89c1.22,0,2.17,1,2.17,2.17v16.5c0,1.22,0.78,2.3,1.95,2.74 c4.65,1.65,8.94,4.17,12.77,7.38c0.96,0.78,2.26,0.91,3.34,0.3l14.29-8.25c0.52-0.3,1.09-0.35,1.65-0.22c0.56,0.13,1,0.52,1.3,1 l9.94,17.24c0.3,0.52,0.39,1.09,0.22,1.65c-0.13,0.56-0.52,1-1,1.3l-14.29,8.25c-1.09,0.61-1.65,1.82-1.43,3.04 c0.43,2.43,0.65,4.91,0.65,7.38s-0.22,4.95-0.65,7.38c-0.22,1.22,0.35,2.43,1.43,3.04l14.29,8.25 C165.64,127.28,165.99,128.58,165.38,129.62z" class="st0"/><path d="M125,88.07c-1.13-1.13-3-1.13-4.13,0c-1.13,1.13-1.13,3,0,4.13l15.85,15.85l-15.85,15.85 c-1.13,1.13-1.13,3,0,4.13c0.61,0.56,1.35,0.87,2.08,0.87c0.78,0,1.52-0.3,2.04-0.82l17.93-17.93c1.13-1.13,1.13-3,0-4.13 L125,88.07z" class="st0"/></g></svg>