<svg xmlns="http://www.w3.org/2000/svg" id="Layer_1" data-name="Layer 1" version="1.1" viewBox="0 0 191.78 163.91"><defs><style>.cls-1{fill:#010101;stroke:#fff;stroke-miterlimit:10}</style></defs><path d="M143.65,77.19c.27-2.03.41-4.11.41-6.21,0-26.37-21.45-47.83-47.83-47.83s-47.83,21.45-47.83,47.83c0,2.1.14,4.17.41,6.21,2.02-.08,4.03-.03,6.03.16-.32-2.09-.49-4.21-.49-6.37,0-23.1,18.78-41.88,41.88-41.88s41.88,18.78,41.88,41.88c0,2.17-.17,4.29-.49,6.37,2-.19,4.01-.25,6.03-.16Z" class="cls-1"/><path d="M128.99,78.99c.45-.13.92-.25,1.37-.38.56-2.45.85-5.01.85-7.64,0-19.28-15.7-34.97-34.98-34.97s-34.98,15.69-34.98,34.97c0,2.61.28,5.16.83,7.64.46.11.93.25,1.39.38,1.89.55,3.72,1.22,5.49,1.99-1.15-3.13-1.77-6.51-1.77-10.01,0-16.01,13.03-29.03,29.03-29.03s29.03,13.03,29.03,29.03c0,3.52-.63,6.89-1.78,10.01,1.78-.78,3.62-1.44,5.51-2Z" class="cls-1"/><path d="M143,80.95c-.49,2.34-1.16,4.63-1.99,6.82-2.3.06-4.58.33-6.81.83-.76.16-1.52.36-2.27.58-2.97.87-5.84,2.13-8.51,3.77-1.27.78-2.51,1.65-3.69,2.6-1.97,1.59-3.75,3.36-5.3,5.29-1.36,1.65-2.54,3.42-3.56,5.28-.85,1.56-1.59,3.18-2.19,4.85-.16.42-.3.85-.44,1.28-.71,2.18-1.2,4.45-1.46,6.77l.07,37.57c-2.28.29-4.59.49-6.92.59v-38.28c.6-5.55,2.32-11.23,4.96-16.05.99-1.81,2.11-3.55,3.36-5.19.09-.13.2-.25.3-.39,2-2.6,4.31-4.96,6.9-7.04,1.65-1.32,3.39-2.51,5.19-3.57,2.68-1.56,5.52-2.81,8.47-3.75.31-.09.62-.19.93-.28,2.22-.64,4.49-1.1,6.79-1.38,2.04-.25,4.11-.35,6.17-.29Z" class="cls-1"/><path d="M92.52,118.88v38.28c-2.3-.08-4.59-.26-6.83-.55v-37.61c-.27-2.33-.77-4.61-1.48-6.8-.18-.56-.38-1.11-.59-1.66-.58-1.53-1.26-3.01-2.05-4.45-1-1.83-2.17-3.59-3.51-5.22-1.56-1.94-3.35-3.74-5.33-5.34-1.23-.97-2.5-1.87-3.82-2.67-2.64-1.6-5.47-2.83-8.39-3.69-.74-.22-1.48-.41-2.24-.58-2.23-.49-4.5-.77-6.81-.83-.84-2.21-1.51-4.48-2.01-6.82,2.07-.06,4.13.04,6.17.29,2.29.27,4.56.74,6.78,1.38.3.08.6.18.91.28,2.94.92,5.76,2.16,8.43,3.72,1.83,1.06,3.59,2.26,5.26,3.6,2.59,2.09,4.9,4.45,6.9,7.03.1.06.2.1.3.15v.25c1.25,1.64,2.37,3.38,3.36,5.19,2.63,4.81,4.35,10.5,4.96,16.05Z" class="cls-1"/><path d="M117.06,70.76c0-11.51-9.33-20.83-20.83-20.83s-20.83,9.33-20.83,20.83c0,7.32,3.79,13.77,9.51,17.48,3.26,2.11,7.14,3.34,11.32,3.34s8.06-1.23,11.32-3.34c5.73-3.71,9.51-10.16,9.51-17.48Z" class="cls-1"/><path d="M146.8,91.9c-.41.99-.85,1.97-1.31,2.94.87,0,1.73.05,2.61.13l3.71.36c3.28-7.46,5.1-15.69,5.1-24.34,0-33.45-27.22-60.67-60.67-60.67s-60.67,27.22-60.67,60.67c0,8.6,1.83,16.85,5.15,24.33l3.65-.35c.89-.08,1.78-.13,2.67-.13-.47-.96-.93-1.94-1.33-2.94-1.87-4.44-3.15-9.16-3.78-14.05-.28-2.25-.43-4.54-.43-6.85,0-30.18,24.56-54.74,54.74-54.74s54.74,24.56,54.74,54.74c0,2.32-.14,4.61-.43,6.85-.61,4.92-1.89,9.64-3.73,14.06Z" class="cls-1"/></svg>