<svg xmlns="http://www.w3.org/2000/svg" version="1.1" viewBox="0 0 460 300"><defs><style>.cls-1{fill:#231f20;stroke-width:0}</style></defs><g id="Layer_2" data-name="Layer 2"><rect width="7.41" height="26.68" x="154.31" y="263.12" class="cls-1"/><rect width="7.41" height="26.68" x="79.53" y="263.12" class="cls-1"/><rect width="7.41" height="26.68" x="116.92" y="263.12" class="cls-1"/><rect width="7.41" height="26.68" x="135.74" y="263.12" class="cls-1"/><path d="M129.59,13.71c0-2.53-.88-4.66-2.6-6.37-1.75-1.72-3.89-2.58-6.45-2.58-2.74,0-5,.86-6.75,2.54s-2.62,3.83-2.62,6.48c0,2.35.8,4.41,2.44,6.21.87.98,1.95,1.68,3.22,2.13h-.21v156.82h7.49V22.12h-.25c1.17-.41,2.21-1.08,3.13-1.98,1.72-1.7,2.6-3.85,2.6-6.43ZM123.19,16.78c-.81.85-1.73,1.26-2.77,1.26-1.1,0-2.05-.43-2.83-1.3-.78-.86-1.17-1.91-1.17-3.14,0-1.15.39-2.11,1.17-2.94.81-.81,1.73-1.21,2.83-1.21,1.04,0,1.96.43,2.77,1.3.78.87,1.17,1.88,1.17,3.03s-.39,2.15-1.17,3Z" class="cls-1"/><path d="M356.27,289.8c-.68,0-1.26-.22-1.75-.65-.49-.44-.74-1.05-.74-1.83,0-.66.23-1.23.7-1.71.47-.48,1.05-.72,1.73-.72s1.27.24,1.75.71c.48.47.73,1.05.73,1.72,0,.77-.24,1.38-.73,1.82-.48.44-1.05.66-1.71.66Z" class="cls-1"/><g><path d="M79.83,250.06v-60.99h26.97c2.81,0,5.4.59,7.77,1.76,2.38,1.17,4.42,2.72,6.14,4.64,1.72,1.92,3.06,4.1,4.04,6.53.97,2.44,1.46,4.88,1.46,7.35,0,3.95-.99,7.55-2.96,10.78-1.98,3.24-4.65,5.57-8.03,7l13.92,22.94h-13.32l-12.46-20.44h-11.68v20.44h-11.85ZM91.68,219.22h14.86c1.09,0,2.1-.26,3.05-.77.95-.52,1.76-1.22,2.45-2.1.69-.89,1.23-1.93,1.63-3.14.4-1.2.6-2.49.6-3.87s-.23-2.75-.69-3.95c-.46-1.2-1.07-2.25-1.85-3.14-.77-.89-1.66-1.57-2.66-2.06-1-.49-2.02-.73-3.05-.73h-14.35v19.76Z" class="cls-1"/><path d="M179.3,239.67v10.39h-42.35v-60.99h41.58v10.39h-29.72v14.69h25.69v9.62h-25.69v15.89h30.5Z" class="cls-1"/></g><g><path d="M183.6,219.14c0-3.72.67-7.4,2.02-11.04,1.35-3.64,3.31-6.89,5.88-9.75,2.58-2.86,5.73-5.18,9.45-6.96,3.72-1.77,7.96-2.66,12.71-2.66,5.61,0,10.47,1.23,14.56,3.69,4.09,2.46,7.14,5.67,9.15,9.62l-9.11,6.27c-.8-1.72-1.78-3.16-2.92-4.34-1.15-1.17-2.38-2.1-3.69-2.79-1.32-.69-2.69-1.19-4.12-1.5-1.43-.31-2.83-.47-4.21-.47-2.98,0-5.57.6-7.77,1.8-2.21,1.2-4.04,2.76-5.5,4.68-1.46,1.92-2.56,4.1-3.31,6.53-.74,2.44-1.12,4.85-1.12,7.26,0,2.69.43,5.28,1.29,7.77s2.08,4.68,3.65,6.57c1.57,1.89,3.46,3.41,5.67,4.55,2.2,1.15,4.62,1.72,7.26,1.72,1.37,0,2.81-.17,4.29-.52,1.49-.34,2.91-.89,4.25-1.63,1.34-.74,2.59-1.7,3.74-2.88,1.14-1.17,2.06-2.59,2.75-4.25l9.71,5.58c-.97,2.29-2.36,4.31-4.17,6.06-1.8,1.75-3.84,3.22-6.1,4.42-2.26,1.2-4.68,2.12-7.26,2.75s-5.1.94-7.56.94c-4.35,0-8.33-.92-11.94-2.75-3.61-1.83-6.72-4.22-9.32-7.17-2.61-2.95-4.64-6.3-6.1-10.05-1.46-3.75-2.19-7.57-2.19-11.47Z" class="cls-1"/><path d="M262.72,189.07h10.48l23.19,60.99h-12.2l-5.67-15.21h-21.3l-5.58,15.21h-12.2l23.28-60.99ZM276.37,226.52l-8.42-23.97-8.76,23.97h17.18Z" class="cls-1"/></g><path d="M303.09,250.06v-60.99h25.86c2.81,0,5.4.59,7.77,1.76,2.38,1.17,4.42,2.72,6.14,4.64,1.72,1.92,3.06,4.1,4.04,6.53.97,2.44,1.46,4.88,1.46,7.35s-.46,5.08-1.37,7.52c-.92,2.44-2.21,4.6-3.87,6.49-1.66,1.89-3.67,3.41-6.01,4.55-2.35,1.15-4.93,1.72-7.73,1.72h-14.43v20.44h-11.85ZM314.95,219.22h13.74c2.18,0,3.99-.89,5.45-2.66,1.46-1.77,2.19-4.18,2.19-7.22,0-1.55-.23-2.93-.69-4.17-.46-1.23-1.06-2.28-1.8-3.14-.74-.86-1.62-1.5-2.62-1.93-1-.43-2.02-.64-3.05-.64h-13.23v19.76Z" class="cls-1"/><path d="M205.8,282.47c0,1.01-.2,1.94-.61,2.78-.4.85-.95,1.58-1.63,2.2-.68.62-1.48,1.1-2.38,1.44s-1.88.51-2.92.51h-12.68v-26.88h12.95c.93,0,1.78.2,2.54.61.76.4,1.4.93,1.93,1.57.53.64.94,1.38,1.23,2.2.29.82.44,1.65.44,2.48,0,1.36-.34,2.61-1.02,3.73-.68,1.12-1.63,1.96-2.84,2.52,1.54.45,2.76,1.3,3.65,2.54.9,1.24,1.34,2.68,1.34,4.32ZM188.23,264.83v9.92h9.24c.66,0,1.27-.14,1.84-.42.57-.28,1.05-.64,1.46-1.1.4-.45.72-.98.95-1.57.23-.59.34-1.22.34-1.87s-.11-1.32-.32-1.93c-.21-.61-.52-1.13-.91-1.57-.39-.44-.85-.79-1.38-1.06-.53-.27-1.11-.4-1.74-.4h-9.46ZM203.15,282.01c0-.66-.11-1.29-.34-1.91-.23-.62-.55-1.16-.97-1.63-.42-.47-.91-.85-1.48-1.14-.57-.29-1.18-.44-1.84-.44h-10.3v10.18h10.03c.68,0,1.32-.14,1.91-.42.59-.28,1.11-.65,1.55-1.12.44-.47.79-1.01,1.04-1.63.25-.62.38-1.26.38-1.91Z" class="cls-1"/><path d="M212.5,262.52l8.78,14.46,8.86-14.46h2.88l-10.41,16.88v9.99h-2.65v-10.07l-10.37-16.81h2.92Z" class="cls-1"/><path d="M250.66,289.4v-26.88h17.64v2.35h-14.99v9.88h12.64v2.2h-12.64v12.46h-2.65Z" class="cls-1"/><path d="M275.61,289.4v-26.88h11.36c1.16,0,2.23.25,3.2.74.97.49,1.81,1.14,2.52,1.93.71.79,1.26,1.7,1.65,2.71.39,1.01.59,2.03.59,3.07s-.15,1.92-.44,2.82c-.29.9-.69,1.7-1.21,2.42-.52.72-1.14,1.33-1.87,1.82-.73.49-1.55.83-2.46,1l6.59,10.37h-2.99l-6.32-9.92h-7.95v9.92h-2.65ZM278.26,277.13h8.78c.78,0,1.5-.17,2.14-.51.64-.34,1.19-.8,1.65-1.38.45-.58.81-1.24,1.06-1.97.25-.73.38-1.5.38-2.31s-.15-1.58-.44-2.33c-.29-.74-.68-1.39-1.17-1.95-.49-.55-1.07-1-1.74-1.32s-1.37-.49-2.1-.49h-8.56v12.27Z" class="cls-1"/><path d="M321.03,287.05v2.35h-18.06v-26.88h17.72v2.35h-15.07v9.69h13.14v2.23h-13.14v10.26h15.41Z" class="cls-1"/><path d="M346.74,287.05v2.35h-18.06v-26.88h17.72v2.35h-15.07v9.69h13.14v2.23h-13.14v10.26h15.41Z" class="cls-1"/><path d="M364.86,289.4v-26.88h2.65v24.53h15.52v2.35h-18.17Z" class="cls-1"/><path d="M397.91,262.52h2.23l11.17,26.88h-2.8l-3.48-8.4h-12.08l-3.44,8.4h-2.84l11.24-26.88ZM404.42,278.91l-5.41-13.29-5.49,13.29h10.9Z" class="cls-1"/><path d="M425.61,262.71h2.5l3.79,9.54,3.82-9.54h2.54l-4.69,11.47,5.15,12.15,9.73-23.81h2.88l-11.39,26.88h-2.35l-5.64-13.29-5.68,13.29h-2.31l-11.36-26.88h2.84l9.77,23.81,5.11-12.15-4.69-11.47Z" class="cls-1"/><path d="M99.95,30.92c-3.16.76-5.77,3.28-6.62,6.44-1.31,4.88,1.31,9.37,5.36,11.06v130.52h7.67V48.1c3.02-1.51,5.11-4.6,5.11-8.2,0-5.84-5.43-10.44-11.52-8.98Z" class="cls-1"/><rect width="7.62" height="26.63" x="98.72" y="262.84" class="cls-1"/></g><g id="Layer_3" data-name="Layer 3"><path d="M216.89,142.09h-47.72v3.94c.02,4.77,2.92,7.69,7.67,7.69,10.39-.02,20.77-.05,31.18-.07.94-.02,1.93-.05,2.86-.3,5.73-1.52,6.79-6.26,6.01-11.26Z" class="cls-1"/><path d="M227.14,83.58c-1.73-1.75-3.87-2.63-6.43-2.63-2.76,0-5.02.85-6.77,2.58-.85.83-1.5,1.8-1.91,2.88h-57.66v92.53h7.48s0-85.05,0-85.05h28.97c0,3.34,0,6.68-.05,10.02-.02.64-.12,1.34-.32,1.93-3.43,9.7-6.89,19.37-10.27,29.04-.3.85-.67,1.13-1.52,1.11-2.99-.05-5.96,0-8.94.02-.99,0-1.38.39-1.38,1.27s.44,1.29,1.5,1.27c2.86,0,5.69-.07,8.54-.09,12.9-.05,25.79-.12,38.71-.16,1.17,0,1.73-.44,1.7-1.29s-.51-1.22-1.66-1.22c-2.46,0-4.91,0-7.35.05-.71.02-1.04-.21-1.31-.88-4.1-9.67-8.2-19.32-12.3-28.99-.14-.3-.21-.62-.21-.94v-11.12h16.07c.39.94.97,1.84,1.7,2.69,1.64,1.84,3.91,2.79,6.86,2.79,2.6,0,4.79-.88,6.52-2.65,1.73-1.75,2.6-3.94,2.6-6.61s-.88-4.77-2.6-6.54ZM204.07,135.78h-19.55c2.92-8.24,5.85-16.51,8.77-24.76h.25c3.5,8.2,6.98,16.4,10.52,24.76ZM223.34,93.27c-.78.88-1.7,1.31-2.76,1.31s-2.05-.44-2.83-1.34c-.78-.9-1.17-1.98-1.17-3.25,0-1.17.41-2.16,1.2-2.99.78-.85,1.73-1.27,2.81-1.27s1.98.46,2.76,1.34c.78.9,1.17,1.93,1.17,3.13s-.39,2.19-1.17,3.06Z" class="cls-1"/><path d="M70.87,162.68H23.15c0,1.43-.02,2.67,0,3.91,0,4.77,2.92,7.69,7.65,7.69,10.39-.02,20.8-.05,31.18-.07.94,0,1.93-.05,2.86-.3,5.73-1.52,6.79-6.26,6.03-11.24Z" class="cls-1"/><path d="M26.58,107.16c-.44-1.22-1.13-2.33-2.07-3.29-1.75-1.75-3.89-2.63-6.45-2.63-2.74,0-5,.85-6.75,2.58s-2.63,3.96-2.63,6.68c0,2.39.81,4.51,2.44,6.38,1.64,1.84,3.91,2.79,6.86,2.79,2.6,0,4.77-.88,6.52-2.63.71-.74,1.27-1.52,1.7-2.4h18.56c0,3.27,0,6.56-.05,9.83,0,.64-.12,1.34-.32,1.93-3.41,9.7-6.86,19.34-10.27,29.04-.3.85-.64,1.11-1.52,1.11-2.97-.05-5.96,0-8.94.02-.97,0-1.38.39-1.38,1.27.02.88.46,1.27,1.52,1.27,2.83-.02,5.69-.07,8.52-.09,12.9-.07,25.82-.12,38.71-.16,1.2-.02,1.73-.44,1.7-1.31,0-.83-.48-1.2-1.66-1.2-2.44,0-4.91-.02-7.35.05-.69,0-1.04-.21-1.31-.88-4.08-9.67-8.2-19.32-12.3-28.99-.12-.3-.21-.64-.21-.97,0-3.62,0-7.28.02-10.92h28.92v64.3h7.48s0-71.78,0-71.78H26.58ZM20.71,113.56c-.81.88-1.7,1.31-2.76,1.31s-2.05-.44-2.83-1.34c-.78-.9-1.17-1.98-1.17-3.25,0-1.15.39-2.16,1.2-2.99.78-.83,1.73-1.27,2.81-1.27s1.96.46,2.76,1.34c.78.9,1.17,1.93,1.17,3.13s-.39,2.21-1.17,3.06ZM58.04,156.35h-19.55c2.92-8.24,5.85-16.51,8.77-24.76.07,0,.16,0,.25-.02,3.48,8.2,6.95,16.42,10.52,24.78Z" class="cls-1"/><path d="M145.99,51.84c-1.73-1.75-3.89-2.65-6.45-2.65-2.74,0-5,.88-6.75,2.6-1.75,1.73-2.63,3.94-2.63,6.68,0,2.39.81,4.51,2.44,6.38.83.94,1.84,1.64,3.02,2.1v111.99h7.48v-111.99c1.06-.44,2.03-1.11,2.88-1.96,1.73-1.75,2.6-3.96,2.6-6.61s-.88-4.79-2.6-6.54ZM142.19,61.54c-.78.88-1.7,1.31-2.76,1.31s-2.05-.46-2.83-1.34c-.78-.9-1.17-1.98-1.17-3.25,0-1.17.39-2.16,1.2-2.99.78-.85,1.73-1.27,2.81-1.27s1.98.44,2.76,1.34c.78.9,1.17,1.93,1.17,3.13s-.39,2.19-1.17,3.06Z" class="cls-1"/></g></svg>