<svg xmlns="http://www.w3.org/2000/svg" xmlns:svg="http://www.w3.org/2000/svg" id="Layer_1" width="350.343" height="353.276" data-name="Layer 1" version="1.1" viewBox="0 0 350.343 353.276"><defs id="defs949"><style id="style947">.cls-1{fill:#5064ad}.cls-1,.cls-2{stroke-width:0}.cls-3{fill:none;stroke:#848582;stroke-miterlimit:10;stroke-width:7px}.cls-2{fill:#848582}</style></defs><g id="g965" transform="matrix(0.50426546,0,0,0.48571784,18.991611,113.36355)"><g id="g955"><path id="path951" d="m 111.69,390.29 v -96.67 h 42.75 c 4.45,0 8.55,0.93 12.32,2.79 3.77,1.86 7.01,4.31 9.73,7.35 2.72,3.04 4.85,6.49 6.4,10.35 1.54,3.86 2.31,7.74 2.31,11.64 0,6.26 -1.57,11.96 -4.7,17.09 -3.13,5.13 -7.38,8.83 -12.73,11.1 l 22.06,36.35 h -21.1 l -19.74,-32.4 h -18.52 v 32.4 h -18.79 z m 18.78,-48.88 h 23.55 c 1.72,0 3.34,-0.41 4.83,-1.22 1.5,-0.82 2.79,-1.93 3.88,-3.34 1.09,-1.41 1.95,-3.06 2.59,-4.97 0.63,-1.91 0.95,-3.95 0.95,-6.13 0,-2.18 -0.36,-4.36 -1.09,-6.26 -0.73,-1.91 -1.7,-3.56 -2.93,-4.97 -1.23,-1.41 -2.63,-2.5 -4.22,-3.27 -1.59,-0.77 -3.2,-1.16 -4.83,-1.16 h -22.74 v 31.31 z" class="cls-1"/><path id="path953" d="m 269.35,373.82 v 16.47 h -67.12 v -96.67 h 65.9 v 16.47 h -47.11 v 23.28 h 40.71 v 15.25 h -40.71 v 25.19 h 48.33 z" class="cls-1"/></g><g id="g961"><path id="path957" d="m 276.15,341.28 c 0,-5.9 1.07,-11.73 3.2,-17.5 2.13,-5.76 5.24,-10.91 9.33,-15.45 4.08,-4.54 9.08,-8.21 14.98,-11.03 5.9,-2.81 12.62,-4.22 20.15,-4.22 8.89,0 16.59,1.95 23.08,5.85 6.49,3.9 11.32,8.99 14.5,15.25 l -14.43,9.94 c -1.27,-2.72 -2.81,-5.01 -4.63,-6.88 -1.82,-1.86 -3.77,-3.34 -5.85,-4.42 -2.09,-1.09 -4.27,-1.88 -6.54,-2.38 -2.27,-0.5 -4.49,-0.75 -6.67,-0.75 -4.72,0 -8.83,0.95 -12.32,2.86 -3.5,1.91 -6.4,4.38 -8.71,7.42 -2.31,3.04 -4.06,6.49 -5.24,10.35 -1.18,3.86 -1.77,7.69 -1.77,11.5 0,4.27 0.68,8.37 2.04,12.32 1.36,3.95 3.29,7.42 5.79,10.42 2.5,3 5.49,5.4 8.99,7.22 3.49,1.82 7.33,2.72 11.5,2.72 2.18,0 4.45,-0.27 6.81,-0.82 2.36,-0.54 4.61,-1.41 6.74,-2.59 2.13,-1.18 4.11,-2.7 5.92,-4.56 1.81,-1.86 3.27,-4.11 4.36,-6.74 l 15.38,8.85 c -1.54,3.63 -3.74,6.83 -6.6,9.6 -2.86,2.77 -6.08,5.11 -9.67,7.01 -3.59,1.91 -7.42,3.36 -11.5,4.36 -4.08,1 -8.08,1.5 -11.98,1.5 -6.9,0 -13.21,-1.45 -18.92,-4.36 -5.72,-2.9 -10.64,-6.69 -14.77,-11.37 -4.13,-4.67 -7.35,-9.98 -9.67,-15.93 -2.31,-5.94 -3.47,-12 -3.47,-18.18 z" class="cls-1"/><path id="path959" d="m 401.54,293.63 h 16.61 l 36.76,96.67 h -19.33 l -8.99,-24.1 h -33.77 l -8.85,24.1 h -19.33 z m 21.65,59.36 -13.34,-37.99 -13.89,37.99 z" class="cls-1"/></g><path id="path963" d="m 465.54,390.29 v -96.67 h 40.98 c 4.45,0 8.55,0.93 12.32,2.79 3.77,1.86 7.01,4.31 9.74,7.35 2.72,3.04 4.85,6.49 6.4,10.35 1.54,3.86 2.31,7.74 2.31,11.64 0,3.9 -0.73,8.06 -2.18,11.91 -1.45,3.86 -3.5,7.28 -6.13,10.28 -2.63,3 -5.81,5.4 -9.53,7.22 -3.72,1.82 -7.81,2.72 -12.25,2.72 h -22.87 v 32.4 h -18.79 z m 18.79,-48.88 h 21.78 c 3.45,0 6.33,-1.41 8.65,-4.22 2.31,-2.81 3.47,-6.62 3.47,-11.44 0,-2.45 -0.36,-4.65 -1.09,-6.6 -0.73,-1.95 -1.68,-3.61 -2.86,-4.97 -1.18,-1.36 -2.57,-2.38 -4.15,-3.06 -1.59,-0.68 -3.2,-1.02 -4.83,-1.02 h -20.97 z" class="cls-1"/></g><g id="g1190" transform="matrix(0.74464731,0,0,0.71725809,44.7275,49.934461)"><path id="path993" d="m 143.58,41.46 c -5.01,1.2 -9.15,5.19 -10.49,10.2 -2.07,7.73 2.07,14.85 8.49,17.53 v 206.86 h 12.16 V 68.68 c 4.79,-2.4 8.1,-7.3 8.1,-13 0,-9.26 -8.6,-16.55 -18.26,-14.23 z" class="cls-1"/><path id="path995" d="m 175.93,0.4 c -5.3,1.23 -9.58,5.52 -10.78,10.83 -1.63,7.22 2.18,13.79 8.17,16.54 v 248.28 h 12.16 V 27.77 c 5.05,-2.27 8.57,-7.33 8.57,-13.21 0,-9.13 -8.53,-16.35 -18.11,-14.15 z m 3.48,20.77 c -3.6,0 -6.53,-2.93 -6.53,-6.53 0,-3.6 2.93,-6.53 6.53,-6.53 3.6,0 6.53,2.93 6.53,6.53 0,3.6 -2.93,6.53 -6.53,6.53 z" class="cls-2"/><path id="path997" d="m 206.35,71.88 c -5.26,1.23 -9.55,5.48 -10.74,10.74 -1.67,7.1 2,13.52 7.77,16.36 v 177.07 h 12.16 V 99.41 c 5.26,-2.2 8.97,-7.39 8.97,-13.41 0,-9.15 -8.57,-16.33 -18.15,-14.13 z m 3.5,20.77 c -3.6,0 -6.53,-2.93 -6.53,-6.53 0,-3.6 2.93,-6.53 6.53,-6.53 3.6,0 6.53,2.93 6.53,6.53 0,3.6 -2.93,6.53 -6.53,6.53 z" class="cls-2"/><path id="path999" d="m 349.92,132.72 c -1.2,-5.01 -5.23,-9.12 -10.24,-10.42 -7.77,-2.06 -14.92,2.13 -17.53,8.58 h -91.26 v 145.26 h 12.2 V 143 h 45.81 l -0.11,25.19 8.06,-0.22 0.14,-24.98 h 25.77 c 2.43,4.65 7.3,7.86 12.96,7.86 9.22,0 16.52,-8.55 14.19,-18.14 z m -14.21,10.22 c -3.6,0 -6.53,-2.93 -6.53,-6.53 0,-3.6 2.93,-6.53 6.53,-6.53 3.6,0 6.53,2.93 6.53,6.53 0,3.6 -2.93,6.53 -6.53,6.53 z" class="cls-2"/><g id="g1009"><line id="line1001" x1="62.26" x2="82.26" y1="196.3" y2="243.36" class="cls-3"/><line id="line1003" x1="60.99" x2="43.9" y1="196.52" y2="244.71" class="cls-3"/><path id="path1005" d="m 24.26,251.92 h 75.26 v 4.47 c 0,7.53 -6.11,13.64 -13.64,13.64 H 36.47 c -6.73,0 -12.2,-5.47 -12.2,-12.2 v -5.91 0 z" class="cls-2" transform="rotate(-0.27,63.036859,265.40775)"/><path id="path1007" d="m 100.53,245.87 -75.99,0.36 c -0.9,0 -1.63,-0.85 -1.64,-1.92 v -0.09 c 0,-1.06 0.72,-1.93 1.62,-1.93 l 75.99,-0.36 c 0.9,0 1.63,0.85 1.64,1.92 v 0.09 c 0,1.06 -0.72,1.93 -1.62,1.93 z" class="cls-2"/></g><g id="g1019"><line id="line1011" x1="293.35" x2="313.35" y1="164.12" y2="211.17" class="cls-3"/><line id="line1013" x1="292.08" x2="274.99" y1="164.33" y2="212.52" class="cls-3"/><path id="path1015" d="m 255.35,219.73 h 75.26 v 4.47 c 0,7.53 -6.11,13.64 -13.64,13.64 h -49.41 c -6.73,0 -12.2,-5.47 -12.2,-12.2 v -5.91 0 z" class="cls-2" transform="rotate(-0.27,298.66574,232.00976)"/><path id="path1017" d="m 331.62,213.69 -75.99,0.36 c -0.9,0 -1.63,-0.85 -1.64,-1.92 v -0.09 c 0,-1.06 0.72,-1.93 1.62,-1.93 l 75.99,-0.36 c 0.9,0 1.63,0.85 1.64,1.92 v 0.09 c 0,1.06 -0.72,1.93 -1.62,1.93 z" class="cls-2"/></g><path id="path1021" d="m 28.67,163.48 c -1.74,-6.13 -7.33,-10.67 -14.01,-10.67 -9.26,0 -16.52,8.64 -14.23,18.26 1.23,5.05 5.19,9.18 10.2,10.53 6.64,1.78 12.85,-1.02 16.15,-5.95 h 31.07 l -0.11,26.8 8.06,-0.22 0.15,-26.58 h 45.52 l -0.42,100.49 h 12.2 l 0.42,-112.65 h -95 z M 14.7,173.99 c -3.61,0 -6.53,-2.92 -6.53,-6.53 0,-3.61 2.93,-6.53 6.53,-6.53 3.6,0 6.53,2.92 6.53,6.53 0,3.61 -2.92,6.53 -6.53,6.53 z" class="cls-2"/></g></svg>