<?xml version="1.0" encoding="UTF-8"?>
<svg xmlns="http://www.w3.org/2000/svg" version="1.1" viewBox="0 0 147.09 129.64">
  <defs>
    <style>
      .cls-1 {
        fill: #000;
        stroke-width: 0px;
      }

      .cls-2 {
        fill: none;
        stroke: #000;
        stroke-miterlimit: 10;
        stroke-width: 6px;
      }

      .cls-3 {
        display: none;
      }
    </style>
  </defs>
  <g id="Layer_1" data-name="Layer 1" class="cls-3">
    <g>
      <g>
        <polygon class="cls-1" points="144.14 55.34 133.58 69.65 124.25 54.71 144.14 55.34"/>
        <path class="cls-1" d="M121.96,54.26c0-.21.06-.42.17-.61.24-.41.69-.66,1.16-.65l19.89.63c.48.02.91.3,1.13.73.21.43.16.95-.12,1.34l-10.55,14.31c-.25.35-.66.54-1.09.53s-.82-.24-1.05-.61l-9.33-14.94c-.14-.22-.2-.48-.2-.73h-.01ZM140.63,56.14l-14.99-.47,7.04,11.26,7.96-10.79h0Z"/>
      </g>
      <path class="cls-2" d="M71.32,6.85s24.51.5,40.62,14.54c16.11,14.04,20.18,28,21.31,34.49"/>
      <circle class="cls-1" cx="71.65" cy="6.87" r="3.02"/>
    </g>
    <g>
      <path class="cls-1" d="M21.8,81.8h0c0,.22-.06.43-.16.62-.23.42-.68.67-1.16.67l-9.43-.16-10.46-.18c-.48,0-.92-.28-1.14-.71s-.18-.94.1-1.34l10.34-14.47c.25-.35.66-.55,1.09-.54.43.01.83.23,1.06.59l9.55,14.8c.14.22.21.47.21.72Z"/>
      <path class="cls-2" d="M73.12,128.47s-24.51-.14-40.83-13.94c-16.2-13.71-20.59-27.7-21.81-34.18"/>
      <path class="cls-1" d="M75.81,128.46c0,1.67-1.35,3.02-3.02,3.02s-3.02-1.35-3.02-3.02c0-.05,0-.11.01-.16.08-1.6,1.39-2.86,3.01-2.86s3.02,1.35,3.02,3.02Z"/>
    </g>
    <circle class="cls-2" cx="30.04" cy="30.96" r="14.77"/>
    <circle class="cls-2" cx="119.5" cy="108.7" r="14.77"/>
    <circle class="cls-2" cx="74.39" cy="69.88" r="31.11"/>
    <line class="cls-2" x1="41.13" y1="40.77" x2="49.34" y2="47.97"/>
    <line class="cls-2" x1="99.68" y1="90.97" x2="107.89" y2="98.17"/>
  </g>
  <g id="Layer_2" data-name="Layer 2">
    <g>
      <path class="cls-1" d="M146.06,52.48c-3.45,4.69-6.9,9.39-10.35,14.08-.12.16-.24.32-.36.48-.91,1.12-1.89,1.1-2.7-.13-1.01-1.53-1.96-3.1-2.93-4.66-1.88-3.01-3.76-6.03-5.64-9.04-.21-.34-.44-.67-.6-1.03-.49-1.09.06-2.1,1.24-2.12,1.51-.03,3.03.08,4.54.13.47.02.94.05,1.55.08-.33-1.72-.89-3.24-1.47-4.75-2.43-6.28-5.99-11.88-10.42-16.93-3.06-3.49-6.31-6.78-10.03-9.56-5.17-3.87-10.97-6.48-17.1-8.4-3.58-1.12-7.23-1.98-10.94-2.53-2.52-.37-5.06-.61-7.6-.79-1.99-.14-3.3-1.45-3.18-3.4.1-1.77,1.72-3.1,3.56-2.94,6.04.53,12.02,1.43,17.88,3.06,6.65,1.86,12.97,4.48,18.75,8.3,4.52,2.99,8.44,6.67,12.08,10.67,2.69,2.96,5.14,6.1,7.31,9.46,3.38,5.24,5.94,10.83,7.46,16.89.09.34.21.68.33,1.1.44.03.87.07,1.3.07,1.6.02,3.19.02,4.79.06,1.01.02,2.01.14,2.55,1.2v.72Z"/>
      <path class="cls-1" d="M72.98,128.65c-.19-.06-.37-.15-.56-.16-4.2-.14-8.32-.81-12.42-1.68-6.23-1.31-12.25-3.27-17.94-6.16-4.11-2.09-7.91-4.62-11.36-7.7-5-4.45-9.51-9.33-13.21-14.92-3.46-5.23-6.12-10.83-7.75-16.89-.08-.3-.18-.6-.3-.97-.38-.03-.73-.07-1.08-.07-1.72-.02-3.43-.03-5.15-.04-.24,0-.48.01-.72,0-1.52-.12-2.11-1.23-1.27-2.49.89-1.33,1.84-2.61,2.77-3.91,2.27-3.18,4.61-6.32,6.8-9.56,1.08-1.59,2.32-1.99,3.6.08,2.78,4.47,5.68,8.87,8.53,13.3.26.4.46.83.65,1.18-.3,1.49-.53,1.68-1.93,1.68-1.4,0-2.79-.02-4.19-.03-.43,0-.86,0-1.4,0,.53,2.09,1.22,3.95,2.02,5.77,2.59,5.95,6.17,11.24,10.51,16.04,4.09,4.52,8.56,8.59,13.87,11.65,4.38,2.52,9.04,4.37,13.9,5.74,3.73,1.05,7.52,1.8,11.35,2.32,2.09.28,4.2.42,6.31.52,1.85.09,2.98.83,3.37,2.44.37,1.53-.32,2.85-1.93,3.69-.1.05-.2.12-.3.18h-2.16Z"/>
      <path class="cls-1" d="M48.19,46.95c-1.82-1.6-3.58-3.15-5.4-4.74-4.51,3.31-9.46,4.61-14.94,3.42-4.3-.93-7.8-3.17-10.47-6.68-5.21-6.85-4.74-16.59,1.11-22.91,5.93-6.4,15.64-7.58,22.95-2.82,6.6,4.29,11.13,14.11,5.53,24.33,1.74,1.52,3.5,3.06,5.35,4.68,7.21-6.57,15.63-9.8,25.29-9.34,8.63.41,16.1,3.76,22.3,9.77,9.83,9.54,14.93,27.49,4.2,43.83,1.91,1.69,3.84,3.39,5.82,5.14,4.42-3.13,9.23-4.43,14.6-3.35,4.39.88,7.94,3.16,10.61,6.67,5.41,7.12,4.66,16.52-.87,22.7-6.2,6.93-16.12,7.81-23.38,2.92-7.14-4.82-10.57-14.95-5.16-24.3-1.86-1.63-3.73-3.27-5.68-4.98-7.62,7.28-16.67,10.62-27.09,9.8-8.22-.64-15.34-4-21.17-9.81-11.32-11.27-13.87-29.61-3.6-44.32ZM75.82,94.87c15.14.34,27.72-12.19,28.03-27.18.33-15.91-12.46-28.34-27.41-28.6-15.99-.27-28.43,12.9-28.45,27.91-.02,15.27,12.81,28.17,27.82,27.86ZM31.63,39.75c6.11.19,11.58-5.05,11.63-11.5.04-6.32-5.25-11.68-11.6-11.7-6.17-.02-11.63,5.19-11.63,11.67,0,6.27,5.39,11.71,11.6,11.52ZM109.41,105.76c-.28,6.41,5.43,11.6,11.47,11.63,6.07.04,11.68-4.86,11.69-11.6.01-6.78-5.64-11.66-11.65-11.64-6.08.02-11.77,5.24-11.51,11.6Z"/>
    </g>
  </g>
</svg>