<?xml version="1.0" encoding="UTF-8" standalone="no"?>
<!-- Created with Inkscape (http://www.inkscape.org/) -->

<svg
   xmlns:dc="http://purl.org/dc/elements/1.1/"
   xmlns:cc="http://creativecommons.org/ns#"
   xmlns:rdf="http://www.w3.org/1999/02/22-rdf-syntax-ns#"
   xmlns:svg="http://www.w3.org/2000/svg"
   xmlns="http://www.w3.org/2000/svg"
   xmlns:sodipodi="http://sodipodi.sourceforge.net/DTD/sodipodi-0.dtd"
   xmlns:inkscape="http://www.inkscape.org/namespaces/inkscape"
   width="31.184361mm"
   height="28.83955mm"
   viewBox="0 0 31.184361 28.83955"
   version="1.1"
   id="svg6159"
   inkscape:version="0.92.5 (2060ec1f9f, 2020-04-08)"
   sodipodi:docname="replication.svg">
  <defs
     id="defs6153" />
  <sodipodi:namedview
     id="base"
     pagecolor="#ffffff"
     bordercolor="#666666"
     borderopacity="1.0"
     inkscape:pageopacity="0.0"
     inkscape:pageshadow="2"
     inkscape:zoom="0.35"
     inkscape:cx="-653.92607"
     inkscape:cy="-36.928643"
     inkscape:document-units="mm"
     inkscape:current-layer="layer1"
     showgrid="false"
     fit-margin-top="0"
     fit-margin-left="0"
     fit-margin-right="0"
     fit-margin-bottom="0"
     inkscape:window-width="2560"
     inkscape:window-height="1328"
     inkscape:window-x="0"
     inkscape:window-y="38"
     inkscape:window-maximized="1" />
  <metadata
     id="metadata6156">
    <rdf:RDF>
      <cc:Work
         rdf:about="">
        <dc:format>image/svg+xml</dc:format>
        <dc:type
           rdf:resource="http://purl.org/dc/dcmitype/StillImage" />
        <dc:title></dc:title>
      </cc:Work>
    </rdf:RDF>
  </metadata>
  <g
     inkscape:label="Layer 1"
     inkscape:groupmode="layer"
     id="layer1"
     transform="translate(-109.89592,-110.22308)">
    <g
       id="g7796"
       transform="matrix(0.35277777,0,0,-0.35277777,115.78533,113.61335)"
       inkscape:export-xdpi="243.96361"
       inkscape:export-ydpi="243.96361">
      <path
         d="m 0,0 c 4.061,0 7.364,-3.304 7.364,-7.364 0,-4.061 -3.303,-7.364 -7.364,-7.364 -4.061,0 -7.365,3.303 -7.365,7.364 C -7.365,-3.304 -4.061,0 0,0 m 28.446,-50.142 c -9.877,0 -17.913,8.036 -17.913,17.914 0,9.878 8.036,17.915 17.913,17.915 9.879,0 17.915,-8.037 17.915,-17.915 0,-9.878 -8.036,-17.914 -17.915,-17.914 m 28.637,-14.322 c -4.061,0 -7.364,3.305 -7.364,7.365 0,4.061 3.303,7.363 7.364,7.363 4.061,0 7.364,-3.302 7.364,-7.363 0,-4.06 -3.303,-7.365 -7.364,-7.365 m 0,18.275 c -2.471,0 -4.742,-0.834 -6.573,-2.224 l -4.672,3.635 c 2.556,3.533 4.068,7.867 4.068,12.55 0,11.833 -9.626,21.46 -21.46,21.46 -5.719,0 -10.922,-2.253 -14.771,-5.917 l -4.476,3.481 c 1.077,1.691 1.711,3.69 1.711,5.84 0,6.016 -4.894,10.911 -10.91,10.911 -6.017,0 -10.911,-4.895 -10.911,-10.911 0,-6.015 4.894,-10.909 10.911,-10.909 2.586,0 4.963,0.908 6.834,2.418 l 4.471,-3.479 c -2.71,-3.592 -4.318,-8.058 -4.318,-12.894 0,-11.833 9.626,-21.46 21.459,-21.46 5.876,0 11.204,2.375 15.085,6.212 l 4.519,-3.513 c -1.185,-1.743 -1.877,-3.848 -1.877,-6.11 0,-6.016 4.893,-10.91 10.91,-10.91 6.016,0 10.909,4.894 10.909,10.91 0,6.016 -4.893,10.91 -10.909,10.91"
         style="fill:#999999;fill-opacity:1;fill-rule:nonzero;stroke:none"
         id="path7798"
         inkscape:connector-curvature="0" />
    </g>
    <g
       id="g7800"
       transform="matrix(0.35277777,0,0,-0.35277777,125.13532,139.06263)"
       inkscape:export-xdpi="243.96361"
       inkscape:export-ydpi="243.96361">
      <path
         d="m 0,0 c -21,0 -38.418,16.393 -40.222,37.319 l 2.739,0.258 C -35.812,18.188 -19,3 0,3 Z"
         style="fill:#999999;fill-opacity:1;fill-rule:nonzero;stroke:none"
         id="path7802"
         inkscape:connector-curvature="0" />
    </g>
    <g
       id="g7804"
       transform="matrix(0.35277777,0,0,-0.35277777,113.55669,127.86571)"
       inkscape:export-xdpi="243.96361"
       inkscape:export-ydpi="243.96361">
      <path
         d="m 0,0 -5.336,4.826 -4.823,-5.339 -0.218,4.313 4.823,5.336 5.336,-4.824 z"
         style="fill:#999999;fill-opacity:1;fill-rule:nonzero;stroke:none"
         id="path7806"
         inkscape:connector-curvature="0" />
    </g>
    <g
       id="g7808"
       transform="matrix(0.35277777,0,0,-0.35277777,138.62321,123.47941)"
       inkscape:export-xdpi="243.96361"
       inkscape:export-ydpi="243.96361">
      <path
         d="m 0,0 c -1.672,19.389 -18.233,34.577 -38.233,34.577 v 3 c 22,0 39.168,-16.392 40.971,-37.319 z"
         style="fill:#999999;fill-opacity:1;fill-rule:nonzero;stroke:none"
         id="path7810"
         inkscape:connector-curvature="0" />
    </g>
    <g
       id="g7812"
       transform="matrix(0.35277777,0,0,-0.35277777,137.4195,121.41993)"
       inkscape:export-xdpi="243.96361"
       inkscape:export-ydpi="243.96361">
      <path
         d="M 0,0 5.336,-4.826 10.159,0.513 10.377,-3.8 5.554,-9.136 0.218,-4.312 Z"
         style="fill:#999999;fill-opacity:1;fill-rule:nonzero;stroke:none"
         id="path7814"
         inkscape:connector-curvature="0" />
    </g>
  </g>
</svg>
