<svg xmlns="http://www.w3.org/2000/svg" id="Layer_2" data-name="Layer 2" version="1.1" viewBox="0 0 191.78 163.91"><defs><style>.cls-1{fill:#000;stroke-width:0}</style></defs><path d="M169.52,80.31c-.12.53-.23,1.07-.38,1.6-.59,2.17-1.87,3.85-3.71,5.12-4.08,2.8-8.16,5.59-12.24,8.38-13.3,9.09-26.61,18.18-39.92,27.27-3.82,2.61-7.63,5.24-11.47,7.81-.89.59-1.84,1.13-2.84,1.49-2.13.76-4.08.1-5.89-1.08-2.87-1.88-5.73-3.78-8.59-5.67-18.56-12.27-37.13-24.55-55.69-36.82-1.87-1.24-3.44-2.72-4.2-4.91-1.52-4.4.92-9.51,5.39-11.28,3.02-1.2,5.88-.99,8.63.9,10.89,7.47,21.81,14.88,32.71,22.33,8.37,5.71,16.73,11.43,25.1,17.14.19.13.41.23.65.37,2.51-1.72,5.02-3.43,7.52-5.14,15.94-10.89,31.89-21.77,47.83-32.66.96-.65,1.9-1.32,2.86-1.96,1.27-.84,2.64-1.43,4.14-1.79,4.23-1.01,8.94,2.15,9.85,6.92.07.34.17.68.25,1.02v.96ZM97.09,125.12c.44-.28.81-.5,1.17-.75,12.12-8.28,24.24-16.55,36.35-24.83,8.73-5.96,17.45-11.93,26.17-17.89.36-.25.74-.49,1.05-.78.64-.6.67-1.22.14-1.91-.17-.22-.4-.38-.56-.54-.84-.22-1.46.16-2.06.57-1.85,1.25-3.7,2.5-5.54,3.76-8.13,5.55-16.27,11.11-24.4,16.67-9.68,6.62-19.35,13.24-29.04,19.84-2.46,1.68-4.38,1.63-6.85-.07-1.94-1.34-3.87-2.68-5.81-4.01-14.17-9.66-28.33-19.32-42.5-28.98-3.49-2.38-6.98-4.77-10.48-7.14-1.1-.75-2.25-.56-3.06.44-.43.54-.54,1.14-.31,2.07.07.05.31.25.58.43,21.71,14.37,43.41,28.74,65.14,43.13Z" class="cls-1"/><path d="M95.72,157.71c-3.4-1.52-6.33-3.8-9.41-5.83-12.93-8.51-25.82-17.07-38.72-25.61-6.35-4.2-12.72-8.38-19.09-12.56-2.02-1.33-3.41-3.11-4.01-5.46-1.31-5.1,2.12-10.35,7.38-11.17,2.58-.4,4.89.22,7.02,1.68,19.01,12.97,38.01,25.95,57.02,38.92.36.24.72.48,1.11.73,2.42-1.65,4.8-3.27,7.17-4.89,13.44-9.18,26.87-18.36,40.31-27.54,3.75-2.56,7.51-5.13,11.27-7.69,1.59-1.08,3.31-1.71,5.26-1.68,4.14.08,7.9,3.59,8.27,7.7.32,3.58-1.12,6.27-4.02,8.26-2.73,1.88-5.47,3.72-8.21,5.59-15.81,10.8-31.62,21.6-47.43,32.39-2.67,1.82-5.32,3.67-8.02,5.44-1.02.67-2.17,1.14-3.27,1.7h-2.64ZM97.09,150.54c.34-.22.61-.38.87-.56,20.69-14.12,41.37-28.23,62.06-42.35.59-.4,1.2-.79,1.75-1.26.66-.56.74-1.25.3-1.92-.45-.69-1.25-.9-1.99-.52-.28.15-.54.34-.8.52-12.12,8.27-24.24,16.55-36.36,24.82-7.51,5.13-15.01,10.26-22.52,15.39-2.31,1.58-4.45,1.6-6.67.08-12.12-8.28-24.23-16.56-36.35-24.84-7.38-5.04-14.76-10.07-22.14-15.1-.36-.25-.73-.49-1.14-.65-1-.4-2.03,0-2.55.94-.5.9-.34,1.74.51,2.45.37.31.78.55,1.18.82,17.97,11.86,35.94,23.73,53.91,35.59,3.29,2.18,6.59,4.36,9.96,6.59Z" class="cls-1"/><path d="M96.73,9.36c2.19-.06,4.04.65,5.76,1.71,3.6,2.22,7.17,4.47,10.76,6.7,15.85,9.85,31.7,19.7,47.56,29.53,2.64,1.63,4.3,3.88,4.67,6.99.42,3.6-.85,6.54-3.79,8.62-4.36,3.08-8.81,6.05-13.22,9.07-14.78,10.11-29.6,20.17-44.33,30.36-4.28,2.96-9.95,2.99-14.21.06-5.39-3.71-10.88-7.26-16.33-10.88-13.53-8.97-27.04-17.97-40.61-26.88-5.75-3.77-5.92-12.01-1.44-16.09.61-.56,1.32-1.04,2.02-1.48,14.32-8.9,28.66-17.8,42.98-26.69,4.98-3.09,9.96-6.19,14.93-9.3,1.65-1.03,3.37-1.81,5.25-1.73ZM96.89,16.19c-.82.45-1.46.77-2.06,1.15-4.61,2.86-9.21,5.72-13.82,8.59-14.63,9.09-29.24,18.22-43.92,27.23-1.96,1.2-2.18,4.55-.12,5.67,1.43.78,2.74,1.78,4.1,2.68,13.53,8.97,27.06,17.94,40.59,26.9,4.16,2.75,8.32,5.49,12.46,8.27,1.01.67,2.06.96,3.26.93,1.26-.03,2.16-.73,3.11-1.38,17.09-11.68,34.18-23.37,51.26-35.05,1.91-1.31,3.83-2.59,5.72-3.93,1.42-1.01,1.4-2.67-.01-3.68-.26-.19-.54-.34-.81-.51-13.28-8.24-26.56-16.48-39.84-24.73-5.79-3.6-11.57-7.22-17.37-10.8-.8-.5-1.68-.87-2.57-1.33Z" class="cls-1"/></svg>