<?xml version="1.0" encoding="UTF-8"?>
<svg id="Layer_2" data-name="Layer 2" xmlns="http://www.w3.org/2000/svg" version="1.1" viewBox="0 0 191.78 163.91">
  <defs>
    <style>
      .cls-1 {
        fill: #000;
        stroke-width: 0px;
      }
    </style>
  </defs>
  <path class="cls-1" d="M17.77,82.78c.62-1.36,1.7-1.89,3.17-1.88,2.19.02,4.39-.09,6.58-.09,47.24,0,94.48,0,141.72,0,.64,0,1.28.01,1.91.08,1.51.15,2.57,1.12,2.86,2.62.1.54.15,1.11.15,1.66.03,3.35.03,6.71.05,10.06.02,2.65-1.45,4.01-4.11,3.94-2.99-.07-5.99-.03-8.98-.03-.15,0-.3.06-.57.11v1.43c0,15.01,0,30.03,0,45.04,0,.36.02.72,0,1.08-.09,1.57-1.17,2.68-2.73,2.8-.4.03-.8,0-1.2,0-39.49,0-78.99,0-118.48,0-.88,0-1.75.04-2.63.07-2.05.09-3.35-1.09-3.43-3.12-.01-.36,0-.72,0-1.08,0-14.7,0-29.39,0-44.09,0-.71-.08-1.42-.12-2.19-.4-.03-.71-.08-1.02-.08-3.07-.03-6.15-.08-9.22-.05-1.68.02-3.03-.48-3.95-1.93v-14.38ZM37.1,144.53h118.46v-1.5c0-15.13,0-30.27,0-45.4,0-.51,0-1.05.14-1.54.38-1.28,1.48-1.96,3.08-1.96,3-.01,5.99,0,8.99,0,.42,0,.85-.04,1.31-.06v-8.07c-1.54-.3-145.26-.2-146.24.09v8c.48,0,.91,0,1.34,0,3.23.02,6.47.02,9.7.05,1.96.02,3.2,1.19,3.21,2.96,0,1.63,0,3.26,0,4.9,0,13.66,0,27.31,0,40.97v1.58Z"/>
  <path class="cls-1" d="M158.84,75.11h-1.38c-11.66,0-23.32,0-34.98,0-1.58,0-1.64-.02-1.58-1.62.09-2.43.09-4.88.45-7.27.72-4.78,4.38-7.85,9.19-7.94,3.79-.07,7.58-.11,11.37-.11,2.51,0,5.02.1,7.54.16,4.86.1,8.17,3.51,8.94,7.69.37,2.02.34,4.12.46,6.19.05.9,0,1.81,0,2.9Z"/>
  <path class="cls-1" d="M115.44,75.11h-1.11c-11.62,0-23.23,0-34.85,0-.28,0-.6.08-.83-.03-.28-.13-.7-.42-.69-.62.09-3.29-.48-6.64.68-9.85,1.17-3.23,3.33-5.4,6.74-6.14.77-.17,1.58-.18,2.38-.18,5.19-.02,10.38-.02,15.57,0,1.47,0,2.98-.06,4.42.18,3.74.63,6.11,2.96,7.25,6.5,1.04,3.21.76,6.54.63,9.84,0,.07-.08.13-.19.3Z"/>
  <path class="cls-1" d="M53.31,75.11c-5.75,0-11.5,0-17.25,0-1.51,0-1.51,0-1.51-1.55,0-1.76-.06-3.51.01-5.27.12-2.97,1.03-5.64,3.26-7.72,1.49-1.38,3.27-2.15,5.29-2.21,3.43-.11,6.86-.18,10.29-.18,3.43,0,6.86.06,10.29.18,2.36.08,4.3,1.14,5.77,2.98,1.74,2.19,2.68,4.69,2.69,7.51,0,1.6.03,3.19.06,4.79.03,1.25-.15,1.46-1.42,1.46-5.83,0-11.66,0-17.49,0Z"/>
  <path class="cls-1" d="M99.01,27.89c0-4.53,3.77-8.31,8.29-8.34,4.49-.02,8.42,3.81,8.41,8.25-.01,5-4.32,8.38-8.4,8.35-4.85-.04-8.51-4.19-8.3-8.27Z"/>
  <path class="cls-1" d="M88.46,47.14c-.09-4.65,3.92-8.33,8.36-8.31,3.63.01,8.32,2.86,8.28,8.29-.04,5.41-4.45,8.36-8.39,8.33-4.56-.03-8.26-3.74-8.26-8.31Z"/>
  <path class="cls-1" d="M139.89,38.87c4.46-.17,8.34,3.82,8.34,8.24,0,4.09-3.61,8.36-8.46,8.34-4.52-.02-8.25-3.84-8.24-8.37,0-4.68,4.09-8.4,8.37-8.2Z"/>
  <path class="cls-1" d="M118.29,55.44c-4.17-.02-8.36-2.89-8.38-8.29-.02-5.35,4.33-8.39,8.35-8.3,4.61.11,8.28,3.73,8.23,8.32-.04,4.51-3.78,8.28-8.21,8.27Z"/>
  <path class="cls-1" d="M75.15,38.87c4.57-.17,8.3,3.8,8.28,8.38-.03,4.45-3.75,8.18-8.26,8.2-4.61.02-8.38-3.75-8.34-8.35.04-4.61,3.68-8.21,8.32-8.22Z"/>
  <path class="cls-1" d="M136.68,27.88c0,4.92-4.14,8.37-8.53,8.26-4.53-.11-8.06-3.67-8.05-8.32.01-4.56,3.73-8.25,8.31-8.27,4.5-.02,8.27,3.78,8.27,8.33Z"/>
  <path class="cls-1" d="M45.09,47c-.2-4.04,3.53-8.14,8.27-8.15,4.99-.01,8.32,4.26,8.3,8.4-.02,4.13-3.62,8.26-8.13,8.2-5.03-.06-8.61-4.29-8.44-8.45Z"/>
  <path class="cls-1" d="M94.45,27.83c.19,4.25-3.63,8.37-8.24,8.3-4.74-.07-8.27-3.58-8.27-8.36,0-4.53,3.81-8.28,8.37-8.23,4.52.05,8.15,3.74,8.14,8.28Z"/>
  <path class="cls-1" d="M72.16,27.99c.22,3.9-3.54,8.2-8.29,8.14-4.66-.06-8.23-3.61-8.22-8.28,0-4.63,3.76-8.37,8.41-8.28,5.35.1,8.37,4.71,8.1,8.43Z"/>
  <path class="cls-1" d="M95.67,93.33c0-.87-.02-1.61,0-2.36.04-1.52,1.13-2.65,2.53-2.64,1.41.01,2.44,1.12,2.47,2.68.01.71,0,1.43,0,2.32.48,0,.9,0,1.32,0,5.23,0,10.46,0,15.69,0,1.66,0,2.32.44,2.86,1.99,2.89,8.23,5.76,16.46,8.67,24.68.42,1.18.3,2.13-.54,3.08-2.27,2.57-4.89,4.56-8.34,5.25-3.38.68-6.36-.21-8.89-2.43-1.19-1.04-2.13-2.36-3.14-3.59-.66-.8-.68-1.69-.3-2.69,2.5-6.63,4.95-13.28,7.41-19.93.15-.4.29-.81.46-1.31h-15.13v37.18c.42,0,.84,0,1.26,0,2.48,0,4.95-.02,7.43,0,1.97.03,3.17,1.67,2.5,3.39-.34.88-.98,1.44-1.95,1.55-.43.05-.88.06-1.31.06-6.99,0-13.98,0-20.97,0-.36,0-.72,0-1.08-.03-1.4-.13-2.42-1.21-2.39-2.51.03-1.32,1.06-2.4,2.46-2.46,1.28-.06,2.56-.02,3.83-.02,1.67,0,3.34,0,5.08,0v-37.16h-14.17c.08.31.13.61.22.88,2.41,6.88,4.8,13.76,7.24,20.62.43,1.21.32,2.2-.56,3.19-2.05,2.31-4.39,4.16-7.42,5.02-3.11.88-6.01.41-8.68-1.36-1.75-1.16-3.14-2.7-4.29-4.46-.57-.88-.63-1.72-.26-2.71,2.35-6.22,4.65-12.46,6.97-18.69.69-1.87,1.4-3.73,2.1-5.59.52-1.39,1.46-2.02,3.02-2,4.83.06,9.66.02,14.5.02.43,0,.86,0,1.4,0ZM71.71,120.49c4.11,6.2,9.83,4.32,13.14.25-2.1-5.98-4.2-11.97-6.31-17.97-.08,0-.17.01-.25.02-2.2,5.91-4.4,11.83-6.59,17.7ZM112.02,120.5c3.97,5.93,9.61,4.54,13.14.23-2.1-5.98-4.21-11.99-6.32-18.01h-.21c-2.2,5.92-4.41,11.84-6.61,17.77Z"/>
</svg>