<svg xmlns="http://www.w3.org/2000/svg" version="1.1" viewBox="0 0 191.78 163.91"><defs><style>.cls-1{fill:#000}.cls-1,.cls-2,.cls-3{stroke-width:0}.cls-2{fill:#9e9e9e}.cls-3{fill:#fff}</style></defs><g id="Layer_1" data-name="Layer 1"><rect width="63.62" height="3.51" x="45.39" y="73.28" class="cls-2" rx="1.76" ry="1.76" transform="translate(154.41 150.08) rotate(180)"/><rect width="63.62" height="3.51" x="45.39" y="86.76" class="cls-2" rx="1.76" ry="1.76" transform="translate(154.41 177.04) rotate(-180)"/><rect width="37.86" height="3.51" x="69.2" y="61.18" class="cls-2" rx="1.76" ry="1.76"/><rect width="61.28" height="3.51" x="45.39" y="100.92" class="cls-2" rx="1.76" ry="1.76" transform="translate(152.06 205.36) rotate(-180)"/><rect width="61.28" height="3.51" x="45.39" y="113.87" class="cls-2" rx="1.76" ry="1.76" transform="translate(152.06 231.26) rotate(-180)"/><rect width="42.15" height="3.51" x="67.06" y="46.35" class="cls-2" rx="1.76" ry="1.76"/><polygon points="146.44 123.38 167.68 144.55 161.23 151.06 139.81 129.58 146.44 123.38" class="cls-3"/></g><g id="Layer_2" data-name="Layer 2"><path d="M162.26,156.52h-2.64c-.59-.47-1.22-.88-1.75-1.41-7.09-7.07-14.17-14.16-21.25-21.25-1.43-1.43-2.17-3.13-1.9-5.19.05-.39.15-.77.23-1.16-.09.07-.17.14-.26.21-.75-.9-1.51-1.79-2.39-2.84,0,1.78.03,3.34,0,4.89-.03,1.11-.07,2.24-.24,3.33-.86,5.5-4.03,9.15-9.13,11.17-2.19.87-4.51.95-6.83.95-26.94,0-53.88,0-80.83,0-1.07,0-2.15-.09-3.22-.19-5.76-.52-10.54-4.65-12.1-10.53-.17-.65-.33-1.3-.5-1.95,0-27.08,0-54.15,0-81.23.08-.26.19-.52.23-.78.68-5.04,2.45-9.64,5.66-13.62,2-2.48,4.11-4.88,6.23-7.27,3.64-4.13,7.28-8.26,11.01-12.31,3.4-3.68,7.9-4.93,12.7-5.27,2.07-.15,4.15-.03,6.23-.03,18.33,0,36.65,0,54.98.01,1.23,0,2.48.05,3.69.25,4.7.78,8.27,3.18,10.47,7.48,1.24,2.43,1.68,5.03,1.68,7.75-.02,13.01,0,26.03,0,39.04,0,.48,0,.95,0,1.42,6.91,5.8,11.19,13.08,12.39,22.01,1.2,8.9-.92,17.07-5.89,24.31,1.62,1.62,3.17,3.16,4.72,4.71.64-.06,1.39-.19,2.14-.17,1.87.05,3.3,1.04,4.57,2.32,7.03,7.03,14.06,14.06,21.09,21.09.2.2.39.4.59.6.89.88.84,3.54-.2,4.53-2.51,2.4-4.92,4.9-7.39,7.34-.64.63-1.37,1.18-2.06,1.77ZM76.6,95.58h-1.48c-8.91,0-17.81,0-26.72,0-2.42,0-3.82-1.36-3.85-3.74-.03-1.88-.03-3.75.01-5.63.01-.58.1-1.22.35-1.73.67-1.4,1.86-1.98,3.4-1.98,9.7.01,19.41,0,29.11,0h1.44c3.71-9.42,10.26-16.09,19.58-19.73,9.34-3.65,18.7-3,27.88,1.32,0-.63,0-1.06,0-1.5,0-11.46,0-22.92-.01-34.38,0-1.07-.05-2.17-.25-3.21-.64-3.27-2.45-5.61-5.77-6.49-1.22-.32-2.52-.48-3.78-.48-18.37-.03-36.74-.02-55.11-.02-1.1,0-2.21.07-3.39.12v1.41c0,9.46,0,18.93,0,28.39,0,.78-.06,1.52-.55,2.16-.68.89-1.58,1.24-2.71,1.24-9.22-.02-18.45-.01-27.67-.01h-1.47c-.07,1.01-.18,1.88-.19,2.76-.01,1.64.05,3.27.05,4.91-.01,5.95-.05,11.9-.06,17.85,0,17.57,0,35.14,0,52.71,0,.95.06,1.92.25,2.85.65,3.24,2.49,5.51,5.74,6.38,1.25.34,2.6.41,3.91.41,26.4.02,52.79.02,79.19.01,1.43,0,2.87-.06,4.3-.16,3.27-.22,6.16-2.57,7.05-5.75.74-2.65.38-5.35.46-8.06-11.26,5.04-22.28,4.98-32.88-1.27-10.66-6.29-15.96-15.98-16.85-28.38ZM126.29,69.88c-7.53-4.47-15.46-5.62-23.76-3.18-7.98,2.34-13.75,7.5-17.67,14.76-.69,1.29-1.19,2.7-1.64,4.09-.38,1.16-.57,2.38-.82,3.58-.23,1.09-.52,2.18-.62,3.28-.44,4.91.59,9.6,2.48,14.09,1.45,3.46,3.61,6.46,6.39,9,1.71,1.56,3.43,3.1,5.45,4.26,6.41,3.69,13.27,4.79,20.52,3.45,3.49-.64,6.7-1.98,9.67-3.89v-49.44ZM132.3,74.93v1.2c0,13.54,0,27.07-.01,40.61,0,.7.21,1.19.7,1.67,2.2,2.15,4.36,4.33,6.53,6.51,1.15,1.16,1.3,2.39.54,3.8-.23.43-.36.93-.45,1.15,7.24,7.23,14.34,14.32,21.25,21.22,2.11-1.98,4.28-4.03,6.49-6.1-.35-.37-.62-.66-.9-.94-3.34-3.32-6.68-6.64-10.02-9.97-3.17-3.16-6.32-6.32-9.49-9.49-.86-.86-1.36-.93-2.42-.37-1.47.78-2.64.64-3.8-.51-2.27-2.25-4.53-4.5-6.78-6.78-1.34-1.36-1.43-2.78-.25-4.28,1.56-1.98,2.87-4.11,3.86-6.44,2.17-5.07,2.94-10.33,2.13-15.78-.79-5.32-2.86-10.09-6.32-14.24-.3-.36-.6-.7-1.08-1.26ZM51.98,18.69c-1.83.44-3.33,1.21-4.6,2.41-.87.82-1.74,1.65-2.52,2.55-4.84,5.52-9.66,11.05-14.46,16.6-1.28,1.48-2.32,3.12-3.03,5.03h24.62v-26.59Z" class="cls-1"/></g></svg>